<?xml version="1.0" encoding="UTF-8"?>
<svg id="Calque_2" data-name="Calque 2" xmlns="http://www.w3.org/2000/svg" viewBox="0 0 500 41.42">
  <defs>
    <style>
      .first-name-1 {
        fill: #f8fbff;
      }

      .first-name-2 {
        fill: none;
      }
    </style>
  </defs>
  <g id="Header">
    <g>
      <rect class="first-name-2" width="132.11" height="41.42"/>
      <g>
        <path class="first-name-1" d="m9.63,12.28c0-.33.27-.63.63-.63h13.1c.37,0,.63.3.63.63v.96c0,.33-.27.63-.63.63h-11.17v9.11h9.54c.33,0,.63.3.63.63v.96c0,.33-.3.63-.63.63h-9.54v9.08c0,.33-.3.63-.63.63h-1.3c-.37,0-.63-.3-.63-.63V12.28Z"/>
        <path class="first-name-1" d="m26.38,22.26c0-.33.3-.63.63-.63h.63c.27,0,.5.17.57.47l.27.96s1.23-1.76,3.99-1.76c1,0,2.66.17,2.33,1.1l-.4,1.13c-.17.43-.47.43-.8.3-.3-.13-.8-.27-1.3-.27-2.53,0-3.62,1.86-3.62,1.86v8.88c0,.33-.3.63-.63.63h-1.03c-.33,0-.63-.3-.63-.63v-12.04Z"/>
        <path class="first-name-1" d="m42.94,21.3c3.49,0,6.02,2.59,6.02,6.09,0,.23-.03.67-.07.9-.03.33-.3.57-.6.57h-9.58c.13,2.23,2.09,4.32,4.46,4.32,1.4,0,2.53-.53,3.29-1,.47-.27.66-.43.93-.07.2.27.37.5.56.76.23.3.37.5-.13.86-.8.63-2.59,1.53-4.89,1.53-4.02,0-6.52-3.16-6.52-6.98s2.49-6.98,6.52-6.98Zm3.72,5.69c-.1-1.93-1.7-3.66-3.72-3.66-2.23,0-3.96,1.6-4.19,3.66h7.91Zm-7.18-11.44c-.13-.27,0-.53.2-.63l4.99-2.79c.2-.13.7-.2.86.1l.6,1.2c.13.27.07.6-.2.7l-5.35,2.23c-.47.2-.63.2-.76-.07l-.33-.73Z"/>
        <path class="first-name-1" d="m58,21.3c2.19,0,3.56.86,3.56.86v-9.88c0-.33.3-.63.63-.63h1.03c.33,0,.63.3.63.63v22.01c0,.33-.3.63-.63.63h-.7c-.3,0-.5-.23-.57-.53l-.2-.9s-1.6,1.76-4.09,1.76c-3.39,0-6.05-3.19-6.05-7.02s2.39-6.95,6.38-6.95Zm-.1,11.87c2.39,0,3.63-2.19,3.63-2.19v-6.65s-1.4-.8-3.23-.8c-2.89,0-4.36,2.09-4.36,4.76s1.53,4.89,3.96,4.89Z"/>
        <path class="first-name-1" d="m74.15,21.3c3.49,0,6.02,2.59,6.02,6.09,0,.23-.03.67-.07.9-.03.33-.3.57-.6.57h-9.58c.13,2.23,2.09,4.32,4.46,4.32,1.4,0,2.53-.53,3.29-1,.47-.27.66-.43.93-.07.2.27.37.5.56.76.23.3.37.5-.13.86-.8.63-2.59,1.53-4.89,1.53-4.02,0-6.52-3.16-6.52-6.98s2.49-6.98,6.52-6.98Zm3.72,5.69c-.1-1.93-1.7-3.66-3.72-3.66-2.23,0-3.96,1.6-4.19,3.66h7.91Zm-7.18-11.44c-.13-.27,0-.53.2-.63l4.99-2.79c.2-.13.7-.2.86.1l.6,1.2c.13.27.07.6-.2.7l-5.35,2.23c-.47.2-.63.2-.76-.07l-.33-.73Z"/>
        <path class="first-name-1" d="m83.79,22.26c0-.33.3-.63.63-.63h.63c.27,0,.5.17.57.47l.27.96s1.23-1.76,3.99-1.76c1,0,2.66.17,2.33,1.1l-.4,1.13c-.17.43-.47.43-.8.3-.3-.13-.8-.27-1.3-.27-2.53,0-3.63,1.86-3.63,1.86v8.88c0,.33-.3.63-.63.63h-1.03c-.33,0-.63-.3-.63-.63v-12.04Z"/>
        <path class="first-name-1" d="m94.43,13.91c0-.9.7-1.6,1.56-1.6s1.6.7,1.6,1.6-.7,1.56-1.6,1.56-1.56-.7-1.56-1.56Zm.47,8.35c0-.33.3-.63.63-.63h1.03c.33,0,.63.3.63.63v12.04c0,.33-.3.63-.63.63h-1.03c-.33,0-.63-.3-.63-.63v-12.04Z"/>
        <path class="first-name-1" d="m107.76,21.3c2,0,3.56.8,4.76,2.33.23.3.17.7-.13.93l-.63.53c-.5.47-.66.13-.96-.13-.67-.77-1.76-1.4-3.06-1.4-2.49,0-4.42,2.06-4.42,4.72s1.9,4.79,4.39,4.79c2,0,2.76-1,3.53-1.73.4-.4.63-.33,1-.07l.37.27c.33.23.43.6.23.93-1,1.6-2.83,2.79-5.09,2.79-3.69,0-6.82-2.96-6.82-6.95s3.23-7.02,6.85-7.02Z"/>
      </g>
    </g>
  </g>
</svg>