<?xml version="1.0" encoding="UTF-8"?>
<svg id="soft-skill" xmlns="http://www.w3.org/2000/svg" xmlns:xlink="http://www.w3.org/1999/xlink" viewBox="0 0 450.99 320.13" width="500">
  <defs>
    <style>
    
      .soft-skill__global-point {
        stroke: #bed62d;
        stroke-miterlimit: 10;
        stroke-width: 1.93px;
        fill: #f9faff;
      }

      .soft-skill__transverse-line {
        stroke: #f9faff;
        stroke-miterlimit: 10;
        stroke-width: .94px;
        fill: none;
      }

      .soft-skill__hexagon-line--extern,
      .soft-skill__hexagon-line--intern {
        display:none;
      }

      .soft-skill__hexagon-line--extern, 
      .soft-skill__hexagon-line--intern,
      .soft-skill__cross,
      .soft-skill__white-point  {
         fill: #f9faff;
      }

      .soft-skill__hexagon-line--center {    
        stroke: #f9faff;
        stroke-miterlimit: 10;
        stroke-width: .7px;
        fill: none;
      }

      .soft-skill__hexagon-background,
      .soft-skill__word {
        fill: #242c3f;
      }

      .soft-skill__lozenge-background, 
      .soft-skill__word--selected{
        fill: #bed62d;
      }

      .soft-skill__green-area {
        fill: transparent;
      }

    </style>
  </defs>
  <g class="soft-skill_container">

    <!--& WORD -> CREATIVE -->
    <g class="soft-skill__word__creative  soft-skill__word--selected">
      <path class="soft-skill__creative--letter" d="m198.09,49.2c.66.38,1.46.56,2.39.56.48,0,.96-.07,1.43-.2.47-.13.87-.32,1.21-.56.15-.11.25-.24.3-.39.05-.15.06-.29.02-.43-.03-.14-.1-.26-.2-.35s-.23-.15-.37-.16c-.15-.01-.32.04-.5.15-.28.17-.58.29-.89.37-.31.08-.63.12-.95.12-.6,0-1.11-.12-1.52-.37s-.73-.6-.94-1.08c-.21-.47-.32-1.04-.32-1.71s.11-1.25.32-1.71.52-.82.94-1.07c.41-.24.92-.37,1.52-.37.31,0,.62.04.93.11.3.08.59.2.85.37.19.12.36.17.51.16.16-.01.29-.07.39-.17.11-.1.18-.23.21-.37.03-.15.02-.3-.04-.46-.06-.16-.18-.29-.35-.4-.34-.22-.73-.39-1.18-.51-.45-.12-.9-.18-1.37-.18-.69,0-1.32.11-1.87.32s-1.02.52-1.4.93c-.38.4-.67.88-.87,1.45-.2.56-.3,1.19-.3,1.9,0,.94.18,1.75.53,2.44.35.69.86,1.22,1.53,1.6Z"/>
      <path class="soft-skill__creative--letter" d="m207.1,49.74c.27,0,.47-.07.61-.22.14-.15.2-.35.2-.61v-2.84h1.2c.32,0,.59.05.79.15.21.1.39.29.54.58l1.28,2.36c.11.2.24.35.38.45.14.1.33.15.56.15s.4-.05.52-.16c.12-.11.18-.24.19-.41,0-.17-.04-.34-.14-.52l-.95-1.76c-.19-.36-.42-.63-.68-.8-.12-.08-.25-.14-.39-.18.22-.05.43-.12.62-.2.46-.21.81-.52,1.05-.91s.36-.87.36-1.42c0-.85-.27-1.5-.8-1.97-.53-.47-1.29-.7-2.27-.7h-3.06c-.26,0-.47.07-.61.21-.14.14-.22.34-.22.61v7.38c0,.26.07.47.21.61.14.15.34.22.6.22Zm.81-7.76h1.98c.58,0,1.02.12,1.33.36s.45.6.45,1.07-.15.84-.45,1.08-.74.36-1.33.36h-1.98v-2.88Z"/>
      <path class="soft-skill__creative--letter" d="m217.19,49.64h4.53c.21,0,.37-.06.49-.16.11-.11.17-.27.17-.48s-.06-.37-.17-.48c-.11-.11-.28-.16-.49-.16h-3.83v-2.6h3.55c.22,0,.38-.06.49-.17s.16-.27.16-.48-.06-.37-.16-.48c-.11-.11-.27-.16-.49-.16h-3.55v-2.46h3.83c.21,0,.37-.06.49-.17.11-.11.17-.28.17-.49s-.06-.36-.17-.47c-.11-.11-.28-.16-.49-.16h-4.53c-.28,0-.49.07-.64.22s-.22.36-.22.64v7.22c0,.28.07.49.22.64s.36.22.64.22Z"/>
      <path class="soft-skill__creative--letter" d="m219.5,39.93c.1.07.21.11.33.1.12,0,.23-.06.34-.17l1.22-1.33c.11-.12.16-.24.15-.36,0-.12-.05-.23-.13-.33-.08-.1-.18-.17-.31-.22s-.26-.05-.39-.03c-.13.03-.24.12-.34.26l-.99,1.46c-.08.12-.1.23-.07.34.03.11.09.2.19.27Z"/>
      <path class="soft-skill__creative--letter" d="m225.17,49.74c.22,0,.39-.06.51-.16.12-.11.23-.29.34-.53l.62-1.47h4.36l.63,1.47c.1.24.22.41.35.53.13.11.31.17.55.17.19,0,.35-.04.47-.13.12-.09.19-.21.22-.37.03-.16,0-.34-.1-.53l-3.36-7.42c-.11-.25-.24-.42-.4-.53s-.33-.16-.53-.16-.38.05-.54.16c-.16.11-.29.28-.4.53l-3.35,7.42c-.08.2-.11.37-.09.53.03.16.1.28.22.37.12.09.29.14.49.14Zm3.64-7.28h.03l1.62,3.82h-3.25l1.6-3.82Z"/>
      <path class="soft-skill__creative--letter" d="m234.55,42.05h2.47v6.85c0,.26.07.47.21.61.14.15.34.22.6.22s.47-.07.61-.22c.13-.15.2-.35.2-.61v-6.85h2.47c.22,0,.39-.06.51-.18s.18-.29.18-.5-.06-.39-.18-.5-.29-.17-.51-.17h-6.57c-.22,0-.39.06-.51.17s-.18.28-.18.5.06.38.18.5.29.18.51.18Z"/>
      <path class="soft-skill__creative--letter" d="m244.9,49.74c.27,0,.47-.07.61-.22.13-.15.2-.35.2-.61v-7.47c0-.27-.07-.48-.21-.62-.14-.14-.34-.22-.6-.22s-.46.07-.6.22-.21.35-.21.62v7.47c0,.26.07.47.21.61.14.15.34.22.6.22Z"/>
      <path class="soft-skill__creative--letter" d="m249.85,49.74c.52,0,.79-.29.79-.86v-3.07h3.4c.21,0,.37-.06.49-.17s.17-.28.17-.49-.06-.36-.17-.47c-.11-.11-.28-.16-.49-.16h-3.4v-2.52h3.67c.22,0,.38-.06.49-.17.11-.11.16-.28.16-.49s-.06-.36-.16-.47c-.11-.11-.27-.16-.49-.16h-4.43c-.28,0-.49.07-.64.22s-.22.36-.22.64v7.32c0,.28.07.49.22.64.15.15.35.22.61.22Z"/>
    </g>

    <!--& WORD -> DISCREET -->
    <g class="soft-skill__word__discreet  soft-skill__word">
      <path class="soft-skill__word__discreet--letter" d="m329.3,119.57c0-1.44-.41-2.54-1.22-3.31-.82-.77-1.97-1.15-3.47-1.15h-2.46c-.28,0-.49.07-.64.22s-.22.36-.22.64v7.22c0,.28.07.49.22.64s.36.22.64.22h2.46c.75,0,1.42-.1,2-.3s1.07-.49,1.47-.87c.4-.38.71-.85.91-1.4.21-.55.31-1.19.31-1.91Zm-1.89,1.38c-.13.39-.32.72-.58.98-.26.26-.58.45-.96.58s-.84.2-1.36.2h-1.6v-6.25h1.6c1.03,0,1.81.26,2.32.77.52.52.77,1.3.77,2.35,0,.52-.06.98-.19,1.38Z"/>
      <path class="soft-skill__word__discreet--letter" d="m332.5,115.22c-.14.14-.21.35-.21.62v7.47c0,.26.07.47.21.61.14.15.34.22.6.22s.47-.07.61-.22c.13-.15.2-.35.2-.61v-7.47c0-.27-.07-.48-.21-.62-.14-.14-.34-.22-.6-.22s-.46.07-.6.22Z"/>
      <path class="soft-skill__word__discreet--letter" d="m342.86,123.44c.31-.24.54-.52.71-.85.17-.33.25-.7.25-1.1,0-.63-.2-1.14-.61-1.52-.41-.38-1.03-.66-1.87-.84l-1.38-.29c-.49-.1-.84-.24-1.04-.42-.2-.18-.3-.42-.3-.73,0-.27.07-.51.22-.7.15-.2.36-.35.64-.46.28-.11.61-.16,1-.16s.72.04,1.04.11.64.2.95.38c.18.1.34.14.48.13.14-.02.26-.07.35-.16.09-.09.15-.2.18-.34.03-.13.01-.26-.03-.4-.05-.13-.14-.25-.27-.34-.36-.25-.77-.43-1.23-.56-.46-.13-.94-.19-1.45-.19s-.99.07-1.41.2c-.43.13-.79.32-1.1.56-.31.25-.55.54-.72.87s-.25.71-.25,1.13c0,.66.2,1.19.59,1.59.39.4.99.69,1.79.86l1.4.29c.52.11.89.25,1.11.42.22.17.32.4.32.7,0,.36-.15.65-.46.87-.3.22-.79.34-1.46.34-.46,0-.89-.05-1.31-.15s-.81-.26-1.18-.48c-.16-.1-.31-.14-.44-.11-.13.03-.25.09-.34.2-.09.11-.14.23-.16.37-.02.14,0,.28.06.42.06.14.16.27.32.37.26.17.56.31.89.42.33.11.68.2,1.05.25.37.05.74.08,1.12.08.54,0,1.03-.06,1.46-.19.43-.13.8-.31,1.11-.55Z"/>
      <path class="soft-skill__word__discreet--letter" d="m346.26,119.57c0,.94.18,1.75.53,2.44.36.69.86,1.22,1.53,1.6.66.38,1.46.56,2.39.56.48,0,.96-.07,1.43-.2.47-.13.87-.32,1.21-.56.15-.11.25-.24.3-.39.05-.15.06-.29.03-.43-.03-.14-.1-.26-.2-.35s-.23-.15-.37-.16c-.15-.01-.32.04-.5.15-.28.17-.57.29-.89.37-.31.08-.63.12-.95.12-.6,0-1.11-.12-1.52-.37s-.73-.6-.94-1.08c-.21-.47-.32-1.04-.32-1.71s.11-1.25.32-1.71c.21-.47.52-.82.94-1.07.41-.24.92-.37,1.52-.37.31,0,.62.04.93.11.3.08.59.2.85.37.19.12.36.17.51.16.16-.01.29-.07.39-.17s.18-.23.21-.37c.03-.15.02-.3-.04-.46-.06-.16-.18-.29-.36-.4-.34-.22-.73-.39-1.18-.51-.45-.12-.9-.18-1.37-.18-.69,0-1.32.11-1.87.32-.55.22-1.02.52-1.4.93-.38.4-.67.88-.87,1.45-.2.56-.3,1.19-.3,1.9Z"/>
      <path class="soft-skill__word__discreet--letter" d="m363.11,119.21c.24-.4.36-.87.36-1.42,0-.85-.27-1.5-.8-1.97s-1.29-.7-2.27-.7h-3.06c-.26,0-.47.07-.61.21-.14.14-.22.34-.22.61v7.38c0,.26.07.47.21.61.14.15.34.22.6.22s.47-.07.61-.22c.13-.15.2-.35.2-.61v-2.84h1.2c.32,0,.59.05.79.15.21.1.39.29.54.58l1.28,2.36c.11.2.24.35.38.45.14.1.33.15.56.15s.4-.05.52-.16c.12-.11.18-.24.19-.41,0-.17-.04-.34-.14-.52l-.95-1.76c-.19-.36-.42-.63-.68-.8-.12-.08-.25-.14-.39-.18.22-.05.43-.12.62-.2.46-.21.8-.52,1.05-.91Zm-1.66-.3c-.3.24-.74.36-1.33.36h-1.98v-2.88h1.98c.58,0,1.02.12,1.33.36.3.24.45.6.45,1.07s-.15.84-.45,1.08Z"/>
      <path class="soft-skill__word__discreet--letter" d="m366.57,123.19c0,.28.07.49.22.64.15.15.36.22.64.22h4.53c.21,0,.37-.06.49-.16.11-.11.17-.27.17-.48s-.06-.37-.17-.48c-.11-.11-.28-.16-.49-.16h-3.83v-2.6h3.55c.22,0,.38-.06.49-.17.11-.11.17-.27.17-.48s-.06-.37-.17-.48-.27-.16-.49-.16h-3.55v-2.46h3.83c.21,0,.37-.06.49-.17.11-.11.17-.28.17-.49s-.06-.36-.17-.47c-.11-.11-.28-.16-.49-.16h-4.53c-.28,0-.49.07-.64.22-.15.15-.22.36-.22.64v7.22Z"/>
      <path class="soft-skill__word__discreet--letter" d="m374.59,115.28c-.12.11-.18.28-.18.5s.06.38.18.5.29.18.51.18h2.47v6.85c0,.26.07.47.21.61.14.15.34.22.6.22s.47-.07.61-.22c.13-.15.2-.35.2-.61v-6.85h2.47c.22,0,.39-.06.51-.18s.18-.29.18-.5-.06-.39-.18-.5-.29-.17-.51-.17h-6.57c-.22,0-.39.06-.51.17Z"/>
    </g>

    <!--& WORD -> KEEN -->
    <g class="soft-skill__word__keen  soft-skill__word--selected">
      <path class="soft-skill__word__keen--letter" d="m326.5,196.37h-3.06c-.26,0-.47.07-.61.21-.14.14-.22.34-.22.61v7.38c0,.26.07.47.21.61.14.15.34.22.6.22s.47-.07.61-.22c.14-.15.2-.35.2-.61v-2.61h2.26c.98,0,1.74-.25,2.27-.74.53-.49.8-1.18.8-2.06s-.27-1.56-.8-2.05c-.53-.49-1.29-.74-2.27-.74Zm1.05,3.92c-.3.26-.73.39-1.31.39h-2v-3.03h2c.57,0,1.01.13,1.31.38.3.25.44.63.44,1.13s-.15.88-.44,1.14Z"/>
      <path class="soft-skill__word__keen--letter" d="m332.87,203.24h4.36l.63,1.47c.1.24.22.41.35.53.13.11.32.17.55.17.19,0,.35-.04.47-.13.12-.09.19-.21.22-.37.03-.16,0-.34-.1-.53l-3.36-7.42c-.11-.25-.24-.42-.4-.53-.16-.11-.33-.16-.53-.16s-.38.05-.54.16c-.16.11-.29.28-.4.53l-3.35,7.42c-.08.2-.11.37-.09.53.03.16.1.28.22.37.12.09.28.14.49.14.22,0,.39-.06.51-.16.12-.11.23-.29.34-.53l.62-1.47Zm2.17-5.11h.03l1.62,3.82h-3.25l1.6-3.82Z"/>
      <path class="soft-skill__word__keen--letter" d="m345.07,205.43c.54,0,1.03-.06,1.46-.19.43-.13.8-.31,1.11-.55.31-.24.54-.52.71-.85.17-.33.25-.7.25-1.1,0-.63-.2-1.14-.61-1.52-.41-.38-1.03-.66-1.87-.84l-1.38-.29c-.49-.1-.84-.24-1.04-.42-.2-.18-.3-.42-.3-.73,0-.27.07-.51.22-.7.15-.2.36-.35.64-.46.28-.11.61-.16,1-.16s.72.04,1.04.11.64.2.95.38c.18.1.34.14.48.13.14-.02.26-.07.35-.16.09-.09.15-.2.18-.34.03-.13.01-.26-.03-.4-.05-.13-.14-.25-.27-.34-.36-.25-.77-.43-1.23-.56-.46-.13-.94-.19-1.45-.19s-.99.07-1.41.2c-.43.13-.79.32-1.1.56-.31.25-.55.54-.72.87s-.25.71-.25,1.13c0,.66.2,1.19.59,1.59.39.4.99.69,1.79.86l1.4.29c.52.11.89.25,1.11.42.22.17.32.4.32.7,0,.36-.15.65-.46.87-.3.22-.79.34-1.46.34-.46,0-.89-.05-1.31-.15s-.81-.26-1.18-.48c-.16-.1-.31-.14-.44-.11-.13.03-.25.09-.34.2-.09.11-.14.23-.16.37-.02.14,0,.28.06.42.06.14.16.27.32.37.26.17.56.31.89.42.33.11.68.2,1.05.25.37.05.74.08,1.12.08Z"/>
      <path class="soft-skill__word__keen--letter" d="m353.3,205.35c.37.05.74.08,1.12.08.54,0,1.03-.06,1.46-.19.43-.13.8-.31,1.11-.55.31-.24.55-.52.71-.85.16-.33.25-.7.25-1.1,0-.63-.2-1.14-.61-1.52-.41-.38-1.03-.66-1.87-.84l-1.38-.29c-.49-.1-.84-.24-1.04-.42-.2-.18-.3-.42-.3-.73,0-.27.07-.51.22-.7.15-.2.36-.35.64-.46.28-.11.61-.16,1-.16s.72.04,1.04.11.64.2.95.38c.18.1.34.14.48.13.14-.02.26-.07.35-.16s.15-.2.18-.34c.03-.13.01-.26-.03-.4-.05-.13-.14-.25-.27-.34-.36-.25-.77-.43-1.23-.56-.46-.13-.94-.19-1.45-.19s-.99.07-1.41.2c-.43.13-.8.32-1.1.56-.31.25-.55.54-.72.87-.17.34-.25.71-.25,1.13,0,.66.2,1.19.59,1.59.39.4.99.69,1.79.86l1.4.29c.52.11.89.25,1.11.42s.32.4.32.7c0,.36-.15.65-.46.87-.3.22-.79.34-1.46.34-.46,0-.89-.05-1.31-.15s-.81-.26-1.18-.48c-.16-.1-.31-.14-.44-.11-.14.03-.25.09-.34.2-.09.11-.14.23-.16.37s0,.28.06.42.16.27.32.37c.26.17.56.31.89.42.33.11.68.2,1.05.25Z"/>
      <path class="soft-skill__word__keen--letter" d="m360.89,196.48c-.14.14-.21.35-.21.62v7.47c0,.26.07.47.21.61.14.15.34.22.6.22s.47-.07.61-.22c.13-.15.2-.35.2-.61v-7.47c0-.27-.07-.48-.21-.62-.14-.14-.34-.22-.6-.22s-.46.07-.6.22Z"/>
      <path class="soft-skill__word__keen--letter" d="m371.38,205.11c.53-.22.98-.53,1.36-.93.38-.41.67-.89.87-1.46.2-.57.3-1.2.3-1.9,0-.93-.18-1.74-.53-2.42-.35-.68-.85-1.21-1.5-1.59-.64-.38-1.4-.56-2.27-.56-.65,0-1.24.11-1.77.32-.53.22-.98.52-1.36.93-.38.4-.67.88-.87,1.45-.2.56-.3,1.19-.3,1.9,0,.93.18,1.74.53,2.43.36.69.86,1.22,1.5,1.6.65.38,1.4.57,2.26.57.65,0,1.24-.11,1.77-.32Zm-4.37-4.28c0-.68.1-1.25.31-1.73.21-.48.51-.84.89-1.09s.85-.37,1.4-.37c.83,0,1.47.28,1.92.84.45.56.68,1.34.68,2.36,0,.67-.1,1.24-.31,1.72-.21.48-.5.85-.89,1.1-.39.25-.85.38-1.4.38-.82,0-1.46-.28-1.92-.85-.46-.57-.68-1.35-.68-2.36Z"/>
      <path class="soft-skill__word__keen--letter" d="m383.12,196.47c-.13.14-.2.33-.2.57v5.57l-4.53-5.87c-.14-.17-.25-.29-.35-.36-.1-.07-.24-.11-.44-.11-.21,0-.38.07-.51.21-.13.14-.2.34-.2.6v7.55c0,.25.07.45.2.58.13.13.32.2.56.2s.43-.07.56-.2.19-.33.19-.58v-5.59l4.53,5.89c.13.17.26.29.37.37.11.08.27.11.46.11s.36-.07.48-.2c.12-.13.18-.32.18-.56v-7.61c0-.25-.06-.44-.19-.57-.13-.13-.31-.2-.56-.2s-.43.07-.56.2Z"/>
      <path class="soft-skill__word__keen--letter" d="m388.49,205.41c.24,0,.43-.07.56-.2.13-.13.19-.33.19-.58v-5.59l4.53,5.89c.13.17.26.29.37.37.11.08.27.11.46.11s.36-.07.48-.2.18-.32.18-.56v-7.61c0-.25-.06-.44-.19-.57-.13-.13-.31-.2-.56-.2s-.43.07-.56.2c-.13.14-.2.33-.2.57v5.57l-4.53-5.87c-.13-.17-.25-.29-.35-.36s-.24-.11-.44-.11c-.21,0-.38.07-.51.21-.13.14-.2.34-.2.6v7.55c0,.25.07.45.2.58s.32.2.56.2Z"/>
      <path class="soft-skill__word__keen--letter" d="m401.72,195.6c.1.07.21.11.33.1.12,0,.23-.06.34-.17l1.22-1.33c.11-.12.16-.24.15-.36,0-.12-.05-.23-.13-.33-.08-.1-.18-.17-.31-.22s-.26-.05-.39-.03c-.13.03-.24.12-.34.26l-.99,1.46c-.08.12-.1.23-.07.34.03.11.09.2.19.27Z"/>
      <path class="soft-skill__word__keen--letter" d="m399.42,205.31h4.53c.21,0,.37-.06.49-.16.11-.11.17-.27.17-.48s-.06-.37-.17-.48c-.11-.11-.28-.16-.49-.16h-3.83v-2.6h3.55c.22,0,.38-.06.49-.17s.16-.27.16-.48-.06-.37-.16-.48c-.11-.11-.27-.16-.49-.16h-3.55v-2.46h3.83c.21,0,.37-.06.49-.17.11-.11.17-.28.17-.49s-.06-.36-.17-.47c-.11-.11-.28-.16-.49-.16h-4.53c-.28,0-.49.07-.64.22s-.22.36-.22.64v7.22c0,.28.07.49.22.64s.36.22.64.22Z"/>
    </g>

    <!--& WORD -> COLLABORATIVE -->
    <g class="soft-skill__word__collaborative  soft-skill__word">
      <path class="soft-skill__word__collaborative--letter" d="m172.59,279c.66.38,1.46.56,2.39.56.48,0,.96-.07,1.43-.2.47-.13.87-.32,1.21-.56.15-.11.25-.24.3-.39.05-.15.06-.29.02-.43-.03-.14-.1-.26-.2-.35s-.23-.15-.37-.16c-.15-.01-.32.04-.5.15-.28.17-.58.29-.89.37-.31.08-.63.12-.95.12-.6,0-1.11-.12-1.52-.37s-.73-.6-.94-1.08c-.21-.47-.32-1.04-.32-1.71s.11-1.25.32-1.71.52-.82.94-1.07c.41-.24.92-.37,1.52-.37.31,0,.62.04.93.11.3.08.59.2.85.37.19.12.36.17.51.16.16-.01.29-.07.39-.17.11-.1.18-.23.21-.37.03-.15.02-.3-.04-.46-.06-.16-.18-.29-.35-.4-.34-.22-.73-.39-1.18-.51-.45-.12-.9-.18-1.37-.18-.69,0-1.32.11-1.87.32s-1.02.52-1.4.93c-.38.4-.67.88-.87,1.45-.2.56-.3,1.19-.3,1.9,0,.94.18,1.75.53,2.44.35.69.86,1.22,1.53,1.6Z"/>
      <path class="soft-skill__word__collaborative--letter" d="m182.24,279c.65.38,1.4.57,2.26.57.65,0,1.24-.11,1.77-.32.53-.22.98-.53,1.36-.93.38-.41.67-.89.87-1.46.2-.57.3-1.2.3-1.9,0-.93-.18-1.74-.53-2.42s-.85-1.21-1.5-1.59c-.64-.38-1.4-.56-2.27-.56-.65,0-1.24.11-1.77.32-.53.22-.98.52-1.36.93-.38.4-.67.88-.87,1.45-.2.56-.3,1.19-.3,1.9,0,.93.18,1.74.53,2.43.35.69.86,1.22,1.5,1.6Zm-.03-5.76c.21-.48.5-.84.89-1.09.39-.25.85-.37,1.39-.37.83,0,1.47.28,1.92.84s.68,1.34.68,2.36c0,.67-.1,1.24-.31,1.72-.21.48-.5.85-.89,1.1-.38.25-.85.38-1.4.38-.82,0-1.46-.28-1.91-.85s-.68-1.35-.68-2.36c0-.68.1-1.25.31-1.73Z"/>
      <path class="soft-skill__word__collaborative--letter" d="m193.21,270.67c-.14-.14-.34-.21-.6-.21s-.46.07-.6.21-.21.34-.21.61v7.32c0,.26.07.47.22.62s.35.22.61.22h4.48c.23,0,.4-.06.53-.18s.18-.29.18-.51-.06-.39-.18-.51c-.12-.12-.3-.18-.53-.18h-3.68v-6.77c0-.27-.07-.48-.21-.61Z"/>
      <path class="soft-skill__word__collaborative--letter" d="m205.57,279.44c.23,0,.4-.06.53-.18s.18-.29.18-.51-.06-.39-.18-.51c-.12-.12-.3-.18-.53-.18h-3.68v-6.77c0-.27-.07-.48-.21-.61-.14-.14-.34-.21-.6-.21s-.46.07-.6.21-.21.34-.21.61v7.32c0,.26.07.47.22.62s.35.22.61.22h4.48Z"/>
      <path class="soft-skill__word__collaborative--letter" d="m208.64,279.54c.22,0,.39-.06.51-.16.12-.11.23-.29.34-.53l.62-1.47h4.36l.63,1.47c.1.24.22.41.35.53.13.11.32.17.55.17.19,0,.35-.04.47-.13.12-.09.19-.21.22-.37.03-.16,0-.34-.1-.53l-3.36-7.42c-.11-.25-.24-.42-.4-.53-.16-.11-.33-.16-.53-.16s-.38.05-.54.16c-.16.11-.29.28-.4.53l-3.35,7.42c-.08.2-.11.37-.09.53.03.16.1.28.22.37.12.09.28.14.49.14Zm3.64-7.28h.03l1.62,3.82h-3.25l1.6-3.82Z"/>
      <path class="soft-skill__word__collaborative--letter" d="m219.55,270.72c-.15.15-.22.36-.22.64v7.22c0,.28.07.49.22.64s.36.22.64.22h3.18c.96,0,1.7-.22,2.24-.65.54-.44.8-1.05.8-1.85,0-.61-.17-1.1-.52-1.48-.28-.3-.64-.51-1.1-.63.37-.14.68-.35.92-.64.31-.37.47-.83.47-1.37,0-.48-.12-.9-.35-1.24-.23-.35-.57-.61-1.01-.8-.44-.19-.97-.28-1.6-.28h-3.04c-.28,0-.49.07-.64.22Zm1.34,1.01h2.07c.56,0,.97.11,1.25.32.27.22.41.53.41.96s-.14.74-.41.96-.69.32-1.25.32h-2.07v-2.56Zm0,3.79h2.28c.57,0,1,.11,1.27.33s.41.56.41,1.01-.14.78-.41,1.01-.69.34-1.27.34h-2.28v-2.69Z"/>
      <path class="soft-skill__word__collaborative--letter" d="m236.53,278.31c.38-.41.67-.89.87-1.46.2-.57.3-1.2.3-1.9,0-.93-.18-1.74-.53-2.42s-.85-1.21-1.5-1.59c-.64-.38-1.4-.56-2.27-.56-.65,0-1.24.11-1.77.32-.53.22-.98.52-1.36.93-.38.4-.67.88-.87,1.45-.2.56-.3,1.19-.3,1.9,0,.93.18,1.74.53,2.43.35.69.86,1.22,1.5,1.6.65.38,1.4.57,2.26.57.65,0,1.24-.11,1.77-.32.53-.22.98-.53,1.36-.93Zm-1.73-.52c-.38.25-.85.38-1.4.38-.82,0-1.46-.28-1.91-.85s-.68-1.35-.68-2.36c0-.68.1-1.25.31-1.73.21-.48.5-.84.89-1.09.39-.25.85-.37,1.39-.37.83,0,1.47.28,1.92.84s.68,1.34.68,2.36c0,.67-.1,1.24-.31,1.72-.21.48-.5.85-.89,1.1Z"/>
      <path class="soft-skill__word__collaborative--letter" d="m247.6,279.38c.12-.11.18-.24.19-.41,0-.17-.04-.34-.14-.52l-.95-1.76c-.19-.36-.42-.63-.68-.8-.12-.08-.25-.14-.39-.18.22-.05.43-.12.62-.2.46-.21.81-.52,1.05-.91s.36-.87.36-1.42c0-.85-.27-1.5-.8-1.97-.53-.47-1.29-.7-2.27-.7h-3.06c-.26,0-.47.07-.61.21-.14.14-.22.34-.22.61v7.38c0,.26.07.47.21.61.14.15.34.22.6.22s.47-.07.61-.22c.14-.15.2-.35.2-.61v-2.84h1.2c.32,0,.59.05.79.15.21.1.39.29.54.58l1.28,2.36c.11.2.24.35.38.45.14.1.33.15.56.15s.4-.05.52-.16Zm-3.3-4.72h-1.98v-2.88h1.98c.58,0,1.02.12,1.33.36s.45.6.45,1.07-.15.84-.45,1.08-.74.36-1.33.36Z"/>
      <path class="soft-skill__word__collaborative--letter" d="m255.26,271.08c-.11-.25-.24-.42-.4-.53-.16-.11-.33-.16-.53-.16s-.38.05-.54.16c-.16.11-.29.28-.4.53l-3.35,7.42c-.08.2-.11.37-.09.53.03.16.1.28.22.37.12.09.28.14.49.14.22,0,.39-.06.51-.16.12-.11.23-.29.34-.53l.62-1.47h4.36l.63,1.47c.1.24.22.41.35.53.13.11.32.17.55.17.19,0,.35-.04.47-.13.12-.09.19-.21.22-.37.03-.16,0-.34-.1-.53l-3.36-7.42Zm-.95,1.18h.03l1.62,3.82h-3.25l1.6-3.82Z"/>
      <path class="soft-skill__word__collaborative--letter" d="m266.62,270.5h-6.57c-.22,0-.39.06-.51.17s-.18.28-.18.5.06.38.18.5.29.18.51.18h2.47v6.85c0,.26.07.47.21.61.14.15.34.22.6.22s.47-.07.61-.22c.13-.15.2-.35.2-.61v-6.85h2.47c.22,0,.39-.06.51-.18s.18-.29.18-.5-.06-.39-.18-.5-.29-.17-.51-.17Z"/>
      <path class="soft-skill__word__collaborative--letter" d="m270.4,270.4c-.26,0-.46.07-.6.22-.14.14-.21.35-.21.62v7.47c0,.26.07.47.21.61.14.15.34.22.6.22s.47-.07.61-.22c.14-.15.2-.35.2-.61v-7.47c0-.27-.07-.48-.21-.62-.14-.14-.34-.22-.6-.22Z"/>
      <path class="soft-skill__word__collaborative--letter" d="m279.8,271.79c.22,0,.38-.06.49-.17.11-.11.16-.28.16-.49s-.06-.36-.16-.47c-.11-.11-.27-.16-.49-.16h-4.43c-.28,0-.49.07-.64.22-.15.15-.22.36-.22.64v7.32c0,.28.07.49.22.64.15.15.35.22.61.22.52,0,.79-.29.79-.86v-3.07h3.4c.21,0,.37-.06.49-.17.11-.11.17-.28.17-.49s-.06-.36-.17-.47c-.11-.11-.28-.16-.49-.16h-3.4v-2.52h3.66Z"/>
    </g>

    <!--& WORD -> CURIOUS -->
    <g class="soft-skill__word__curious  soft-skill__word">
      <path class="soft-skill__word__curious--letter" d="m70.28,204.41c.66.38,1.46.56,2.39.56.48,0,.96-.07,1.43-.2.47-.13.87-.32,1.21-.56.15-.11.25-.24.3-.39.05-.15.06-.29.02-.43-.03-.14-.1-.26-.2-.35s-.23-.15-.37-.16c-.15-.01-.32.04-.5.15-.28.17-.58.29-.89.37-.31.08-.63.12-.95.12-.6,0-1.11-.12-1.52-.37s-.73-.6-.94-1.08c-.21-.47-.32-1.04-.32-1.71s.11-1.25.32-1.71.52-.82.94-1.07c.41-.24.92-.37,1.52-.37.31,0,.62.04.93.11.3.08.59.2.85.37.19.12.36.17.51.16.16-.01.29-.07.39-.17.11-.1.18-.23.21-.37.03-.15.02-.3-.04-.46-.06-.16-.18-.29-.35-.4-.34-.22-.73-.39-1.18-.51-.45-.12-.9-.18-1.37-.18-.69,0-1.32.11-1.87.32s-1.02.52-1.4.93c-.38.4-.67.88-.87,1.45-.2.56-.3,1.19-.3,1.9,0,.94.18,1.75.53,2.44.35.69.86,1.22,1.53,1.6Z"/>
      <path class="soft-skill__word__curious--letter" d="m80.56,204.73c.47.16,1.01.24,1.63.24.82,0,1.51-.14,2.07-.42.56-.28.98-.71,1.26-1.27.28-.57.42-1.26.42-2.09v-4.55c0-.28-.07-.49-.21-.62-.14-.13-.34-.2-.59-.2s-.46.07-.6.2c-.14.14-.21.34-.21.62v4.54c0,.8-.18,1.41-.54,1.81-.36.4-.9.6-1.6.6s-1.24-.2-1.6-.6c-.37-.4-.55-1-.55-1.81v-4.54c0-.28-.07-.49-.21-.62-.14-.13-.34-.2-.6-.2s-.46.07-.6.2c-.14.14-.21.34-.21.62v4.55c0,.63.08,1.18.24,1.65.16.47.4.87.72,1.19s.72.56,1.19.72Z"/>
      <path class="soft-skill__word__curious--letter" d="m89.18,196.73v7.38c0,.26.07.47.21.61.14.15.34.22.6.22s.47-.07.61-.22c.14-.15.2-.35.2-.61v-2.84h1.2c.32,0,.59.05.79.15.21.1.39.29.54.58l1.28,2.36c.11.2.24.35.38.45.14.1.33.15.56.15s.4-.05.52-.16c.12-.11.18-.24.19-.41,0-.17-.04-.34-.14-.52l-.95-1.76c-.19-.36-.42-.63-.68-.8-.12-.08-.25-.14-.39-.18.22-.05.43-.12.62-.2.46-.21.81-.52,1.05-.91s.36-.87.36-1.42c0-.85-.27-1.5-.8-1.97-.53-.47-1.29-.7-2.27-.7h-3.06c-.26,0-.47.07-.61.21-.14.14-.22.34-.22.61Zm1.62.46h1.98c.58,0,1.02.12,1.33.36s.45.6.45,1.07-.15.84-.45,1.08-.74.36-1.33.36h-1.98v-2.88Z"/>
      <path class="soft-skill__word__curious--letter" d="m99.43,196.02c-.14.14-.21.35-.21.62v7.47c0,.26.07.47.21.61.14.15.34.22.6.22s.47-.07.61-.22c.13-.15.2-.35.2-.61v-7.47c0-.27-.07-.48-.21-.62-.14-.14-.34-.22-.6-.22s-.46.07-.6.22Z"/>
      <path class="soft-skill__word__curious--letter" d="m110.19,204.2c0-.21-.06-.37-.17-.48-.11-.11-.28-.16-.49-.16h-3.83v-2.6h3.55c.22,0,.38-.06.49-.17s.16-.27.16-.48-.06-.37-.16-.48c-.11-.11-.27-.16-.49-.16h-3.55v-2.46h3.83c.21,0,.37-.06.49-.17.11-.11.17-.28.17-.49s-.06-.36-.17-.47c-.11-.11-.28-.16-.49-.16h-4.53c-.28,0-.49.07-.64.22s-.22.36-.22.64v7.22c0,.28.07.49.22.64s.36.22.64.22h4.53c.21,0,.37-.06.49-.16.11-.11.17-.27.17-.48Z"/>
      <path class="soft-skill__word__curious--letter" d="m120.53,196.63c0-.28-.07-.49-.21-.62-.14-.13-.34-.2-.59-.2s-.46.07-.6.2c-.14.14-.21.34-.21.62v4.54c0,.8-.18,1.41-.55,1.81-.36.4-.9.6-1.6.6s-1.24-.2-1.6-.6c-.37-.4-.55-1-.55-1.81v-4.54c0-.28-.07-.49-.21-.62-.14-.13-.34-.2-.6-.2s-.46.07-.6.2c-.14.14-.21.34-.21.62v4.55c0,.63.08,1.18.24,1.65.16.47.4.87.72,1.19s.72.56,1.19.72c.47.16,1.01.24,1.63.24.82,0,1.51-.14,2.07-.42.56-.28.98-.71,1.26-1.27.28-.57.42-1.26.42-2.09v-4.55Z"/>
      <path class="soft-skill__word__curious--letter" d="m127.88,200.3l2.5-3.35c.14-.19.21-.38.19-.55-.02-.17-.09-.31-.23-.42-.13-.11-.31-.16-.52-.16-.18,0-.33.04-.46.12-.13.08-.26.21-.4.4l-2.01,2.79-2.02-2.79c-.13-.19-.27-.32-.4-.4-.13-.08-.28-.12-.45-.12-.2,0-.37.06-.51.17-.14.11-.21.26-.23.43s.04.35.18.54l2.5,3.35-2.64,3.52c-.14.18-.19.35-.17.53s.1.32.23.43c.13.11.31.17.52.17.17,0,.32-.04.46-.13.13-.08.27-.22.41-.41l2.12-2.91,2.13,2.91c.14.19.28.32.41.41.13.08.28.13.44.13.22,0,.4-.06.53-.17.14-.11.21-.26.23-.43s-.04-.35-.18-.53l-2.63-3.52Z"/>
    </g>

    <!--& WORD -> AUTONOMOUS -->
    <g class="soft-skill__word__autonomous  soft-skill__word--selected">
      <path class="soft-skill__word__autonomous--letter" d="m55.68,115.38c-.11-.25-.24-.42-.4-.53-.16-.11-.33-.16-.53-.16s-.38.05-.54.16c-.16.11-.29.28-.4.53l-3.35,7.42c-.08.2-.11.37-.09.53.03.16.1.28.22.37.12.09.28.14.49.14.22,0,.39-.06.51-.16.12-.11.23-.29.34-.53l.62-1.47h4.36l.63,1.47c.1.24.22.41.35.53.13.11.32.17.55.17.19,0,.35-.04.47-.13.12-.09.19-.21.22-.37.03-.16,0-.34-.1-.53l-3.36-7.42Zm-.95,1.18h.03l1.62,3.82h-3.25l1.6-3.82Z"/>
      <path class="soft-skill__word__autonomous--letter" d="m68.39,114.7c-.26,0-.46.07-.6.2-.14.14-.21.34-.21.62v4.54c0,.8-.18,1.41-.54,1.81-.36.4-.9.6-1.6.6s-1.24-.2-1.6-.6c-.37-.4-.55-1-.55-1.81v-4.54c0-.28-.07-.49-.21-.62-.14-.13-.34-.2-.6-.2s-.46.07-.6.2c-.14.14-.21.34-.21.62v4.55c0,.63.08,1.18.24,1.65.16.47.4.87.72,1.19s.72.56,1.19.72c.47.16,1.01.24,1.63.24.82,0,1.51-.14,2.07-.42.56-.28.98-.71,1.26-1.27.28-.57.42-1.26.42-2.09v-4.55c0-.28-.07-.49-.21-.62-.14-.13-.34-.2-.59-.2Z"/>
      <path class="soft-skill__word__autonomous--letter" d="m78.67,114.8h-6.57c-.22,0-.39.06-.51.17s-.18.28-.18.5.06.38.18.5.29.18.51.18h2.47v6.85c0,.26.07.47.21.61.14.15.34.22.6.22s.47-.07.61-.22c.13-.15.2-.35.2-.61v-6.85h2.47c.22,0,.39-.06.51-.18s.18-.29.18-.5-.06-.39-.18-.5-.29-.17-.51-.17Z"/>
      <path class="soft-skill__word__autonomous--letter" d="m87.37,115.24c-.64-.38-1.4-.56-2.27-.56-.65,0-1.24.11-1.77.32-.53.22-.98.52-1.36.93-.38.4-.67.88-.87,1.45-.2.56-.3,1.19-.3,1.9,0,.93.18,1.74.53,2.43.36.69.86,1.22,1.5,1.6.65.38,1.4.57,2.26.57.65,0,1.24-.11,1.77-.32.53-.22.98-.53,1.36-.93.38-.41.67-.89.87-1.46.2-.57.3-1.2.3-1.9,0-.93-.18-1.74-.53-2.42-.35-.68-.85-1.21-1.5-1.59Zm.02,5.75c-.21.48-.5.85-.89,1.1-.39.25-.85.38-1.4.38-.82,0-1.46-.28-1.92-.85-.46-.57-.68-1.35-.68-2.36,0-.68.1-1.25.31-1.73.21-.48.51-.84.89-1.09s.85-.37,1.4-.37c.83,0,1.47.28,1.92.84.45.56.68,1.34.68,2.36,0,.67-.1,1.24-.31,1.72Z"/>
      <path class="soft-skill__word__autonomous--letter" d="m99.18,114.7c-.25,0-.43.07-.56.2-.13.14-.2.33-.2.57v5.57l-4.53-5.87c-.13-.17-.25-.29-.35-.36s-.24-.11-.44-.11c-.21,0-.38.07-.51.21-.13.14-.2.34-.2.6v7.55c0,.25.07.45.2.58s.32.2.56.2.43-.07.56-.2c.13-.13.19-.33.19-.58v-5.59l4.53,5.89c.13.17.26.29.37.37.11.08.27.11.46.11s.36-.07.48-.2.18-.32.18-.56v-7.61c0-.25-.06-.44-.19-.57-.13-.13-.31-.2-.56-.2Z"/>
      <path class="soft-skill__word__autonomous--letter" d="m109.5,115.24c-.64-.38-1.4-.56-2.27-.56-.65,0-1.24.11-1.77.32-.53.22-.98.52-1.36.93-.38.4-.67.88-.87,1.45-.2.56-.3,1.19-.3,1.9,0,.93.18,1.74.53,2.43.36.69.86,1.22,1.5,1.6.65.38,1.4.57,2.26.57.65,0,1.24-.11,1.77-.32.53-.22.98-.53,1.36-.93.38-.41.67-.89.87-1.46.2-.57.3-1.2.3-1.9,0-.93-.18-1.74-.53-2.42-.35-.68-.85-1.21-1.5-1.59Zm.02,5.75c-.21.48-.5.85-.89,1.1-.39.25-.85.38-1.4.38-.82,0-1.46-.28-1.92-.85-.46-.57-.68-1.35-.68-2.36,0-.68.1-1.25.31-1.73.21-.48.51-.84.89-1.09s.85-.37,1.4-.37c.83,0,1.47.28,1.92.84.45.56.68,1.34.68,2.36,0,.67-.1,1.24-.31,1.72Z"/>
      <path class="soft-skill__word__autonomous--letter" d="m122.83,114.7c-.21,0-.38.04-.49.12-.12.08-.23.22-.33.41l-2.93,5.42-2.93-5.42c-.1-.19-.21-.33-.34-.41-.12-.08-.29-.12-.5-.12-.24,0-.42.07-.56.2-.13.13-.2.32-.2.56v7.62c0,.24.06.42.19.56s.31.2.55.2.43-.07.55-.2.18-.32.18-.56v-5.33l2.38,4.32c.08.13.16.24.27.31.1.07.23.11.39.11s.29-.03.38-.1.18-.17.27-.32l2.38-4.35v5.36c0,.24.06.42.19.56.13.13.31.2.55.2s.43-.07.55-.2.18-.32.18-.56v-7.62c0-.25-.06-.43-.19-.56-.13-.13-.31-.2-.55-.2Z"/>
      <path class="soft-skill__word__autonomous--letter" d="m132.26,116.09c.21,0,.37-.06.49-.17.11-.11.17-.28.17-.49s-.06-.36-.17-.47c-.11-.11-.28-.16-.49-.16h-4.53c-.28,0-.49.07-.64.22s-.22.36-.22.64v7.22c0,.28.07.49.22.64s.36.22.64.22h4.53c.21,0,.37-.06.49-.16.11-.11.17-.27.17-.48s-.06-.37-.17-.48c-.11-.11-.28-.16-.49-.16h-3.83v-2.6h3.55c.22,0,.38-.06.49-.17s.16-.27.16-.48-.06-.37-.16-.48c-.11-.11-.27-.16-.49-.16h-3.55v-2.46h3.83Z"/>
    </g>

    <!--& ELEMENTS GRAPHICS -->
    <g>
      <!--? background -->
      <rect class="soft-skill__lozenge-background" x="144.59" y="79.16" width="161.82" height="161.82" rx="31.24" ry="31.24" transform="translate(179.23 -112.57) rotate(45)"/>

      <path class="soft-skill__hexagon-background" d="m141.1,130.69v58.75c0,11.97,6.39,23.04,16.76,29.03l50.88,29.37c10.37,5.99,23.15,5.99,33.52,0l50.88-29.37c10.37-5.99,16.76-17.05,16.76-29.03v-58.75c0-11.97-6.39-23.04-16.76-29.03l-50.88-29.37c-10.37-5.99-23.15-5.99-33.52,0l-50.88,29.37c-10.37,5.99-16.76,17.05-16.76,29.03Z"/>

      <!--? hexagon line -->
      <path class="soft-skill__hexagon-line--extern" d="m225.49,79.8c5.01,0,9.95,1.32,14.28,3.83l44.78,25.85c8.81,5.09,14.28,14.57,14.28,24.74v51.71c0,10.17-5.47,19.65-14.28,24.74l-44.78,25.85c-4.34,2.5-9.28,3.83-14.28,3.83s-9.95-1.32-14.28-3.83l-44.78-25.85c-8.81-5.09-14.28-14.57-14.28-24.74v-51.71c0-10.17,5.47-19.65,14.28-24.74l44.78-25.85c4.34-2.5,9.28-3.83,14.28-3.83m0-.94c-5.09,0-10.19,1.32-14.75,3.95l-44.78,25.85c-9.13,5.27-14.75,15.01-14.75,25.55v51.71c0,10.54,5.62,20.28,14.75,25.55l44.78,25.85c4.56,2.63,9.66,3.95,14.75,3.95s10.19-1.32,14.75-3.95l44.78-25.85c9.13-5.27,14.75-15.01,14.75-25.55v-51.71c0-10.54-5.62-20.28-14.75-25.55l-44.78-25.85c-4.56-2.63-9.66-3.95-14.75-3.95h0Z"/>

      <path class="soft-skill__hexagon-line--center" d="m174.2,142.22v35.7c0,7.28,3.88,14,10.19,17.64l30.92,17.85c6.3,3.64,14.07,3.64,20.37,0l30.92-17.85c6.3-3.64,10.19-10.36,10.19-17.64v-35.7c0-7.28-3.88-14-10.19-17.64l-30.92-17.85c-6.3-3.64-14.07-3.64-20.37,0l-30.92,17.85c-6.3,3.64-10.19,10.36-10.19,17.64Z"/>

      <path class="soft-skill__hexagon-line--intern" d="m225.49,129.8c1.88,0,3.72.5,5.35,1.43l16.95,9.78c3.3,1.9,5.35,5.45,5.35,9.26v19.57c0,3.81-2.05,7.36-5.35,9.26l-16.95,9.78c-1.62.94-3.47,1.43-5.35,1.43s-3.72-.5-5.35-1.43l-16.95-9.78c-3.3-1.9-5.35-5.45-5.35-9.26v-19.57c0-3.81,2.05-7.36,5.35-9.26l16.95-9.78c1.62-.94,3.47-1.43,5.35-1.43m0-.47c-1.93,0-3.86.5-5.58,1.5l-16.95,9.78c-3.45,1.99-5.58,5.68-5.58,9.67v19.57c0,3.99,2.13,7.67,5.58,9.67l16.95,9.78c1.73,1,3.65,1.5,5.58,1.5s3.86-.5,5.58-1.5l16.95-9.78c3.45-1.99,5.58-5.68,5.58-9.67v-19.57c0-3.99-2.13-7.67-5.58-9.67l-16.95-9.78c-1.73-1-3.65-1.5-5.58-1.5h0Z"/>

      <!--? transverse line -->
      <line class="soft-skill__transverse-line" x1="295.61" y1="119.58" x2="155.37" y2="200.55"/>
      <line class="soft-skill__transverse-line" x1="225.49" y1="241.03" x2="225.49" y2="79.1"/>
      <line class="soft-skill__transverse-line" x1="155.37" y1="119.58" x2="295.61" y2="200.55"/>

      <!--? central cross -->
      <circle class="soft-skill__cross" cx="225.49" cy="159.96" r="4.53"/>
      <path class="soft-skill__cross" d="m222.44,160.09l-4.84-4.84c-.32-.32-.32-.9,0-1.23l1.81-1.81c.32-.32.9-.32,1.23,0l4.84,4.84,4.87-4.87c.32-.32.87-.29,1.19.03l1.81,1.81c.32.32.35.87.03,1.19l-4.87,4.87,4.87,4.87c.32.32.29.87-.03,1.19l-1.81,1.81c-.32.32-.87.35-1.19.03l-4.87-4.87-4.8,4.8c-.32.32-.87.29-1.19-.03l-1.81-1.81c-.32-.32-.35-.87-.03-1.19l4.8-4.8Z"/>

      <!--? green area -->
      <path class="soft-skill__green-area" d="m225.48,79.33c16.19,17.57,32.37,35.13,48.56,52.7,7.19,22.84,14.37,45.68,21.56,68.52-23.37,5.2-46.75,10.39-70.12,15.59-16.19-9.35-32.37-18.69-48.56-28.04-7.19-22.84-14.37-45.68-21.56-68.53,23.37-13.42,46.75-26.83,70.12-40.25Z"/>

      <!--? global big point -->
      <circle class="soft-skill__global-point" cx="295.61" cy="119.58" r="4.02"/>
      <circle class="soft-skill__global-point" cx="225.49" cy="79.1" r="4.02"/>
      <circle class="soft-skill__global-point" cx="225.49" cy="241.03" r="4.02"/>
      <circle class="soft-skill__global-point" cx="295.61" cy="200.55" r="4.02"/>
      <circle class="soft-skill__global-point" cx="155.37" cy="200.55" r="4.02"/>
      <circle class="soft-skill__global-point" cx="155.37" cy="119.58" r="4.02"/>


      <!--? white small point -->
      <circle class="soft-skill__white-point" cx="225.49" cy="216.14" r="1.87"/>
      <circle class="soft-skill__white-point" cx="176.91" cy="188.1" r="1.87"/>
      <circle class="soft-skill__white-point" cx="274.03" cy="132.05" r="1.87"/>
    </g>
  </g>

</svg>