<?xml version="1.0" encoding="UTF-8"?>
<svg xmlns="http://www.w3.org/2000/svg" viewBox="0 0 332.72 457.12">
  <defs>
    <style>
      .alsace-1 {
        stroke-width: .5px;
      }

      .alsace-1, .alsace-2 {
        fill: none;
        stroke: #bed62d;
        stroke-miterlimit: 10;
      }

      .alsace-4 {
        fill: #bed62d;
      }

      .alsace-5 {
        fill: #f7f7f7;
      }
    </style>
  </defs>
  <g>
    <path class="alsace-region" d="m155.97,389.8c5.7,2.4,10.18,6.38,11.76,12.69.99,3.94-.05,7.2-3.31,10.13-1.41,1.27-1.37,4.21-1.81,6.43-.05.27,1.07,1.12,1.63,1.11,4.79-.14,7.19,3.75,10.31,6.24,2.02,1.62,3.46,4.02,4.97,6.2.52.75.77,1.95.61,2.85-1.14,6.6.57,8.76,7.77,8.83-.61,2.72-1.19,5.32-1.79,8.04,2.4,2.46,8.04-1.17,9.21,4.56l.67.25s.96-.37.93-.37c3.94-3.77,8.59-4.53,13.04-4.16,5.65.46,9.01-2.45,12.13-6.23,1.28-1.55,1.91-3.13-1.06-3.59-1.52-.24-1.65-1.24-1.05-2.46,1.4-2.84,3.72.61,5.33,1.43,2.97,1.89,5.36.71,5.55-2.76.05-.99.13-2.2-.35-2.97-1.65-2.66-.69-4.71,1.07-6.76.66-.76,1.27-1.6,1.77-2.48,1.54-2.76,3.58-4.88,6.69-5.51.2-4.85-2.43-8.41-4.67-12.2-1.71-2.9-2.95-6.1-4.27-9.23-1.04-2.46.31-4.37,1.98-5.88,1.67-1.5,1.75-2.91.96-4.88-2.1-5.17-1.95-10.38-.1-15.66.75-2.13,1.14-4.47,1.22-6.74.11-3.41-.38-6.79,2.35-9.63.72-.75.78-2.46.61-3.65-.38-2.63.27-4.86,1.62-7.09,3.49-5.8,3.23-8.07-1.28-13.05-2.31-2.56-3.78-5.33-3.27-9,.32-2.36-.19-4.84.14-7.2.35-2.48,1.26-4.89,1.95-7.32.15-.53.55-1.03.56-1.55.54-12.04,11.96-15.2,10.87-30.9-.17-2.62.77-4.54,3.68-5.35,4.04-1.12,4.84-2.86,3.32-6.83-2.3-6.03-1.93-11.73.71-17.68,1.32-2.97,1.06-6.63,1.62-9.96.2-1.2.37-2.92,1.17-3.42,4.29-2.71,4.07-6.98,2.99-10.61-2.27-7.68,2.06-13.74,3.95-20.4.17-.59.95-1.26,1.58-1.42,2.84-.75,4.18-2.94,5.82-5.12,2.46-3.25,5.51-6.06,8.19-9.16,1.2-1.6.35-3.96.11-5.79-.27-3.26.86-4.26,4-3.66,3.44.66,3.96.24,4.22-3.35.25-3.52.26-3.56,3.68-2.94,2.11.38,3.51-.56,4.09-2.41,3.3-10.47,4.93-21.73,11.69-30.71,1.04-1.42,2.57-2.47,4.45-4.2l.22-.54s-.14-.19-.14-.16c0,.61-13.88-1.75-15.18-2.24-4.9-1.86-9.46-5.04-14.05-7.56-.47-.26-1.06-.59-1.54-.51-4.16.67-5.83-2.61-8.08-4.99-.55,0-1.11,0-1.66,0-.92,1.47-2.38,2.32-4.04,2.69-.88.2-1.79.08-2.66.25-.91.18-1.77.7-2.67.98-.55.17-3.56-2.49-4.11-2.87-1.51-1.03-2.79-1.19-4.62-1.06-1.91.14-3.29,2.16-5,2.94-.72.33-2.3-.05-2.81-.66-1.49-1.8-3.57-1.76-4.58-.53-2.64,3.24-4.99,1.5-7.51.23-.41-.21-.78-.48-1.36-.84-3.49,4.09-7.21,7.94-8.65,13.5-.76,2.96-2.41,5.71-3.81,8.48-1.62,3.22-5.41.3-7.48-.15-1.34-.29-2.54.12-3.76-.73-.81-.57-1.09-2.14-2.04-2.27-.4-.05-.8.05-1.19.16-5.5,1.53-11.03,2.95-16.47,4.68-2.38.76-4.35.48-5.1-1.64-1.43-4.03-4.52-4.77-8.02-4.8-2.65-.02-4.38-1.22-5.58-3.37-.96-1.72-2.2-2.68-4.24-2.17-3.81.77-8.83-5.76-9.72-10.04-3.07.18-4.63,2.14-5.38,4.56-.98,3.14-1.74,6.4-2.17,9.66-.85,6.47-4.44,10.96-9.69,14.41-3.06,2.01-3.11,2.63-.4,5.13,3.33,3.06,7.53,4.24,11.8,4.98,3.07.53,6.04.77,7.04,4.43.07.27.53.44.9.72.77-.56,1.48-1.07,2.19-1.59.2.11.41.21.61.32-.83,2.33-1.66,4.67-2.74,7.72,1.55.52,3.42,1.86,4.91,1.51,4.46-1.05,4.43-5.3,5.32-8.98,2.36-.51,4.04.55,4.6,2.73.66,2.56,2.17,4.66,4.23,6.28,3.19,2.51,6.4,4.76,9.42,7.5.69.63,1.93,1.31,1.9,1.92-.05,1.03-.65,2.5-1.48,2.94-2.06,1.1-2.86,2.48-2.93,4.82-.03,1.11-1.16,2.34-2.07,3.25-1.11,1.12-3.57,1.09-2.96,3.6.74,3.05,3.19,5.63,5.56,5.85.89.08,1.8.01,2.89.01-.43,2.14-.49,4.1-3.07,4.76-.63.16-1.25,1.53-1.34,2.4-.52,5.08-.83,9.69-6.14,13.07-3.23,2.06-5.58,5.46-9.63,6.87-4.49,1.57-4.96,3.65-4.9,8.49.06,4.75-.74,9.51-1.17,14.26-.07.81-.56,1.83-.23,2.4,2.19,3.88.77,7.28-1.14,10.5,2.64,1.06,5.17,2.21,7.8,3.06.83.27,1.98-.09,2.87-.45,1.21-.48,2.33-1.9,3.57-.22,1.27,1.71,3.83,3.73,1.86,5.7-3.45,3.45-3.84,7.89-5.36,12.01-1.75,4.72-3.37,9.58-5.82,13.94-3.34,5.96-6.59,11.64-6.48,18.92.04,2.45-3.02,4.83-4.24,7.44-2.3,4.91-7.68,8.09-7.84,14.26-.03,1.16-1.63,2.22-2.24,3.45-.8,1.64-1.84,3.41-1.88,5.14-.06,2.99-.49,5.29-3.43,6.9-2.46,1.34-1.88,4.06-1.56,6.29.34,2.35,1,4.68,1.75,6.95.63,1.89.39,3.2-1.49,4.11-1.81.87-3.58,1.84-5.37,2.77v6.66c2.48.89,4.93,1.83,7.43,2.65,4.76,1.56,9.68,2.72,14.28,4.65Z"/>
    <g >
      <path class="alsace-4" d="m248.44,376.38c.04-.16.2-.27.35-.27h.31c.14,0,.29.1.33.21l3.87,10.77h.1l3.81-10.77c.04-.12.2-.21.33-.21h.31c.16,0,.31.12.35.27l2.52,13.14c.06.27-.06.47-.35.47h-.78c-.16,0-.31-.14-.35-.27l-1.74-10.07h-.08l-3.6,10.32c-.04.12-.21.21-.33.21h-.35c-.12,0-.29-.1-.33-.21l-3.64-10.32h-.08l-1.7,10.07c-.02.14-.2.27-.35.27h-.78c-.29,0-.41-.2-.35-.47l2.52-13.14Z"/>
      <path class="alsace-4" d="m262.83,382.53c0-.2.18-.37.37-.37h.63c.2,0,.37.18.37.37v4.12c0,1.49.67,2.21,1.76,2.21,1.49,0,2.33-1.11,2.33-1.11v-5.22c0-.2.18-.37.37-.37h.61c.2,0,.37.18.37.37v7.08c0,.2-.18.37-.37.37h-.37c-.21,0-.29-.14-.35-.33l-.14-.51s-.92,1.04-2.54,1.04c-2.27,0-3.03-1.47-3.03-3.54v-4.1Z"/>
      <path class="alsace-4" d="m272.42,376.67c0-.2.18-.37.37-.37h.61c.2,0,.37.18.37.37v12.94c0,.2-.18.37-.37.37h-.61c-.2,0-.37-.18-.37-.37v-12.94Z"/>
      <path class="alsace-4" d="m276.58,376.67c0-.2.18-.37.37-.37h.61c.2,0,.37.18.37.37v6.33s1.04-1.04,2.62-1.04c1.94,0,3.03,1.23,3.03,3.52v4.12c0,.2-.18.37-.37.37h-.62c-.2,0-.37-.18-.37-.37v-4.12c0-1.49-.67-2.21-1.76-2.21-1.49,0-2.52,1.09-2.52,1.09v5.24c0,.2-.18.37-.37.37h-.61c-.2,0-.37-.18-.37-.37v-12.94Z"/>
      <path class="alsace-4" d="m289.58,381.97c2.17,0,3.89,1.88,3.89,4.08s-1.72,4.12-3.89,4.12-3.89-1.88-3.89-4.12,1.72-4.08,3.89-4.08Zm0,6.94c1.43,0,2.54-1.27,2.54-2.85s-1.11-2.79-2.54-2.79-2.54,1.25-2.54,2.79,1.11,2.85,2.54,2.85Z"/>
      <path class="alsace-4" d="m295.58,382.53c0-.2.18-.37.37-.37h.63c.2,0,.37.18.37.37v4.12c0,1.49.67,2.21,1.76,2.21,1.49,0,2.33-1.11,2.33-1.11v-5.22c0-.2.18-.37.37-.37h.61c.2,0,.37.18.37.37v7.08c0,.2-.18.37-.37.37h-.37c-.21,0-.29-.14-.35-.33l-.14-.51s-.92,1.04-2.54,1.04c-2.27,0-3.03-1.47-3.03-3.54v-4.1Z"/>
      <path class="alsace-4" d="m304.69,388.89c.08-.12.21-.39.27-.49.1-.16.31-.2.53-.06,0,0,.84.68,1.84.68.8,0,1.27-.41,1.27-.94,0-.68-.59-1-1.72-1.56-1.04-.51-2.23-1.19-2.23-2.52,0-.82.66-2.03,2.48-2.03,1.02,0,1.8.35,2.17.61.18.12.24.39.12.61l-.16.31c-.12.21-.39.27-.57.18,0,0-.84-.47-1.56-.47-.88,0-1.11.45-1.11.78,0,.65.64.94,1.45,1.33,1.35.65,2.56,1.25,2.56,2.66,0,1.13-1.09,2.21-2.7,2.21-1.31,0-2.11-.55-2.54-.88-.1-.08-.16-.27-.1-.41Z"/>
      <path class="alsace-4" d="m315.38,381.97c2.05,0,3.54,1.52,3.54,3.58,0,.14-.02.39-.04.53-.02.2-.18.33-.35.33h-5.63c.08,1.31,1.23,2.54,2.62,2.54.82,0,1.49-.31,1.93-.59.27-.16.39-.25.55-.04.12.16.21.29.33.45.14.18.21.29-.08.51-.47.37-1.52.9-2.87.9-2.37,0-3.83-1.86-3.83-4.1s1.47-4.1,3.83-4.1Zm2.19,3.34c-.06-1.13-1-2.15-2.19-2.15-1.31,0-2.33.94-2.46,2.15h4.65Z"/>
    </g>
    <g>
      <g class="word-alsace">
        <path class="alsace-3" d="m163.49,50.26l15.73-33.83c.15-.3.5-.55.85-.55h.5c.35,0,.7.25.85.55l15.73,33.83c.3.65-.1,1.31-.85,1.31h-5.58c-.9,0-1.31-.3-1.76-1.26l-1.81-3.97h-13.67l-1.81,4.02c-.25.6-.8,1.21-1.81,1.21h-5.53c-.75,0-1.16-.65-.85-1.31Zm20.66-10.76l-3.82-8.29h-.05l-3.77,8.29h7.64Z"/>
        <path class="alsace-3" d="m199.38,17.34c0-.5.45-.96.96-.96h5.53c.5,0,.96.45.96.96v33.27c0,.5-.45.96-.96.96h-5.53c-.5,0-.96-.45-.96-.96V17.34Z"/>
        <path class="alsace-3" d="m211.19,49.36l1.76-3.47c.15-.3.65-.6,1.06-.4,0,0,2.36,1.31,4.52,1.31.5,0,.96-.3.96-.9,0-.5-.3-1.21-2.87-2.11-3.92-1.36-5.63-3.62-5.63-6.73,0-3.37,2.41-6.08,7.84-6.08,3.17,0,5.58.85,6.68,1.56.45.3.8.75.5,1.26l-1.86,3.42c-.15.3-.65.45-1.05.3,0,0-2.31-1.16-4.27-1.16-.65,0-1.11.15-1.11.7,0,.5.55,1,2.26,1.61,4.07,1.41,6.89,3.02,6.89,7.04,0,3.52-2.82,6.38-8.49,6.38-3.32,0-5.83-.85-6.84-1.66-.35-.3-.6-.6-.35-1.06Z"/>
        <path class="alsace-3" d="m236.92,38.7c2.26,0,3.87.8,3.87.8,0-1.96-.3-2.97-2.71-2.97-1.36,0-3.72.35-5.03.75-.75.25-1.11-.3-1.21-1.06l-.45-3.17c-.15-.85.3-1.21.75-1.36.45-.15,3.97-.75,6.68-.75,6.23,0,8.5,2.61,8.5,8.54v11.11c0,.5-.45.96-.96.96h-2.21c-.3,0-.65-.1-.9-.65l-.7-1.36c-1.16,1.06-2.92,2.51-6.08,2.51-3.97,0-6.94-2.66-6.94-6.63s2.81-6.74,7.39-6.74Zm1.31,8.44c1.21,0,2.21-1.01,2.21-2.21-.05-1.16-1-2.11-2.21-2.11s-2.16.96-2.16,2.11.96,2.21,2.16,2.21Z"/>
        <path class="alsace-3" d="m261.75,30.96c3.17,0,5.63,1.31,7.54,3.62.35.45.2,1-.25,1.41l-3.02,2.86c-.25.25-.85.15-1.11-.1-.7-.75-1.76-1.31-2.92-1.31-2.21,0-4.02,1.86-4.02,4.07s1.71,4.07,3.92,4.07c1.76,0,2.61-.75,3.42-1.56.35-.35.8-.45,1.11-.2l3.02,2.61c.45.4.7.91.35,1.41-1.86,2.82-4.47,4.22-8.09,4.22-5.73,0-10.81-4.52-10.81-10.56s5.13-10.55,10.86-10.55Z"/>
        <path class="alsace-3" d="m282.45,30.96c5.13,0,9.55,3.92,9.55,9.45,0,.35-.05,1-.1,1.36-.05.5-.5.85-.96.85h-12.06c.15,1.36,1.26,3.32,3.87,3.32,1.26,0,2.71-.6,3.52-1.21.45-.35.96-.35,1.26,0l2.51,3.02c.3.4.4,1.01-.05,1.46-1.76,1.76-4.27,2.87-7.44,2.87-5.98,0-10.5-4.78-10.5-10.56s4.47-10.55,10.4-10.55Zm2.46,7.74c-.1-1.31-1.36-2.36-2.66-2.36s-2.51,1.06-2.71,2.36h5.38Z"/>
      </g>
      <g>
        <rect class="alsace-4"  x="145.64" width="6.6" height="6.6"/>
        <rect class="alsace-4" x="224.87" width="6.6" height="6.6"/>
        <rect class="alsace-4" x="304.1" width="6.6" height="6.6"/>
        <rect class="alsace-4" x="145.64" y="35.22" width="6.6" height="6.6"/>
        <rect class="alsace-4" x="304.1" y="35.22" width="6.6" height="6.6"/>
        <rect class="alsace-4" x="145.64" y="70.43" width="6.6" height="6.6"/>
        <rect class="alsace-4" x="224.87" y="70.43" width="6.6" height="6.6"/>
        <rect class="alsace-4" x="304.1" y="70.43" width="6.6" height="6.6"/>
        <path class="alsace-4" d="m307.68,74.01h-159.02V3.3h.28v-.27h158.74v70.98Zm-158.47-.55h157.92V3.58h-157.92v69.88Z"/>
        <circle class="alsace-4" cx="329.42" cy="38.52" r="3.3"/>
        <line class="alsace-1" x1="307.02" y1="38.41" x2="329.42" y2="38.41"/>
        <circle class="alsace-4"  cx="228.17" cy="96.48" r="3.3"/>
        <line class="alsace-1" x1="228.17" y1="74.09" x2="228.17" y2="96.48"/>
      </g>
    </g>
    <g>
      <circle class="alsace-4" cx="207.38" cy="383.92" r="13.55"/>
      <line class="alsace-2 alsace-link" x1="3.91" y1="123.68" x2="207.38" y2="383.92"/>
      <circle class="alsace-4 alsace-link" cx="3.91" cy="123.68" r="3.91"/>
      <circle class="alsace-5" cx="207.38" cy="383.92" r="5.53"/>
    </g>
  </g>
</svg>