<?xml version="1.0" encoding="UTF-8"?>
<svg id="Calque_2" data-name="Calque 2" xmlns="http://www.w3.org/2000/svg" viewBox="0 0 173.24 311.86">
  <defs>
    <style>
      .nf-number-center-1 {
        fill: #4a63f4;
      }

      .nf-number-center-2 {
        fill: #c7e8ff;
      }

      .nf-number-center-3 {
        fill: #fff;
        opacity: .29;
      }
    </style>
  </defs>
  <g id="Calque_3" data-name="Calque 3">
    <g>
      <path class="nf-number-center-1" d="m86.62,0C67.94,0,52.16,4.4,39.28,13.2c-12.88,8.8-22.65,21.85-29.3,39.12C3.33,69.61,0,90.91,0,116.24c0,37.57,7.46,66.6,22.38,87.1,14.92,20.5,36.33,30.75,64.24,30.75,18.68,0,34.45-4.61,47.33-13.85,12.88-9.23,22.65-22.65,29.3-40.25,6.65-17.6,9.98-38.96,9.98-64.08,0-37.78-7.41-66.54-22.22-86.3C136.21,9.88,114.74,0,86.62,0Zm23.02,170.18c-5.05,11.27-12.72,16.9-23.02,16.9s-17.98-5.63-23.02-16.9c-5.05-11.27-7.57-29.35-7.57-54.26s2.52-42.34,7.57-52.97c5.04-10.63,12.72-15.94,23.02-15.94s17.98,5.31,23.02,15.94c5.04,10.63,7.57,28.29,7.57,52.97s-2.53,42.99-7.57,54.26Z"/>
      <path class="nf-number-center-2" d="m60,263.13c.21-.99.42-1.97.64-2.93,3.72-16.42,7.08-31.76,4.66-48.73-1.05-7.37-2.4-10.73-3.96-17.72-1.15-5.15-1.56-7.81-2.08-11.28-1.21-8.11-1.66-24.41-1.78-28.11-.12-3.6-.3-8.95-.58-15.54.44,1.61,1.12,4.12,1.91,7.21,2.19,8.57,2.25,9.89,3.22,12.33.64,1.61,3.3,7.8,8.91,11.48,9.42,6.19,21.47,1.55,22.65,1.08,13.07-5.25,18.1-19.51,20.67-26.78,1.27-3.61,1.97-6.73,2.36-8.88-.18,2.95-.3,7.38.08,12.77.21,2.91.49,5.02.71,6.77.81,6.27,1.42,12.57,2.18,18.84,1.49,12.37.1,28.44-1.4,45.7-.67,7.74-1.84,16.94-3.67,35.39-.57,5.76-1.14,11.53-1.71,17.29-.44,4.46-.51,7.96-1.17,14.9-.48,5.02-1.02,9.76-3.39,10.44,0,0-.68.2-1.4-.05-3.83-1.27-1.13-15.95-2.36-28.3-2.23-22.47-11.94-21.94-16.4-41.36-1.88-8.19-2.87-16.77-6.05-24.63-1.86-4.61-4.23-1.92-5.35,1.31-11.28,32.66-6.71,68.45-7.58,102.34-.03,1.25-.08,2.56-.7,3.65-1.91,3.34-4.18.47-5.3-1.51-7.57-13.27-6.15-30.99-3.11-45.68Zm43.55-47.83c4.66.55,7.73-3.2,7.88-11.98.14-8.47-1.02-15.33-6.97-15.73-5.21-.35-6.97,5.51-7.42,12.68-.08,8.19,1.46,14.42,6.51,15.02Zm-33.6-17.79c2.45.29,4.06-1.68,4.13-6.28.07-4.45-.54-8.04-3.66-8.25-2.73-.18-3.65,2.89-3.89,6.65-.04,4.3.77,7.57,3.42,7.88Z"/>
      <path class="nf-number-center-3" d="m150.26,29.62C135.45,9.88,113.98,0,85.86,0c-18.68,0-34.45,4.4-47.33,13.2-12.88,8.8-22.65,21.85-29.3,39.12-4.1,10.64-6.93,22.81-8.5,36.5,18.05.96,36.63,1.63,55.65,1.98,1.19-11.98,3.34-21.27,6.47-27.86,5.04-10.63,12.72-15.94,23.02-15.94s17.98,5.31,23.02,15.94c3.13,6.6,5.29,15.92,6.48,27.95,19.02-.29,37.62-.9,55.71-1.79-2.79-24.88-9.72-44.71-20.81-59.49Z"/>
    </g>
  </g>
</svg>