<svg class="element-svg" viewBox="0 0 644.88 617.76">
  <defs>
    <style>
      .gate-2 {
        clip-path: url(#clippath);
      }
    </style>
    <clipPath id="clippath">
      <rect class="gate-3" x="42.15" y="-22.3" width="560.59" height="662.36" rx="280.29" ry="280.29" transform="translate(397.14 -131.34) rotate(55.86)"/>
    </clipPath>
  </defs>
  <g>
      <g class="gate-2">
       
              <line class="gate-1" x1="-418.24" y1="-405.15" x2="1341.25" y2="447.76"/>
              <line class="gate-1" x1="-430.66" y1="-379.53" x2="1328.83" y2="473.38"/>
              <line class="gate-1" x1="-443.08" y1="-353.91" x2="1316.41" y2="499"/>
              <line class="gate-1" x1="-455.5" y1="-328.29" x2="1304" y2="524.62"/>
              <line class="gate-1" x1="-467.91" y1="-302.68" x2="1291.58" y2="550.23"/>
              <line class="gate-1" x1="-480.33" y1="-277.06" x2="1279.16" y2="575.85"/>
              <line class="gate-1" x1="-492.75" y1="-251.44" x2="1266.74" y2="601.47"/>
              <line class="gate-1" x1="-505.17" y1="-225.82" x2="1254.32" y2="627.09"/>
              <line class="gate-1" x1="-517.59" y1="-200.21" x2="1241.91" y2="652.7"/>
              <line class="gate-1" x1="-530" y1="-174.59" x2="1229.49" y2="678.32"/>
              <line class="gate-1" x1="-542.42" y1="-148.97" x2="1217.07" y2="703.94"/>
              <line class="gate-1" x1="-554.84" y1="-123.35" x2="1204.65" y2="729.56"/>
              <line class="gate-1" x1="-567.26" y1="-97.74" x2="1192.23" y2="755.17"/>
              <line class="gate-1" x1="-579.68" y1="-72.12" x2="1179.82" y2="780.79"/>
              <line class="gate-1" x1="-592.09" y1="-46.5" x2="1167.4" y2="806.41"/>
              <line class="gate-1" x1="-604.51" y1="-20.88" x2="1154.98" y2="832.03"/>
              <line class="gate-1" x1="-616.93" y1="4.73" x2="1142.56" y2="857.64"/>
              <line class="gate-1" x1="-629.35" y1="30.35" x2="1130.14" y2="883.26"/>
              <line class="gate-1" x1="-641.77" y1="55.97" x2="1117.73" y2="908.88"/>
              <line class="gate-1" x1="-654.18" y1="81.59" x2="1105.31" y2="934.5"/>
              <line class="gate-1" x1="-666.6" y1="107.2" x2="1092.89" y2="960.11"/>
              <line class="gate-1" x1="-679.02" y1="132.82" x2="1080.47" y2="985.73"/>
              <line class="gate-1" x1="-691.44" y1="158.44" x2="1068.05" y2="1011.35"/>
      

              <line class="gate-1" x1="566.69" y1="-694.61" x2="707.8" y2="1255.61"/>
              <line class="gate-1" x1="538.3" y1="-692.55" x2="679.4" y2="1257.67"/>
              <line class="gate-1" x1="509.9" y1="-690.5" x2="651.01" y2="1259.72"/>
              <line class="gate-1" x1="481.51" y1="-688.44" x2="622.61" y2="1261.78"/>
              <line class="gate-1" x1="453.11" y1="-686.39" x2="594.22" y2="1263.83"/>
              <line class="gate-1" x1="424.72" y1="-684.34" x2="565.82" y2="1265.88"/>
              <line class="gate-1" x1="396.32" y1="-682.28" x2="537.43" y2="1267.94"/>
              <line class="gate-1" x1="367.93" y1="-680.23" x2="509.04" y2="1269.99"/>
              <line class="gate-1" x1="339.54" y1="-678.17" x2="480.64" y2="1272.05"/>
              <line class="gate-1" x1="311.14" y1="-676.12" x2="452.25" y2="1274.1"/>
              <line class="gate-1" x1="282.75" y1="-674.06" x2="423.85" y2="1276.16"/>
              <line class="gate-1" x1="254.35" y1="-672.01" x2="395.46" y2="1278.21"/>
              <line class="gate-1" x1="225.96" y1="-669.95" x2="367.06" y2="1280.26"/>
              <line class="gate-1" x1="197.56" y1="-667.9" x2="338.67" y2="1282.32"/>
              <line class="gate-1" x1="169.17" y1="-665.85" x2="310.27" y2="1284.37"/>
              <line class="gate-1" x1="140.78" y1="-663.79" x2="281.88" y2="1286.43"/>
              <line class="gate-1" x1="112.38" y1="-661.74" x2="253.49" y2="1288.48"/>
              <line class="gate-1" x1="83.99" y1="-659.68" x2="225.09" y2="1290.54"/>
              <line class="gate-1" x1="55.59" y1="-657.63" x2="196.7" y2="1292.59"/>
              <line class="gate-1" x1="27.2" y1="-655.57" x2="168.3" y2="1294.65"/>
              <line class="gate-1" x1="-1.2" y1="-653.52" x2="139.91" y2="1296.7"/>
              <line class="gate-1" x1="-29.59" y1="-651.46" x2="111.51" y2="1298.75"/>
              <line class="gate-1" x1="-57.99" y1="-649.41" x2="83.12" y2="1300.81"/>
          

              <line class="gate-1" x1="1277.89" y1="-33.49" x2="-340.5" y2="1063.82"/>
              <line class="gate-1" x1="1261.91" y1="-57.05" x2="-356.48" y2="1040.26"/>
              <line class="gate-1" x1="1245.93" y1="-80.61" x2="-372.45" y2="1016.7"/>
              <line class="gate-1" x1="1229.96" y1="-104.18" x2="-388.43" y2="993.13"/>
              <line class="gate-1" x1="1213.98" y1="-127.74" x2="-404.41" y2="969.57"/>
              <line class="gate-1" x1="1198" y1="-151.3" x2="-420.38" y2="946.01"/>
              <line class="gate-1" x1="1182.03" y1="-174.87" x2="-436.36" y2="922.45"/>
              <line class="gate-1" x1="1166.05" y1="-198.43" x2="-452.34" y2="898.88"/>
              <line class="gate-1" x1="1150.08" y1="-221.99" x2="-468.31" y2="875.32"/>
              <line class="gate-1" x1="1134.1" y1="-245.55" x2="-484.29" y2="851.76"/>
              <line class="gate-1" x1="1118.12" y1="-269.12" x2="-500.26" y2="828.19"/>
              <line class="gate-1" x1="1102.15" y1="-292.68" x2="-516.24" y2="804.63"/>
              <line class="gate-1" x1="1086.17" y1="-316.24" x2="-532.22" y2="781.07"/>
              <line class="gate-1" x1="1070.19" y1="-339.81" x2="-548.19" y2="757.5"/>
              <line class="gate-1" x1="1054.22" y1="-363.37" x2="-564.17" y2="733.94"/>
              <line class="gate-1" x1="1038.24" y1="-386.93" x2="-580.15" y2="710.38"/>
              <line class="gate-1" x1="1022.26" y1="-410.5" x2="-596.12" y2="686.81"/>
              <line class="gate-1" x1="1006.29" y1="-434.06" x2="-612.1" y2="663.25"/>
              <line class="gate-1" x1="990.31" y1="-457.62" x2="-628.08" y2="639.69"/>
        
    </g>
  </g>
</svg>