<?xml version="1.0" encoding="UTF-8"?>
<svg xmlns="http://www.w3.org/2000/svg" xmlns:xlink="http://www.w3.org/1999/xlink" viewBox="0 0 494.84 474.03">
  <defs>
    <style>
      .hexa-graphic-1 {
        opacity: .04;
      }

      .hexa-graphic-3 {
        stroke: #000;
        stroke-miterlimit: 10;
        stroke-width: .77px;
      }

      .hexa-graphic-3, .hexa-graphic-4 {
        fill: none;
      }

      .hexa-graphic-5 {
        fill: #242c3f;
      }

      .hexa-graphic-6 {
        clip-path: url(#clippath-hexa-graphic);
      }
    </style>
    <clipPath id="clippath-hexa-graphic">
      <rect class="hexa-graphic-4" x="32.34" y="-17.11" width="430.16" height="508.26" rx="215.08" ry="215.08" transform="translate(304.74 -100.78) rotate(55.86)"/>
    </clipPath>
  </defs>
  <g id="HOME">
    <g class="hexa-graphic-1">
      <g class="hexa-graphic-6">
        <g>
          <g>
            <g>
              <line class="hexa-graphic-3" x1="-158.94" y1="-645.06" x2="1191.19" y2="9.41"/>
              <line class="hexa-graphic-3" x1="-168.47" y1="-625.4" x2="1181.66" y2="29.07"/>
              <line class="hexa-graphic-3" x1="-178" y1="-605.75" x2="1172.13" y2="48.73"/>
              <line class="hexa-graphic-3" x1="-187.53" y1="-586.09" x2="1162.6" y2="68.38"/>
              <line class="hexa-graphic-3" x1="-197.06" y1="-566.43" x2="1153.07" y2="88.04"/>
              <line class="hexa-graphic-3" x1="-206.59" y1="-546.77" x2="1143.54" y2="107.7"/>
              <line class="hexa-graphic-3" x1="-216.12" y1="-527.12" x2="1134.01" y2="127.36"/>
              <line class="hexa-graphic-3" x1="-225.65" y1="-507.46" x2="1124.48" y2="147.01"/>
              <line class="hexa-graphic-3" x1="-235.17" y1="-487.8" x2="1114.96" y2="166.67"/>
              <line class="hexa-graphic-3" x1="-244.7" y1="-468.14" x2="1105.43" y2="186.33"/>
              <line class="hexa-graphic-3" x1="-254.23" y1="-448.49" x2="1095.9" y2="205.99"/>
              <line class="hexa-graphic-3" x1="-263.76" y1="-428.83" x2="1086.37" y2="225.64"/>
              <line class="hexa-graphic-3" x1="-273.29" y1="-409.17" x2="1076.84" y2="245.3"/>
              <line class="hexa-graphic-3" x1="-282.82" y1="-389.52" x2="1067.31" y2="264.96"/>
              <line class="hexa-graphic-3" x1="-292.35" y1="-369.86" x2="1057.78" y2="284.61"/>
              <line class="hexa-graphic-3" x1="-301.88" y1="-350.2" x2="1048.25" y2="304.27"/>
              <line class="hexa-graphic-3" x1="-311.41" y1="-330.54" x2="1038.72" y2="323.93"/>
              <line class="hexa-graphic-3" x1="-320.93" y1="-310.89" x2="1029.2" y2="343.59"/>
              <line class="hexa-graphic-3" x1="-330.46" y1="-291.23" x2="1019.67" y2="363.24"/>
              <line class="hexa-graphic-3" x1="-339.99" y1="-271.57" x2="1010.14" y2="382.9"/>
              <line class="hexa-graphic-3" x1="-349.52" y1="-251.91" x2="1000.61" y2="402.56"/>
              <line class="hexa-graphic-3" x1="-359.05" y1="-232.26" x2="991.08" y2="422.22"/>
              <line class="hexa-graphic-3" x1="-368.58" y1="-212.6" x2="981.55" y2="441.87"/>
              <line class="hexa-graphic-3" x1="-378.11" y1="-192.94" x2="972.02" y2="461.53"/>
              <line class="hexa-graphic-3" x1="-387.64" y1="-173.28" x2="962.49" y2="481.19"/>
              <line class="hexa-graphic-3" x1="-397.17" y1="-153.63" x2="952.97" y2="500.85"/>
              <line class="hexa-graphic-3" x1="-406.69" y1="-133.97" x2="943.44" y2="520.5"/>
              <line class="hexa-graphic-3" x1="-416.22" y1="-114.31" x2="933.91" y2="540.16"/>
              <line class="hexa-graphic-3" x1="-425.75" y1="-94.65" x2="924.38" y2="559.82"/>
              <line class="hexa-graphic-3" x1="-435.28" y1="-75" x2="914.85" y2="579.48"/>
              <line class="hexa-graphic-3" x1="-444.81" y1="-55.34" x2="905.32" y2="599.13"/>
              <line class="hexa-graphic-3" x1="-454.34" y1="-35.68" x2="895.79" y2="618.79"/>
              <line class="hexa-graphic-3" x1="-463.87" y1="-16.02" x2="886.26" y2="638.45"/>
              <line class="hexa-graphic-3" x1="-473.4" y1="3.63" x2="876.73" y2="658.1"/>
              <line class="hexa-graphic-3" x1="-482.93" y1="23.29" x2="867.21" y2="677.76"/>
              <line class="hexa-graphic-3" x1="-492.45" y1="42.95" x2="857.68" y2="697.42"/>
              <line class="hexa-graphic-3" x1="-501.98" y1="62.6" x2="848.15" y2="717.08"/>
              <line class="hexa-graphic-3" x1="-511.51" y1="82.26" x2="838.62" y2="736.73"/>
              <line class="hexa-graphic-3" x1="-521.04" y1="101.92" x2="829.09" y2="756.39"/>
              <line class="hexa-graphic-3" x1="-530.57" y1="121.58" x2="819.56" y2="776.05"/>
              <line class="hexa-graphic-3" x1="-540.1" y1="141.23" x2="810.03" y2="795.71"/>
              <line class="hexa-graphic-3" x1="-549.63" y1="160.89" x2="800.5" y2="815.36"/>
              <line class="hexa-graphic-3" x1="-559.16" y1="180.55" x2="790.97" y2="835.02"/>
              <line class="hexa-graphic-3" x1="-568.69" y1="200.21" x2="781.45" y2="854.68"/>
              <line class="hexa-graphic-3" x1="-578.21" y1="219.86" x2="771.92" y2="874.34"/>
              <line class="hexa-graphic-3" x1="-587.74" y1="239.52" x2="762.39" y2="893.99"/>
              <line class="hexa-graphic-3" x1="-597.27" y1="259.18" x2="752.86" y2="913.65"/>
              <line class="hexa-graphic-3" x1="-606.8" y1="278.84" x2="743.33" y2="933.31"/>
              <line class="hexa-graphic-3" x1="-616.33" y1="298.49" x2="733.8" y2="952.97"/>
              <line class="hexa-graphic-3" x1="-625.86" y1="318.15" x2="724.27" y2="972.62"/>
              <line class="hexa-graphic-3" x1="-635.39" y1="337.81" x2="714.74" y2="992.28"/>
              <line class="hexa-graphic-3" x1="-644.92" y1="357.47" x2="705.21" y2="1011.94"/>
              <line class="hexa-graphic-3" x1="-654.44" y1="377.12" x2="695.69" y2="1031.59"/>
              <line class="hexa-graphic-3" x1="-663.97" y1="396.78" x2="686.16" y2="1051.25"/>
              <line class="hexa-graphic-3" x1="-673.5" y1="416.44" x2="676.63" y2="1070.91"/>
              <line class="hexa-graphic-3" x1="-683.03" y1="436.09" x2="667.1" y2="1090.57"/>
              <line class="hexa-graphic-3" x1="-692.56" y1="455.75" x2="657.57" y2="1110.22"/>
            </g>
            <g>
              <line class="hexa-graphic-3" x1="478.42" y1="-536.15" x2="586.7" y2="960.33"/>
              <line class="hexa-graphic-3" x1="456.63" y1="-534.58" x2="564.91" y2="961.91"/>
              <line class="hexa-graphic-3" x1="434.85" y1="-533" x2="543.12" y2="963.48"/>
              <line class="hexa-graphic-3" x1="413.06" y1="-531.42" x2="521.33" y2="965.06"/>
              <line class="hexa-graphic-3" x1="391.27" y1="-529.85" x2="499.54" y2="966.64"/>
              <line class="hexa-graphic-3" x1="369.48" y1="-528.27" x2="477.76" y2="968.21"/>
              <line class="hexa-graphic-3" x1="347.69" y1="-526.7" x2="455.97" y2="969.79"/>
              <line class="hexa-graphic-3" x1="325.9" y1="-525.12" x2="434.18" y2="971.36"/>
              <line class="hexa-graphic-3" x1="304.12" y1="-523.54" x2="412.39" y2="972.94"/>
              <line class="hexa-graphic-3" x1="282.33" y1="-521.97" x2="390.6" y2="974.52"/>
              <line class="hexa-graphic-3" x1="260.54" y1="-520.39" x2="368.82" y2="976.09"/>
              <line class="hexa-graphic-3" x1="238.75" y1="-518.81" x2="347.03" y2="977.67"/>
              <line class="hexa-graphic-3" x1="216.96" y1="-517.24" x2="325.24" y2="979.25"/>
              <line class="hexa-graphic-3" x1="195.18" y1="-515.66" x2="303.45" y2="980.82"/>
              <line class="hexa-graphic-3" x1="173.39" y1="-514.08" x2="281.66" y2="982.4"/>
              <line class="hexa-graphic-3" x1="151.6" y1="-512.51" x2="259.87" y2="983.98"/>
              <line class="hexa-graphic-3" x1="129.81" y1="-510.93" x2="238.09" y2="985.55"/>
              <line class="hexa-graphic-3" x1="108.02" y1="-509.35" x2="216.3" y2="987.13"/>
              <line class="hexa-graphic-3" x1="86.23" y1="-507.78" x2="194.51" y2="988.71"/>
              <line class="hexa-graphic-3" x1="64.45" y1="-506.2" x2="172.72" y2="990.28"/>
              <line class="hexa-graphic-3" x1="42.66" y1="-504.62" x2="150.93" y2="991.86"/>
              <line class="hexa-graphic-3" x1="20.87" y1="-503.05" x2="129.15" y2="993.44"/>
              <line class="hexa-graphic-3" x1="-.92" y1="-501.47" x2="107.36" y2="995.01"/>
              <line class="hexa-graphic-3" x1="-22.71" y1="-499.9" x2="85.57" y2="996.59"/>
              <line class="hexa-graphic-3" x1="-44.5" y1="-498.32" x2="63.78" y2="998.16"/>
              <line class="hexa-graphic-3" x1="-66.28" y1="-496.74" x2="41.99" y2="999.74"/>
              <line class="hexa-graphic-3" x1="-88.07" y1="-495.17" x2="20.2" y2="1001.32"/>
            </g>
          </g>
          <g>
            <g>
              <line class="hexa-graphic-3" x1="478.42" y1="-536.15" x2="586.7" y2="960.33"/>
              <line class="hexa-graphic-3" x1="456.63" y1="-534.58" x2="564.91" y2="961.91"/>
              <line class="hexa-graphic-3" x1="434.85" y1="-533" x2="543.12" y2="963.48"/>
              <line class="hexa-graphic-3" x1="413.06" y1="-531.42" x2="521.33" y2="965.06"/>
              <line class="hexa-graphic-3" x1="391.27" y1="-529.85" x2="499.54" y2="966.64"/>
              <line class="hexa-graphic-3" x1="369.48" y1="-528.27" x2="477.76" y2="968.21"/>
              <line class="hexa-graphic-3" x1="347.69" y1="-526.7" x2="455.97" y2="969.79"/>
              <line class="hexa-graphic-3" x1="325.9" y1="-525.12" x2="434.18" y2="971.36"/>
              <line class="hexa-graphic-3" x1="304.12" y1="-523.54" x2="412.39" y2="972.94"/>
              <line class="hexa-graphic-3" x1="282.33" y1="-521.97" x2="390.6" y2="974.52"/>
              <line class="hexa-graphic-3" x1="260.54" y1="-520.39" x2="368.82" y2="976.09"/>
              <line class="hexa-graphic-3" x1="238.75" y1="-518.81" x2="347.03" y2="977.67"/>
              <line class="hexa-graphic-3" x1="216.96" y1="-517.24" x2="325.24" y2="979.25"/>
              <line class="hexa-graphic-3" x1="195.18" y1="-515.66" x2="303.45" y2="980.82"/>
              <line class="hexa-graphic-3" x1="173.39" y1="-514.08" x2="281.66" y2="982.4"/>
              <line class="hexa-graphic-3" x1="151.6" y1="-512.51" x2="259.87" y2="983.98"/>
              <line class="hexa-graphic-3" x1="129.81" y1="-510.93" x2="238.09" y2="985.55"/>
              <line class="hexa-graphic-3" x1="108.02" y1="-509.35" x2="216.3" y2="987.13"/>
              <line class="hexa-graphic-3" x1="86.23" y1="-507.78" x2="194.51" y2="988.71"/>
              <line class="hexa-graphic-3" x1="64.45" y1="-506.2" x2="172.72" y2="990.28"/>
              <line class="hexa-graphic-3" x1="42.66" y1="-504.62" x2="150.93" y2="991.86"/>
              <line class="hexa-graphic-3" x1="20.87" y1="-503.05" x2="129.15" y2="993.44"/>
              <line class="hexa-graphic-3" x1="-.92" y1="-501.47" x2="107.36" y2="995.01"/>
              <line class="hexa-graphic-3" x1="-22.71" y1="-499.9" x2="85.57" y2="996.59"/>
              <line class="hexa-graphic-3" x1="-44.5" y1="-498.32" x2="63.78" y2="998.16"/>
              <line class="hexa-graphic-3" x1="-66.28" y1="-496.74" x2="41.99" y2="999.74"/>
              <line class="hexa-graphic-3" x1="-88.07" y1="-495.17" x2="20.2" y2="1001.32"/>
            </g>
            <g>
              <line class="hexa-graphic-3" x1="1311.58" y1="462.49" x2="69.72" y2="1304.5"/>
              <line class="hexa-graphic-3" x1="1299.32" y1="444.41" x2="57.46" y2="1286.42"/>
              <line class="hexa-graphic-3" x1="1287.06" y1="426.33" x2="45.2" y2="1268.34"/>
              <line class="hexa-graphic-3" x1="1274.8" y1="408.25" x2="32.94" y2="1250.26"/>
              <line class="hexa-graphic-3" x1="1262.54" y1="390.17" x2="20.69" y2="1232.18"/>
              <line class="hexa-graphic-3" x1="1250.28" y1="372.08" x2="8.43" y2="1214.1"/>
              <line class="hexa-graphic-3" x1="1238.02" y1="354" x2="-3.83" y2="1196.02"/>
              <line class="hexa-graphic-3" x1="1225.76" y1="335.92" x2="-16.09" y2="1177.93"/>
              <line class="hexa-graphic-3" x1="1213.5" y1="317.84" x2="-28.35" y2="1159.85"/>
              <line class="hexa-graphic-3" x1="1201.24" y1="299.76" x2="-40.61" y2="1141.77"/>
              <line class="hexa-graphic-3" x1="1188.98" y1="281.68" x2="-52.87" y2="1123.69"/>
              <line class="hexa-graphic-3" x1="1176.72" y1="263.6" x2="-65.13" y2="1105.61"/>
              <line class="hexa-graphic-3" x1="1164.47" y1="245.52" x2="-77.39" y2="1087.53"/>
              <line class="hexa-graphic-3" x1="1152.21" y1="227.44" x2="-89.65" y2="1069.45"/>
              <line class="hexa-graphic-3" x1="1139.95" y1="209.36" x2="-101.91" y2="1051.37"/>
              <line class="hexa-graphic-3" x1="1127.69" y1="191.28" x2="-114.17" y2="1033.29"/>
              <line class="hexa-graphic-3" x1="1115.43" y1="173.19" x2="-126.43" y2="1015.21"/>
              <line class="hexa-graphic-3" x1="1103.17" y1="155.11" x2="-138.69" y2="997.12"/>
              <line class="hexa-graphic-3" x1="1090.91" y1="137.03" x2="-150.95" y2="979.04"/>
              <line class="hexa-graphic-3" x1="1078.65" y1="118.95" x2="-163.21" y2="960.96"/>
              <line class="hexa-graphic-3" x1="1066.39" y1="100.87" x2="-175.46" y2="942.88"/>
              <line class="hexa-graphic-3" x1="1054.13" y1="82.79" x2="-187.72" y2="924.8"/>
              <line class="hexa-graphic-3" x1="1041.87" y1="64.71" x2="-199.98" y2="906.72"/>
              <line class="hexa-graphic-3" x1="1029.61" y1="46.63" x2="-212.24" y2="888.64"/>
              <line class="hexa-graphic-3" x1="1017.35" y1="28.55" x2="-224.5" y2="870.56"/>
              <line class="hexa-graphic-3" x1="1005.09" y1="10.47" x2="-236.76" y2="852.48"/>
              <line class="hexa-graphic-3" x1="992.83" y1="-7.61" x2="-249.02" y2="834.4"/>
              <line class="hexa-graphic-3" x1="980.57" y1="-25.7" x2="-261.28" y2="816.32"/>
              <line class="hexa-graphic-3" x1="968.32" y1="-43.78" x2="-273.54" y2="798.23"/>
              <line class="hexa-graphic-3" x1="956.06" y1="-61.86" x2="-285.8" y2="780.15"/>
              <line class="hexa-graphic-3" x1="943.8" y1="-79.94" x2="-298.06" y2="762.07"/>
              <line class="hexa-graphic-3" x1="931.54" y1="-98.02" x2="-310.32" y2="743.99"/>
              <line class="hexa-graphic-3" x1="919.28" y1="-116.1" x2="-322.58" y2="725.91"/>
              <line class="hexa-graphic-3" x1="907.02" y1="-134.18" x2="-334.84" y2="707.83"/>
              <line class="hexa-graphic-3" x1="894.76" y1="-152.26" x2="-347.1" y2="689.75"/>
              <line class="hexa-graphic-3" x1="882.5" y1="-170.34" x2="-359.35" y2="671.67"/>
              <line class="hexa-graphic-3" x1="870.24" y1="-188.42" x2="-371.61" y2="653.59"/>
              <line class="hexa-graphic-3" x1="857.98" y1="-206.5" x2="-383.87" y2="635.51"/>
              <line class="hexa-graphic-3" x1="845.72" y1="-224.59" x2="-396.13" y2="617.43"/>
              <line class="hexa-graphic-3" x1="833.46" y1="-242.67" x2="-408.39" y2="599.34"/>
              <line class="hexa-graphic-3" x1="821.2" y1="-260.75" x2="-420.65" y2="581.26"/>
              <line class="hexa-graphic-3" x1="808.94" y1="-278.83" x2="-432.91" y2="563.18"/>
              <line class="hexa-graphic-3" x1="796.68" y1="-296.91" x2="-445.17" y2="545.1"/>
              <line class="hexa-graphic-3" x1="784.43" y1="-314.99" x2="-457.43" y2="527.02"/>
              <line class="hexa-graphic-3" x1="772.17" y1="-333.07" x2="-469.69" y2="508.94"/>
              <line class="hexa-graphic-3" x1="759.91" y1="-351.15" x2="-481.95" y2="490.86"/>
              <line class="hexa-graphic-3" x1="747.65" y1="-369.23" x2="-494.21" y2="472.78"/>
              <line class="hexa-graphic-3" x1="735.39" y1="-387.31" x2="-506.47" y2="454.7"/>
              <line class="hexa-graphic-3" x1="723.13" y1="-405.4" x2="-518.73" y2="436.62"/>
              <line class="hexa-graphic-3" x1="710.87" y1="-423.48" x2="-530.99" y2="418.54"/>
              <line class="hexa-graphic-3" x1="698.61" y1="-441.56" x2="-543.25" y2="400.45"/>
              <line class="hexa-graphic-3" x1="686.35" y1="-459.64" x2="-555.5" y2="382.37"/>
              <line class="hexa-graphic-3" x1="674.09" y1="-477.72" x2="-567.76" y2="364.29"/>
              <line class="hexa-graphic-3" x1="661.83" y1="-495.8" x2="-580.02" y2="346.21"/>
              <line class="hexa-graphic-3" x1="649.57" y1="-513.88" x2="-592.28" y2="328.13"/>
              <line class="hexa-graphic-3" x1="637.31" y1="-531.96" x2="-604.54" y2="310.05"/>
              <line class="hexa-graphic-3" x1="625.05" y1="-550.04" x2="-616.8" y2="291.97"/>
              <line class="hexa-graphic-3" x1="612.79" y1="-568.12" x2="-629.06" y2="273.89"/>
              <line class="hexa-graphic-3" x1="600.53" y1="-586.2" x2="-641.32" y2="255.81"/>
              <line class="hexa-graphic-3" x1="588.28" y1="-604.29" x2="-653.58" y2="237.73"/>
              <line class="hexa-graphic-3" x1="576.02" y1="-622.37" x2="-665.84" y2="219.65"/>
              <line class="hexa-graphic-3" x1="563.76" y1="-640.45" x2="-678.1" y2="201.56"/>
              <line class="hexa-graphic-3" x1="551.5" y1="-658.53" x2="-690.36" y2="183.48"/>
              <line class="hexa-graphic-3" x1="539.24" y1="-676.61" x2="-702.62" y2="165.4"/>
              <line class="hexa-graphic-3" x1="526.98" y1="-694.69" x2="-714.88" y2="147.32"/>
              <line class="hexa-graphic-3" x1="514.72" y1="-712.77" x2="-727.14" y2="129.24"/>
              <line class="hexa-graphic-3" x1="502.46" y1="-730.85" x2="-739.39" y2="111.16"/>
              <line class="hexa-graphic-3" x1="490.2" y1="-748.93" x2="-751.65" y2="93.08"/>
              <line class="hexa-graphic-3" x1="477.94" y1="-767.01" x2="-763.91" y2="75"/>
              <line class="hexa-graphic-3" x1="465.68" y1="-785.09" x2="-776.17" y2="56.92"/>
              <line class="hexa-graphic-3" x1="453.42" y1="-803.18" x2="-788.43" y2="38.84"/>
              <line class="hexa-graphic-3" x1="441.16" y1="-821.26" x2="-800.69" y2="20.75"/>
              <line class="hexa-graphic-3" x1="428.9" y1="-839.34" x2="-812.95" y2="2.67"/>
            </g>
          </g>
        </g>
      </g>
    </g>
    <g>
      <rect class="hexa-graphic-2" x="129.56" y="119.15" width="235.73" height="235.73" rx="45.51" ry="45.51" transform="translate(240.06 -105.53) rotate(45)"/>
      <path class="hexa-graphic-5" d="m124.48,194.23v85.58c0,17.44,9.31,33.56,24.41,42.29l74.11,42.79c15.11,8.72,33.72,8.72,48.83,0l74.11-42.79c15.11-8.72,24.41-24.84,24.41-42.29v-85.58c0-17.44-9.31-33.56-24.41-42.29l-74.11-42.79c-15.11-8.72-33.72-8.72-48.83,0l-74.11,42.79c-15.11,8.72-24.41,24.84-24.41,42.29Z"/>
    </g>
  </g>
</svg>