<?xml version="1.0" encoding="UTF-8"?>
<svg id="Calque_2" data-name="Calque 2" xmlns="http://www.w3.org/2000/svg" viewBox="0 0 500 41.42">
  <defs>
    <style>
      .last-name-1 {
        fill: #fff;
      }

      .last-name-2 {
        fill: #8309ff;
      }
    </style>
  </defs>
  <g id="Header">
    <rect class="last-name-2" width="132.11" height="41.42"/>
    <g>
      <path class="last-name-1" d="m20.3,20.51c1.56-.83,3.86-2.69,3.86-5.25,0-3.49-3.23-6.18-7.15-6.18h-7.75c-.37,0-.63.3-.63.63v22.01c0,.33.27.63.63.63h8.25c3.96,0,7.25-2.69,7.25-6.42,0-3.06-2.69-4.69-4.46-5.42Zm-6.48-6.65h2.59c1.26,0,2.33.93,2.33,2.26s-1.06,2.39-2.33,2.39h-2.59v-4.66Zm3.03,13.73h-3.03v-4.76h2.69c1.3,0,2.73,1,2.73,2.33s-1.1,2.43-2.39,2.43Z"/>
      <path class="last-name-1" d="m48.26,31.49l-10.41-22.38c-.1-.2-.33-.37-.57-.37h-.33c-.23,0-.47.17-.57.37l-10.41,22.38c-.2.43.07.86.57.86h3.66c.66,0,1.03-.4,1.2-.8l1.2-2.66h9.04l1.2,2.63c.3.63.57.83,1.16.83h3.69c.5,0,.76-.43.57-.86Zm-13.67-7.12l2.49-5.49h.03l2.53,5.49h-5.05Z"/>
      <path class="last-name-1" d="m49.65,29.19l1.56-2.76c.27-.43.9-.37,1.13-.2.13.07,2.53,1.83,4.72,1.83,1.33,0,2.3-.83,2.3-1.99,0-1.4-1.16-2.46-3.42-3.36-2.86-1.13-6.45-3.36-6.45-7.35,0-3.29,2.56-6.62,7.68-6.62,3.46,0,6.12,1.76,7.12,2.49.4.23.33.83.2,1.06l-1.7,2.56c-.23.37-.83.66-1.13.43-.3-.17-2.73-1.99-4.76-1.99-1.2,0-2.09.8-2.09,1.7,0,1.23,1,2.16,3.62,3.23,2.59,1.03,6.72,3.06,6.72,7.58,0,3.42-2.96,6.88-7.85,6.88-4.32,0-6.72-1.8-7.48-2.56-.33-.33-.43-.47-.17-.93Z"/>
      <path class="last-name-1" d="m69.19,9.7c0-.33.27-.63.63-.63h3.96c.33,0,.63.3.63.63v17.76h7.91c.37,0,.63.3.63.63v3.62c0,.33-.27.63-.63.63h-12.5c-.37,0-.63-.3-.63-.63V9.7Z"/>
      <path class="last-name-1" d="m86.18,9.7c0-.33.27-.63.63-.63h13.77c.37,0,.63.3.63.63v3.63c0,.33-.27.63-.63.63h-9.21v4.12h7.58c.33,0,.63.3.63.63v3.63c0,.37-.3.63-.63.63h-7.58v4.49h9.21c.37,0,.63.3.63.63v3.62c0,.33-.27.63-.63.63h-13.77c-.37,0-.63-.3-.63-.63V9.7Z"/>
      <path class="last-name-1" d="m118.56,22.94c2.89-1.16,4.92-3.62,4.92-6.68,0-3.96-3.26-7.18-7.25-7.18h-9.94c-.37,0-.63.3-.63.63v22.01c0,.33.27.63.63.63h3.96c.33,0,.63-.3.63-.63v-8.48h2.29l4.42,8.81c.07.13.27.3.53.3h4.42c.57,0,.8-.53.57-.96l-4.56-8.45Zm-2.76-3.92h-4.92v-5.19h4.92c1.36,0,2.53,1.13,2.53,2.53s-1.16,2.66-2.53,2.66Z"/>
    </g>
  </g>
</svg>