<svg id="Calque_1" data-name="Calque 1" xmlns="http://www.w3.org/2000/svg" viewBox="0 0 224.05 244.94">
  <defs>
    <style>
      .favicon-1 {
        fill: #b0babf;
      }

      .favicon-2 {
        fill: #242c3f;
      }

      .favicon-3 {
        fill: #cad6dd;
      }

      .favicon-4 {
        fill: #96b321;
      }

      .favicon-5 {
        fill: #f8fbff;
      }
    </style>
  </defs>
  <path class="favicon-2" d="m0,83.48v77.98c0,15.9,8.48,30.58,22.25,38.53l67.53,38.99c13.77,7.95,30.73,7.95,44.49,0l67.53-38.99c13.77-7.95,22.25-22.64,22.25-38.53v-77.98c0-15.9-8.48-30.58-22.25-38.53L134.27,5.96c-13.77-7.95-30.73-7.95-44.49,0L22.25,44.95C8.48,52.9,0,67.59,0,83.48Z"/>
  <g>
    <g>
      <polygon class="favicon-3" points="39.47 164.39 39.48 80.59 29.12 74.6 29.1 170.37 70.57 194.31 80.94 188.33 80.94 176.36 70.56 182.34 39.47 164.39"/>
      <path class="favicon-5" d="m101.65,32.71l-20.73,11.97,10.37,5.99v23.95l-31.1,17.95c5.24,3.03,10.48,6.05,15.72,9.08,1.77-3.04,5.11-7.92,10.82-12.28,5.81-4.44,11.5-6.38,14.93-7.27v-49.38Z"/>
      <path class="favicon-5" d="m132.73,50.66l10.37-5.99-20.73-11.97v49.38c3.42.89,9.11,2.83,14.93,7.27,5.71,4.36,9.06,9.24,10.82,12.28,5.24-3.03,10.48-6.05,15.72-9.08l-31.1-17.95v-23.95Z"/>
      <polygon class="favicon-1" points="194.93 74.6 184.56 80.59 184.58 164.39 153.48 182.34 143.11 176.36 143.11 188.33 153.47 194.31 194.95 170.37 194.93 74.6"/>
      <path class="favicon-1" d="m163.85,116.5l-.02-23.95c-5.24,3.03-10.48,6.05-15.72,9.08,1.37,2.48,8.55,16.01,3.62,32.62-5.31,17.92-20.52,25.3-22.87,26.39l-6.48,3.74.15,35.65-.1.06v12.14l20.69-11.94-10.36-5.98v-23.94l31.1-17.95v-23.95l10.37-5.99-10.37-5.98Z"/>
      <path class="favicon-3" d="m80.94,200.29l20.67,11.93v-12.14l-.08-.05.08-19.45v-.4h0l.06-15.8-6.48-3.74c-2.35-1.09-17.56-8.48-22.87-26.39-4.92-16.61,2.25-30.14,3.62-32.62-5.24-3.03-10.48-6.05-15.72-9.08l-.02,23.95-10.37,5.98,10.37,5.99v23.95l31.1,17.95v23.94l-10.36,5.98Z"/>
    </g>
    <g>
      <path class="favicon-4" d="m134.07,109.78l-11.06,6.36c1.08,1.87,1.75,4.02,1.75,6.33,0,7.03-5.7,12.74-12.74,12.74,0,0,0,0-.01,0,0,4.24,0,8.47.01,12.71,2.25.02,7.45-.23,12.92-3.44,5.27-3.09,7.99-7.29,9.11-9.25,1.17-2,3.64-6.87,3.45-13.49-.17-5.73-2.26-9.96-3.42-11.95Z"/>
      <path class="favicon-4" d="m112.02,109.74c4.72,0,8.79,2.59,10.99,6.4l11.06-6.36c-1.2-2.07-4.36-6.86-10.52-9.99-4.77-2.43-9.17-2.76-11.53-2.76h0s0,0-.01,0h-.01c-2.36,0-6.76.33-11.53,2.76-6.15,3.13-9.32,7.92-10.52,9.99l11.08,6.37c2.2-3.82,6.27-6.41,10.99-6.41Z"/>
      <path class="favicon-4" d="m112.02,135.22c-7.03,0-12.74-5.7-12.74-12.74,0-2.32.67-4.47,1.75-6.34l-11.05-6.36c-1.16,2-3.25,6.22-3.42,11.95-.2,6.62,2.28,11.49,3.45,13.49,1.11,1.96,3.84,6.16,9.11,9.25,5.47,3.21,10.67,3.47,12.92,3.44,0-4.24,0-8.47.01-12.71,0,0-.02,0-.03,0Z"/>
    </g>
    <polygon class="favicon-5" points="184.58 80.58 194.95 74.59 153.48 50.65 143.11 56.64 143.11 68.61 153.48 62.62 184.58 80.58"/>
    <polygon class="favicon-5" points="39.47 80.59 70.56 62.63 80.94 68.62 80.94 56.65 70.57 50.66 29.1 74.6 39.47 80.59"/>
  </g>
</svg>