<?xml version="1.0" encoding="UTF-8"?>
<svg id="Calque_2" data-name="Calque 2" xmlns="http://www.w3.org/2000/svg" viewBox="0 0 184.18 232.81">
  <defs>
    <style>
      .nf-number-left-1 {
        fill: #4a63f4;
      }

      .nf-number-left-2 {
        fill: #fff;
        opacity: .29;
      }
    </style>
  </defs>
  <g id="Calque_3" data-name="Calque 3">
    <g>
      <path class="nf-number-left-1" d="m159.39,147.15h-7.73V29.3c0-9.87-2.36-17.23-7.08-22.06C139.85,2.42,133.41,0,125.26,0,117.96,0,111.62,1.5,106.26,4.51c-5.37,3.01-10.2,7.73-14.49,14.17L13.2,133.31c-4.94,6.87-8.37,12.72-10.3,17.55-1.93,4.83-2.9,9.82-2.9,14.97,0,8.8,2.63,15.35,7.89,19.64,5.26,4.3,12.61,6.44,22.06,6.44h64.72v11.59c0,9.66,2.52,16.96,7.57,21.9,5.04,4.94,12.07,7.41,21.09,7.41s16.26-2.53,21.09-7.57c4.83-5.04,7.24-12.29,7.24-21.74v-11.59h7.73c8.16,0,14.33-1.93,18.52-5.8,4.19-3.86,6.28-9.44,6.28-16.74s-2.09-12.56-6.28-16.42c-4.19-3.86-10.36-5.8-18.52-5.8Zm-106.91,0l42.19-62.61v62.61h-42.19Z"/>
      <path class="nf-number-left-2" d="m124.5,0c-7.3,0-13.63,1.5-19,4.51-5.37,3.01-10.2,7.73-14.49,14.17l-37.13,54.17c28.85,5.08,61.54,9.23,97.02,12.22V29.3c0-9.87-2.36-17.23-7.08-22.06-4.72-4.83-11.16-7.25-19.32-7.25Z"/>
    </g>
  </g>
</svg>