<?xml version="1.0" encoding="UTF-8"?>
<svg id="Calque_2" data-name="Calque 2" xmlns="http://www.w3.org/2000/svg" viewBox="0 0 848.2 231.91">
  <defs>
    <style>
      .nf-cloud1-1 {
        fill: #d1ebf2;
      }

      .nf-cloud1-3 {
        fill: #e8f7f9;
      }
    </style>
  </defs>
  <g id="Calque_3" data-name="Calque 3">
    <g>
      <path class="nf-cloud1-2" d="m636.09,45.77c-24.03-1.02-48.11-.62-72.09,1.2-20.41,1.55-20.3-1.1-32.09-.45-10.58.58-23.09,2.01-23.58-.08-.43-1.84,8.96-4.04,8.91-8.29-.03-2.54-3.42-4.62-8.91-7.98-2.97-1.82-4.46-2.73-6.45-3.07-5.24-.89-9.65,2.03-11.06,3.07-5.05,3.74-4.46,7.87-7.37,10.44-6.76,5.98-24.35-3.47-28.66-5.76,0,0-12.53-19.16-116.83-34.7-1.06-.16-2.21-.3-3.14.24-1.51.87-1.59,3.18-.61,4.63.98,1.45,2.64,2.25,4.23,2.98,43.7,20.12,87.41,40.24,131.11,60.36-3.03,3.65-6.01,5.28-8.06,6.1-3.98,1.58-9.31,2-12.43,2.25-4.22.33-5.1.05-5.76.92-2.27,3.01,4.02,12.05,8.08,14.02.18.09.76.33,1.49.79,1.62,1.04,2.87,2.57,4.42,3.71,3.98,2.93,9.6,2.88,14.14.91,4.54-1.97,8.16-5.58,11.28-9.42,2.31-2.84,4.46-5.89,7.41-8.06,5.34-3.93,12.4-4.36,19.02-4.74,49.18-3.07,97.93-10.33,145.67-22.63,1.31-.34,8.56-1.12,5.85-4.05-.8-.86-2.08-1.01-3.25-1.1-7.09-.55-14.2-.97-21.31-1.28Z"/>
      <g>
        <path class="nf-cloud1-1" d="m554.43,145.55c-21.16-16.07-35-17.06-44.08-14.24-21.45,6.66-28.09,36.48-46.73,37.81-3.79.27-8-1.27-12.94-5.45-34.62-19.19-54.58-54.02-95.19-62.54-16.9-3.55-33.52,9.22-39.93,23.92-3.71,8.51-5.77,17.72-10.18,25.9-20.57,38.18-64.31,47.57-104.33,48.53-34.02.82-68-1.47-101.95-3.16-30.74-1.54-69.42-9.99-99.1.59,9.07,7.61,24.69,8.02,36,9.05,51.83,4.71,104.93,12.05,157.02,12.05,81.65,0,104.79-1.06,164.56,2.84,19.54,1.27,35.58,2.68,46.15,3.69-24.53-13.54-39.56-15.15-48.92-13.83,0,0-14.42,2.03-14.75.92-.12-.42.96-1.12,1.84-1.61.47-.32,1-.63,1.61-.92,1.95-.92,3.79-1.13,5.07-1.15,12.45-.19,58.29.92,58.29.92.81.02,7.38.21,14.19.65,3.37.22,6.83.5,6.83.5,3.05.25,5.28.46,5.67.5,30.76,2.91,51.08,4.83,60.16-5.56,2.14-2.45,6.62-7.79,8.52-14.52.72-2.55,2.18-6.48,5.3-10.37,1.9-2.38,4.07-4.3,6.91-6.22,7.44-5.03,11.5-4.65,22.81-9.29,11.45-4.69,13.79-7.81,14.91-9.74,1.95-3.36,2.28-6.85,2.24-9.27Z"/>
        <path class="nf-cloud1-1" d="m664.44,184.32c-23.15,4.11-41.66,3.64-54.35,2.43-21.88-2.09-36.42-7.34-59.44-3.69-11.21,1.78-20.1,4.98-25.8,7.37,1.6,3.74,4.75,9.89,10.73,15.24,18.31,16.38,42.93,7.2,106.08,2.59,5.7-.42,33.83-2.41,69.75-2.26,20,.08,36.45.81,47.41,1.42-10.3-6.03-25.14-13.28-44.04-18.08-20.31-5.17-37.95-5.65-50.35-5.03Z"/>
        <path class="nf-cloud1-3" d="m344.3,206.58c37.35-9.72,143.78,21.2,155-16.74-4.47-39.28,47.09-13.29,52.26-44.33.62-3.71,24.7,13.63,26.42,15.88,3.79,4.97,6.22,10.91,10.26,15.69,8.5,10.07,19.1,6.6,29.1,1.05,9.71-5.39,24.98-18.47,36.56-10.93,2.36,1.54,4.2,3.76,5.69,6.12.62.97,5.45,10.78,4.86,11-39.63,14.75-100.44-8.7-131.65,10.45.14,15.69,18.68,11.25,30.39,11.53,67.57,1.6,135.13-7.15,202.5,2,14.58,1.98,29.06,4.79,43.23,8.77,6.98,1.96,13.89,4.21,20.68,6.77,6.3,2.37,12.85,4.35,18.61,7.92-1.71.2-3.94.11-5.85.12-16.92.1-33.81-.11-50.72-.26-25.62,0-51.25-.64-76.86-.82-44-.3-88-.62-132-1.22-43.22-.58-86.45-1.37-129.64-2.93-31.21-1.13-62.67-2.14-93.69-6.02-3.7-.46-32.76-2.93-24.14-10.49,2.2-1.93,6.31-2.75,9.02-3.56Z"/>
      </g>
    </g>
  </g>
</svg>