<?xml version="1.0" encoding="UTF-8"?>
<svg id="Calque_2" data-name="Calque 2" xmlns="http://www.w3.org/2000/svg" viewBox="0 0 305.75 308.68">
  <defs>
    <style>
      .nf-moon-1 {
        fill: #4a63f4;
      }

      .nf-moon-2 {
        fill: #fff;
        opacity: .29;
      }
    </style>
  </defs>
  <g id="Calque_3" data-name="Calque 3">
    <g>
      <path class="nf-moon-1" d="m117.04,185.31c48.13,53.96,132.96,59.65,188.71,11.45-16.16,54.84-61.21,96.57-117.12,108.51C104.9,323.14,21.29,268.95,3.41,185.22-14.46,101.49,39.73,17.88,123.46,0c-50.96,50.54-53.31,132.74-6.42,185.31Z"/>
      <path class="nf-moon-2" d="m215.58,248.18c23.58-5.03,44.84-16.4,61.87-32.31-53.15,25.81-119.18,14.47-159.48-30.71-42.37-47.5-44.52-119.2-6.94-169.87-39.93,29.61-61.44,80.99-50.46,132.43,14.96,70.08,84.94,115.43,155.01,100.47Z"/>
    </g>
  </g>
</svg>