<?xml version="1.0" encoding="UTF-8"?>
<svg id="Calque_2" data-name="Calque 2" xmlns="http://www.w3.org/2000/svg" viewBox="0 0 1528.38 215.71">
  <defs>
    <style>
      .nf-water-1 {
        fill: #e8f7f9;
        opacity: .79;
      }

      .nf-water-2 {
        fill: #59697f;
      }

      .nf-water-3 {
        fill: #9fc3dd;
      }

      .nf-water-4 {
        fill: #242c3f;
      }

      .nf-water-5 {
        fill: #88ceea;
      }

      .nf-water-6 {
        fill: #313b51;
        opacity: .9;
      }

      .nf-water-7 {
        fill: #cbe7ef;
      }

      .nf-water-8 {
        fill: #395066;
      }

      .nf-water-9 {
        fill: #c7e6ef;
      }
    </style>
  </defs>
  <g id="Calque_3" data-name="Calque 3">
    <g>
      <g>
        <path class="nf-water-5" d="m661.74,1.5c-172.06,5.57-302.38,24.45-361.07,24.73-6.85.03-21.66,1.82-41.8,3.73-22,2.08-36.53,9.6-56.91,17.33-17.85,6.77-37.67,4-56.76,4.14-13.42.09-27.22,1.8-38.99,8.27-28.64,15.75-61.11,18.58-89.87,34.38-36.65,20.13-3.83,37.61,22.67,46.11,0,0,39.79,12.1,91.17,16.28,51.38,4.18,47.21,21.71,47.21,21.71,0,0-11.9,19.56,137.08,18.26,85.76-.75,171.67,4.71,256.85,15.12,18.55,2.27,37.88,4.7,55.44-1.98,27.34-10.39,41.75-30.77,73.75-25.48,18.92,3.12,36.69,11.49,55.37,15.96,43.18,10.35,51.13-2.94,110.88,4.39,68.36,8.38,137.26,11.64,206.12,11.25,34.34-.2,68.67-1.29,102.97-3.01,29.96-1.5,66.91,1.96,95.5-6.32,26.66-7.72,49.12-25.32,73.05-39.38,50.36-29.59,106.24-7.54,157.06-34.23,7.3-3.84,27.97-14.89,26.89-25.15-4.13-39.28-71.81-24.84-94.62-38.7-15.61-9.48-20.95-14.13-39.48-17.41-23.82-4.22-47.72-7.97-71.66-11.43-57.4-8.29-79.45-14.09-244.41-25.25C919.96,4.09,810.46-3.32,661.74,1.5Z"/>
        <path class="nf-water-6" d="m834.94,26.17c96.74,4.37,169.9,15.92,202.91,16.5,3.85.07,12.17,1.18,23.48,2.4,12.36,1.33,20.48,5.66,31.89,10.15,9.99,3.94,21.16,2.52,31.9,2.73,7.55.15,15.3,1.21,21.87,4.93,15.99,9.06,34.24,10.89,50.3,19.98,20.47,11.59,1.89,21.18-13.08,25.77,0,0-22.47,6.52-51.4,8.5-28.93,1.98-26.71,11.87-26.71,11.87,0,0,6.55,11.09-77.24,9.28-48.23-1.04-96.59,1.42-144.58,6.66-10.45,1.14-21.34,2.37-31.17-1.51-15.3-6.04-23.26-17.61-41.3-14.86-10.66,1.62-20.72,6.2-31.26,8.58-24.36,5.51-28.74-2.02-62.4,1.67-38.51,4.22-77.29,5.56-116.01,4.85-19.31-.36-38.62-1.22-57.9-2.43-16.84-1.06-37.65.62-53.67-4.24-14.94-4.53-27.45-14.59-40.81-22.68-28.11-17.01-59.7-5-88.1-20.38-4.08-2.21-15.63-8.58-14.95-14.34,2.61-22.06,40.57-13.46,53.5-21.09,8.85-5.22,11.88-7.79,22.33-9.51,13.43-2.2,26.9-4.14,40.39-5.91,32.35-4.25,44.79-7.36,137.65-12.45,89.07-4.88,150.71-8.27,234.33-4.49Z"/>
        <path class="nf-water-9" d="m119.6,80.03c-.39-.73-.56-1.54-.39-2.43,17.25,6.62,35.03,12.18,53.36,14.45,17.66,2.19,35.92,1.22,52.71-4.61.95-.33,1.93.3,2.06,1.3.98,7.86,7.44,14.49,14.83,17.68,11.32,4.87,24.64,3.82,36.69,4.07l38.01.79c1.31.03,2,1.57,1.15,2.56h0c-.71.83-.36,2.11.67,2.47,2.32.8,4.54,1.88,6.6,3.2,1.27.81.69,2.75-.81,2.85-1.08.07-2.21-.05-3.28-.24-8.38-1.46-16.14-5.35-24.4-7.34-12.92-3.11-26.44-1.46-39.7-2.16-13.86-.73-27.39-4.02-40.68-7.85-1.01-.29-1.44-1.49-.86-2.36l1.62-2.42c.68-1.01-.02-2.38-1.23-2.42-14.98-.52-29.96-.81-44.87-2.47-16.24-1.81-30.94-6.07-46.34-11.21-.05-.02-.09-.03-.14-.05-1.93-.82-4.07-2.12-4.98-3.82Z"/>
        <g>
          <path class="nf-water-9" d="m1286.61,112.63c6.68,1.25,13.44,2.4,19.43,5.82,4.86,2.77,8.95,6.5,9.05,12.65.09,6.13-4.62,8.69-9.11,11.45-18.85,11.59-40.16,16.13-61.24,21.03-27.41,6.37-55.2,10.53-83.38,11.7-.07-.95-.15-1.89-.22-2.84,21.28-1.02,42.22-4.44,63.1-8.53,15.14-2.96,30.05-6.71,44.83-11.05,9.9-2.91,19.24-6.77,27.37-13.55,9.17-7.65,8.95-14.87-1.54-20.57-2.6-1.41-5.52-2.23-8.28-3.33,0-.93-.01-1.85-.02-2.78Z"/>
          <path class="nf-water-2" d="m1029.89,124.03c-.79-.06-3.55-8.12,1.19-16.34,6.52-11.32,23.27-16.09,33.73-19.07,27.54-7.84,54.92-5.66,69.26-3.75-10.13,1.85-20.25,3.92-30.38,5.42-3.24.48-6.4.77-9.29,3.63-3.3,3.28-7.27,12.14-7.49-2.91-.02-1.21-.62-1.36-.74-1.46-4.26-3.54-25.7,3.03-26.68,3.33-7.23,2.25-13.38,4.16-18.68,8.15-12.72,9.57-9.89,23.07-10.93,22.99Z"/>
          <g>
            <path class="nf-water-4" d="m1077.39,136.35c-.84-1.27-1.34-2.86-1.39-4.83-.06-2.14.42-4.25.94-6.33,1.31-5.24,2.55-12,5.63-16.5,2.84-4.15,8.01-5.89,11.83-8.9,2.38-1.88,4.71-3.83,6.81-6.02,1.61-1.68,3.61-6.11,5.43-7.16,3.76-2.18,7.53-4.36,11.3-6.53,2.17,7.45-10.83,10.87-6.13,17.22,5.38,7.26,6.53,10.17-2.2,15.52-3.76,2.3-6.76,8.43-10.53,12.59-4.06,4.48-4.16,9.54,3.36,9.43,11.23-.16,22.83,2.53,33.62-2.97,3.12,4.04,6.25,7.06,12.35,6.24,7.2-.97,14.61-.42,21.93-.53,3.24,3.61,7.49,1.97,11.38,2.19,1.75.77,3.5,1.54,5.25,2.31-1.98.17-4.79.39-8.17.62-8.31.56-26.1,1.57-43.32,1.15-11.11-.27-22.23-.78-33.29-1.99-6.79-.74-20.42,1.15-24.8-5.52Z"/>
            <path class="nf-water-7" d="m1160.5,143.66c-.66.01-1.32.03-1.98.04-8.3.16-18.83,1.97-26.89-.54-6.3-1.96-7.18-8.94-11-13.61-4.47-5.45-5.68-9.64,1.52-13.55,20.77-11.28,30.51-29.15,35.19-50.92.79-3.68,3.07-5.97,5.27-8.53,4.03-1.42,8.35-2.77,12.95-4,4.24-1.13,8.53-2.1,12.85-2.91,2.95-.55,10.23-3.04,13-1.81,2.75,1.22,5.94,8.25,7.69,10.75,2.69,3.85,5.39,7.7,8.08,11.54,6.75,9.64,10.52,20.89,16.07,31.19,2.94,5.45,6.4,10.3,10.62,14.82,3.73,3.99,6.78,8.04,5.95,13.84-.18,1.24-.53,2.49-1.31,3.47-4.4,5.59-13.17,5.55-19.56,6.38-12.96,1.69-25.98,2.43-39.03,3-9.81.43-19.62.65-29.43.84Z"/>
            <path class="nf-water-8" d="m1170.15,42.45c1.75,5.13-2.27,9.02-2.93,13.63-2.08,2.42-4.24,4.58-4.99,8.07-4.43,20.62-13.65,37.54-33.32,48.22-4.7,2.55-4.77,4.5-5.26,5.56-4.1,8.78,8.07,22.33,11.57,26.05-5.48-.56-18.16-2.05-26.23-4.86-4.34-1.51-5.56-2.79-10.58-3.93-2.9-.66-4.82-.76-5.59-2.2-1-1.85.04-4.6,2.4-7.13,3.76-4.04,6.8-10.04,10.53-12.26,3.7-2.2,7.27-4.7,5.94-9.36-.83-2.89-3.86-5.89-3.78-8.96.08-3.32,4.09-7.86,5.76-10.71.8-1.37,1.63-2.77,2.83-3.82,2.36-2.05,5.73-2.38,8.53-3.77,3.28-1.63,5.62-4.61,8.01-7.38,5.4-6.26,11.56-11.86,18.3-16.65,1.48-1.05,18.33-11.86,18.8-10.49Z"/>
            <path class="nf-water-3" d="m1182.89,38.98c3.59,2.27,6.82,5.7,11.76,3.64,1.46.59,3.15,1.44,4.88,2.7,4.73,3.47,6.92,8,7.87,10.42-6.88.76-13.99,1.68-21.29,2.77-8.11,1.21-15.91,2.56-23.41,4.01,1.07-2.25,2.26-5.33,3-9.13.74-3.79.79-7.1.65-9.58,1.13-.56,2.34-1.11,3.62-1.62,4.72-1.89,9.15-2.8,12.91-3.21Z"/>
          </g>
        </g>
        <g>
          <path class="nf-water-4" d="m368.57,88.24c.57-.87.92-1.96.95-3.31.04-1.47-.29-2.91-.64-4.34-.9-3.59-1.75-8.22-3.86-11.3-1.94-2.84-5.49-4.03-8.1-6.09-1.63-1.28-3.23-2.63-4.67-4.13-1.11-1.15-2.47-4.18-3.72-4.9-2.58-1.49-5.16-2.98-7.74-4.48-1.49,5.1,7.42,7.45,4.2,11.8-3.69,4.97-4.47,6.97,1.51,10.63,2.57,1.58,4.63,5.78,7.21,8.62,2.78,3.07,2.85,6.53-2.3,6.46-7.69-.11-15.64,1.74-23.03-2.04-2.13,2.77-4.28,4.84-8.46,4.28-4.94-.66-10.01-.29-15.02-.36-2.22,2.48-5.13,1.35-7.8,1.5-1.2.53-2.4,1.06-3.6,1.59,1.35.11,3.28.27,5.59.42,5.69.39,17.88,1.08,29.68.79,7.61-.19,15.23-.53,22.81-1.36,4.65-.51,13.99.79,16.99-3.78Z"/>
          <path class="nf-water-7" d="m311.64,93.25c.45,0,.9.02,1.36.03,5.69.11,12.9,1.35,18.42-.37,4.31-1.34,4.92-6.12,7.54-9.32,3.06-3.73,3.89-6.61-1.04-9.28-14.23-7.72-20.9-19.97-24.1-34.88-.54-2.52-2.1-4.09-3.61-5.84-2.76-.97-5.72-1.9-8.87-2.74-2.91-.78-5.84-1.44-8.8-2-2.02-.38-7.01-2.08-8.91-1.24s-4.07,5.65-5.27,7.36c-1.85,2.64-3.69,5.27-5.54,7.91-4.63,6.6-7.21,14.31-11.01,21.36-2.01,3.73-4.39,7.06-7.27,10.15-2.55,2.74-4.64,5.51-4.08,9.48.12.85.36,1.71.89,2.38,3.01,3.83,9.02,3.8,13.4,4.37,8.88,1.16,17.8,1.67,26.73,2.06,6.72.29,13.44.45,20.16.58Z"/>
          <path class="nf-water-8" d="m305.05,23.93c-1.28,3.76,1.66,6.6,2.15,9.98,1.53,1.77,3.1,3.36,3.65,5.91,3.24,15.09,10,27.48,24.39,35.3,2.85,1.54,3.48,2.78,3.85,4.07,1.57,5.51-9.4,12.86-11.94,14.52,14.39-.88,25.22-1.6,30.42-1.88.95-.05,3.33-.19,4.09-1.61.73-1.36-.03-3.37-1.76-5.22-2.75-2.96-4.98-7.35-7.71-8.97-2.71-1.61-5.32-3.44-4.35-6.85.6-2.12,2.82-4.31,2.77-6.56-.04-1.76-1.23-3.77-4.22-7.84-2.77-3.77-4.36-4.65-5.6-5.06-1.23-.41-1.55-.16-2.72-.5-3.3-.94-4.88-4.26-5.86-5.4-3.95-4.58-8.46-8.68-13.4-12.19-1.09-.77-13.42-8.68-13.76-7.68Z"/>
          <path class="nf-water-3" d="m296.3,21.57c-.26.04-.52.11-.76.24-.65.34-1.11,1.03-1.74,1.44-.78.52-1.65.79-2.57.89-1.08.12-2.18-.2-3.25.04-1.09.24-2.19,1.06-3.08,1.71-3.24,2.38-4.74,5.48-5.39,7.14,4.72.52,9.58,1.15,14.58,1.9,5.55.83,10.9,1.76,16.03,2.75-.73-1.54-1.55-3.65-2.06-6.26-.51-2.6-.54-4.86-.45-6.56-.77-.39-1.6-.76-2.48-1.11-1.52-.61-3.09-1.1-4.68-1.48-1.07-.25-2.15-.66-3.27-.73-.29-.02-.6-.01-.89.03Z"/>
        </g>
        <g>
          <path class="nf-water-4" d="m563.33,150.5c1.76-.07,2.98-.28,5.41-.7,3.49-.6,4.14-1.01,4.58-1.43,1.81-1.75,1.2-5.05.95-6.13.62.56,1.46,1.43,2.21,2.65.37.6.93,1.5,1.24,2.75.48,1.94.3,4.14-.73,5.88-.6,1.01-1.5,1.12-2.56,1.52-1.33.5-2.69.94-4.06,1.31-2.75.75-5.55,1.25-8.38,1.6-7.74.95-15.57.74-23.35,1.07-4.61.2-9.34.58-13.72-.86-2.47-.81-4.73-2.18-7.24-2.86-3.87-1.05-7.97-.39-11.98-.41-4.97-.03-9.93-1.14-14.44-3.23-1.42-.66-2.92-1.56-3.36-3.07-.47-1.63.44-3.24,1.26-4.5,2.76-4.27,6.64-8.03,9.83-10.75-.45.38-.36,2.44-.36,2.97-.04,4.47,2.24,8.54,6.12,10.78,4.8,2.77,11.04,3.04,16.44,3,.71,0,1.41-.02,2.12-.04,6.08-.17,12.11-.37,18.18-.2,5.83.16,11.64.58,17.47.67,1.45.02,2.91.03,4.36-.03Z"/>
          <path class="nf-water-9" d="m501.39,167.36c-9.62-.66-19.1-2.27-28.1-5.69-1.48-.56-2.96-1.19-4.21-2.16s-2.25-2.35-2.47-3.92c-.13-.93-.02-2.01-.69-2.67-.75-.76-2.04-.51-2.99-.02-1.71.86-3.11,2.31-3.93,4.04-.5,1.06-.78,2.32-.33,3.4.48,1.15,1.65,1.84,2.76,2.41,6.7,3.39,14.11,5.19,21.55,6.19,7.44,1,14.96,1.22,22.46,1.62,3.69.2,7.42.42,11.11,0,1.84-.21,3.66-.59,5.4-1.23.42-.15,1.92-.48,2.18-.82.53-.67-.35-.93-.95-.92-7.24.22-14.55.27-21.8-.23Z"/>
          <path class="nf-water-9" d="m584.02,164.8c4.37-.82,8.62-2.06,12.55-4.11.65-.34,1.29-.7,1.81-1.21s.91-1.2.92-1.93c0-.43-.1-.92.17-1.26.3-.39.91-.34,1.37-.17.83.3,1.55.89,2.01,1.64.29.46.48,1.02.33,1.54-.16.55-.65.93-1.13,1.25-2.88,1.91-6.18,3.13-9.53,3.98s-6.78,1.36-10.19,1.95c-1.68.29-3.37.59-5.08.59-.85,0-1.71-.07-2.54-.27-.2-.05-.91-.12-1.04-.26-.28-.28.11-.45.39-.47,3.32-.29,6.67-.66,9.96-1.27Z"/>
          <path class="nf-water-7" d="m505.95,127.33c3.08-1.46,6.54-2.21,9.48-2.18,5.09.05,11.07-1.17,15.94-.79,6.88.53,13.97.22,20.62,1.8,6.23,1.48,11.9,4.66,16.48,9.13,2.14,2.09,8.69,8.66,6.84,12.45-.47.96-1.34,1.45-1.76,1.67-10.89,5.65-33.11,4.6-33.11,4.6-13.22-.62-20.61-1.15-29.98-3.81-6.03-1.71-10.99-3.77-12.51-8.12-1.22-3.47.24-6.98.51-7.63,1.28-3.13,4.16-5.54,7.5-7.11Z"/>
          <path class="nf-water-8" d="m564.32,130.94c-7.7-5.75-20.77-7.74-21.99-5.07-.91,1.98,1.99,4.46,3.19,5.67,1.81,1.84,3.82,3.47,5.99,4.87,1.31.85,2.57,1.97,2.84,3.59.27,1.64-.43,3.28-1.19,4.7-.77,1.43-1.58,2.84-2.38,4.25-.55.96-1.38,1.94-1.48,3.08-.28,3.18,6.94,2.59,8.84,2.49,1.47-.08,3.7-.49,8.14-1.41,0,0,1.91-.4,6.84-2.23.52-.19,1.77-.67,2.72-1.85.2-.25.47-.59.66-1.11.39-1.04.15-2.01-.1-2.99-.29-1.14-.69-1.96-.77-2.07-1.76-2.56-4.07-5.46-7.09-8.33-1.81-1.72-3.42-3-4.21-3.59Z"/>
        </g>
        <g>
          <path class="nf-water-4" d="m782.23,60.04c-1.04-.04-1.77-.16-3.22-.41-2.07-.36-2.46-.6-2.72-.85-1.08-1.04-.71-3-.57-3.64-.37.33-.87.85-1.32,1.58-.22.36-.55.89-.74,1.64-.28,1.15-.18,2.46.44,3.49.36.6.89.67,1.52.9.79.3,1.6.56,2.41.78,1.63.44,3.3.74,4.98.95,4.6.56,9.25.44,13.87.64,2.74.12,5.55.34,8.15-.51,1.46-.48,2.81-1.29,4.3-1.7,2.3-.63,4.73-.23,7.12-.25,2.95-.02,5.9-.68,8.58-1.92.84-.39,1.74-.93,2-1.82.28-.97-.26-1.92-.75-2.67-1.64-2.53-3.94-4.77-5.84-6.39.27.23.21,1.45.21,1.76.02,2.65-1.33,5.08-3.63,6.4-2.85,1.65-6.56,1.8-9.77,1.78-.42,0-.84-.01-1.26-.02-3.61-.1-7.2-.22-10.8-.12-3.46.1-6.92.34-10.38.4-.86.01-1.73.02-2.59-.02Z"/>
          <path class="nf-water-2" d="m819.03,70.06c5.71-.39,11.35-1.35,16.69-3.38.88-.33,1.76-.7,2.5-1.28s1.34-1.4,1.47-2.33c.08-.55.01-1.19.41-1.59.45-.45,1.21-.3,1.78-.01,1.01.51,1.85,1.37,2.34,2.4.3.63.46,1.38.19,2.02-.28.69-.98,1.09-1.64,1.43-3.98,2.02-8.38,3.08-12.8,3.68-4.42.59-8.89.72-13.35.96-2.19.12-4.41.25-6.6,0-1.09-.13-2.17-.35-3.21-.73-.25-.09-1.14-.29-1.3-.48-.31-.4.21-.55.57-.54,4.3.13,8.65.16,12.95-.14Z"/>
          <path class="nf-water-2" d="m769.94,68.54c-2.59-.49-5.12-1.23-7.46-2.44-.38-.2-.77-.42-1.08-.72s-.54-.71-.55-1.14c0-.26.06-.55-.1-.75-.18-.23-.54-.2-.81-.1-.49.18-.92.53-1.2.97-.17.27-.28.61-.2.91.09.33.39.55.67.74,1.71,1.14,3.67,1.86,5.66,2.37,1.99.51,4.03.81,6.05,1.16,1,.17,2,.35,3.02.35.51,0,1.01-.04,1.51-.16.12-.03.54-.07.62-.15.16-.17-.06-.26-.23-.28-1.97-.17-3.96-.39-5.92-.76Z"/>
          <path class="nf-water-4" d="m816.32,46.27c-1.83-.87-3.89-1.31-5.63-1.3-3.02.03-6.58-.69-9.47-.47-4.09.32-8.3.13-12.25,1.07-3.7.88-7.07,2.77-9.79,5.43-1.27,1.24-5.16,5.15-4.06,7.4.28.57.8.86,1.05.99,6.47,3.36,19.67,2.74,19.67,2.74,7.85-.37,12.24-.68,17.81-2.27,3.58-1.02,6.53-2.24,7.43-4.82.72-2.06-.14-4.15-.3-4.54-.76-1.86-2.47-3.29-4.45-4.23Z"/>
          <path class="nf-water-4" d="m781.8,48.7c4.32-3.23,11.67-4.35,12.35-2.85.51,1.11-1.12,2.5-1.79,3.19-1.02,1.03-2.15,1.95-3.36,2.74-.74.48-1.44,1.11-1.59,2.01-.15.92.24,1.84.67,2.64.43.8.89,1.59,1.34,2.39.31.54.78,1.09.83,1.73.16,1.78-3.9,1.45-4.96,1.4-.83-.04-2.08-.27-4.57-.79,0,0-1.07-.22-3.84-1.25-.29-.11-.99-.38-1.53-1.04-.11-.14-.27-.33-.37-.62-.22-.59-.08-1.13.06-1.68.16-.64.39-1.1.43-1.16.99-1.44,2.28-3.07,3.98-4.68,1.02-.96,1.92-1.69,2.36-2.02Z"/>
        </g>
        <g>
          <path class="nf-water-4" d="m608.67,76.12c.77-.03,1.3-.12,2.36-.3,1.52-.26,1.81-.44,2-.62.79-.76.52-2.2.42-2.67.27.24.64.62.96,1.16.16.26.41.65.54,1.2.21.85.13,1.81-.32,2.56-.26.44-.66.49-1.12.66-.58.22-1.17.41-1.77.57-1.2.33-2.42.55-3.65.7-3.38.41-6.79.32-10.18.47-2.01.09-4.07.25-5.98-.38-1.07-.35-2.06-.95-3.15-1.25-1.69-.46-3.47-.17-5.22-.18-2.17-.01-4.33-.5-6.29-1.41-.62-.29-1.27-.68-1.47-1.34-.21-.71.19-1.41.55-1.96,1.2-1.86,2.89-3.5,4.28-4.69-.2.17-.16,1.06-.16,1.29-.02,1.95.98,3.72,2.67,4.7,2.09,1.21,4.81,1.32,7.17,1.31.31,0,.62,0,.92-.02,2.65-.07,5.28-.16,7.92-.09,2.54.07,5.08.25,7.62.29.63.01,1.27.01,1.9-.01Z"/>
          <path class="nf-water-2" d="m581.67,83.47c-4.19-.29-8.33-.99-12.25-2.48-.65-.25-1.29-.52-1.84-.94s-.98-1.03-1.08-1.71c-.06-.41-.01-.88-.3-1.17-.33-.33-.89-.22-1.3-.01-.74.38-1.36,1.01-1.71,1.76-.22.46-.34,1.01-.14,1.48.21.5.72.8,1.2,1.05,2.92,1.48,6.15,2.26,9.4,2.7,3.24.43,6.52.53,9.79.71,1.61.09,3.23.18,4.84,0,.8-.09,1.6-.26,2.35-.53.18-.07.84-.21.95-.36.23-.29-.15-.41-.42-.4-3.16.1-6.35.12-9.5-.1Z"/>
          <path class="nf-water-2" d="m617.69,82.35c1.9-.36,3.76-.9,5.47-1.79.28-.15.56-.31.79-.53s.39-.52.4-.84c0-.19-.04-.4.07-.55.13-.17.39-.15.6-.07.36.13.68.39.88.71.12.2.21.44.14.67-.07.24-.29.41-.49.54-1.26.83-2.69,1.36-4.15,1.74-1.46.37-2.96.59-4.44.85-.73.13-1.47.26-2.22.26-.37,0-.74-.03-1.11-.12-.09-.02-.39-.05-.45-.11-.12-.12.05-.19.17-.2,1.45-.12,2.91-.29,4.34-.55Z"/>
          <path class="nf-water-4" d="m583.66,66.02c1.34-.64,2.85-.96,4.13-.95,2.22.02,4.83-.51,6.95-.34,3,.23,6.09.1,8.99.78,2.72.65,5.19,2.03,7.18,3.98.93.91,3.79,3.78,2.98,5.43-.21.42-.59.63-.77.73-4.75,2.46-14.43,2.01-14.43,2.01-5.76-.27-8.98-.5-13.07-1.66-2.63-.75-4.79-1.64-5.45-3.54-.53-1.51.11-3.04.22-3.33.56-1.37,1.82-2.41,3.27-3.1Z"/>
          <path class="nf-water-4" d="m608.99,67.8c-3.17-2.37-8.56-3.19-9.06-2.09-.37.82.82,1.84,1.31,2.34.75.76,1.58,1.43,2.47,2.01.54.35,1.06.81,1.17,1.48.11.68-.18,1.35-.49,1.94-.32.59-.65,1.17-.98,1.75-.23.4-.57.8-.61,1.27-.12,1.31,2.86,1.07,3.64,1.02.61-.03,1.52-.2,3.35-.58,0,0,.79-.16,2.82-.92.21-.08.73-.28,1.12-.76.08-.1.2-.24.27-.46.16-.43.06-.83-.04-1.23-.12-.47-.29-.81-.32-.85-.72-1.06-1.68-2.25-2.92-3.43-.74-.71-1.41-1.24-1.73-1.48Z"/>
        </g>
        <g>
          <path class="nf-water-4" d="m982.26,96.3c.53-.02.89-.08,1.62-.21,1.04-.18,1.24-.3,1.37-.43.54-.52.36-1.51.28-1.83.19.17.44.43.66.79.11.18.28.45.37.82.14.58.09,1.24-.22,1.76-.18.3-.45.34-.77.45-.4.15-.8.28-1.21.39-.82.22-1.66.37-2.5.48-2.31.28-4.65.22-6.98.32-1.38.06-2.79.17-4.1-.26-.74-.24-1.41-.65-2.16-.86-1.16-.31-2.38-.12-3.58-.12-1.49,0-2.97-.34-4.31-.97-.42-.2-.87-.47-1-.92-.14-.49.13-.97.38-1.35.82-1.27,1.98-2.4,2.94-3.21-.13.11-.11.73-.11.89-.01,1.34.67,2.55,1.83,3.22,1.44.83,3.3.91,4.92.9.21,0,.42,0,.63-.01,1.82-.05,3.62-.11,5.43-.06,1.74.05,3.48.17,5.22.2.43,0,.87,0,1.3,0Z"/>
          <path class="nf-water-2" d="m963.74,101.33c-2.88-.2-5.71-.68-8.4-1.7-.44-.17-.89-.35-1.26-.65s-.67-.7-.74-1.17c-.04-.28,0-.6-.21-.8-.23-.23-.61-.15-.89,0-.51.26-.93.69-1.17,1.21-.15.32-.23.69-.1,1.02.14.34.49.55.83.72,2,1.01,4.22,1.55,6.44,1.85,2.22.3,4.47.36,6.71.48,1.1.06,2.22.13,3.32,0,.55-.06,1.09-.18,1.61-.37.13-.05.57-.14.65-.24.16-.2-.1-.28-.28-.27-2.16.07-4.35.08-6.52-.07Z"/>
          <path class="nf-water-2" d="m988.44,100.57c1.3-.24,2.58-.62,3.75-1.23.19-.1.39-.21.54-.36s.27-.36.28-.58c0-.13-.03-.27.05-.38.09-.12.27-.1.41-.05.25.09.46.27.6.49.09.14.14.3.1.46-.05.17-.2.28-.34.37-.86.57-1.85.94-2.85,1.19s-2.03.41-3.05.58c-.5.09-1.01.18-1.52.18-.25,0-.51-.02-.76-.08-.06-.01-.27-.04-.31-.08-.08-.08.03-.13.12-.14.99-.09,1.99-.2,2.98-.38Z"/>
          <path class="nf-water-4" d="m965.11,89.37c.92-.44,1.96-.66,2.83-.65,1.52.01,3.31-.35,4.77-.24,2.06.16,4.18.07,6.16.54,1.86.44,3.56,1.39,4.93,2.73.64.62,2.6,2.59,2.04,3.72-.14.29-.4.43-.53.5-3.26,1.69-9.9,1.38-9.9,1.38-3.95-.19-6.16-.34-8.96-1.14-1.8-.51-3.28-1.13-3.74-2.43-.36-1.04.07-2.09.15-2.28.38-.94,1.24-1.66,2.24-2.13Z"/>
          <path class="nf-water-4" d="m982.47,90.59c-2.18-1.62-5.87-2.19-6.21-1.43-.26.56.56,1.26.9,1.6.51.52,1.08.98,1.69,1.38.37.24.73.56.8,1.01.08.46-.12.93-.34,1.33-.22.4-.45.8-.67,1.2-.15.27-.39.55-.42.87-.08.9,1.96.73,2.5.7.42-.02,1.04-.14,2.3-.4,0,0,.54-.11,1.93-.63.15-.05.5-.19.77-.52.06-.07.13-.17.19-.31.11-.3.04-.57-.03-.84-.08-.32-.2-.55-.22-.58-.5-.72-1.15-1.54-2-2.35-.51-.49-.97-.85-1.19-1.01Z"/>
        </g>
        <g>
          <path class="nf-water-9" d="m869.56,155.26c1.78.93,3.58,1.82,4.97,3.67,1.13,1.5,1.96,3.39,1.44,6.14-.51,2.74-2.06,3.61-3.57,4.6-6.33,4.12-12.74,4.96-19.11,5.97-8.29,1.32-16.49,1.63-24.54.59.06-.43.12-.85.19-1.28,6.09.72,12.3.36,18.54-.3,4.53-.48,9.06-1.32,13.61-2.44,3.05-.75,6.02-1.95,8.91-4.52,3.26-2.9,3.82-6.13,1.37-9.25-.61-.77-1.36-1.3-2.05-1.94.08-.41.16-.82.24-1.24Z"/>
          <path class="nf-water-9" d="m780.24,164.73c-1.83-.82-3.68-1.61-5.18-3.37-1.21-1.44-2.15-3.27-1.8-6.04.35-2.76,1.85-3.73,3.3-4.79,6.08-4.48,12.43-5.69,18.73-7.07,8.2-1.79,16.37-2.59,24.46-2.01-.04.43-.08.86-.11,1.29-6.12-.37-12.3.35-18.49,1.38-4.49.74-8.97,1.84-13.45,3.22-3,.92-5.9,2.29-8.63,5.03-3.08,3.08-3.46,6.34-.83,9.31.65.74,1.43,1.22,2.15,1.82-.06.42-.11.83-.17,1.25Z"/>
          <g>
            <g>
              <path class="nf-water-4" d="m830.3,155.5c3.08.16,6.15.4,9.22.67,7.67.68,11.6.3,14.55-2,2.08-1.62,2.74-3.51,4.35-3.36,1.7.16,2.82,2.6,3.18,4.03.62,2.42-.32,4.44-.64,5.08-.93.1-2.36.39-3.88,1.22-.96.52-1.69,1.11-2.21,1.62-1.78,1.04-4.32,2.34-7.55,3.38-1.88.6-5.31,1.54-11.04,1.82-9.19.45-8.97-1.55-16.8-1.09-7.24.42-10.14,2.29-13.32.05-1.81-1.28-2.54-3.05-5.21-3.77-2.37-.64-3.47.31-4.99-.67-1.76-1.12-2.72-3.93-1.91-5.9,1.01-2.43,4.72-4.42,7.03-3.21,4.53,2.37,9.66,2.52,14.65,2.17,4.86-.34,9.72-.29,14.58-.03Z"/>
              <path class="nf-water-7" d="m794.11,156.31c.15-.43.4-1.07.78-1.8,2.19-4.23,5.18-4.77,9.52-8.15,5.77-4.49,6.86-8.17,12.74-10.11.32-.1.61-.17.91-.23,5.86-1.13,11.29,2.15,12.87,3.11,5.44,3.28,4.77,6.22,9.47,7.84,3.91,1.35,4.94-.22,11.39,1.18,5.12,1.12,8.72,3.11,8.56,3.78-.1.41-1.93.36-2.27.45-2.12.53-2.04,1.95-3.14,3.44-1.09,1.47-2.92,2.34-4.64,2.83-7.85,2.23-15.89.23-23.71-1.07-3.58-.59-7.02-1.17-10.66-.88s-7.15.86-10.45-.58c-.87-.38-1.68-.9-2.59-1.19-2.73-.88-3.68,1.87-6.13,2.09-1.13.1-2.09-.37-2.67-.72Z"/>
            </g>
            <path class="nf-water-8" d="m809.48,141.65c-.03,1.16-.2,2.82-.85,4.7-.73,2.12-1.78,3.67-2.55,4.63.28,1.99.56,3.98.83,5.97-.45.01-1.15,0-1.99-.17-1.78-.35-2.39-1.02-3.43-1.15-.84-.1-2.1.14-3.84,1.86-.11.09-1.17.96-2.52.6-.92-.24-1.42-.91-1.55-1.11.08-.43.23-1.1.52-1.88.77-2.04,1.99-3.32,2.71-4.07,1.81-1.87,6.29-5.41,12.66-9.38Z"/>
          </g>
        </g>
      </g>
      <path class="nf-water-1" d="m1433.72,68.89c-11.47-6.97-17.4-11.33-27.1-14.45,10.17,11.23,20.35,22.46,30.52,33.69,1.86.63,10.93,3.91,13.54,11.98,3.31,10.24-5.49,22.08-13.24,25.39-9.78,4.18-20.85,3.41-31.47,4.01-38.22,2.16-92.12,29.71-118.56,44-68.78,37.16-151.19,33.75-254.59,29.47-84.16-3.49-90.97-17.07-161.72-12.62-40.63,2.55-66.94,8.82-111.61.65-33.38-6.1-42.79-14.01-71.83-13.97-38.55.06-49.64,17.9-87.79,21.95-44.49,4.71-52.39-4.33-124.86-9.07-67.88-4.44-101.82-6.66-138.5-2.9-21.29,2.19-46.9,6.18-75.82-5.99-21.97-9.24-17.83-16.02-39.9-27.93-39.63-21.38-102.57-26.28-132.33-35.37-1.87-.57-5.86-2.27-8.36-5.89-5-7.24,1.16-16.78,7.04-23.33,9.99-11.13,19.97-22.25,29.96-33.38-3.77,1.16-7.43,2.65-10.91,4.56-28.64,15.75-61.11,18.58-89.87,34.38-36.65,20.13-3.83,37.61,22.67,46.11,0,0,39.79,12.1,91.17,16.28,51.38,4.18,47.21,21.71,47.21,21.71,0,0-11.9,19.56,137.08,18.26,85.76-.75,171.67,4.71,256.85,15.12,18.54,2.27,37.88,4.7,55.44-1.98,27.34-10.39,41.75-30.77,73.75-25.48,18.92,3.12,36.69,11.49,55.37,15.96,43.18,10.35,51.13-2.94,110.88,4.39,68.36,8.38,137.26,11.64,206.12,11.25,34.34-.2,68.67-1.29,102.97-3.01,29.97-1.5,66.91,1.96,95.5-6.32,26.66-7.72,49.12-25.32,73.05-39.38,50.36-29.59,106.24-7.54,157.06-34.23,7.3-3.84,27.97-14.89,26.89-25.15-4.13-39.28-71.81-24.84-94.62-38.7Z"/>
    </g>
  </g>
</svg>