<?xml version="1.0" encoding="UTF-8"?>
<svg id="Calque_2" data-name="Calque 2" xmlns="http://www.w3.org/2000/svg" viewBox="0 0 348.72 279.14">
  <defs>
    <style>
      .mockup-desktop-1 {
        fill: #f4f4f4;
      }

      .mockup-desktop-2 {
        fill: #78cec2;
      }

      .mockup-desktop-3 {
        fill: #242c3f;
      }

      .mockup-desktop-4 {
        stroke-width: .33px;
      }

      .mockup-desktop-4, .mockup-desktop-5 {
        fill: #4b505b;
        stroke: #efefef;
        stroke-miterlimit: 10;
      }

      .mockup-desktop-5 {
        stroke-width: .29px;
      }

      .mockup-desktop-6 {
        fill: #eaeaea;
      }

      .mockup-desktop-7 {
        fill: #7e838c;
      }

      .mockup-desktop-8 {
        fill: #ff7900;
      }

      .mockup-desktop-9 {
        fill: #ff2c68;
      }
    </style>
  </defs>
  <g id="Calque_1-2" data-name="Calque 1">
    <g>
      <path class="mockup-desktop-3" d="m4.06,33.99l33.57,243.36c.15,1.1,1.13,1.88,2.23,1.79l298.57-24.6c1.23-.1,2.11-1.25,1.87-2.47-13.24-68.79-26.48-137.57-39.72-206.36-.18-.95-.99-1.65-1.96-1.69-97.47-4.13-194.95-8.27-292.42-12.4-1.3-.06-2.33,1.08-2.15,2.37Z"/>
      <path class="mockup-desktop-3" d="m297.96,40.35L4.9,27.97c-1.61-.07-3.05-1.21-3.22-2.54L.01,11.82c-.16-1.32,1.01-2.33,2.61-2.25l291.63,13.97c1.33.06,2.62,1.09,2.88,2.3l2.75,12.41c.27,1.22-.59,2.16-1.92,2.1Z"/>
    </g>
    <g>
      <path class="mockup-desktop-2" d="m10.46,25.99l33.57,243.36c.15,1.1,1.13,1.88,2.23,1.79l298.57-24.6c1.23-.1,2.11-1.25,1.87-2.47-13.24-68.79-26.48-137.57-39.72-206.36-.18-.95-.99-1.65-1.96-1.69C207.56,31.89,110.09,27.76,12.61,23.63c-1.3-.06-2.33,1.08-2.15,2.37Z"/>
      <path class="mockup-desktop-2" d="m304.37,32.35L11.3,19.98c-1.61-.07-3.05-1.21-3.22-2.54l-1.67-13.61c-.16-1.32,1.01-2.33,2.61-2.25l291.63,13.97c1.33.06,2.62,1.09,2.88,2.3l2.75,12.41c.27,1.22-.59,2.16-1.92,2.1Z"/>
    </g>
    <g>
      <g>
        <path class="mockup-desktop-1" d="m305.91,30.69L12.7,18.39c-1.47-.06-2.8-1.19-2.97-2.52l-1.79-13.58C7.77.96,8.81-.06,10.27,0l291.81,12.24c1.46.06,2.86,1.18,3.14,2.51l2.84,13.63c.28,1.34-.68,2.37-2.15,2.31Z"/>
        <g>
          <path class="mockup-desktop-9" d="m20.35,7.1c-1.49-.06-2.56.99-2.38,2.34.18,1.36,1.54,2.51,3.04,2.57,1.5.06,2.56-.99,2.38-2.35-.18-1.36-1.54-2.51-3.04-2.57Z"/>
          <path class="mockup-desktop-8" d="m27.72,7.41c-1.49-.06-2.56.99-2.37,2.34s1.55,2.51,3.04,2.57c1.5.06,2.56-.99,2.37-2.35-.19-1.36-1.55-2.51-3.04-2.57Z"/>
          <path class="mockup-desktop-2" d="m35.12,7.72c-1.49-.06-2.56.99-2.37,2.34.19,1.36,1.55,2.51,3.05,2.57s2.56-.99,2.37-2.35-1.55-2.51-3.05-2.57Z"/>
        </g>
        <path class="mockup-desktop-4" d="m290.22,24.06c-.28-.01-.51-.09-.69-.24-.18-.15-.29-.35-.34-.6l-.35-1.71-1.83-.08c-.27-.01-.49-.08-.66-.22-.17-.13-.28-.32-.33-.57s-.02-.43.1-.55c.12-.12.31-.18.58-.16l1.83.08-.33-1.64c-.05-.26-.02-.45.1-.58s.33-.19.62-.18.5.09.68.23.28.34.34.59l.33,1.64,1.83.08c.27.01.49.08.66.22.17.13.28.32.33.57s.02.43-.1.55c-.12.12-.31.18-.58.16l-1.83-.08.35,1.71c.05.26.02.45-.1.58-.12.13-.32.19-.61.18Z"/>
        <path class="mockup-desktop-6" d="m265.07,24.25L51.93,15.31c-.65-.03-1.24-.53-1.33-1.12l-.97-6.8c-.08-.59.37-1.04,1.02-1.01l212.64,8.92c.65.03,1.27.53,1.38,1.11l1.35,6.81c.12.59-.31,1.05-.96,1.02Z"/>
        <g>
          <polygon class="mockup-desktop-5" points="282.24 21.92 278.6 21.77 277.67 17.15 281.3 17.3 282.24 21.92"/>
          <polygon class="mockup-desktop-5" points="283.73 23.79 280.1 23.64 279.17 19.02 282.8 19.17 283.73 23.79"/>
        </g>
        <g>
          <path class="mockup-desktop-7" d="m115.9,14.93c-.11,0-.23-.02-.35-.04-.12-.02-.24-.04-.36-.08-.11-.03-.22-.07-.31-.11-.08-.04-.14-.08-.18-.14-.04-.06-.06-.11-.06-.17,0-.06.01-.11.05-.16.03-.05.08-.07.14-.09.06-.01.14,0,.22.03.11.05.24.09.38.12.14.03.27.05.38.05.18,0,.31,0,.38-.05.07-.04.1-.09.08-.16,0-.06-.04-.11-.1-.14-.06-.04-.15-.07-.29-.1l-.51-.12c-.28-.06-.49-.16-.64-.29-.15-.13-.24-.3-.27-.5-.02-.13,0-.25.03-.36.04-.11.11-.19.21-.26.1-.07.22-.12.37-.16.15-.04.31-.05.5-.04.15,0,.29.03.45.06s.29.08.41.15c.07.03.12.08.16.13s.06.11.06.17c0,.06-.01.11-.04.15-.03.04-.08.07-.14.08-.06.01-.14,0-.23-.04-.09-.04-.18-.06-.29-.09-.1-.02-.2-.03-.3-.04-.1,0-.19,0-.26.02-.07.02-.12.05-.15.09-.03.04-.04.09-.03.14s.04.1.09.14c.05.04.15.07.29.1l.5.12c.28.06.5.16.65.29s.25.29.28.48c.02.13.01.25-.03.35s-.11.19-.21.26c-.1.07-.22.12-.37.16-.15.03-.32.05-.51.04Z"/>
          <path class="mockup-desktop-7" d="m118.37,14.99c-.13,0-.24-.04-.31-.11-.08-.06-.13-.16-.15-.27l-.31-1.96c-.02-.12,0-.2.06-.26.06-.06.15-.09.28-.08l1.42.06c.1,0,.18.03.24.08.06.05.09.11.11.2s0,.16-.04.2c-.04.04-.11.07-.22.06l-1.08-.05.08.51.99.04c.1,0,.18.03.23.08.06.05.1.12.11.2s0,.16-.05.2c-.04.04-.12.06-.21.06l-.99-.04.09.55,1.08.05c.1,0,.18.03.24.08.06.05.09.12.11.2s0,.16-.04.2-.12.06-.22.06l-1.42-.06Z"/>
          <path class="mockup-desktop-7" d="m121.09,15.14c-.09,0-.16-.02-.23-.06-.06-.04-.11-.09-.13-.16-.02-.07-.02-.14,0-.22l.72-2c.03-.1.09-.17.15-.21.07-.04.15-.06.24-.06s.18.03.26.08c.08.05.15.12.22.22l1.37,2.08c.06.08.09.16.08.22,0,.07-.03.11-.08.15-.05.03-.12.05-.2.04-.11,0-.2-.03-.27-.08-.07-.05-.13-.12-.2-.23l-.3-.49.33.21-1.73-.07.27-.18-.15.47c-.03.1-.07.17-.12.21-.05.04-.12.06-.23.06Zm.87-1.94l-.32,1.03-.15-.19,1.22.05-.09.18-.66-1.07h0Z"/>
          <path class="mockup-desktop-7" d="m124.97,15.3c-.12,0-.22-.04-.3-.1-.08-.07-.13-.15-.14-.27l-.32-2.01c-.02-.11,0-.2.06-.26.06-.06.15-.08.27-.08l1.03.04c.34.01.61.1.81.26.21.16.33.37.37.63.03.17.01.32-.05.44s-.17.21-.31.27c-.14.06-.33.09-.56.08l.02-.07h.2c.12.01.23.04.33.1s.19.14.27.25l.26.35c.06.08.09.15.1.22,0,.07-.01.13-.06.17-.05.04-.13.06-.24.06s-.2-.03-.28-.07c-.08-.04-.15-.11-.21-.2l-.48-.65c-.04-.06-.09-.1-.15-.12-.06-.02-.12-.04-.18-.04h-.23s.11.67.11.67c.02.11,0,.2-.05.26-.05.06-.15.09-.27.08Zm.14-1.51l.51.02c.15,0,.26-.02.33-.07s.1-.13.08-.24-.07-.19-.16-.25-.2-.09-.35-.1l-.51-.02.1.65Z"/>
          <path class="mockup-desktop-7" d="m129.46,15.5c-.33-.01-.62-.08-.87-.21-.25-.12-.46-.29-.62-.51s-.26-.46-.3-.74c-.03-.21-.03-.4.01-.56.04-.17.12-.31.24-.42.12-.12.27-.2.45-.26.18-.06.4-.08.64-.07.13,0,.26.02.41.06s.27.08.39.14c.08.04.15.09.19.15.04.06.06.12.06.18,0,.06-.02.11-.05.16-.03.05-.08.08-.13.09s-.13,0-.21-.03c-.09-.04-.18-.07-.26-.09s-.17-.04-.26-.04c-.17,0-.31.02-.42.07-.11.06-.18.14-.22.25-.04.11-.05.25-.02.42s.08.31.16.43c.08.12.18.21.3.27s.27.1.45.11c.07,0,.15,0,.23-.01.08-.01.16-.04.23-.07.08-.03.15-.04.22-.02.07.02.13.05.17.1.05.05.08.1.1.16.02.06.02.12,0,.18s-.06.1-.13.13c-.09.05-.2.09-.34.11s-.28.03-.42.03Z"/>
          <path class="mockup-desktop-7" d="m131.68,15.58c-.12,0-.22-.04-.3-.1-.08-.07-.13-.15-.14-.27l-.33-2.04c-.02-.12,0-.2.06-.26.06-.06.15-.08.27-.08s.23.04.3.1c.08.06.12.15.14.27l.12.71,1.22.05-.12-.71c-.02-.12,0-.2.05-.26.06-.06.15-.08.27-.08s.22.04.3.1c.08.06.12.15.14.27l.33,2.04c.02.11,0,.2-.05.26-.06.06-.15.09-.27.08s-.23-.04-.3-.11c-.08-.07-.12-.15-.14-.27l-.12-.75-1.22-.05.12.75c.02.11,0,.2-.05.26-.05.06-.15.09-.27.08Z"/>
          <path class="mockup-desktop-7" d="m138.11,15.86c-.3-.01-.57-.08-.82-.21s-.45-.29-.61-.51-.26-.46-.31-.74c-.03-.21-.03-.4.01-.56.04-.17.12-.31.23-.42.11-.12.26-.2.43-.26.17-.06.37-.08.6-.07.3.01.57.08.81.2.24.12.45.29.61.5.16.21.26.46.31.74.03.21.03.4-.01.56-.04.17-.12.31-.23.43-.11.12-.26.2-.43.26-.17.06-.37.08-.6.07Zm-.1-.59c.15,0,.27-.02.36-.08.09-.06.16-.15.19-.26.04-.12.04-.26.01-.43-.04-.25-.14-.45-.28-.59s-.33-.22-.55-.23c-.15,0-.26.02-.36.08-.09.06-.16.14-.2.26-.04.12-.04.26-.01.43.04.25.13.45.28.6.15.15.33.22.55.23Z"/>
          <path class="mockup-desktop-7" d="m140.89,15.97c-.12,0-.22-.04-.3-.1-.08-.07-.13-.15-.14-.27l-.33-2.01c-.02-.11,0-.2.06-.26.06-.06.15-.08.27-.08l1.03.04c.34.01.61.1.81.26.21.16.33.37.38.63.03.17.01.32-.05.44s-.16.21-.31.27c-.14.06-.33.09-.56.08l.02-.07h.2c.12.01.23.04.33.1s.19.14.27.25l.27.35c.06.08.09.15.1.22,0,.07-.01.13-.06.17-.05.04-.13.06-.24.06s-.2-.03-.28-.07c-.08-.04-.15-.11-.21-.2l-.49-.65c-.04-.06-.09-.1-.15-.12-.06-.02-.12-.04-.18-.04h-.23s.11.67.11.67c.02.11,0,.2-.05.26-.05.06-.14.09-.27.08Zm.13-1.51l.51.02c.15,0,.26-.02.33-.07s.09-.13.08-.24-.07-.19-.16-.25-.21-.09-.35-.1l-.51-.02.11.65Z"/>
          <path class="mockup-desktop-7" d="m145.95,16.15c-.13,0-.24-.04-.32-.11-.08-.06-.13-.16-.15-.27l-.33-1.96c-.02-.12,0-.2.06-.26.06-.06.15-.09.28-.08l1.42.06c.1,0,.18.03.24.08.06.05.09.11.11.2s0,.16-.04.2c-.04.04-.11.07-.21.06l-1.08-.05.09.51.99.04c.1,0,.18.03.24.08.06.05.1.12.11.2s0,.16-.04.2c-.04.04-.11.06-.21.06l-.99-.04.09.55,1.08.05c.1,0,.18.03.24.08.06.05.09.12.11.2s0,.16-.04.2-.11.06-.21.06l-1.42-.06Z"/>
          <path class="mockup-desktop-7" d="m148.93,16.31c-.12,0-.21-.04-.28-.09s-.12-.14-.13-.25l-.35-2.07c-.02-.11,0-.2.05-.25.05-.06.13-.08.23-.08.09,0,.16.02.22.05s.12.09.19.16l1.58,1.56h-.12s-.23-1.38-.23-1.38c-.02-.11,0-.19.05-.24s.14-.08.25-.07.21.04.28.09.11.14.13.25l.35,2.11c.02.1,0,.17-.05.23s-.12.08-.21.08-.17-.02-.23-.06c-.06-.03-.13-.09-.2-.16l-1.58-1.57h.12s.23,1.38.23,1.38c.02.11,0,.19-.05.24s-.13.08-.25.07Z"/>
          <path class="mockup-desktop-7" d="m153.27,16.49c-.12,0-.22-.04-.3-.1-.08-.07-.13-.15-.14-.27l-.3-1.79-.66-.03c-.1,0-.19-.03-.25-.08-.06-.05-.1-.12-.12-.21s0-.16.05-.21c.05-.05.12-.07.22-.06l2.08.09c.1,0,.19.03.25.08s.1.12.12.22,0,.16-.05.21-.12.07-.22.06l-.66-.03.3,1.79c.02.11,0,.2-.05.26-.05.06-.14.09-.27.08Z"/>
          <path class="mockup-desktop-7" d="m155.73,16.56c-.13,0-.24-.04-.32-.11-.08-.06-.13-.16-.15-.27l-.33-1.96c-.02-.12,0-.2.06-.26.06-.06.15-.09.28-.08l1.42.06c.1,0,.18.03.24.08.06.05.09.11.11.2s0,.16-.04.2c-.04.04-.11.07-.21.06l-1.08-.05.09.51.99.04c.1,0,.18.03.24.08.06.05.1.12.11.2s0,.16-.04.2c-.04.04-.11.06-.21.06l-.99-.04.09.55,1.08.05c.1,0,.18.03.24.08.06.05.09.12.11.2s0,.16-.04.2-.11.06-.21.06l-1.42-.06Z"/>
          <path class="mockup-desktop-7" d="m158.73,16.72c-.12,0-.22-.04-.3-.1-.08-.07-.13-.15-.15-.27l-.34-2.01c-.02-.11,0-.2.06-.26.06-.06.15-.08.27-.08l1.03.04c.34.01.61.1.81.26.21.16.33.37.38.63.03.17.01.32-.05.44s-.16.21-.31.27c-.14.06-.33.09-.55.08l.02-.07h.2c.12.01.23.04.33.1s.19.14.27.25l.27.35c.06.08.09.15.1.22,0,.07-.01.13-.06.17-.05.04-.13.06-.24.06s-.2-.03-.28-.07c-.08-.04-.15-.11-.22-.2l-.49-.65c-.04-.06-.09-.1-.15-.12-.06-.02-.12-.04-.18-.04h-.23s.12.67.12.67c.02.11,0,.2-.05.26-.05.06-.14.09-.27.08Zm.13-1.51l.51.02c.15,0,.26-.02.33-.07s.09-.13.08-.24-.07-.19-.16-.25-.21-.09-.35-.1l-.51-.02.11.65Z"/>
          <path class="mockup-desktop-7" d="m164.54,16.96c-.1,0-.19-.03-.26-.08-.07-.05-.13-.12-.19-.21l-1.17-2.1c-.06-.12-.07-.21-.03-.29.05-.08.15-.11.3-.11.1,0,.19.03.25.08.07.05.12.12.17.21l.92,1.73h-.2s.38-1.68.38-1.68c.02-.09.06-.16.11-.2.05-.04.12-.06.21-.06s.17.03.23.08c.06.05.12.12.17.22l.92,1.72h-.17s.35-1.68.35-1.68c.02-.09.05-.16.1-.2.05-.04.13-.06.23-.06.13,0,.23.05.3.13s.1.18.07.29l-.47,2.04c-.02.09-.06.16-.11.2-.06.04-.13.06-.24.06s-.19-.03-.27-.08c-.07-.05-.13-.12-.18-.21l-.85-1.53h.1s-.34,1.49-.34,1.49c-.02.09-.06.16-.12.2-.05.04-.13.06-.24.06Z"/>
          <path class="mockup-desktop-7" d="m168.96,17.11c-.13,0-.24-.04-.32-.11-.08-.06-.13-.16-.15-.27l-.34-1.96c-.02-.12,0-.2.06-.26.06-.06.15-.09.28-.08l1.42.06c.1,0,.18.03.24.08.06.05.09.11.11.2s0,.16-.04.2c-.04.04-.11.07-.21.06l-1.08-.05.09.51.99.04c.1,0,.18.03.24.08.06.05.1.12.11.2s0,.16-.04.2c-.04.04-.11.06-.21.06l-.99-.04.1.55,1.08.05c.1,0,.18.03.24.08.06.05.09.12.11.2s0,.16-.04.2-.11.06-.21.06l-1.42-.06Z"/>
          <path class="mockup-desktop-7" d="m171.98,17.24c-.13,0-.24-.04-.32-.11-.08-.06-.13-.16-.15-.27l-.34-1.96c-.02-.12,0-.2.06-.26.06-.06.15-.09.28-.08l1.02.04c.21,0,.4.05.56.11s.29.15.38.26c.1.11.16.23.18.37.03.16,0,.29-.08.4-.08.11-.2.18-.36.21v-.06c.2.04.36.12.49.24.13.12.21.27.24.44.04.24-.02.42-.18.55-.16.13-.4.19-.72.17l-1.06-.04Zm.05-1.6l.55.02c.14,0,.24-.01.3-.06s.08-.11.06-.21-.06-.16-.13-.21c-.07-.05-.18-.07-.32-.08l-.55-.02.1.55Zm.19,1.1l.62.03c.14,0,.24-.01.3-.06.06-.05.08-.12.06-.22s-.06-.17-.14-.22c-.07-.05-.18-.08-.32-.09l-.62-.03.1.59Z"/>
          <path class="mockup-desktop-7" d="m176.07,17.45c-.11,0-.23-.02-.35-.04-.12-.02-.24-.04-.36-.08-.11-.03-.22-.07-.31-.11-.08-.04-.14-.08-.18-.14-.04-.06-.06-.11-.06-.18,0-.06.01-.11.04-.16.03-.05.08-.07.14-.09.06-.01.14,0,.22.03.11.05.24.09.38.12.14.03.27.05.38.05.18,0,.31,0,.38-.05.07-.04.09-.09.08-.16-.01-.06-.04-.11-.1-.14-.06-.04-.15-.07-.29-.1l-.51-.12c-.28-.06-.49-.16-.65-.29-.15-.13-.25-.3-.28-.5-.02-.13-.01-.25.03-.36.04-.11.11-.19.21-.26.1-.07.22-.12.36-.16.14-.04.31-.05.5-.04.15,0,.29.03.45.06s.29.08.41.15c.07.03.12.08.16.13s.06.11.06.17c0,.06,0,.11-.04.15-.03.04-.08.07-.14.08-.06.01-.14,0-.23-.04-.09-.04-.18-.06-.29-.09-.11-.02-.2-.03-.3-.04-.1,0-.19,0-.26.02-.07.02-.12.05-.15.09-.03.04-.04.09-.03.14s.04.1.1.14c.06.04.15.07.29.1l.5.12c.28.06.5.16.65.29s.25.29.28.48c.02.13.01.25-.03.35s-.11.19-.2.26c-.1.07-.22.12-.36.16-.15.03-.32.05-.51.04Z"/>
          <path class="mockup-desktop-7" d="m178.52,17.55c-.12,0-.22-.04-.3-.1-.08-.07-.13-.15-.15-.27l-.36-2.04c-.02-.12,0-.2.05-.26.06-.06.15-.08.27-.08s.23.04.3.1c.08.06.12.15.15.27l.36,2.04c.02.11,0,.2-.05.26-.05.06-.14.09-.27.08Z"/>
          <path class="mockup-desktop-7" d="m180.97,17.65c-.12,0-.22-.04-.3-.1-.08-.07-.13-.15-.15-.27l-.32-1.79-.66-.03c-.1,0-.19-.03-.25-.08-.06-.05-.1-.12-.12-.21s0-.16.04-.21c.05-.05.12-.07.22-.06l2.08.09c.1,0,.19.03.25.08s.1.12.12.22,0,.16-.04.21-.12.07-.22.06l-.66-.03.32,1.79c.02.11,0,.2-.05.26-.05.06-.14.09-.27.08Z"/>
          <path class="mockup-desktop-7" d="m183.43,17.72c-.13,0-.24-.04-.32-.11-.08-.06-.13-.16-.15-.27l-.35-1.96c-.02-.12,0-.2.06-.26.06-.06.15-.09.28-.08l1.42.06c.1,0,.18.03.24.08.06.05.09.11.11.2s0,.16-.04.2c-.04.04-.11.07-.21.06l-1.08-.05.09.51.99.04c.1,0,.18.03.24.08.06.05.1.12.11.2s0,.16-.04.2c-.04.04-.11.06-.21.06l-.99-.04.1.55,1.08.05c.1,0,.18.03.24.08.06.05.1.12.11.2s0,.16-.04.2-.11.06-.21.06l-1.42-.06Z"/>
          <path class="mockup-desktop-7" d="m188.05,17.95c-.12,0-.21-.04-.28-.1s-.12-.14-.14-.25l-.37-2.08c-.02-.11,0-.2.05-.25.05-.06.13-.08.23-.08.09,0,.16.02.22.05s.12.09.19.16l1.6,1.56h-.12s-.25-1.38-.25-1.38c-.02-.11,0-.19.05-.24s.13-.08.25-.07.21.04.28.09.11.14.13.25l.38,2.11c.02.1,0,.17-.04.23s-.12.08-.21.08-.17-.02-.23-.06c-.06-.03-.13-.09-.2-.16l-1.6-1.57h.12s.24,1.38.24,1.38c.02.11,0,.19-.05.24s-.13.08-.25.07Z"/>
          <path class="mockup-desktop-7" d="m191.45,18.09c-.09,0-.16-.02-.23-.06-.07-.04-.11-.09-.14-.16-.03-.07-.03-.14,0-.22l.68-2c.03-.1.08-.17.15-.21.07-.04.15-.06.24-.06s.18.03.26.08c.08.05.15.12.22.22l1.41,2.08c.06.08.09.16.09.22,0,.07-.03.11-.08.15-.05.03-.12.05-.2.04-.11,0-.2-.03-.27-.08-.07-.05-.14-.12-.2-.23l-.31-.49.33.21-1.73-.07.26-.18-.14.47c-.03.1-.07.17-.12.21-.05.04-.12.06-.23.06Zm.83-1.94l-.3,1.03-.15-.19,1.22.05-.08.18-.68-1.08h0Z"/>
          <path class="mockup-desktop-7" d="m195.31,18.25c-.11,0-.2-.04-.27-.09-.07-.06-.11-.14-.13-.24l-.38-2.11c-.02-.1,0-.18.05-.23s.14-.08.26-.07c.1,0,.18.02.24.06s.13.1.19.18l1.16,1.51h-.15s.63-1.44.63-1.44c.04-.08.08-.13.13-.16s.13-.05.22-.04c.11,0,.2.04.27.09s.11.14.13.24l.38,2.11c.02.1,0,.18-.05.23s-.13.08-.24.07-.2-.04-.27-.09-.11-.14-.13-.24l-.24-1.31h.09s-.48,1.04-.48,1.04c-.03.05-.06.09-.1.12-.04.03-.09.04-.17.03s-.13-.02-.18-.05c-.05-.03-.1-.07-.14-.13l-.87-1.1h.1s.24,1.32.24,1.32c.02.1,0,.18-.05.23s-.13.08-.24.07Z"/>
          <path class="mockup-desktop-7" d="m199.5,18.39c-.13,0-.24-.04-.32-.11-.08-.06-.13-.16-.15-.27l-.35-1.96c-.02-.12,0-.2.05-.26.06-.06.15-.09.28-.08l1.42.06c.1,0,.18.03.24.08.06.05.1.11.11.2s0,.16-.04.2c-.04.04-.11.07-.21.06l-1.08-.05.09.51.99.04c.1,0,.18.03.24.08.06.05.1.12.11.2s0,.16-.04.2c-.04.04-.11.06-.21.06l-.99-.04.1.55,1.08.05c.1,0,.18.03.24.08.06.05.1.12.11.2s0,.16-.04.2-.11.06-.21.06l-1.42-.06Z"/>
        </g>
      </g>
      <path class="mockup-desktop-1" d="m14.53,21.42l292.49,12.4c.95.04,1.74.73,1.92,1.66l39.73,206.42c.23,1.2-.63,2.33-1.84,2.43l-298.64,24.61c-1.08.09-2.05-.68-2.2-1.76L12.42,23.74c-.17-1.26.84-2.38,2.11-2.33Z"/>
    </g>
  </g>
</svg>