<?xml version="1.0" encoding="UTF-8"?>
<svg id="Calque_2" data-name="Calque 2" xmlns="http://www.w3.org/2000/svg" xmlns:xlink="http://www.w3.org/1999/xlink" viewBox="0 0 268 268">
  <defs>
    <style>
      .back-end-1 {
        fill: url(#back-end_19-5);
      }

      .back-end-2 {
        fill: url(#back-end_21-2);
        filter: url(#back-end-shadow-2);
      }

      .back-end-3 {
        fill: url(#back-end_21-3);
        filter: url(#back-end-shadow-3);
      }

      .back-end-4 {
        fill: url(#back-end_19-3);
      }

      .back-end-5 {
        fill: url(#back-end_19-6);
      }

      .back-end-6 {
        fill: #99ECFF;
      }

      .back-end-7 {
        fill: #6A2AFF;
      }

      .back-end-8 {
        fill: #99b4ff;
      }

      .back-end-9 {
        fill: #50d6ff;
      }

      .back-end-10 {
        fill: url(#back-end_19-9);
      }

      .back-end-11 {
        clip-path: url(#clippath-back-end);
      }

      .back-end-12 {
        fill: none;
      }

      .back-end-13 {
        fill: #2a2d49;
      }

      .back-end-14 {
        fill: url(#back-end_19-7);
      }

      .back-end-15 {
        fill: #4e5789;
      }

      .back-end-16 {
        fill: url(#back-end_19-4);
      }

      .back-end-17 {
        fill: url(#back-end_19-2);
      }

      .back-end-18 {
        fill: url(#back-end_19);
      }

      .back-end-19 {
        fill: url(#back-end_21);
        filter: url(#back-end-shadow-1);
      }

      .back-end-20 {
        fill: url(#back-end_19-8);
      }
    </style>
    <clipPath id="clippath-back-end">
      <rect class="back-end-12" width="268" height="268"/>
    </clipPath>
    <linearGradient id="back-end_21" data-name="Dégradé sans nom 21" x1="56.05" y1="174.2" x2="211.95" y2="174.2" gradientUnits="userSpaceOnUse">
      <stop offset=".21" stop-color="#2a2d49"/>
      <stop offset=".5" stop-color="#6A2AFF"/>
      <stop offset=".75" stop-color="#2a2d49"/>
    </linearGradient>
    <filter id="back-end-shadow-1" filterUnits="userSpaceOnUse">
      <feOffset dx="0" dy="5"/>
      <feGaussianBlur result="blur" stdDeviation="4"/>
      <feFlood flood-color="#000" flood-opacity=".5"/>
      <feComposite in2="blur" operator="in"/>
      <feComposite in="SourceGraphic"/>
    </filter>
    <linearGradient id="back-end_19" data-name="Dégradé sans nom 19" x1="78.1" y1="63.01" x2="223.43" y2="324.57" gradientUnits="userSpaceOnUse">
      <stop offset=".21" stop-color="#393d5b"/>
      <stop offset=".5" stop-color="#6A2AFF"/>
      <stop offset=".75" stop-color="#393d5b"/>
    </linearGradient>
    <linearGradient id="back-end_19-2" data-name="Dégradé sans nom 19" x1="94.36" y1="151.36" x2="173.1" y2="151.36" xlink:href="#back-end_19"/>
    <linearGradient id="back-end_19-3" data-name="Dégradé sans nom 19" x1="110.53" y1="172.33" x2="156.94" y2="172.33" xlink:href="#back-end_19"/>
    <linearGradient id="back-end_21-2" data-name="Dégradé sans nom 21" y1="135.08" y2="135.08" xlink:href="#back-end_21"/>
    <filter id="back-end-shadow-2" filterUnits="userSpaceOnUse">
      <feOffset dx="0" dy="5"/>
      <feGaussianBlur result="blur-2" stdDeviation="4"/>
      <feFlood flood-color="#000" flood-opacity=".5"/>
      <feComposite in2="blur-2" operator="in"/>
      <feComposite in="SourceGraphic"/>
    </filter>
    <linearGradient id="back-end_19-4" data-name="Dégradé sans nom 19" x1="78.1" y1="23.9" x2="223.43" y2="285.46" xlink:href="#back-end_19"/>
    <linearGradient id="back-end_19-5" data-name="Dégradé sans nom 19" x1="94.36" y1="112.25" x2="173.1" y2="112.25" xlink:href="#back-end_19"/>
    <linearGradient id="back-end_19-6" data-name="Dégradé sans nom 19" x1="110.53" y1="133.21" x2="156.94" y2="133.21" xlink:href="#back-end_19"/>
    <linearGradient id="back-end_21-3" data-name="Dégradé sans nom 21" y1="95.97" y2="95.97" xlink:href="#back-end_21"/>
    <filter id="back-end-shadow-3" filterUnits="userSpaceOnUse">
      <feOffset dx="0" dy="5"/>
      <feGaussianBlur result="blur-3" stdDeviation="4"/>
      <feFlood flood-color="#000" flood-opacity=".5"/>
      <feComposite in2="blur-3" operator="in"/>
      <feComposite in="SourceGraphic"/>
    </filter>
    <linearGradient id="back-end_19-7" data-name="Dégradé sans nom 19" x1="78.1" y1="-15.21" x2="223.43" y2="246.35" xlink:href="#back-end_19"/>
    <linearGradient id="back-end_19-8" data-name="Dégradé sans nom 19" x1="94.36" y1="73.14" x2="173.1" y2="73.14" xlink:href="#back-end_19"/>
    <linearGradient id="back-end_19-9" data-name="Dégradé sans nom 19" x1="110.53" y1="94.1" x2="156.94" y2="94.1" xlink:href="#back-end_19"/>
  </defs>
  <g id="HOME">
    <g class="back-end-11">
      <g>
        <g>
          <rect class="back-end-9" x="165.6" y="17.83" width="5.88" height="17.65" rx="2.94" ry="2.94"/>
          <rect class="back-end-9" x="173.17" y="26.84" width="5.88" height="17.65" rx="2.94" ry="2.94"/>
          <rect class="back-end-9" x="165.6" y="89.83" width="5.88" height="17.65" rx="2.94" ry="2.94"/>
          <rect class="back-end-9" x="165.6" y="37.05" width="5.88" height="32" rx="2.94" ry="2.94"/>
          <rect class="back-end-9" x="173.17" y="65.24" width="5.88" height="32" rx="2.94" ry="2.94"/>
          <rect class="back-end-9" x="165.6" y="109.04" width="5.88" height="32" rx="2.94" ry="2.94"/>
          <rect class="back-end-9" x="173.17" y="46.04" width="5.88" height="17.65" rx="2.94" ry="2.94"/>
          <rect class="back-end-9" x="165.6" y="70.61" width="5.88" height="17.65" rx="2.94" ry="2.94"/>
          <rect class="back-end-9" x="173.17" y="98.78" width="5.88" height="17.65" rx="2.94" ry="2.94"/>
          <rect class="back-end-9" x="173.17" y="117.98" width="5.88" height="17.65" rx="2.94" ry="2.94"/>
          <rect class="back-end-9" x="173.17" y="137.18" width="5.88" height="17.65" rx="2.94" ry="2.94"/>
        </g>
        <g>
          <g>
            <g>
              <g>
                <path class="back-end-19" d="m211.88,162.78c-.35-1.89-1.85-3.08-2.61-3.59-6.89-3.92-13.99-7.96-20.88-11.88-12.61-7.19-34.01-19.42-45.86-26.2-5.3-3.03-11.79-3.03-17.08,0-11.85,6.78-33.25,19.02-45.86,26.2-6.89,3.93-13.98,7.96-20.88,11.88-.75.51-2.26,1.7-2.61,3.59-.04.22-.06.44-.07.66v21.62c0,1.51.81,2.89,2.12,3.64,23.03,13.03,46.07,26.06,69.1,39.09,4.17,2.36,9.28,2.36,13.46,0,23.03-13.03,46.07-26.06,69.1-39.09,1.31-.74,2.12-2.13,2.12-3.64v-21.62c0-.21-.03-.43-.07-.66Z"/>
                <g>
                  <path class="back-end-6" d="m59.08,160.85c22.11-12.64,44.23-25.29,66.34-37.93,5.2-2.97,11.58-2.97,16.78,0,22.06,12.64,44.12,25.28,66.18,37.92,1.88,1.08,1.87,3.79-.01,4.86l-68.12,38.54c-4.04,2.29-8.99,2.29-13.04,0l-68.12-38.54c-1.89-1.07-1.89-3.79-.01-4.86Z"/>
                  <path class="back-end-18" d="m60.61,161.34c21.69-12.26,43.39-24.52,65.08-36.78,5.03-2.85,11.19-2.84,16.22,0,21.64,12.26,43.28,24.52,64.93,36.77,1.4.79,1.4,2.82,0,3.61l-66.81,37.36c-3.92,2.19-8.69,2.19-12.61,0l-66.8-37.36c-1.41-.79-1.41-2.81,0-3.61Z"/>
                  <g>
                    <path class="back-end-13" d="m99.33,154.71c9.85-5.63,19.69-11.26,29.54-16.89,3.04-1.74,6.78-1.74,9.82,0,9.82,5.63,19.64,11.25,29.46,16.88,6.65,3.81,6.62,13.41-.05,17.19l-29.51,16.69c-3.02,1.71-6.72,1.71-9.74,0l-29.49-16.68c-6.67-3.78-6.7-13.38-.04-17.19Z"/>
                    <path class="back-end-17" d="m99.33,160.55c9.85-5.63,19.69-11.26,29.54-16.89,3.04-1.74,6.78-1.74,9.82,0,9.82,5.63,19.64,11.25,29.46,16.88,2.34,1.34,3.83,3.4,4.52,5.66,1.27-4.16-.22-9.04-4.52-11.5-9.82-5.63-19.64-11.25-29.46-16.88-3.04-1.74-6.78-1.74-9.82,0-9.85,5.63-19.69,11.26-29.54,16.89-4.3,2.46-5.8,7.34-4.53,11.51.69-2.27,2.19-4.33,4.53-5.67Z"/>
                    <path class="back-end-7" d="m113.09,165.5l17.71,10.02c1.81,1.03,4.03,1.03,5.85,0l17.72-10.03c.94-.53,1.64-1.27,2.14-2.09-.47-1.09-1.28-2.05-2.44-2.72-5.8-3.32-11.6-6.65-17.41-9.97-1.8-1.03-4.01-1.03-5.81,0-5.82,3.33-11.64,6.65-17.46,9.98-1.16.67-1.97,1.63-2.45,2.72.5.83,1.2,1.56,2.14,2.09Z"/>
                    <path class="back-end-4" d="m154.14,165.57l-17.52,9.91c-1.79,1.01-3.99,1.01-5.78,0l-17.51-9.91c-.37-.2-.87-.54-1.36-1.06-.46-.48-.75-.96-.93-1.32-.14.35-1.31,3.48.45,5.98.57.81,1.28,1.31,1.84,1.62l17.51,9.91c1.79,1.01,3.99,1.01,5.78,0l17.52-9.91c.55-.3,1.26-.8,1.84-1.62,1.72-2.44.65-5.46.52-5.83-.24.35-.57.76-.99,1.17-.48.47-.96.81-1.36,1.06Z"/>
                  </g>
                </g>
                <g>
                  <path class="back-end-15" d="m206.64,175.78v6.54c0,.31-.17.59-.43.74l-5.73,3.26c-.57.32-1.28-.09-1.28-.74v-6.52c0-.31.16-.59.43-.74l5.73-3.28c.57-.33,1.28.09,1.28.74Z"/>
                  <path class="back-end-8" d="m208.4,179.47v4.15c0,.2-.1.38-.27.47l-3.64,2.07c-.36.21-.81-.06-.81-.47v-4.14c0-.19.1-.37.27-.47l3.64-2.08c.36-.21.81.05.81.47Z"/>
                </g>
                <g>
                  <path class="back-end-15" d="m194.97,182.2v6.54c0,.31-.17.59-.43.74l-5.73,3.26c-.57.32-1.28-.09-1.28-.74v-6.52c0-.31.16-.59.43-.74l5.73-3.28c.57-.33,1.28.09,1.28.74Z"/>
                  <path class="back-end-7" d="m196.73,185.89v4.15c0,.2-.1.38-.27.47l-3.64,2.07c-.36.21-.81-.06-.81-.47v-4.14c0-.19.1-.37.27-.47l3.64-2.08c.36-.21.81.05.81.47Z"/>
                </g>
                <g>
                  <path class="back-end-15" d="m183.39,188.58v6.54c0,.31-.17.59-.43.74l-5.73,3.26c-.57.32-1.28-.09-1.28-.74v-6.52c0-.31.16-.59.43-.74l5.73-3.28c.57-.33,1.28.09,1.28.74Z"/>
                  <path class="back-end-6" d="m185.15,192.26v4.15c0,.2-.1.38-.27.47l-3.64,2.07c-.36.21-.81-.06-.81-.47v-4.14c0-.19.1-.37.27-.47l3.64-2.08c.36-.21.81.05.81.47Z"/>
                </g>
              </g>
              <path class="back-end-7" d="m64.95,175.08v4.48c0,.21.11.4.3.51l3.92,2.23c.39.22.88-.06.88-.51v-4.46c0-.21-.11-.4-.29-.51l-3.92-2.24c-.39-.22-.88.06-.88.51Z"/>
              <path class="back-end-8" d="m70.92,178.43v4.48c0,.21.11.4.3.51l3.92,2.23c.39.22.88-.06.88-.51v-4.46c0-.21-.11-.4-.29-.51l-3.92-2.24c-.39-.22-.88.06-.88.51Z"/>
              <path class="back-end-6" d="m64.95,182.01v4.48c0,.21.11.4.3.51l3.92,2.23c.39.22.88-.06.88-.51v-4.46c0-.21-.11-.4-.29-.51l-3.92-2.24c-.39-.22-.88.06-.88.51Z"/>
              <path class="back-end-15" d="m70.92,185.35v4.48c0,.21.11.4.3.51l3.92,2.23c.39.22.88-.06.88-.51v-4.46c0-.21-.11-.4-.29-.51l-3.92-2.24c-.39-.22-.88.06-.88.51Z"/>
            </g>
            <g>
              <ellipse class="back-end-13" cx="119.05" cy="162.75" rx="3.06" ry="2.03"/>
              <ellipse class="back-end-7" cx="119.05" cy="162.75" rx="1.81" ry="1.2"/>
              <ellipse class="back-end-9" cx="119.05" cy="162.08" rx="1.81" ry="1.2"/>
              <ellipse class="back-end-6" cx="119.05" cy="161.41" rx="1.81" ry="1.2"/>
            </g>
            <g>
              <ellipse class="back-end-13" cx="133.8" cy="163.25" rx="9.16" ry="6.08"/>
              <ellipse class="back-end-7" cx="133.8" cy="163.25" rx="5.41" ry="3.59"/>
              <ellipse class="back-end-9" cx="133.8" cy="161.25" rx="5.41" ry="3.59"/>
              <ellipse class="back-end-6" cx="133.8" cy="159.25" rx="5.41" ry="3.59"/>
            </g>
            <g>
              <ellipse class="back-end-13" cx="148.55" cy="162.75" rx="3.06" ry="2.03"/>
              <ellipse class="back-end-7" cx="148.55" cy="162.75" rx="1.81" ry="1.2"/>
              <ellipse class="back-end-9" cx="148.55" cy="162.08" rx="1.81" ry="1.2"/>
              <ellipse class="back-end-6" cx="148.55" cy="161.41" rx="1.81" ry="1.2"/>
            </g>
          </g>
          <g>
            <g>
              <g>
                <path class="back-end-2" d="m211.88,123.67c-.35-1.89-1.85-3.08-2.61-3.59-6.89-3.92-13.99-7.96-20.88-11.88-12.61-7.19-34.01-19.42-45.86-26.2-5.3-3.03-11.79-3.03-17.08,0-11.85,6.78-33.25,19.02-45.86,26.2-6.89,3.93-13.98,7.96-20.88,11.88-.75.51-2.26,1.7-2.61,3.59-.04.22-.06.44-.07.66v21.62c0,1.51.81,2.89,2.12,3.64,23.03,13.03,46.07,26.06,69.1,39.09,4.17,2.36,9.28,2.36,13.46,0,23.03-13.03,46.07-26.06,69.1-39.09,1.31-.74,2.12-2.13,2.12-3.64v-21.62c0-.21-.03-.43-.07-.66Z"/>
                <g>
                  <path class="back-end-6" d="m59.08,121.74c22.11-12.64,44.23-25.29,66.34-37.93,5.2-2.97,11.58-2.97,16.78,0,22.06,12.64,44.12,25.28,66.18,37.92,1.88,1.08,1.87,3.79-.01,4.86l-68.12,38.54c-4.04,2.29-8.99,2.29-13.04,0l-68.12-38.54c-1.89-1.07-1.89-3.79-.01-4.86Z"/>
                  <path class="back-end-16" d="m60.61,122.23c21.69-12.26,43.39-24.52,65.08-36.78,5.03-2.85,11.19-2.84,16.22,0,21.64,12.26,43.28,24.52,64.93,36.77,1.4.79,1.4,2.82,0,3.61l-66.81,37.36c-3.92,2.19-8.69,2.19-12.61,0l-66.8-37.36c-1.41-.79-1.41-2.81,0-3.61Z"/>
                  <g>
                    <path class="back-end-13" d="m99.33,115.59c9.85-5.63,19.69-11.26,29.54-16.89,3.04-1.74,6.78-1.74,9.82,0,9.82,5.63,19.64,11.25,29.46,16.88,6.65,3.81,6.62,13.41-.05,17.19l-29.51,16.69c-3.02,1.71-6.72,1.71-9.74,0l-29.49-16.68c-6.67-3.78-6.7-13.38-.04-17.19Z"/>
                    <path class="back-end-1" d="m99.33,121.43c9.85-5.63,19.69-11.26,29.54-16.89,3.04-1.74,6.78-1.74,9.82,0,9.82,5.63,19.64,11.25,29.46,16.88,2.34,1.34,3.83,3.4,4.52,5.66,1.27-4.16-.22-9.04-4.52-11.5-9.82-5.63-19.64-11.25-29.46-16.88-3.04-1.74-6.78-1.74-9.82,0-9.85,5.63-19.69,11.26-29.54,16.89-4.3,2.46-5.8,7.34-4.53,11.51.69-2.27,2.19-4.33,4.53-5.67Z"/>
                    <path class="back-end-7" d="m113.09,126.38l17.71,10.02c1.81,1.03,4.03,1.03,5.85,0l17.72-10.03c.94-.53,1.64-1.27,2.14-2.09-.47-1.09-1.28-2.05-2.44-2.72-5.8-3.32-11.6-6.65-17.41-9.97-1.8-1.03-4.01-1.03-5.81,0-5.82,3.33-11.64,6.65-17.46,9.98-1.16.67-1.97,1.63-2.45,2.72.5.83,1.2,1.56,2.14,2.09Z"/>
                    <path class="back-end-5" d="m154.14,126.46l-17.52,9.91c-1.79,1.01-3.99,1.01-5.78,0l-17.51-9.91c-.37-.2-.87-.54-1.36-1.06-.46-.48-.75-.96-.93-1.32-.14.35-1.31,3.48.45,5.98.57.81,1.28,1.31,1.84,1.62l17.51,9.91c1.79,1.01,3.99,1.01,5.78,0l17.52-9.91c.55-.3,1.26-.8,1.84-1.62,1.72-2.44.65-5.46.52-5.83-.24.35-.57.76-.99,1.17-.48.47-.96.81-1.36,1.06Z"/>
                  </g>
                </g>
                <g>
                  <path class="back-end-15" d="m206.64,136.67v6.54c0,.31-.17.59-.43.74l-5.73,3.26c-.57.32-1.28-.09-1.28-.74v-6.52c0-.31.16-.59.43-.74l5.73-3.28c.57-.33,1.28.09,1.28.74Z"/>
                  <path class="back-end-8" d="m208.4,140.36v4.15c0,.2-.1.38-.27.47l-3.64,2.07c-.36.21-.81-.06-.81-.47v-4.14c0-.19.1-.37.27-.47l3.64-2.08c.36-.21.81.05.81.47Z"/>
                </g>
                <g>
                  <path class="back-end-15" d="m194.97,143.09v6.54c0,.31-.17.59-.43.74l-5.73,3.26c-.57.32-1.28-.09-1.28-.74v-6.52c0-.31.16-.59.43-.74l5.73-3.28c.57-.33,1.28.09,1.28.74Z"/>
                  <path class="back-end-7" d="m196.73,146.78v4.15c0,.2-.1.38-.27.47l-3.64,2.07c-.36.21-.81-.06-.81-.47v-4.14c0-.19.1-.37.27-.47l3.64-2.08c.36-.21.81.05.81.47Z"/>
                </g>
                <g>
                  <path class="back-end-15" d="m183.39,149.46v6.54c0,.31-.17.59-.43.74l-5.73,3.26c-.57.32-1.28-.09-1.28-.74v-6.52c0-.31.16-.59.43-.74l5.73-3.28c.57-.33,1.28.09,1.28.74Z"/>
                  <path class="back-end-6" d="m185.15,153.15v4.15c0,.2-.1.38-.27.47l-3.64,2.07c-.36.21-.81-.06-.81-.47v-4.14c0-.19.1-.37.27-.47l3.64-2.08c.36-.21.81.05.81.47Z"/>
                </g>
              </g>
              <path class="back-end-7" d="m64.95,135.97v4.48c0,.21.11.4.3.51l3.92,2.23c.39.22.88-.06.88-.51v-4.46c0-.21-.11-.4-.29-.51l-3.92-2.24c-.39-.22-.88.06-.88.51Z"/>
              <path class="back-end-8" d="m70.92,139.32v4.48c0,.21.11.4.3.51l3.92,2.23c.39.22.88-.06.88-.51v-4.46c0-.21-.11-.4-.29-.51l-3.92-2.24c-.39-.22-.88.06-.88.51Z"/>
              <path class="back-end-6" d="m64.95,142.9v4.48c0,.21.11.4.3.51l3.92,2.23c.39.22.88-.06.88-.51v-4.46c0-.21-.11-.4-.29-.51l-3.92-2.24c-.39-.22-.88.06-.88.51Z"/>
              <path class="back-end-15" d="m70.92,146.24v4.48c0,.21.11.4.3.51l3.92,2.23c.39.22.88-.06.88-.51v-4.46c0-.21-.11-.4-.29-.51l-3.92-2.24c-.39-.22-.88.06-.88.51Z"/>
            </g>
            <g>
              <ellipse class="back-end-13" cx="119.05" cy="123.64" rx="3.06" ry="2.03"/>
              <ellipse class="back-end-7" cx="119.05" cy="123.64" rx="1.81" ry="1.2"/>
              <ellipse class="back-end-9" cx="119.05" cy="122.97" rx="1.81" ry="1.2"/>
              <ellipse class="back-end-6" cx="119.05" cy="122.3" rx="1.81" ry="1.2"/>
            </g>
            <g>
              <ellipse class="back-end-13" cx="133.8" cy="124.14" rx="9.16" ry="6.08"/>
              <ellipse class="back-end-7" cx="133.8" cy="124.14" rx="5.41" ry="3.59"/>
              <ellipse class="back-end-9" cx="133.8" cy="122.14" rx="5.41" ry="3.59"/>
              <ellipse class="back-end-6" cx="133.8" cy="120.14" rx="5.41" ry="3.59"/>
            </g>
            <g>
              <ellipse class="back-end-13" cx="148.55" cy="123.64" rx="3.06" ry="2.03"/>
              <ellipse class="back-end-7" cx="148.55" cy="123.64" rx="1.81" ry="1.2"/>
              <ellipse class="back-end-9" cx="148.55" cy="122.97" rx="1.81" ry="1.2"/>
              <ellipse class="back-end-6" cx="148.55" cy="122.3" rx="1.81" ry="1.2"/>
            </g>
          </g>
          <g>
            <g>
              <g>
                <path class="back-end-3" d="m211.88,84.56c-.35-1.89-1.85-3.08-2.61-3.59-6.89-3.92-13.99-7.96-20.88-11.88-12.61-7.19-34.01-19.42-45.86-26.2-5.3-3.03-11.79-3.03-17.08,0-11.85,6.78-33.25,19.02-45.86,26.2-6.89,3.93-13.98,7.96-20.88,11.88-.75.51-2.26,1.7-2.61,3.59-.04.22-.06.44-.07.66v21.62c0,1.51.81,2.89,2.12,3.64,23.03,13.03,46.07,26.06,69.1,39.09,4.17,2.36,9.28,2.36,13.46,0,23.03-13.03,46.07-26.06,69.1-39.09,1.31-.74,2.12-2.13,2.12-3.64v-21.62c0-.21-.03-.43-.07-.66Z"/>
                <g>
                  <path class="back-end-6" d="m59.08,82.63c22.11-12.64,44.23-25.29,66.34-37.93,5.2-2.97,11.58-2.97,16.78,0,22.06,12.64,44.12,25.28,66.18,37.92,1.88,1.08,1.87,3.79-.01,4.86l-68.12,38.54c-4.04,2.29-8.99,2.29-13.04,0l-68.12-38.54c-1.89-1.07-1.89-3.79-.01-4.86Z"/>
                  <path class="back-end-14" d="m60.61,83.12c21.69-12.26,43.39-24.52,65.08-36.78,5.03-2.85,11.19-2.84,16.22,0,21.64,12.26,43.28,24.52,64.93,36.77,1.4.79,1.4,2.82,0,3.61l-66.81,37.36c-3.92,2.19-8.69,2.19-12.61,0l-66.8-37.36c-1.41-.79-1.41-2.81,0-3.61Z"/>
                  <g>
                    <path class="back-end-13" d="m99.33,76.48c9.85-5.63,19.69-11.26,29.54-16.89,3.04-1.74,6.78-1.74,9.82,0,9.82,5.63,19.64,11.25,29.46,16.88,6.65,3.81,6.62,13.41-.05,17.19l-29.51,16.69c-3.02,1.71-6.72,1.71-9.74,0l-29.49-16.68c-6.67-3.78-6.7-13.38-.04-17.19Z"/>
                    <path class="back-end-20" d="m99.33,82.32c9.85-5.63,19.69-11.26,29.54-16.89,3.04-1.74,6.78-1.74,9.82,0,9.82,5.63,19.64,11.25,29.46,16.88,2.34,1.34,3.83,3.4,4.52,5.66,1.27-4.16-.22-9.04-4.52-11.5-9.82-5.63-19.64-11.25-29.46-16.88-3.04-1.74-6.78-1.74-9.82,0-9.85,5.63-19.69,11.26-29.54,16.89-4.3,2.46-5.8,7.34-4.53,11.51.69-2.27,2.19-4.33,4.53-5.67Z"/>
                    <path class="back-end-7" d="m113.09,87.27l17.71,10.02c1.81,1.03,4.03,1.03,5.85,0l17.72-10.03c.94-.53,1.64-1.27,2.14-2.09-.47-1.09-1.28-2.05-2.44-2.72-5.8-3.32-11.6-6.65-17.41-9.97-1.8-1.03-4.01-1.03-5.81,0-5.82,3.33-11.64,6.65-17.46,9.98-1.16.67-1.97,1.63-2.45,2.72.5.83,1.2,1.56,2.14,2.09Z"/>
                    <path class="back-end-10" d="m154.14,87.35l-17.52,9.91c-1.79,1.01-3.99,1.01-5.78,0l-17.51-9.91c-.37-.2-.87-.54-1.36-1.06-.46-.48-.75-.96-.93-1.32-.14.35-1.31,3.48.45,5.98.57.81,1.28,1.31,1.84,1.62l17.51,9.91c1.79,1.01,3.99,1.01,5.78,0l17.52-9.91c.55-.3,1.26-.8,1.84-1.62,1.72-2.44.65-5.46.52-5.83-.24.35-.57.76-.99,1.17-.48.47-.96.81-1.36,1.06Z"/>
                  </g>
                </g>
                <g>
                  <path class="back-end-15" d="m206.64,97.56v6.54c0,.31-.17.59-.43.74l-5.73,3.26c-.57.32-1.28-.09-1.28-.74v-6.52c0-.31.16-.59.43-.74l5.73-3.28c.57-.33,1.28.09,1.28.74Z"/>
                  <path class="back-end-8" d="m208.4,101.25v4.15c0,.2-.1.38-.27.47l-3.64,2.07c-.36.21-.81-.06-.81-.47v-4.14c0-.19.1-.37.27-.47l3.64-2.08c.36-.21.81.05.81.47Z"/>
                </g>
                <g>
                  <path class="back-end-15" d="m194.97,103.98v6.54c0,.31-.17.59-.43.74l-5.73,3.26c-.57.32-1.28-.09-1.28-.74v-6.52c0-.31.16-.59.43-.74l5.73-3.28c.57-.33,1.28.09,1.28.74Z"/>
                  <path class="back-end-7" d="m196.73,107.67v4.15c0,.2-.1.38-.27.47l-3.64,2.07c-.36.21-.81-.06-.81-.47v-4.14c0-.19.1-.37.27-.47l3.64-2.08c.36-.21.81.05.81.47Z"/>
                </g>
                <g>
                  <path class="back-end-15" d="m183.39,110.35v6.54c0,.31-.17.59-.43.74l-5.73,3.26c-.57.32-1.28-.09-1.28-.74v-6.52c0-.31.16-.59.43-.74l5.73-3.28c.57-.33,1.28.09,1.28.74Z"/>
                  <path class="back-end-6" d="m185.15,114.04v4.15c0,.2-.1.38-.27.47l-3.64,2.07c-.36.21-.81-.06-.81-.47v-4.14c0-.19.1-.37.27-.47l3.64-2.08c.36-.21.81.05.81.47Z"/>
                </g>
              </g>
              <path class="back-end-7" d="m64.95,96.86v4.48c0,.21.11.4.3.51l3.92,2.23c.39.22.88-.06.88-.51v-4.46c0-.21-.11-.4-.29-.51l-3.92-2.24c-.39-.22-.88.06-.88.51Z"/>
              <path class="back-end-8" d="m70.92,100.2v4.48c0,.21.11.4.3.51l3.92,2.23c.39.22.88-.06.88-.51v-4.46c0-.21-.11-.4-.29-.51l-3.92-2.24c-.39-.22-.88.06-.88.51Z"/>
              <path class="back-end-6" d="m64.95,103.79v4.48c0,.21.11.4.3.51l3.92,2.23c.39.22.88-.06.88-.51v-4.46c0-.21-.11-.4-.29-.51l-3.92-2.24c-.39-.22-.88.06-.88.51Z"/>
              <path class="back-end-15" d="m70.92,107.13v4.48c0,.21.11.4.3.51l3.92,2.23c.39.22.88-.06.88-.51v-4.46c0-.21-.11-.4-.29-.51l-3.92-2.24c-.39-.22-.88.06-.88.51Z"/>
            </g>
            <g>
              <ellipse class="back-end-13" cx="119.05" cy="84.52" rx="3.06" ry="2.03"/>
              <ellipse class="back-end-7" cx="119.05" cy="84.52" rx="1.81" ry="1.2"/>
              <ellipse class="back-end-9" cx="119.05" cy="83.86" rx="1.81" ry="1.2"/>
              <ellipse class="back-end-6" cx="119.05" cy="83.19" rx="1.81" ry="1.2"/>
            </g>
            <g>
              <ellipse class="back-end-13" cx="133.8" cy="85.03" rx="9.16" ry="6.08"/>
              <ellipse class="back-end-7" cx="133.8" cy="85.03" rx="5.41" ry="3.59"/>
              <ellipse class="back-end-9" cx="133.8" cy="83.03" rx="5.41" ry="3.59"/>
              <ellipse class="back-end-6" cx="133.8" cy="81.03" rx="5.41" ry="3.59"/>
            </g>
            <g>
              <ellipse class="back-end-13" cx="148.55" cy="84.52" rx="3.06" ry="2.03"/>
              <ellipse class="back-end-7" cx="148.55" cy="84.52" rx="1.81" ry="1.2"/>
              <ellipse class="back-end-9" cx="148.55" cy="83.86" rx="1.81" ry="1.2"/>
              <ellipse class="back-end-6" cx="148.55" cy="83.19" rx="1.81" ry="1.2"/>
            </g>
          </g>
        </g>
        <g>
          <rect class="back-end-6" x="88.04" y="38.17" width="5.88" height="17.65" rx="2.94" ry="2.94"/>
          <rect class="back-end-6" x="95.62" y="47.18" width="5.88" height="17.65" rx="2.94" ry="2.94"/>
          <rect class="back-end-6" x="88.04" y="110.16" width="5.88" height="17.65" rx="2.94" ry="2.94"/>
          <rect class="back-end-6" x="88.04" y="57.38" width="5.88" height="32" rx="2.94" ry="2.94"/>
          <rect class="back-end-6" x="95.62" y="85.57" width="5.88" height="32" rx="2.94" ry="2.94"/>
          <rect class="back-end-6" x="88.04" y="129.38" width="5.88" height="32" rx="2.94" ry="2.94"/>
          <rect class="back-end-6" x="95.62" y="66.38" width="5.88" height="17.65" rx="2.94" ry="2.94"/>
          <rect class="back-end-6" x="88.04" y="90.94" width="5.88" height="17.65" rx="2.94" ry="2.94"/>
          <rect class="back-end-6" x="95.62" y="119.12" width="5.88" height="17.65" rx="2.94" ry="2.94"/>
          <rect class="back-end-6" x="95.62" y="138.32" width="5.88" height="17.65" rx="2.94" ry="2.94"/>
          <rect class="back-end-6" x="95.62" y="157.51" width="5.88" height="17.65" rx="2.94" ry="2.94"/>
        </g>
        <g>
          <rect class="back-end-8" x="145.82" y="113.17" width="5.88" height="17.65" rx="2.94" ry="2.94"/>
          <rect class="back-end-8" x="153.4" y="122.18" width="5.88" height="17.65" rx="2.94" ry="2.94"/>
          <rect class="back-end-8" x="145.82" y="185.16" width="5.88" height="17.65" rx="2.94" ry="2.94"/>
          <rect class="back-end-8" x="145.82" y="132.38" width="5.88" height="32" rx="2.94" ry="2.94"/>
          <rect class="back-end-8" x="153.4" y="160.57" width="5.88" height="32" rx="2.94" ry="2.94"/>
          <rect class="back-end-8" x="145.82" y="204.38" width="5.88" height="32" rx="2.94" ry="2.94"/>
          <rect class="back-end-8" x="153.4" y="141.38" width="5.88" height="17.65" rx="2.94" ry="2.94"/>
          <rect class="back-end-8" x="145.82" y="165.94" width="5.88" height="17.65" rx="2.94" ry="2.94"/>
          <rect class="back-end-8" x="153.4" y="194.12" width="5.88" height="17.65" rx="2.94" ry="2.94"/>
          <rect class="back-end-8" x="153.4" y="213.32" width="5.88" height="17.65" rx="2.94" ry="2.94"/>
          <rect class="back-end-8" x="153.4" y="232.51" width="5.88" height="17.65" rx="2.94" ry="2.94"/>
        </g>
      </g>
    </g>
  </g>
</svg>