<?xml version="1.0" encoding="UTF-8"?>
<svg xmlns="http://www.w3.org/2000/svg" xmlns:xlink="http://www.w3.org/1999/xlink" viewBox="0 0 268 268">
  <defs>
    <style>
      .front-end-1, .front-end-2 {
        opacity: .49;
      }

      .front-end-1, .front-end-3 {
        fill: #43fff5;
      }

      .front-end-4 {
        fill: url(#front-end_27);
        filter: url(#front-end-shadow-1);
      }

      .front-end-5 {
        fill: #3b4160;
      }

      .front-end-6 {
        fill: #3ecec3;
      }

      .front-end-7 {
        fill: #1a203a;
      }

      .front-end-8 {
        fill: url(#front-end_27-3);
      }

      .front-end-9 {
        fill: url(#front-end_27-4);
      }

      .front-end-10 {
        filter: url(#front-end-shadow-3);
        stroke: #242c3f;
        stroke-width: .37px;
      }

      .front-end-10, .front-end-2 {
        fill: #f8fbff;
      }

      .front-end-10, .front-end-11 {
        stroke-miterlimit: 10;
      }

      .front-end-12 {
        filter: url(#front-end-shadow-2);
        
      }

      .front-end-13 {
        clip-path: url(#clippath-front-end);
      }

      .front-end-14, .front-end-11 {
        fill: none;
      }

      .front-end-15 {
        fill: #009b8f;
      }

      .front-end-16 {
        fill: #2a2d49;
      }

      .front-end-17 {
        fill: url(#front-end_27-2);
      }

      .front-end-18 {
        fill: #4e5789;
      }

      .front-end-11 {
        stroke: #cafffe;
        stroke-width: 1.98px;
      }

      .front-end-19 {
        fill: #cafffe;
      }
    </style>
    <clipPath id="clippath-front-end">
      <rect class="front-end-14" width="268" height="268"/>
    </clipPath>
    <linearGradient id="front-end_27" data-name="Dégradé sans nom 27" x1="2420.71" y1="173.74" x2="2576.62" y2="173.74" gradientTransform="translate(2632.67) rotate(-180) scale(1 -1)" gradientUnits="userSpaceOnUse">
      <stop offset=".21" stop-color="#393d5b"/>
      <stop offset=".5" stop-color="aqua"/>
      <stop offset=".75" stop-color="#393d5b"/>
    </linearGradient>
    <filter id="front-end-shadow-1" filterUnits="userSpaceOnUse">
      <feOffset dx="0" dy="5"/>
      <feGaussianBlur result="blur" stdDeviation="4"/>
      <feFlood flood-color="#000" flood-opacity=".5"/>
      <feComposite in2="blur" operator="in"/>
      <feComposite in="SourceGraphic"/>
    </filter>
    <linearGradient id="front-end_27-2" data-name="Dégradé sans nom 27" x1="2442.76" y1="62.56" x2="2588.1" y2="324.11" xlink:href="#front-end_27"/>
    <linearGradient id="front-end_27-3" data-name="Dégradé sans nom 27" x1="2459.03" y1="150.91" x2="2537.77" y2="150.91" xlink:href="#front-end_27"/>
    <linearGradient id="front-end_27-4" data-name="Dégradé sans nom 27" x1="2475.19" y1="171.87" x2="2521.61" y2="171.87" xlink:href="#front-end_27"/>
    <filter id="front-end-shadow-2" filterUnits="userSpaceOnUse">
      <feOffset dx="-19" dy="-1.75"/>
      <feGaussianBlur result="blur-2" stdDeviation="0"/>
      <feFlood flood-color="#181e2b" flood-opacity=".5"/>
      <feComposite in2="blur-2" operator="in"/>
      <feComposite in="SourceGraphic"/>
    </filter>
    <filter id="front-end-shadow-3" filterUnits="userSpaceOnUse">
      <feOffset dx=".73" dy="2.2"/>
      <feGaussianBlur result="blur-3" stdDeviation="1.46"/>
      <feFlood flood-color="#242c3f" flood-opacity=".28"/>
      <feComposite in2="blur-3" operator="in"/>
      <feComposite in="SourceGraphic"/>
    </filter>
  </defs>
  <g id="HOME">
    <g class="front-end-13">
      <g>
        <g>
          <g>
            <g>
              <path class="front-end-4" d="m56.12,162.33c.35-1.89,1.85-3.08,2.61-3.59,6.89-3.92,13.99-7.96,20.88-11.88,12.61-7.19,34.01-19.42,45.86-26.2,5.3-3.03,11.79-3.03,17.08,0,11.85,6.78,33.25,19.02,45.86,26.2,6.89,3.93,13.98,7.96,20.87,11.88.75.51,2.26,1.7,2.61,3.59.04.22.06.44.07.66v21.62c0,1.51-.81,2.89-2.12,3.64-23.03,13.03-46.07,26.06-69.1,39.09-4.17,2.36-9.28,2.36-13.46,0-23.03-13.03-46.07-26.06-69.1-39.09-1.31-.74-2.12-2.13-2.12-3.64v-21.62c0-.21.03-.43.07-.66Z"/>
              <g>
                <path class="front-end-19" d="m208.92,160.4c-22.11-12.64-44.23-25.29-66.34-37.93-5.2-2.97-11.58-2.97-16.78,0-22.06,12.64-44.12,25.28-66.18,37.92-1.88,1.08-1.87,3.79.01,4.86l68.12,38.54c4.04,2.29,8.99,2.29,13.04,0l68.12-38.54c1.89-1.07,1.89-3.79.01-4.86Z"/>
                <path class="front-end-17" d="m207.39,160.89c-21.69-12.26-43.39-24.52-65.08-36.78-5.03-2.85-11.19-2.84-16.22,0-21.64,12.26-43.28,24.52-64.93,36.77-1.4.79-1.4,2.82,0,3.61l66.81,37.36c3.92,2.19,8.69,2.19,12.61,0l66.8-37.36c1.41-.79,1.41-2.81,0-3.61Z"/>
                <g>
                  <path class="front-end-16" d="m168.67,154.25c-9.85-5.63-19.69-11.26-29.54-16.89-3.04-1.74-6.78-1.74-9.82,0-9.82,5.63-19.64,11.25-29.46,16.88-6.65,3.81-6.62,13.41.05,17.19l29.51,16.69c3.02,1.71,6.72,1.71,9.74,0l29.49-16.68c6.67-3.78,6.7-13.38.04-17.19Z"/>
                  <path class="front-end-8" d="m168.67,160.09c-9.85-5.63-19.69-11.26-29.54-16.89-3.04-1.74-6.78-1.74-9.82,0-9.82,5.63-19.64,11.25-29.46,16.88-2.34,1.34-3.83,3.4-4.52,5.66-1.27-4.16.22-9.04,4.52-11.5,9.82-5.63,19.64-11.25,29.46-16.88,3.04-1.74,6.78-1.74,9.82,0,9.85,5.63,19.69,11.26,29.54,16.89,4.3,2.46,5.8,7.34,4.53,11.51-.69-2.27-2.19-4.33-4.53-5.67Z"/>
                  <path class="front-end-15" d="m154.91,165.04l-17.71,10.02c-1.81,1.03-4.03,1.03-5.85,0l-17.72-10.03c-.94-.53-1.64-1.27-2.14-2.09.47-1.09,1.28-2.05,2.44-2.72,5.8-3.32,11.6-6.65,17.41-9.97,1.8-1.03,4.01-1.03,5.81,0,5.82,3.33,11.64,6.65,17.46,9.98,1.16.67,1.97,1.63,2.45,2.72-.5.83-1.2,1.56-2.14,2.09Z"/>
                  <path class="front-end-9" d="m113.86,165.11l17.52,9.91c1.79,1.01,3.99,1.01,5.78,0l17.51-9.91c.37-.2.87-.54,1.36-1.06.46-.48.75-.96.93-1.32.14.35,1.31,3.48-.45,5.98-.57.81-1.28,1.31-1.84,1.62l-17.51,9.91c-1.79,1.01-3.99,1.01-5.78,0l-17.52-9.91c-.55-.3-1.26-.8-1.84-1.62-1.72-2.44-.65-5.46-.52-5.83.24.35.57.76.99,1.17.48.47.96.81,1.36,1.06Z"/>
                </g>
              </g>
              <g>
                <path class="front-end-18" d="m61.36,175.33v6.54c0,.31.17.59.43.74l5.73,3.26c.57.32,1.28-.09,1.28-.74v-6.52c0-.31-.16-.59-.43-.74l-5.73-3.28c-.57-.33-1.28.09-1.28.74Z"/>
                <path class="front-end-3" d="m59.6,179.02v4.15c0,.2.1.38.27.47l3.64,2.07c.36.21.81-.06.81-.47v-4.14c0-.19-.1-.37-.27-.47l-3.64-2.08c-.36-.21-.81.05-.81.47Z"/>
              </g>
              <g>
                <path class="front-end-18" d="m73.03,181.75v6.54c0,.31.17.59.43.74l5.73,3.26c.57.32,1.28-.09,1.28-.74v-6.52c0-.31-.16-.59-.43-.74l-5.73-3.28c-.57-.33-1.28.09-1.28.74Z"/>
                <path class="front-end-15" d="m71.27,185.44v4.15c0,.2.1.38.27.47l3.64,2.07c.36.21.81-.06.81-.47v-4.14c0-.19-.1-.37-.27-.47l-3.64-2.08c-.36-.21-.81.05-.81.47Z"/>
              </g>
              <g>
                <path class="front-end-18" d="m84.61,188.12v6.54c0,.31.17.59.43.74l5.73,3.26c.57.32,1.28-.09,1.28-.74v-6.52c0-.31-.16-.59-.43-.74l-5.73-3.28c-.57-.33-1.28.09-1.28.74Z"/>
                <path class="front-end-19" d="m82.85,191.81v4.15c0,.2.1.38.27.47l3.64,2.07c.36.21.81-.06.81-.47v-4.14c0-.19-.1-.37-.27-.47l-3.64-2.08c-.36-.21-.81.05-.81.47Z"/>
              </g>
            </g>
            <path class="front-end-6" d="m203.05,174.63v4.48c0,.21-.11.4-.3.51l-3.92,2.23c-.39.22-.88-.06-.88-.51v-4.46c0-.21.11-.4.29-.51l3.92-2.24c.39-.22.88.06.88.51Z"/>
            <path class="front-end-3" d="m197.08,177.97v4.48c0,.21-.11.4-.3.51l-3.92,2.23c-.39.22-.88-.06-.88-.51v-4.46c0-.21.11-.4.29-.51l3.92-2.24c.39-.22.88.06.88.51Z"/>
            <path class="front-end-19" d="m203.05,181.56v4.48c0,.21-.11.4-.3.51l-3.92,2.23c-.39.22-.88-.06-.88-.51v-4.46c0-.21.11-.4.29-.51l3.92-2.24c.39-.22.88.06.88.51Z"/>
            <path class="front-end-18" d="m197.08,184.9v4.48c0,.21-.11.4-.3.51l-3.92,2.23c-.39.22-.88-.06-.88-.51v-4.46c0-.21.11-.4.29-.51l3.92-2.24c.39-.22.88.06.88.51Z"/>
          </g>
          <g>
            <ellipse class="front-end-16" cx="134.2" cy="162.8" rx="9.16" ry="6.08"/>
            <ellipse class="front-end-15" cx="134.2" cy="162.8" rx="5.41" ry="3.59"/>
            <ellipse class="front-end-3" cx="134.2" cy="160.8" rx="5.41" ry="3.59"/>
            <ellipse class="front-end-19" cx="134.2" cy="158.8" rx="5.41" ry="3.59"/>
          </g>
          <g>
            <ellipse class="front-end-16" cx="119.45" cy="162.29" rx="3.06" ry="2.03"/>
            <ellipse class="front-end-15" cx="119.45" cy="162.29" rx="1.81" ry="1.2"/>
            <ellipse class="front-end-3" cx="119.45" cy="161.63" rx="1.81" ry="1.2"/>
            <ellipse class="front-end-19" cx="119.45" cy="160.96" rx="1.81" ry="1.2"/>
          </g>
        </g>
        <g>
          <path class="front-end-5" d="m70.77,111.62l126.4-72.11c1.35-.77,2.84-.77,4.08-.23,0,0,0,0,0,0,1.78.79,3.57,1.58,5.35,2.37-.26-.11-.63-.25-1.1-.32-.21-.03-.99-.13-1.97.13.29.6.47,1.28.47,2.02v85.46c0,1.64-.88,3.16-2.31,3.98l-126.4,72.11c-3.05,1.74-6.85-.46-6.85-3.98v-85.46c0-1.64.88-3.16,2.31-3.98Z"/>
          <path class="front-end-7" d="m69.15,113.19c1.71.88,3.43,1.76,5.14,2.65-.17.31-.27.58-.33.78-.04.14-.18.6-.21,1.18,0,.15,0,.38,0,.71,0,.16,0,.29,0,.38.02,56.9.02,80.2,0,81.34,0,.13-.03,1.37,0,3.04,0,.26,0,.48.01.64.01.36.08.96.39,1.63.1.21.39.81,1,1.38.76.72,1.59.99,2.04,1.1-.07-.02-.22-.06-.39-.11-2.26-.65-4.73-1.39-6.72-3.33-.14-.14-.37-.37-.64-.69-.27-.34-.68-.96-.87-1.82-.12-.51-.12-.95-.1-1.29,0-28.33,0-56.65,0-84.98,0-.26,0-.56.06-.89.12-.75.4-1.33.62-1.72Z"/>
          <path class="front-end-16" d="m209.3,45.76v85.68c0,1.61-.86,3.1-2.26,3.89l-126.59,72.22c-2.99,1.7-6.7-.45-6.7-3.89v-85.68c0-1.61.86-3.1,2.26-3.89l126.59-72.22c2.99-1.7,6.7.45,6.7,3.89Z"/>
        </g>
        <path class="front-end-11" d="m203.65,50.74v81.33c0,.84-.45,1.62-1.19,2.03l-118.53,67.19c-1.57.89-3.53-.24-3.53-2.03v-81.33c0-.84.45-1.62,1.19-2.03l118.53-67.19c1.57-.89,3.53.24,3.53,2.03Z"/>
        <path class="front-end-3" d="m85.07,106.93l-2.02-.94c-.1-.05-.21-.04-.3.01l-3.47,2c-.23.13-.21.46.02.57l1.94.91c.09.04.2.04.3-.01l3.54-1.97c.23-.13.22-.47-.02-.58Z"/>
        <path class="front-end-19" d="m90.07,104.06l-2.02-.94c-.1-.05-.21-.04-.3.01l-3.47,2c-.23.13-.21.46.02.57l1.94.91c.09.04.2.04.3-.01l3.54-1.97c.23-.13.22-.47-.02-.58Z"/>
        <path class="front-end-3" d="m95.08,101.18l-2.02-.94c-.1-.05-.21-.04-.3.01l-3.47,2c-.23.13-.21.46.02.57l1.94.91c.09.04.2.04.3-.01l3.54-1.97c.23-.13.22-.47-.02-.58Z"/>
        <g class="front-end-12">
          <g>
            <polygon class="front-end-3" points="141.48 124.42 141.48 130.13 126.07 139.02 126.07 133.16 141.48 124.42"/>
            <g>
              <polygon class="front-end-3" points="164.29 120.98 164.29 132.55 153.98 138.46 153.98 126.84 164.29 120.98"/>
              <polygon class="front-end-19" points="179.01 112.82 179.01 124.38 168.71 130.29 168.71 118.68 179.01 112.82"/>
              <polygon class="front-end-19" points="151.62 127.93 151.62 139.49 141.32 145.4 141.32 133.78 151.62 127.93"/>
              <polygon class="front-end-19" points="136.77 136.11 136.77 147.68 126.46 153.59 126.46 141.97 136.77 136.11"/>
            </g>
            <polygon class="front-end-3" points="151.66 143.91 151.66 172.19 126.47 186.64 126.47 158.23 151.66 143.91"/>
            <polygon class="front-end-19" points="179.27 128.35 179.27 156.64 154.07 171.09 154.07 142.68 179.27 128.35"/>
            <polygon class="front-end-19" points="166.04 83.32 166.04 86.96 159.67 90.66 159.67 87.02 166.04 83.32"/>
            <polygon class="front-end-3" points="155.81 89.13 155.81 92.67 146.25 98.19 146.25 94.55 155.81 89.13"/>
            <polygon class="front-end-3" points="179.16 76 179.16 79.54 169.6 85.06 169.6 81.43 179.16 76"/>
            <g>
              <polygon class="front-end-3" points="169.97 86.99 169.97 94.17 163.57 97.84 163.57 90.63 169.97 86.99"/>
              <polygon class="front-end-19" points="179.11 81.92 179.11 89.1 172.71 92.77 172.71 85.56 179.11 81.92"/>
              <polygon class="front-end-19" points="162.11 91.3 162.11 98.48 155.71 102.15 155.71 94.94 162.11 91.3"/>
              <polygon class="front-end-19" points="152.89 96.38 152.89 103.56 146.49 107.23 146.49 100.02 152.89 96.38"/>
            </g>
            <polygon class="front-end-3" points="162.13 101.22 162.13 118.78 146.49 127.75 146.49 110.12 162.13 101.22"/>
          </g>
          <polygon class="front-end-19" points="179.27 91.57 179.27 109.12 163.63 118.09 163.63 100.46 179.27 91.57"/>
        </g>
        <g>
          <g>
            <circle class="front-end-1" cx="170.52" cy="105.26" r="5.76"/>
            <circle class="front-end-2" cx="170.52" cy="105.26" r="3.37"/>
          </g>
          <polygon class="front-end-10" points="167.83 119.7 165.33 116.91 161.58 116.96 157.83 117.01 164.07 111.27 170.31 105.53 170.32 114 170.33 122.48 167.83 119.7"/>
        </g>
      </g>
    </g>
  </g>
</svg>