<?xml version="1.0" encoding="UTF-8"?>
<svg xmlns="http://www.w3.org/2000/svg" xmlns:xlink="http://www.w3.org/1999/xlink" viewBox="0 0 536.53 513.97">
  <defs>
    <style>
      .grid-1 {
        opacity: .08;
      }

      .grid-2 {
        clip-path: url(#clippath-grid);
      }

      .grid-3, .grid-4 {
        fill: none;
      }

      .grid-4 {
        stroke-miterlimit: 10;
        stroke-width: .83px;
      }
    </style>
    <clipPath id="clippath-grid">
      <rect class="grid-3" x="35.07" y="-18.55" width="466.4" height="551.08" rx="233.2" ry="233.2" transform="translate(330.42 -109.27) rotate(55.86)"/>
    </clipPath>
  </defs>
  <g id="HOME">
    <g class="grid-1">
      <g class="grid-2">
        <g>
          <g>
            <g>
              <line class="grid-4" x1="-172.34" y1="-699.41" x2="1291.55" y2="10.2"/>
              <line class="grid-4" x1="-182.67" y1="-678.09" x2="1281.21" y2="31.52"/>
              <line class="grid-4" x1="-193" y1="-656.78" x2="1270.88" y2="52.83"/>
              <line class="grid-4" x1="-203.33" y1="-635.47" x2="1260.55" y2="74.14"/>
              <line class="grid-4" x1="-213.66" y1="-614.15" x2="1250.22" y2="95.46"/>
              <line class="grid-4" x1="-223.99" y1="-592.84" x2="1239.89" y2="116.77"/>
              <line class="grid-4" x1="-234.33" y1="-571.53" x2="1229.56" y2="138.09"/>
              <line class="grid-4" x1="-244.66" y1="-550.21" x2="1219.22" y2="159.4"/>
              <line class="grid-4" x1="-254.99" y1="-528.9" x2="1208.89" y2="180.71"/>
              <line class="grid-4" x1="-265.32" y1="-507.59" x2="1198.56" y2="202.03"/>
              <line class="grid-4" x1="-275.65" y1="-486.27" x2="1188.23" y2="223.34"/>
              <line class="grid-4" x1="-285.98" y1="-464.96" x2="1177.9" y2="244.65"/>
              <line class="grid-4" x1="-296.32" y1="-443.65" x2="1167.57" y2="265.97"/>
              <line class="grid-4" x1="-306.65" y1="-422.33" x2="1157.23" y2="287.28"/>
              <line class="grid-4" x1="-316.98" y1="-401.02" x2="1146.9" y2="308.59"/>
              <line class="grid-4" x1="-327.31" y1="-379.71" x2="1136.57" y2="329.91"/>
              <line class="grid-4" x1="-337.64" y1="-358.39" x2="1126.24" y2="351.22"/>
              <line class="grid-4" x1="-347.97" y1="-337.08" x2="1115.91" y2="372.53"/>
              <line class="grid-4" x1="-358.31" y1="-315.76" x2="1105.58" y2="393.85"/>
              <line class="grid-4" x1="-368.64" y1="-294.45" x2="1095.24" y2="415.16"/>
              <line class="grid-4" x1="-378.97" y1="-273.14" x2="1084.91" y2="436.47"/>
              <line class="grid-4" x1="-389.3" y1="-251.82" x2="1074.58" y2="457.79"/>
              <line class="grid-4" x1="-399.63" y1="-230.51" x2="1064.25" y2="479.1"/>
              <line class="grid-4" x1="-409.96" y1="-209.2" x2="1053.92" y2="500.42"/>
              <line class="grid-4" x1="-420.3" y1="-187.88" x2="1043.59" y2="521.73"/>
              <line class="grid-4" x1="-430.63" y1="-166.57" x2="1033.25" y2="543.04"/>
              <line class="grid-4" x1="-440.96" y1="-145.26" x2="1022.92" y2="564.36"/>
              <line class="grid-4" x1="-451.29" y1="-123.94" x2="1012.59" y2="585.67"/>
              <line class="grid-4" x1="-461.62" y1="-102.63" x2="1002.26" y2="606.98"/>
              <line class="grid-4" x1="-471.95" y1="-81.32" x2="991.93" y2="628.3"/>
              <line class="grid-4" x1="-482.29" y1="-60" x2="981.6" y2="649.61"/>
              <line class="grid-4" x1="-492.62" y1="-38.69" x2="971.26" y2="670.92"/>
              <line class="grid-4" x1="-502.95" y1="-17.38" x2="960.93" y2="692.24"/>
              <line class="grid-4" x1="-513.28" y1="3.94" x2="950.6" y2="713.55"/>
              <line class="grid-4" x1="-523.61" y1="25.25" x2="940.27" y2="734.86"/>
              <line class="grid-4" x1="-533.94" y1="46.57" x2="929.94" y2="756.18"/>
              <line class="grid-4" x1="-544.28" y1="67.88" x2="919.61" y2="777.49"/>
              <line class="grid-4" x1="-554.61" y1="89.19" x2="909.27" y2="798.81"/>
              <line class="grid-4" x1="-564.94" y1="110.51" x2="898.94" y2="820.12"/>
              <line class="grid-4" x1="-575.27" y1="131.82" x2="888.61" y2="841.43"/>
              <line class="grid-4" x1="-585.6" y1="153.13" x2="878.28" y2="862.75"/>
              <line class="grid-4" x1="-595.93" y1="174.45" x2="867.95" y2="884.06"/>
              <line class="grid-4" x1="-606.27" y1="195.76" x2="857.62" y2="905.37"/>
              <line class="grid-4" x1="-616.6" y1="217.07" x2="847.28" y2="926.69"/>
              <line class="grid-4" x1="-626.93" y1="238.39" x2="836.95" y2="948"/>
              <line class="grid-4" x1="-637.26" y1="259.7" x2="826.62" y2="969.31"/>
              <line class="grid-4" x1="-647.59" y1="281.01" x2="816.29" y2="990.63"/>
              <line class="grid-4" x1="-657.92" y1="302.33" x2="805.96" y2="1011.94"/>
              <line class="grid-4" x1="-668.26" y1="323.64" x2="795.62" y2="1033.25"/>
              <line class="grid-4" x1="-678.59" y1="344.96" x2="785.29" y2="1054.57"/>
              <line class="grid-4" x1="-688.92" y1="366.27" x2="774.96" y2="1075.88"/>
              <line class="grid-4" x1="-699.25" y1="387.58" x2="764.63" y2="1097.19"/>
              <line class="grid-4" x1="-709.58" y1="408.9" x2="754.3" y2="1118.51"/>
              <line class="grid-4" x1="-719.91" y1="430.21" x2="743.97" y2="1139.82"/>
              <line class="grid-4" x1="-730.25" y1="451.52" x2="733.63" y2="1161.14"/>
              <line class="grid-4" x1="-740.58" y1="472.84" x2="723.3" y2="1182.45"/>
              <line class="grid-4" x1="-750.91" y1="494.15" x2="712.97" y2="1203.76"/>
            </g>
            <g>
              <line class="grid-4" x1="518.73" y1="-581.33" x2="636.13" y2="1041.24"/>
              <line class="grid-4" x1="495.11" y1="-579.62" x2="612.5" y2="1042.95"/>
              <line class="grid-4" x1="471.48" y1="-577.91" x2="588.88" y2="1044.66"/>
              <line class="grid-4" x1="447.86" y1="-576.2" x2="565.26" y2="1046.37"/>
              <line class="grid-4" x1="424.23" y1="-574.49" x2="541.63" y2="1048.08"/>
              <line class="grid-4" x1="400.61" y1="-572.78" x2="518.01" y2="1049.79"/>
              <line class="grid-4" x1="376.99" y1="-571.07" x2="494.38" y2="1051.49"/>
              <line class="grid-4" x1="353.36" y1="-569.36" x2="470.76" y2="1053.2"/>
              <line class="grid-4" x1="329.74" y1="-567.65" x2="447.14" y2="1054.91"/>
              <line class="grid-4" x1="306.11" y1="-565.94" x2="423.51" y2="1056.62"/>
              <line class="grid-4" x1="282.49" y1="-564.23" x2="399.89" y2="1058.33"/>
              <line class="grid-4" x1="258.87" y1="-562.52" x2="376.26" y2="1060.04"/>
              <line class="grid-4" x1="235.24" y1="-560.81" x2="352.64" y2="1061.75"/>
              <line class="grid-4" x1="211.62" y1="-559.11" x2="329.02" y2="1063.46"/>
              <line class="grid-4" x1="188" y1="-557.4" x2="305.39" y2="1065.17"/>
              <line class="grid-4" x1="164.37" y1="-555.69" x2="281.77" y2="1066.88"/>
              <line class="grid-4" x1="140.75" y1="-553.98" x2="258.15" y2="1068.59"/>
              <line class="grid-4" x1="117.12" y1="-552.27" x2="234.52" y2="1070.3"/>
              <line class="grid-4" x1="93.5" y1="-550.56" x2="210.9" y2="1072.01"/>
              <line class="grid-4" x1="69.88" y1="-548.85" x2="187.27" y2="1073.71"/>
              <line class="grid-4" x1="46.25" y1="-547.14" x2="163.65" y2="1075.42"/>
              <line class="grid-4" x1="22.63" y1="-545.43" x2="140.03" y2="1077.13"/>
              <line class="grid-4" x1="-1" y1="-543.72" x2="116.4" y2="1078.84"/>
              <line class="grid-4" x1="-24.62" y1="-542.01" x2="92.78" y2="1080.55"/>
              <line class="grid-4" x1="-48.24" y1="-540.3" x2="69.15" y2="1082.26"/>
              <line class="grid-4" x1="-71.87" y1="-538.59" x2="45.53" y2="1083.97"/>
              <line class="grid-4" x1="-95.49" y1="-536.88" x2="21.91" y2="1085.68"/>
            </g>
          </g>
          <g>
            <g>
              <line class="grid-4" x1="518.73" y1="-581.33" x2="636.13" y2="1041.24"/>
              <line class="grid-4" x1="495.11" y1="-579.62" x2="612.5" y2="1042.95"/>
              <line class="grid-4" x1="471.48" y1="-577.91" x2="588.88" y2="1044.66"/>
              <line class="grid-4" x1="447.86" y1="-576.2" x2="565.26" y2="1046.37"/>
              <line class="grid-4" x1="424.23" y1="-574.49" x2="541.63" y2="1048.08"/>
              <line class="grid-4" x1="400.61" y1="-572.78" x2="518.01" y2="1049.79"/>
              <line class="grid-4" x1="376.99" y1="-571.07" x2="494.38" y2="1051.49"/>
              <line class="grid-4" x1="353.36" y1="-569.36" x2="470.76" y2="1053.2"/>
              <line class="grid-4" x1="329.74" y1="-567.65" x2="447.14" y2="1054.91"/>
              <line class="grid-4" x1="306.11" y1="-565.94" x2="423.51" y2="1056.62"/>
              <line class="grid-4" x1="282.49" y1="-564.23" x2="399.89" y2="1058.33"/>
              <line class="grid-4" x1="258.87" y1="-562.52" x2="376.26" y2="1060.04"/>
              <line class="grid-4" x1="235.24" y1="-560.81" x2="352.64" y2="1061.75"/>
              <line class="grid-4" x1="211.62" y1="-559.11" x2="329.02" y2="1063.46"/>
              <line class="grid-4" x1="188" y1="-557.4" x2="305.39" y2="1065.17"/>
              <line class="grid-4" x1="164.37" y1="-555.69" x2="281.77" y2="1066.88"/>
              <line class="grid-4" x1="140.75" y1="-553.98" x2="258.15" y2="1068.59"/>
              <line class="grid-4" x1="117.12" y1="-552.27" x2="234.52" y2="1070.3"/>
              <line class="grid-4" x1="93.5" y1="-550.56" x2="210.9" y2="1072.01"/>
              <line class="grid-4" x1="69.88" y1="-548.85" x2="187.27" y2="1073.71"/>
              <line class="grid-4" x1="46.25" y1="-547.14" x2="163.65" y2="1075.42"/>
              <line class="grid-4" x1="22.63" y1="-545.43" x2="140.03" y2="1077.13"/>
              <line class="grid-4" x1="-1" y1="-543.72" x2="116.4" y2="1078.84"/>
              <line class="grid-4" x1="-24.62" y1="-542.01" x2="92.78" y2="1080.55"/>
              <line class="grid-4" x1="-48.24" y1="-540.3" x2="69.15" y2="1082.26"/>
              <line class="grid-4" x1="-71.87" y1="-538.59" x2="45.53" y2="1083.97"/>
              <line class="grid-4" x1="-95.49" y1="-536.88" x2="21.91" y2="1085.68"/>
            </g>
            <g>
              <line class="grid-4" x1="1422.08" y1="501.45" x2="75.6" y2="1414.41"/>
              <line class="grid-4" x1="1408.79" y1="481.85" x2="62.3" y2="1394.8"/>
              <line class="grid-4" x1="1395.5" y1="462.25" x2="49.01" y2="1375.2"/>
              <line class="grid-4" x1="1382.2" y1="442.64" x2="35.72" y2="1355.59"/>
              <line class="grid-4" x1="1368.91" y1="423.04" x2="22.43" y2="1335.99"/>
              <line class="grid-4" x1="1355.62" y1="403.43" x2="9.14" y2="1316.39"/>
              <line class="grid-4" x1="1342.33" y1="383.83" x2="-4.16" y2="1296.78"/>
              <line class="grid-4" x1="1329.03" y1="364.22" x2="-17.45" y2="1277.18"/>
              <line class="grid-4" x1="1315.74" y1="344.62" x2="-30.74" y2="1257.57"/>
              <line class="grid-4" x1="1302.45" y1="325.02" x2="-44.03" y2="1237.97"/>
              <line class="grid-4" x1="1289.16" y1="305.41" x2="-57.33" y2="1218.36"/>
              <line class="grid-4" x1="1275.87" y1="285.81" x2="-70.62" y2="1198.76"/>
              <line class="grid-4" x1="1262.57" y1="266.2" x2="-83.91" y2="1179.16"/>
              <line class="grid-4" x1="1249.28" y1="246.6" x2="-97.2" y2="1159.55"/>
              <line class="grid-4" x1="1235.99" y1="227" x2="-110.49" y2="1139.95"/>
              <line class="grid-4" x1="1222.7" y1="207.39" x2="-123.79" y2="1120.34"/>
              <line class="grid-4" x1="1209.4" y1="187.79" x2="-137.08" y2="1100.74"/>
              <line class="grid-4" x1="1196.11" y1="168.18" x2="-150.37" y2="1081.13"/>
              <line class="grid-4" x1="1182.82" y1="148.58" x2="-163.66" y2="1061.53"/>
              <line class="grid-4" x1="1169.53" y1="128.97" x2="-176.96" y2="1041.93"/>
              <line class="grid-4" x1="1156.24" y1="109.37" x2="-190.25" y2="1022.32"/>
              <line class="grid-4" x1="1142.94" y1="89.77" x2="-203.54" y2="1002.72"/>
              <line class="grid-4" x1="1129.65" y1="70.16" x2="-216.83" y2="983.11"/>
              <line class="grid-4" x1="1116.36" y1="50.56" x2="-230.12" y2="963.51"/>
              <line class="grid-4" x1="1103.07" y1="30.95" x2="-243.42" y2="943.9"/>
              <line class="grid-4" x1="1089.77" y1="11.35" x2="-256.71" y2="924.3"/>
              <line class="grid-4" x1="1076.48" y1="-8.26" x2="-270" y2="904.7"/>
              <line class="grid-4" x1="1063.19" y1="-27.86" x2="-283.29" y2="885.09"/>
              <line class="grid-4" x1="1049.9" y1="-47.46" x2="-296.59" y2="865.49"/>
              <line class="grid-4" x1="1036.61" y1="-67.07" x2="-309.88" y2="845.88"/>
              <line class="grid-4" x1="1023.31" y1="-86.67" x2="-323.17" y2="826.28"/>
              <line class="grid-4" x1="1010.02" y1="-106.28" x2="-336.46" y2="806.67"/>
              <line class="grid-4" x1="996.73" y1="-125.88" x2="-349.75" y2="787.07"/>
              <line class="grid-4" x1="983.44" y1="-145.49" x2="-363.05" y2="767.47"/>
              <line class="grid-4" x1="970.14" y1="-165.09" x2="-376.34" y2="747.86"/>
              <line class="grid-4" x1="956.85" y1="-184.69" x2="-389.63" y2="728.26"/>
              <line class="grid-4" x1="943.56" y1="-204.3" x2="-402.92" y2="708.65"/>
              <line class="grid-4" x1="930.27" y1="-223.9" x2="-416.22" y2="689.05"/>
              <line class="grid-4" x1="916.98" y1="-243.51" x2="-429.51" y2="669.44"/>
              <line class="grid-4" x1="903.68" y1="-263.11" x2="-442.8" y2="649.84"/>
              <line class="grid-4" x1="890.39" y1="-282.72" x2="-456.09" y2="630.24"/>
              <line class="grid-4" x1="877.1" y1="-302.32" x2="-469.38" y2="610.63"/>
              <line class="grid-4" x1="863.81" y1="-321.92" x2="-482.68" y2="591.03"/>
              <line class="grid-4" x1="850.51" y1="-341.53" x2="-495.97" y2="571.42"/>
              <line class="grid-4" x1="837.22" y1="-361.13" x2="-509.26" y2="551.82"/>
              <line class="grid-4" x1="823.93" y1="-380.74" x2="-522.55" y2="532.21"/>
              <line class="grid-4" x1="810.64" y1="-400.34" x2="-535.85" y2="512.61"/>
              <line class="grid-4" x1="797.35" y1="-419.95" x2="-549.14" y2="493.01"/>
              <line class="grid-4" x1="784.05" y1="-439.55" x2="-562.43" y2="473.4"/>
              <line class="grid-4" x1="770.76" y1="-459.15" x2="-575.72" y2="453.8"/>
              <line class="grid-4" x1="757.47" y1="-478.76" x2="-589.01" y2="434.19"/>
              <line class="grid-4" x1="744.18" y1="-498.36" x2="-602.31" y2="414.59"/>
              <line class="grid-4" x1="730.88" y1="-517.97" x2="-615.6" y2="394.98"/>
              <line class="grid-4" x1="717.59" y1="-537.57" x2="-628.89" y2="375.38"/>
              <line class="grid-4" x1="704.3" y1="-557.18" x2="-642.18" y2="355.78"/>
              <line class="grid-4" x1="691.01" y1="-576.78" x2="-655.48" y2="336.17"/>
              <line class="grid-4" x1="677.72" y1="-596.38" x2="-668.77" y2="316.57"/>
              <line class="grid-4" x1="664.42" y1="-615.99" x2="-682.06" y2="296.96"/>
              <line class="grid-4" x1="651.13" y1="-635.59" x2="-695.35" y2="277.36"/>
              <line class="grid-4" x1="637.84" y1="-655.2" x2="-708.64" y2="257.75"/>
              <line class="grid-4" x1="624.55" y1="-674.8" x2="-721.94" y2="238.15"/>
              <line class="grid-4" x1="611.25" y1="-694.41" x2="-735.23" y2="218.55"/>
              <line class="grid-4" x1="597.96" y1="-714.01" x2="-748.52" y2="198.94"/>
              <line class="grid-4" x1="584.67" y1="-733.61" x2="-761.81" y2="179.34"/>
              <line class="grid-4" x1="571.38" y1="-753.22" x2="-775.11" y2="159.73"/>
              <line class="grid-4" x1="558.09" y1="-772.82" x2="-788.4" y2="140.13"/>
              <line class="grid-4" x1="544.79" y1="-792.43" x2="-801.69" y2="120.52"/>
              <line class="grid-4" x1="531.5" y1="-812.03" x2="-814.98" y2="100.92"/>
              <line class="grid-4" x1="518.21" y1="-831.64" x2="-828.27" y2="81.32"/>
              <line class="grid-4" x1="504.92" y1="-851.24" x2="-841.57" y2="61.71"/>
              <line class="grid-4" x1="491.62" y1="-870.84" x2="-854.86" y2="42.11"/>
              <line class="grid-4" x1="478.33" y1="-890.45" x2="-868.15" y2="22.5"/>
              <line class="grid-4" x1="465.04" y1="-910.05" x2="-881.44" y2="2.9"/>
            </g>
          </g>
        </g>
      </g>
    </g>
  </g>
</svg>