<?xml version="1.0" encoding="UTF-8"?>
<svg xmlns="http://www.w3.org/2000/svg" xmlns:xlink="http://www.w3.org/1999/xlink" viewBox="0 0 50.26 50.26">
  <defs>
    <style>
      .visualkoding-background {
        fill: #323b4c;
        opacity: 0;
      }

      .visualkoding-2 {
        fill: #b0babf;
      }

      .visualkoding-3 {
        fill: #242c3f;
      }

      .visualkoding-4 {
        fill: #cad6dd;
      }

      .visualkoding-5 {
        fill: #bed62d;
      }

      .visualkoding-6 {
        fill: url(#linear-visualkoding_3);
      }

      .visualkoding-7 {
        fill: #f8fbff;
      }
    </style>
    <linearGradient id="linear-visualkoding_3" x1="25.13" y1="48.26" x2="25.13" y2="-4.1" gradientUnits="userSpaceOnUse">
      <stop offset=".09" stop-color="#f8fbff"/>
      <stop offset=".25" stop-color="#f4f7fc"/>
      <stop offset=".37" stop-color="#eaedf2"/>
      <stop offset=".49" stop-color="#d9dce2"/>
      <stop offset=".6" stop-color="#c0c4cc"/>
      <stop offset=".71" stop-color="#a1a6b0"/>
      <stop offset=".82" stop-color="#7a808d"/>
      <stop offset=".92" stop-color="#4d5464"/>
      <stop offset="1" stop-color="#242c3f"/>
    </linearGradient>
  </defs>
  <g>
    <rect class="visualkoding-background" width="50.26" height="50.26"/>
    <g>
      <path class="visualkoding-6" d="m11.76,20.48v9.31c0,1.9,1.01,3.65,2.65,4.6l8.06,4.65c1.64.95,3.67.95,5.31,0l8.06-4.65c1.64-.95,2.65-2.7,2.65-4.6v-9.31c0-1.9-1.01-3.65-2.65-4.6l-8.06-4.65c-1.64-.95-3.67-.95-5.31,0l-8.06,4.65c-1.64.95-2.65,2.7-2.65,4.6Z"/>
      <path class="visualkoding-3" d="m13.89,21.22v7.83c0,1.6.85,3.07,2.23,3.87l6.78,3.91c1.38.8,3.08.8,4.47,0l6.78-3.91c1.38-.8,2.23-2.27,2.23-3.87v-7.83c0-1.6-.85-3.07-2.23-3.87l-6.78-3.91c-1.38-.8-3.08-.8-4.47,0l-6.78,3.91c-1.38.8-2.23,2.27-2.23,3.87Z"/>
      <g>
        <g>
          <polygon class="visualkoding-4" points="17.85 29.34 17.85 20.93 16.81 20.33 16.81 29.94 20.97 32.34 22.01 31.74 22.01 30.54 20.97 31.14 17.85 29.34"/>
          <path class="visualkoding-7" d="m24.09,16.12l-2.08,1.2,1.04.6v2.4l-3.12,1.8c.53.3,1.05.61,1.58.91.18-.31.51-.79,1.09-1.23.58-.45,1.15-.64,1.5-.73v-4.96Z"/>
          <path class="visualkoding-7" d="m27.21,17.92l1.04-.6-2.08-1.2v4.96c.34.09.91.28,1.5.73.57.44.91.93,1.09,1.23.53-.3,1.05-.61,1.58-.91l-3.12-1.8v-2.4Z"/>
          <polygon class="visualkoding-2" points="33.45 20.33 32.41 20.93 32.41 29.34 29.29 31.14 28.25 30.54 28.25 31.74 29.29 32.34 33.45 29.94 33.45 20.33"/>
          <path class="visualkoding-2" d="m30.33,24.53v-2.4c-.53.3-1.05.61-1.58.91.14.25.86,1.61.36,3.27-.53,1.8-2.06,2.54-2.3,2.65l-.65.38v3.58s0,0,0,0v1.22l2.08-1.2-1.04-.6v-2.4l3.12-1.8v-2.4l1.04-.6-1.04-.6Z"/>
          <path class="visualkoding-4" d="m22.01,32.94l2.07,1.2v-1.22h0s0-1.96,0-1.96v-.04h0v-1.59s-.64-.38-.64-.38c-.24-.11-1.76-.85-2.3-2.65-.49-1.67.23-3.03.36-3.27-.53-.3-1.05-.61-1.58-.91v2.4s-1.04.6-1.04.6l1.04.6v2.4l3.12,1.8v2.4l-1.04.6Z"/>
        </g>
        <g>
          <path class="visualkoding-5" d="m27.34,23.86l-1.11.64c.11.19.18.4.18.64,0,.71-.57,1.28-1.28,1.28,0,0,0,0,0,0,0,.43,0,.85,0,1.28.23,0,.75-.02,1.3-.35.53-.31.8-.73.91-.93.12-.2.37-.69.35-1.35-.02-.58-.23-1-.34-1.2Z"/>
          <path class="visualkoding-5" d="m25.13,23.85c.47,0,.88.26,1.1.64l1.11-.64c-.12-.21-.44-.69-1.06-1-.48-.24-.92-.28-1.16-.28h0s0,0,0,0h0c-.24,0-.68.03-1.16.28-.62.31-.93.79-1.06,1l1.11.64c.22-.38.63-.64,1.1-.64Z"/>
          <path class="visualkoding-5" d="m25.13,26.41c-.71,0-1.28-.57-1.28-1.28,0-.23.07-.45.18-.64l-1.11-.64c-.12.2-.33.62-.34,1.2-.02.66.23,1.15.35,1.35.11.2.39.62.91.93.55.32,1.07.35,1.3.35,0-.43,0-.85,0-1.28,0,0,0,0,0,0Z"/>
        </g>
        <polygon class="visualkoding-7" points="32.41 20.93 33.45 20.32 29.29 17.92 28.25 18.52 28.25 19.72 29.29 19.12 32.41 20.93"/>
        <polygon class="visualkoding-7" points="17.85 20.93 20.97 19.12 22.01 19.72 22.01 18.52 20.97 17.92 16.81 20.33 17.85 20.93"/>
      </g>
    </g>
  </g>
</svg>