<?xml version="1.0" encoding="UTF-8"?>
<svg xmlns="http://www.w3.org/2000/svg" viewBox="0 0 50 50">
  <defs>
    <style>
      .github-1 {
        fill: #fff;
        transform:scale(1.2);
        transform-origin:center;
      }

      .github-background {
        fill: #323b4c;
        opacity: 0;
      }
    </style>
  </defs>
  <g>
    <rect class="github-background" width="50" height="50"/>
    <path class="github-1" d="m16.99,24.81c.04-.3.08-.6.12-.89.19-1.16.63-2.22,1.3-3.19,1.01-1.47,2.36-2.49,4.03-3.09,1.13-.4,2.31-.52,3.51-.41,1.49.14,2.84.67,4.03,1.56,1.46,1.08,2.44,2.51,2.96,4.25.33,1.12.41,2.26.24,3.41-.32,2.27-1.45,4.07-3.25,5.46-.66.5-1.39.86-2.18,1.13-.36.12-.6-.05-.6-.43,0-.7,0-1.41,0-2.11,0-.35-.02-.7-.17-1.03-.09-.19-.21-.36-.32-.54.3-.06.62-.1.93-.18.83-.21,1.57-.58,2.08-1.31.37-.53.54-1.14.61-1.77.06-.48.07-.96-.02-1.44-.1-.53-.33-1-.69-1.41-.06-.07-.08-.13-.04-.23.23-.67.14-1.32-.1-1.97-.02-.04-.08-.08-.13-.08-.28-.04-.55.04-.8.16-.41.19-.81.42-1.21.62-.07.04-.17.06-.25.04-1.27-.32-2.54-.32-3.8,0-.08.02-.18,0-.25-.04-.52-.33-1.06-.59-1.66-.75-.01,0-.02,0-.03,0-.38-.08-.45-.04-.56.34-.17.58-.2,1.15,0,1.73.02.05,0,.13-.03.16-.68.78-.84,1.7-.74,2.69.05.58.19,1.14.45,1.66.37.74.99,1.19,1.74,1.45.45.15.92.22,1.39.32.02,0,.05,0,.05,0-.12.22-.24.43-.35.65-.04.07-.07.16-.07.24,0,.17-.1.25-.25.29-.52.14-1.03.23-1.52-.07-.26-.16-.45-.38-.6-.64-.23-.4-.56-.69-1.01-.82-.16-.05-.35-.04-.53-.03-.11,0-.14.09-.07.18.07.09.14.19.24.25.44.25.68.65.88,1.1.11.25.22.5.43.69.34.31.75.42,1.2.44.38.02.77,0,1.18,0,0,.23,0,.5,0,.77,0,.21,0,.41,0,.62,0,.38-.25.57-.61.44-1.2-.41-2.26-1.06-3.15-1.97-.86-.88-1.52-1.9-1.92-3.07-.23-.66-.36-1.35-.42-2.05,0-.06-.02-.12-.02-.19,0-.32,0-.64,0-.95Z"/>
  </g>
</svg>