<?xml version="1.0" encoding="UTF-8"?>
<svg xmlns="http://www.w3.org/2000/svg" viewBox="0 0 50.26 50.26">
  <defs>
    <style>
      .linkedin-1 {
        fill: #fff;
      }

      .linkedin-background {
        fill: #323b4c;
        opacity: 0;
      }
    </style>
  </defs>
  <g>
    <rect class="linkedin-background" width="50.26" height="50.26"/>
    <g>
      <path class="linkedin-1" d="m29.93,33.32c0-.09,0-.15,0-.21,0-1.82,0-3.65,0-5.47,0-.37-.02-.73-.11-1.09-.06-.25-.15-.48-.29-.69-.22-.33-.51-.54-.89-.63-.44-.1-.87-.09-1.3.06-.52.18-.85.55-1.05,1.06-.11.28-.17.57-.19.88-.01.26-.02.53-.02.8,0,1.7,0,3.4,0,5.11v.17c-.12.03-3.11.04-3.26,0,0-.03-.02-.06-.02-.1,0-.04,0-.09,0-.13,0-3.48,0-6.96,0-10.45,0-.29,0-.25.25-.25.93,0,1.85,0,2.78,0,.03,0,.07,0,.1,0,.14,0,.15,0,.15.15,0,.37,0,.73,0,1.1,0,.04,0,.09,0,.16.03-.04.05-.06.07-.09.6-.83,1.39-1.36,2.4-1.57.36-.07.73-.09,1.1-.07.41.03.82.09,1.21.23,1.07.37,1.78,1.11,2.17,2.16.17.47.27.95.29,1.45.01.31.02.62.02.93,0,2.09,0,4.18,0,6.27,0,.25,0,.22-.22.22-1,0-1.99,0-2.99,0h-.19Z"/>
      <path class="linkedin-1" d="m20.67,33.31h-3.39s-.02-.06-.02-.1c0-.05,0-.1,0-.14,0-3.48,0-6.95,0-10.43,0-.3,0-.26.25-.26.99,0,1.98,0,2.98,0,.2,0,.2,0,.2.19,0,3.52,0,7.03,0,10.55,0,.06,0,.12-.01.19Z"/>
      <path class="linkedin-1" d="m18.95,16.94c1.07-.02,2.02.87,2.01,2.03,0,1.2-1,2.03-2.02,2.03-1.03,0-2.01-.84-2.01-2.04,0-1.16.95-2.03,2.02-2.01Z"/>
    </g>
  </g>
</svg>