<?xml version="1.0" encoding="UTF-8"?>
<svg id="Calque_2" data-name="Calque 2" xmlns="http://www.w3.org/2000/svg" viewBox="0 0 532.18 145.6">
  <defs>
    <style>
      .nf-cloud3-1 {
        fill: #d1ebf2;
      }

      .nf-cloud3-2 {
        fill: #4a63f4;
      }

      .nf-cloud3-3 {
        fill: #e8f7f9;
      }
    </style>
  </defs>
  <g id="Calque_3" data-name="Calque 3">
    <g>
      <path class="nf-cloud3-2" d="m520.75,3.82c-10.41,4.2-20.57,9-30.42,14.39-8.38,4.59-8.84,3.44-13.73,5.99-4.38,2.28-9.43,5.3-10.04,4.51-.54-.7,3.03-3.44,2.19-5.24-.5-1.07-2.35-1.31-5.32-1.68-1.61-.2-2.42-.3-3.33-.06-2.4.63-3.71,2.72-4.11,3.43-1.42,2.56-.38,4.2-1.12,5.86-1.72,3.84-11.02,3.21-13.29,3.07,0,0-9.02-5.73-56.35,7.75-.48.14-1,.3-1.29.71-.47.66-.06,1.66.63,2.09.69.43,1.56.45,2.37.45,22.45.14,44.91.27,67.36.41-.58,2.13-1.54,3.4-2.25,4.15-1.39,1.44-3.57,2.64-4.85,3.35-1.73.95-2.16,1.01-2.27,1.5-.39,1.72,4.03,4.35,6.13,4.4.09,0,.39,0,.79.05.89.13,1.71.54,2.59.73,2.26.48,4.64-.62,6.19-2.33,1.55-1.71,2.39-3.94,2.98-6.18.44-1.65.76-3.37,1.6-4.86,1.51-2.7,4.43-4.24,7.17-5.68,20.31-10.78,39.64-23.25,57.57-37.67.49-.4,3.42-2.13,1.71-2.85-.5-.21-1.08-.03-1.59.16-3.12,1.13-6.22,2.32-9.3,3.56Z"/>
      <g>
        <path class="nf-cloud3-1" d="m358.55,79.74c-4.66-4.03-15.69-13.55-26.2-11.19-14.34,3.21-16.67,24.86-29.31,26.44-2.48.31-5.29-.55-8.68-3.12-23.38-11.36-37.7-33.5-64.63-37.65-11.21-1.73-21.66,7.23-25.34,17.1-2.13,5.71-3.16,11.83-5.76,17.34-12.14,25.76-40.49,33.46-66.7,35.51-22.28,1.74-44.64,1.44-66.97,1.52-20.22.08-45.88-4.1-64.96,3.88,6.22,4.67,16.47,4.39,23.92,4.66,34.16,1.26,69.23,4.2,103.39,2.36,35.16.04,73.33,2.4,108.01-3.95,3.9-.72,7.8-1.43,11.7-2.15-5.94-3.84-10.67-4.5-13.87-4.41-4.43.13-9.39,1.82-9.64,1.12-.1-.27.59-.77,1.15-1.12.29-.22.63-.45,1.02-.66,1.25-.67,2.45-.88,3.28-.93,9.07-.24,22.21-.67,38.26-1.45,15.66-.77,10.94-.74,16.23-.91,24.79-.8,33.95,1.71,40.59-4.72,1.59-1.54,3.9-4.43,5.08-9.82.38-1.7,1.2-4.32,3.11-6.99,1.16-1.62,2.52-2.96,4.31-4.32,4.71-3.57,10.62-8.11,14.63-6.89,6.21,1.88,1.97,15.7,8.85,24.95,12.39,16.64,51.96,6.61,51.91,4.8-.03-1.44-25.07,2.83-34.61-10.73-2.46-3.49-1.73-5.1-5.93-12.36-1.84-3.18-6.04-10.43-12.85-16.31Z"/>
        <path class="nf-cloud3-1" d="m292.64,111.22c-18.61,3.3-33.48,2.93-43.68,1.95-17.58-1.68-29.27-5.9-47.77-2.96-9.01,1.43-16.15,4-20.74,5.93,1.97,3.01,5.22,7.28,10.2,11.18,22.12,17.31,53.58,7.84,83.68,3.16,22.38-3.48,54.05-5.86,94.16-.67-8.28-4.85-20.2-10.67-35.39-14.53-16.32-4.15-30.5-4.54-40.46-4.04Z"/>
        <path class="nf-cloud3-3" d="m485.31,116.85c-12.48-2.63-63.01,4.32-96.68,1.77-9.03-.69-19.03-2.91-24.01-10.48-3.38-5.14-2.68-7.92-8.02-18.21-3.45-6.64-6.43-12.39-11.9-16.62-8.76-6.78-19.88-6.53-26.2-5.73-10.07,3.41-18.99,10.11-25.08,18.82-2.76,3.94-5.19,8.5-9.51,10.61-5.67,2.76-12.51.27-17.83-3.13-5.32-3.4-10.27-7.79-16.43-9.16-6.84-1.53-14.08,1.38-18.5,6.7-1.91,2.3-2.65,4.58-1.91,6.35.79,1.9,3.16,2.61,4.17,2.89,10.73,3.01,77.1,6.45,81.63,6.75,1.52.1,4.75.44,6.43,2.72.91,1.24,1.5,3.23.74,4.7,0,0-.68,1.33-2.72,1.94-36.82,10.99-118.88-1.99-118.88-1.99-13.25-1.71-30.41-2.57-50.12-.06-30.35,3.85-53.88,14.05-68.85,22.07,70.13,10.78,123.27,9.85,159.74,6.72,14.79-1.27,93.83-8.51,128.96-9.54,30.1-.88,40.5-1.5,61.29-2.77,10.2-.62,20.4-1.34,30.59-2.17,5.1-.41,10.19-.85,15.28-1.32,3.81-.35,9.5.18,12.99-1.53.96-.47,1.68-1.19,2.09-2.06,0,0,.62-1.34.24-2.84-.77-3.02-6.4-4.2-7.52-4.44Z"/>
      </g>
    </g>
  </g>
</svg>