<?xml version="1.0" encoding="UTF-8"?>
<svg id="Calque_2" data-name="Calque 2" xmlns="http://www.w3.org/2000/svg" viewBox="0 0 826.62 199.29">
  <defs>
    <style>
      .nf-cloud2-1 {
        fill: #d1ebf2;
      }

      .nf-cloud2-2 {
        fill: #4a63f4;
      }

      .nf-cloud2-3 {
        fill: #e8f7f9;
      }
    </style>
  </defs>
  <g id="Calque_3" data-name="Calque 3">
    <g>
      <g>
        <path class="nf-cloud2-1" d="m283.42,116.51c22.33-17.26,36.62-18.25,45.83-15.27,20.75,6.72,27.33,35.55,45.55,36.85,3.69.26,7.8-1.24,12.61-5.31,33.74-18.7,53.19-52.65,92.77-60.95,16.47-3.46,32.67,8.99,38.91,23.31,3.61,8.29,5.63,17.27,9.92,25.24,20.05,37.21,62.68,46.36,101.68,47.3,33.15.8,66.27-1.43,99.36-3.08,29.96-1.5,67.66-9.74,96.58.57-8.84,7.42-24.06,7.82-35.08,8.82-50.52,4.59-102.26,11.75-153.03,11.75-76.43,0-99.69.01-160.38,2.77-18.04.82-32.84,1.68-42.52,2.28,22.24-12.08,36.33-13.38,45.21-12.16.73.1,14.07,1.94,14.37.9.12-.41-.94-1.09-1.8-1.57-.45-.31-.98-.62-1.57-.9-.82-.39-2.61-1.05-4.94-1.12-6.29-.2-43.12,3.15-56.16,2.63-3.58-.14-8.61-.7-13.78.22-.81.15-3.1.59-6.22.67-2.67.06-4.65-.17-5.11-.22-11.1-1.21-47.68,7.82-60.18-6.22-2.25-2.52-6.53-7.85-8.31-14.15-.7-2.48-2.13-6.31-5.16-10.1-1.85-2.32-3.97-4.19-6.74-6.06-7.25-4.91-11.2-4.53-22.23-9.05-9.78-4-13.2-8.01-14.53-9.49-2.56-2.86-4.12-5.68-5.06-7.64Z"/>
        <path class="nf-cloud2-1" d="m179.09,152.9c22.57,4.01,40.6,3.55,52.96,2.37,21.32-2.04,35.49-7.15,57.93-3.59,10.92,1.73,19.59,4.85,25.15,7.19-1.36,3.63-4.19,9.83-9.95,15.14-17.49,16.12-42.81,6.36-103.9,2.24-23.87-1.61-43.68-1.71-59.99-1.8-22.84-.12-41.62.46-54.18.98,10.04-5.88,24.5-12.94,42.92-17.62,19.79-5.03,36.98-5.5,49.07-4.9Z"/>
        <path class="nf-cloud2-3" d="m491.08,174.6c-36.4-9.47-140.13,20.66-151.06-16.31,4.36-38.28-45.89-12.95-50.93-43.2-.6-3.61-24.07,13.29-25.74,15.47-3.7,4.84-6.06,10.63-9.99,15.29-8.28,9.82-18.62,6.43-28.36,1.02-9.46-5.26-24.35-18-35.63-10.65-2.3,1.5-4.09,3.66-5.55,5.96-.6.95-5.31,10.51-4.73,10.72,38.62,14.37,97.88-8.47,128.3,10.19-.13,15.29-18.2,10.96-29.62,11.23-65.85,1.56-131.69-6.97-197.34,1.95-14.21,1.93-28.32,4.67-42.13,8.55-6.81,1.91-13.54,4.1-20.15,6.59-6.14,2.31-12.53,4.24-18.14,7.72,1.67.19,3.84.11,5.71.12,16.49.1,32.95-.1,49.43-.26,24.97,0,49.94-.63,74.91-.8,42.88-.29,85.76-.61,128.64-1.19,42.12-.57,84.25-1.33,126.35-2.86,30.42-1.1,61.07-2.09,91.31-5.87,3.61-.45,31.93-2.86,23.52-10.22-2.14-1.88-6.15-2.68-8.79-3.47Z"/>
      </g>
      <path class="nf-cloud2-2" d="m113.42,85.69c16.99-4.97,34.27-8.93,51.73-11.87,14.85-2.5,14.31-4.37,22.85-5.98,7.66-1.45,16.86-2.64,16.84-4.22-.02-1.39-7.12-1.31-7.83-4.35-.43-1.82,1.63-3.91,4.95-7.28,1.8-1.83,2.7-2.74,4.07-3.33,3.59-1.56,7.25-.26,8.44.24,4.27,1.78,4.58,4.83,7.11,6.16,5.89,3.08,16.79-6.78,19.46-9.18,0,0,5.57-15.9,77.35-45.42.73-.3,1.53-.6,2.29-.38,1.24.36,1.7,1.99,1.25,3.2-.44,1.21-1.49,2.07-2.5,2.87-27.68,22.09-55.35,44.18-83.03,66.27,2.81,2.07,5.22,2.71,6.84,2.94,3.12.43,7-.21,9.28-.59,3.08-.51,3.66-.86,4.28-.36,2.16,1.75-.75,9.32-3.3,11.44-.11.1-.49.37-.92.83-.98,1.03-1.6,2.34-2.5,3.43-2.33,2.8-6.35,3.75-9.94,3.15-3.59-.61-6.81-2.55-9.72-4.74-2.15-1.62-4.23-3.42-6.72-4.45-4.51-1.86-9.63-.93-14.42-.03-35.68,6.48-71.8,9.91-108.08,9.54-1,0-6.31.71-4.89-1.86.42-.76,1.31-1.09,2.13-1.36,4.97-1.64,9.97-3.2,15-4.67Z"/>
    </g>
  </g>
</svg>