<?xml version="1.0" encoding="UTF-8"?>
<svg id="Calque_2" data-name="Calque 2" xmlns="http://www.w3.org/2000/svg" viewBox="0 0 462.93 87.32">
  <defs>
    <style>
      .nf-cloud4-1 {
        fill: #d1ebf2;
      }

      .nf-cloud4-3 {
        fill: #e8f7f9;
      }
    </style>
  </defs>
  <g id="Calque_3" data-name="Calque 3">
    <g>
      <path class="nf-cloud4-2" d="m8.46,1.53c7.85,1.78,15.6,4.03,23.18,6.73,6.46,2.29,6.65,1.43,10.4,2.68,3.37,1.12,7.28,2.68,7.63,2.05.3-.56-2.54-2.09-2.15-3.46.23-.82,1.51-1.19,3.58-1.8,1.12-.33,1.68-.49,2.35-.43,1.77.17,2.94,1.5,3.3,1.96,1.3,1.65.75,2.93,1.46,4.02,1.66,2.53,8.17,1.02,9.76.66,0,0,5.73-5.09,40.79-.94.36.04.74.1.99.35.41.42.23,1.17-.21,1.55-.44.38-1.05.49-1.63.59-15.89,2.66-31.78,5.31-47.66,7.97.66,1.44,1.48,2.24,2.07,2.68,1.15.86,2.83,1.46,3.82,1.82,1.33.48,1.64.47,1.78.8.47,1.17-2.36,3.54-3.84,3.82-.07.01-.28.04-.55.13-.62.19-1.15.58-1.75.81-1.54.6-3.36.09-4.65-.95-1.29-1.04-2.14-2.52-2.81-4.03-.5-1.12-.92-2.3-1.69-3.26-1.38-1.74-3.62-2.5-5.73-3.2C31.3,16.77,16.19,10.13,1.85,1.96,1.45,1.74-.82.85.31.14.65-.07,1.07,0,1.46.07c2.34.45,4.67.93,6.99,1.46Z"/>
      <g>
        <path class="nf-cloud4-1" d="m138.63,28.25c4.22-3.64,14.19-12.26,23.7-10.12,12.97,2.91,15.07,22.48,26.51,23.92,2.24.28,4.79-.5,7.85-2.82,21.15-10.28,34.1-30.3,58.46-34.06,10.14-1.56,19.59,6.54,22.92,15.46,1.93,5.17,2.86,10.7,5.21,15.69,10.98,23.3,36.63,30.27,60.33,32.11,20.15,1.57,40.38,1.3,60.57,1.38,18.28.07,41.49-3.71,58.76,3.51-4.97,1.21-12.45,2.86-21.64,4.22-15.16,2.25-27.5,2.61-51.67,2.57-20.97-.03-24.11-.32-41.85-.44-49.14-.32-66.5,2.15-97.69-3.57-3.53-.65-7.06-1.29-10.58-1.94,5.38-3.47,9.65-4.07,12.55-3.98,4.01.12,8.49,1.65,8.72,1.02.09-.25-.54-.69-1.04-1.02-.27-.2-.57-.41-.93-.6-1.13-.61-2.21-.79-2.97-.85-8.21-.22-20.09-.6-34.6-1.31-14.17-.69-9.89-.67-14.68-.82-22.42-.72-30.7,1.55-36.71-4.27-1.44-1.4-3.53-4.01-4.59-8.88-.35-1.54-1.09-3.91-2.81-6.32-1.05-1.47-2.28-2.68-3.9-3.91-4.26-3.23-9.6-7.33-13.23-6.24-5.62,1.7-1.78,14.2-8.01,22.56-11.2,15.05-46.99,5.97-46.96,4.34.03-1.3,22.68,2.56,31.31-9.7,2.22-3.16,1.56-4.61,5.37-11.18,1.67-2.88,5.46-9.43,11.63-14.76Z"/>
        <path class="nf-cloud4-1" d="m198.25,56.73c16.83,2.99,30.28,2.65,39.5,1.76,15.9-1.52,26.47-5.33,43.21-2.68,8.15,1.29,14.61,3.62,18.76,5.36-1.78,2.72-4.72,6.58-9.23,10.11-20,15.65-48.46,7.09-75.68,2.86-20.24-3.14-48.89-5.3-85.16-.61,7.49-4.39,18.27-9.65,32.01-13.14,14.76-3.75,27.58-4.1,36.6-3.66Z"/>
        <path class="nf-cloud4-3" d="m23.98,61.82c11.28-2.38,56.99,3.91,87.44,1.6,8.17-.62,17.22-2.63,21.72-9.48,3.06-4.65,2.42-7.17,7.25-16.47,3.12-6,5.82-11.21,10.76-15.03,7.93-6.13,17.98-5.91,23.69-5.18,9.11,3.09,17.18,9.14,22.69,17.02,2.49,3.57,4.69,7.69,8.61,9.6,5.13,2.5,11.31.24,16.12-2.83,4.81-3.07,9.29-7.04,14.86-8.29,6.18-1.38,12.73,1.25,16.73,6.06,1.73,2.08,2.39,4.14,1.73,5.75-.72,1.72-2.86,2.36-3.77,2.62-9.71,2.72-69.73,5.83-73.83,6.11-1.38.09-4.3.4-5.81,2.46-.82,1.12-1.35,2.92-.67,4.25,0,0,.62,1.2,2.46,1.75,33.3,9.94,107.52-1.8,107.52-1.8,24.45-3.87,60.39-3.01,108.14,20.17-62.26,8.58-111.31,8.02-145.02,5.82-33.34-2.18-73.02-7.35-116.64-8.62-27.22-.8-36.63-1.35-55.44-2.51-9.23-.57-18.45-1.21-27.67-1.96-4.61-.37-9.22-.77-13.82-1.19-3.45-.32-8.59.16-11.75-1.38-.87-.43-1.52-1.07-1.89-1.87,0,0-.56-1.21-.22-2.57.7-2.73,5.79-3.8,6.8-4.02Z"/>
      </g>
    </g>
  </g>
</svg>