<?xml version="1.0" encoding="UTF-8"?>
<svg id="Calque_2" data-name="Calque 2" xmlns="http://www.w3.org/2000/svg" viewBox="0 0 1069.31 1069.31">

  <g id="Calque_3" data-name="Calque 3">
    <path class="nf-circle-1" d="m534.65,1069.31c-72.17,0-142.19-14.14-208.12-42.03-63.67-26.93-120.84-65.48-169.94-114.57-49.09-49.09-87.64-106.27-114.57-169.94C14.14,676.84,0,606.82,0,534.65s14.14-142.19,42.03-208.12c26.93-63.67,65.48-120.84,114.57-169.94,49.09-49.09,106.27-87.64,169.94-114.57C392.47,14.14,462.49,0,534.65,0s142.19,14.14,208.12,42.03c63.67,26.93,120.84,65.48,169.94,114.57,49.09,49.09,87.64,106.27,114.57,169.94,27.89,65.93,42.03,135.95,42.03,208.12s-14.14,142.19-42.03,208.12c-26.93,63.67-65.48,120.84-114.57,169.94-49.09,49.09-106.27,87.64-169.94,114.57-65.93,27.89-135.95,42.03-208.12,42.03Zm0-1018.31c-266.69,0-483.65,216.97-483.65,483.65s216.97,483.65,483.65,483.65,483.65-216.97,483.65-483.65S801.34,51,534.65,51Z"/>
  </g>
</svg>