<?xml version="1.0" encoding="UTF-8"?>
<svg id="Calque_2" data-name="Calque 2" xmlns="http://www.w3.org/2000/svg" viewBox="0 0 1267.92 546.73">
  <defs>
    <style>
      .nf-island-1 {
        fill: #fff;
        opacity: .32;
      }

      .nf-island-2 {
        fill: #4a63f4;
        
      }

      .nf-island-4 {
        fill: #8ccaf4;
      }

      .nf-island-5 {
        fill: #313b51;
      }

      .nf-island-6 {
        fill: #e1f9ff;
      }

      .nf-island-7 {
        fill: #a1d5ff;
      }
    </style>
  </defs>
  <g id="Calque_3" data-name="Calque 3">
    <g>
      <path class="nf-island-3" d="m804.27,158.68c-130-10.48-280.6-12.82-446.83,2.6-86.05,7.98-166.45,19.8-240.66,33.82-12.66-4.24-25.97-1.73-34.22,6.67-6,6.1-7.53,13.48-8,16.89-4.38.33-9.14.51-14.22.44-5.89-.07-11.34-.46-16.29-1.03,6.9,6.55,9.69,11.58,8.39,15.1-2.38,6.44-18.52,7.8-48.4,4.08-4.41,7.11-4.74,11.52-3.23,14.32,4.54,8.46,24.67.15,33.28,10.4,4.17,4.96,1.29,8.08,5.49,24.57,2.28,8.96,5.42,23,13.07,25.45,6.24,2,9.87-5.43,17.46-6,6.16-.46,11.52,3.78,15.55,7.95,3.94,4.08,7.2,8.83,10.17,13.64,2.31,3.74,3.66,8.72,7.23,11.54,5.47,4.32,9.17-.92,8.53-6.64-.67-6.11-4.17-11.64-4.91-17.49.04.35,8.62,3.6,9.59,4.17,3.2,1.89,6.13,4.25,8.55,7.08,4.75,5.56,5.51,13.93,12.22,17.7,1.8,1.01,4.06,1.62,5.88.65-1.61.85-.35,15.83-.4,17.71-.35,12.47-1.68,24.91-1.68,37.39-.19,17.55,1.26,36.11,10.49,51.51,14.78-12.92,3.31-50,4.71-70-.81-45.59,5.97-14.13,18.95,6.37-.99-1.58,2.29-2.5,3.27-2.69,3.62-.7,7.12,1.6,9.9,3.65,4.99,3.7-4.65,2.39-5.98,2.31-3.08-.19-4.97.31-5.13,3.63-.27,5.76,2.79,11.2,7.14,14.81,2.91,2.41,11.3,7.19,14.9,3.89.94-.86,1.44-2.07,1.88-3.26,1.23-3.36,2-6.81,2.55-10.33.42-2.68-.33-8.5,4.18-7.85,5.62.8,6.43,12.1,7.32,16.31.55,2.58.94,5.24,1.86,7.72.38,1.02.83,2.7,1.7,3.44,1.24,1.05,2.64.27,3.5.98.22.18.27.5.3.79.13,1.19.24,2.39.41,3.57-.34-2.42,1.78-7.99,2.52-10.31.1-.32.28-.69.61-.71.23-.01.43.16.59.32,6.75,7.07,6.42,23.62,5.77,32.59-.25,3.51-.98,11.02,4.08,11.62,4.52.54,6.01-5.58,6.11-8.9.08-2.61,8.51-34.08,12.87-33.06,1.85.43,2.97,6.34,3.43,7.73,1.72,5.12,3.5,10.2,5.99,15.01,1.37,2.65,2.87,5.47,4.8,7.77,3.2,3.82,7.53,5.94,10.43,10.31,2.29,3.45,4.08,7.21,6.44,10.61,1.59,2.3,3.43,4.43,5.47,6.33.42.4.88.79,1.44.95,1.41.4,2.73-.85,4.18-1.09,7.31-1.21,8.26,14.93,11.91,18.1,9.06,7.88,3.79-16.84,13.89-6.33,20.97,9.85,22.43-87.2,35.18-57.96,9.45,41.28-18.14,51.75,13.09,52.54,8.9-4.47,1.86-13.87-4.15-16.96,1.01-4.25-.19-19.89,4.26-21.33,16.78,8.26,17.25,45.72,35.22,51.17,4.27-3.76,7.04.53,9.74,6.99,24.82,40.29,22.04,73.39,56.04,15.98,9.99-7.21,20.08-8.93,28.84-16.67,1.17.51,2.33,1.06,3.48,1.64,48.9,54.24,41.67,30.51,81.6-15.98,6.92-14.62,18.44-1.25,26.63-14.12,16.43-12.4,19.52-38.03,38.83-44.05,5.48.07,5.43,17.65,6.22,21.33-24.91,10.57-5.06,21.05,11.05,15.73,12.68-3.81,2.67-13.54-2.63-19.33,2.25-7.87,4.04-50.88,13.7-36.43-.06,1.6-.22,3.29-.52,5.13,1.56,14.09,5.88,17.52,9.98,14.2,9.34,24.11,16.74,52.98,42.19,40.7,1.21,6,3.59,14.26,10.68,8.7,13.59-25.19,12.66-12.53,27.38-19.98,10.44-9.97,26.92-20.16,38.85-35.65,5.72,17.22,11.95,38.42,20.6,45.68-8.86,1.69-24.15-25.85-12.02,3.01,10.56,22.24,25.2,21.19,39.64,31.61,34.05,57.2,30.96,24.8,56.04-15.98,2.7-6.46,5.47-10.75,9.74-6.99,18-5.49,18.43-42.9,35.22-51.17,4.38,1.5,3.34,16.99,4.27,21.32-6.02,3.09-13.06,12.49-4.15,16.96,33.1.79-1.06-18.73,16.25-61.27,9.83,9.02,10.36,27.21,13.28,39.33,1.56,6.5,2.93,14.19,6.86,19.78,6.69,9.52,9.58,2.59,17.29,5.52,3.82,1.45,1.19,10,5.28,9.92,1.48-.03,2.46-1.49,3.17-2.78,3.27-5.87,6.54-11.74,9.8-17.62,4.7,3,10.97-.9,13.91-5.63,2.95-4.74,4.42-10.52,8.52-14.3,2.28-2.1,5.2-3.38,7.56-5.39,9.5-8.05,6.93-23.94,14.46-33.86,2.37,4.94,14.61,45.6,19.39,44.13,6.97-2.14,2.56-19.04,2.11-25.2,1.92-5.21,2.87-14.8,7.96-18.1,1.53,3.4,2.55,7.04,2.99,10.74.16-1.51.32-3.02.48-4.53,4.56-1.97,6.56-7.31,7.38-12.21.73-4.36.81-11.46,4-14.93,1.65-1.8,5.04-2.16,6.32-.08.46.75.56,1.66.65,2.53.46,4.37.92,8.74,1.38,13.11.19,1.8.53,3.86,2.07,4.81,1.52.94,3.61.29,4.85-1,1.24-1.29,1.82-3.05,2.34-4.76,3.67-11.97,4.58-24.55,7.47-36.7,2.64-11.1,13.31-22.45,14.59-32.63.09-.71.12-1.44.36-2.11.33-.9,1.03-1.61,1.67-2.33,3.34-3.73,5.69-8.34,6.74-13.24,1.17,2.28,4.64,2.37,6.69.84,2.05-1.54,3.02-4.08,3.89-6.49,2.8,2.78,3.44,7.05,3.5,11.01s-.27,8.04,1.14,11.73,5.3,6.84,9.11,5.8c1.39-.38,2.59-1.26,3.63-2.26,5.35-5.15,6.63-13.11,7.58-20.48.98-7.66,1.92-15.32,2.86-22.99,2.89-23.63,5.3-44.29-8.67-64.85-10.43-15.36-26.51-25.97-43.05-33.77-46.43-21.9-100.89-26.85-151.46-29.66-66.08-3.67-132.44-1.13-198.44,3Z"/>
      <g>
        <path class="nf-island-5" d="m1225.58,231.69c-4.93-2.32-14.93,5.43-15.48-3.18-6.4-17.47-43.26-19.03-53.99-19.67-53.22-.5-935.91-8.62-1047.93,2.6-20.02,2.01-73.31,7.34-83.1,35.62-3.18,9.19-.87,18.19.79,23.05-9.28,21.57,22.28,44.37,37.38,28.7.3-4.93,4.56-21.25,9.65-17.17,5.3,11.05,15.98-.07,21.71,9.29,11.7,14.08,34.83,20.76,39.18,44.13,3.95,24.04,22.91,44.63,32.14,10.61,18.49-4.96,13.38,21.14,27.7,23.47,5.16-1.74,1.56,3.64,3.71,4.41.6-2.4,4.41-12.85,7.75-9.09,2.44,5.81,13.43,12.42,10.53,18.53-11.33,12.65,11.28,26.22,16.32,10.55.31-6.54,3.69-9,8.48-11.24,12-8.55,12.56-27.52,25.3-4.16,10.07,18.06,40.7,26.04,52.49,36.37,3.73,4.23,8.29,2.59,12.62,1.56,11.85-1.76,19.39,25.36,32.69,14.36-1.06-9,7.96-4.56,13.36-3.11,25.66,6.28,30.86-24.67,45.34-38.14,11.91-21.26,20.6-12.49,21.15,7.91,5.78,10.4,2.96,14.63-8.36,18.27-2.71,14.14,50.27,14.24,32.41.21-13.85-4.34-9.97-3.89-6.86-17.76,6.08-8.61,29.8,6.33,29.22,16.11,5.25,8.5,16.48,10.14,22.49,17.87,9.6,10.52,24.49.43,32.64,12.39,9.16,10.11,22,16.96,31.02,27.39,9.29,17.61,33.57,11.34,49.01,3.7,22.88-28.21,66.44-13.95,92.98-38.34,22.3-23.08-8.53-.32-21.59-3.09,31.4-11.92,51.13-73.02,75.93-47.47-42.19,49.18,35.13-28.13,46.89-16.63,8.95,68.66,48.68,6.5,79.81,1.08,21.85-13.52,22.21-49.8,29.81-40.3,6.39,9.61,21.96,10.89,21.76,26,4.79-1.47,1.74-13.47,10.75-2.45-.3,6.98-16.95,3.81-6.94,12.56,6.26,2.35,5.23-8.89,11.91-6.7,6.84.13,2.7,35.29,16.17,26.93,11.21-8.84,12.08-24.6,23.12-33.21,5.5-28.65,21.94-15.85,8.82-1.15,2.12.4,6.5.56,4.2,3.36-5.43,5.86.15,18.18,4.05,18.12-4.49,2.54,2.49,15.19,2.01,19.51,2.02,17.48,26,6.44,30.2-8.57-7.17-3.09-14.59,3.14-21.02-2.19,14.9-5.12,30.14,2.83,34.67-16.45,22.85-26.51,9.39,17.31,9.71,34.32-9.62,38.09,20.36,42.97,18.61,3.47,6.7-30.54-8.62-67.97,19.22-91.2,5.13-5.08,6.83-13.37,14.94-15.63-7.53-8.14,5.43-8.62,10.72-7.83,12.27-29.88-13.76,66.72,8.29,54.54,6.22-3.75,8.01-36.63,3.1-22.26-7.2,12.66,2.89-35.5-1.18-44.11,10.01-8.4-.41,23.77,5.65,22.85,2.89-11.36-1.65-35.89,14.14-34.7,6.84,3.2,1.09,48.78,18.69,29.47,3.21-21.42,44.17-40.77,35.2-63.48Z"/>
        <path class="nf-island-3" d="m807.5,382.32c-4.77.02-7.57,2.43-7.91,7.1,1.62,14.61,26.39-4.76,7.91-7.1Z"/>
      </g>
      <path class="nf-island-2" d="m1236.49,214.36c.82.52,3.53,2.85,7.59,5.51,8.79,5.77,16.89,9.1,22.58,11.05-4.93,2.92-12.25,6.24-21.22,6.39-16.6.29-25.35-10.5-36.48-6.49-6.33,2.28-5.12,6.35-12.61,13.44-6.9,6.52-14.44,9.24-68.13,18.31-4.98.84-7.48,1.26-8.99,1.5-43.2,6.9-62.66,10.96-94.47,16.16-27.04,4.43-54.23,8.48-81.58,10.4-28.63,2.01-59.88,10.99-86.81-1.6-49.97-23.36-110.28-9.26-162.81-5-23.95,1.94-51.19,12.82-74.95,7-.81-.2-3.49-.85-7.36-1.74-1.66-.38-3.68-.81-6.3-1.31-7.07-1.33-8.99-1.31-10.39-2.9-3.59-4.08.77-13.65,3.91-19.41-17.1,11.8-43.75,28.76-79.77,37.14-9.61,2.24-35.6,8.81-88.34,7.67-57.82-1.25-62.41-9.57-124.24-14.51-69.01-5.51-75.05,3.92-132.88-5.28-49.2-7.82-44.73-15.14-75.06-15.34-19.35-.13-43.54,2.5-53.25-14.24-1.89-3.27-3-7.07-5.65-9.76-7.63-7.76-55.88-3.56-24.68-21.34C203.64,122.26,421.04,64.75,638.65,64.91c106.38.08,212.7,13.95,315.64,40.72,52.2,13.58,103.54,30.47,153.59,50.57,25.02,10.05,49.72,20.9,74.05,32.54,14.54,6.96,37.98,15.05,54.56,25.62Z"/>
      <path class="nf-island-2" d="m30.1,216.73c-2.12-2.54-4.85-5.36-8.32-8.08-7.7-6.04-15.49-8.81-20.72-10.16,6.01,0,13.42.49,21.72,2.16,7.8,1.56,14.44,3.78,19.77,5.94-.41-2.76-1.21-6.07-2.77-9.61-4.23-9.59-11.47-14.96-15.19-17.31,5.24,1.66,13.25,4.96,21.19,11.65,5.16,4.35,8.79,8.87,11.26,12.5.57-7.52.59-16.77-.93-27.17-2.6-17.77-8.62-31.69-13.59-40.91,9.92,7.81,21.48,18.45,32.59,32.58,6.25,7.95,11.31,15.67,15.41,22.77-22.51,12.58-45.02,25.16-67.53,37.75l7.11-12.11Z"/>
      <path class="nf-island-2" d="m1180.2,184.94c1.52-2.41,3.64-5.22,6.55-7.97,6.23-5.9,12.93-8.56,17.03-9.79-4.7-.08-11.44.33-19.14,2.66-6.83,2.06-12.16,4.94-15.86,7.33.28-2.88,1.04-7.02,3.17-11.56,3.13-6.67,7.63-10.79,10.27-12.85-3.82,1.59-9.4,4.42-15.02,9.42-5.56,4.94-9.02,10.09-11.04,13.67-1.61-6.38-3.24-16.03-2.17-27.68,1.33-14.47,6.21-25.45,9.64-31.78-6.67,5.02-15.72,13.05-23.91,24.91-6.73,9.74-10.75,19.01-13.21,26.09,20.23,9.14,40.46,18.29,60.69,27.43l-6.98-9.87Z"/>
      <g>
        <path class="nf-island-2" d="m967.93,144.06c3.09-4.88,7.38-10.58,13.28-16.18,12.63-11.97,26.23-17.36,34.55-19.87-9.53-.16-23.22.68-38.84,5.39-13.86,4.18-24.66,10.02-32.17,14.87.57-5.84,2.11-14.25,6.43-23.45,6.35-13.53,15.49-21.88,20.83-26.07-7.75,3.22-19.07,8.97-30.48,19.1-11.29,10.03-18.3,20.47-22.41,27.74-3.27-12.95-6.57-32.53-4.41-56.16,2.69-29.35,12.6-51.62,19.55-64.47-13.52,10.19-31.89,26.48-48.5,50.53-13.65,19.77-21.82,38.56-26.79,52.93,41.04,18.55,82.08,37.1,123.12,55.65l-14.17-20.02Z"/>
        <path class="nf-island-2" d="m273.5,139.09c-3.09-4.88-7.38-10.58-13.28-16.18-12.63-11.97-26.23-17.36-34.55-19.87,9.53-.16,23.22.68,38.84,5.39,13.86,4.18,24.66,10.02,32.17,14.87-.57-5.84-2.11-14.25-6.43-23.45-6.35-13.53-15.49-21.88-20.83-26.07,7.75,3.22,19.07,8.97,30.48,19.1,11.29,10.03,18.3,20.47,22.41,27.74,3.27-12.95,6.57-32.53,4.41-56.16-2.69-29.35-12.6-51.62-19.55-64.47,13.52,10.19,31.89,26.48,48.5,50.53,13.65,19.77,21.82,38.56,26.79,52.93-41.04,18.55-82.08,37.1-123.12,55.65l14.17-20.02Z"/>
      </g>
      <ellipse class="nf-island-6" cx="631.02" cy="86.4" rx="222.29" ry="24.72"/>
      <path class="nf-island-7" d="m681.01,110.49c-5.23-.09-12.85-.08-22.02.43-26.05,1.47-43.6,2.46-60.44,10.18-3.37,1.54-44.59,21.18-47.62,58.95-1.15,14.32,3.63,26.05,6.99,32.6l42.75,52.8-48.34,38.09-68.08,5.05c-6.53-14.88-14.25-38.99-9.81-66.94,5.59-35.14,39.15-69.26,58-90,12.74-14.01,28.94-29.94,24.78-37-2.29-3.89-10.52-4.69-21.75-5.77-9.75-.95-16.42-.21-16.53-1.06-.13-.98,8.58-3.15,16.92-4.67,26.61-4.86,49.23-3.11,56.58-2.5,33.79,2.82,63.81,6.41,88.57,9.83Z"/>
      <path class="nf-island-7" d="m1024.77,280.25c16.15-10.64,31.03-27.59,29.09-46.84-1.04-10.35-6.84-19.57-12.98-27.96-12.71-17.36-27.77-32.96-44.53-46.44-16.86-13.55-35.43-24.97-55.1-33.97-19.67-8.99-40.44-15.57-61.73-19.42-10.62-1.92-21.39-3.21-32.18-3.69-13.33-.59-26.46.22-39.77.93-2.59.14-5.19.25-7.78.32-15.29.41-31.15-.94-44.62-8.19,37.25-20.17,59.42-21.14,72.98-17.89,2.15.52,6.12,1.63,25.38,6.62,15.17,3.93,25.37,6.53,31.43,8.08,46.89,11.99,92.02,28.21,137.83,43.5,139.55,46.57,184.04,62.59,234.67,90.44,4.38,2.41,7.82,4.37,9.22,5.16-3.04,1.67-6.48,3.2-10.33,4.39-18.55,5.77-35.73-.01-47.37-4.49-21.96-8.45-33.29-15.89-59.86-30.68-34.28-19.08-50.99-26.51-64.5-31.83-11.58-4.57-23.47-8.97-35.63-11.71-2.79-.63-5.71-1.27-8.59-1.24-.91,0-2.45-.06-3.15.63-1.44,1.41.24,3.56,1.55,4.34,2.38,1.43,5.73,2,8.35,2.91,2.9,1.01,5.8,2.05,8.68,3.11,5.77,2.13,11.5,4.35,17.19,6.68,22.76,9.31,44.87,20.2,66.12,32.57,19.87,11.57,38.99,24.42,57.18,38.48-18.29,16.01-44.16,22.94-68,18.21-16.48-29.83-38.04-57.5-66.2-76.69-3.16-2.15-7.95-3.98-10.31-.98-2.54,3.25,1.08,7.66,4.37,10.14,25.32,19.05,52.3,39.46,62.96,69.31-21.57,11.29-43.15,22.58-64.72,33.87-9.88-5.9-19.77-11.81-29.65-17.71Z"/>
      <path class="nf-island-7" d="m104.2,275.35c11.46-1.22,35.05-5.33,65.24-25.7,28.67-19.34,35.73-34.73,59.6-60.24,27.59-29.48,68.25-61.74,103.4-75.76,20.16-8.04,61.54-20.92,118.98-12.69-2.67-.88-6.54-2.27-11.09-4.31-5.85-2.63-8.8-3.99-10-6.22-3.08-5.71,3.1-14.24,4.1-15.59-45.8,6.95-80,19.33-101.99,28.81-82.03,35.37-88.6,71.22-161,89-19.9,4.89-42.56,7.87-72,24-21.25,11.65-55.82,35.51-51.28,49.11,4.15,12.46,39.47,11.35,56.04,9.59Z"/>
      <path class="nf-island-1" d="m1020.45,124.65c69.15,22.93,70.87,30.54,70.45,32.61-1.68,8.14-50.84.35-128.29-.83-54.82-.84-113.64,5.07-231.28,16.89-49.23,4.94-89.87,9.69-117.66,13.09-20.45,18.26-38.21,26.67-49.63,30.83-11.71,4.27-19.24,5-25.33.14-6.26-5-8.42-13.87-9.22-18.53-.62-6.39-2.36-15.61-7.85-23.37-8.03-11.36-20.62-13.3-50.62-14.7-29.54-1.38-39.79,4.16-65.16,3.77-21.68-.33-29.02-4.61-57.93-10.75-42.91-9.11-106.98-5.32-109.06-15.67-1.35-6.7,23.89-21.18,85.09-39.17,68.65-20.18,203.37-50.9,409.39-34.52,15.29,1.22,141.76,12.02,287.11,60.21Z"/>
      <g>
        <path class="nf-island-4" d="m1116.14,449.2c-.08.78-.16,1.56-.26,2.34-.79,6.42-2.23,12.96-5.47,18.64-1.64,2.88-4.94,7.06-7.71,2.2-.9-1.58-.98-3.48-1.02-5.3-1.27-49.29,5.37-101.33-11.03-148.83-1.63-4.71-5.07-8.62-7.78-1.91-8.12,20.1-14.7,40.82-19.64,61.93-2.34,9.99-4.57,20.58-11.46,28.19-2.95,3.26-7.97,5.88-11.58,3.36-2.55-1.78-3.29-5.43-3.51-7.47-2.71-24.89,11.01-62.72-2.23-84.68-3.69-6.13-10.05-11.96-12-22.67-.48-2.66-2.06-11.33,2.32-14.74.48-.37.94-.61,1.26-.76,5.3-4.68,10.59-9.36,15.89-14.05,7.71-1.31,16.83-2.3,27.08-2.33,13.28-.04,24.82,1.54,34.05,3.47,3.8-.57,7.59-1.14,11.39-1.7,1.6-.27,3.19-.53,4.79-.8-.74,3.56-1.86,9.25-2.95,16.27-8.22,52.62-3.46,104.75-.99,123.31,0,0,3.15,22.54.85,45.53Zm-12.7-158.1c-.51-4.83-2.5-8.77-8.42-8.54-6.75.27-8.07,4.89-7.91,10.59.17,5.91,3.65,8.43,8.94,8.06,5.73-.4,7.48-4.6,7.39-10.11Z"/>
        <path class="nf-island-4" d="m50.5,348.57c1.46-11.01,4.29-41.94-.59-73.16-.65-4.17-1.31-7.54-1.75-9.65.95.16,1.89.32,2.84.47,2.25.34,4.5.67,6.76,1.01,5.06-1.24,11.98-2.38,20.2-2.06,6.09.23,11.34,1.2,15.5,2.28,3.58,2.63,7.16,5.25,10.74,7.88-3.68,38.62-6.47,66.74-7.06,72.43-.11,1.03-.51,3.34-2.08,4.43-2.14,1.49-5.12-.06-6.87-1.99-4.09-4.51-5.41-10.8-6.8-16.73-2.93-12.52-6.83-24.82-11.65-36.74-1.61-3.98-3.65-1.66-4.62,1.13-9.73,28.18-5.79,59.05-6.54,88.29-.03,1.08-.07,2.21-.61,3.15-1.65,2.88-3.6.4-4.57-1.3-1.92-3.37-2.78-7.25-3.25-11.06-.06-.46-.11-.92-.15-1.39-1.36-13.64.5-27.01.5-27.01Zm11.43-61.04c3,.21,4.97-1.22,5.06-4.57.09-3.23-.66-5.84-4.48-6-3.35-.13-4.47,2.1-4.77,4.84-.05,3.12.94,5.5,4.18,5.73Z"/>
        <path class="nf-island-4" d="m1130.02,344.61c-.41,1.46-.34,2.87-1.41,3.69-1.06.81-2.72.84-3.82.28-2.29-1.17-2.58-5.1-2.56-8.11.11-14.69,7.9-39.36,8.22-58.44.07-4.28-.19-11.03-2.22-19.44,6.69-3.56,14.61-7.16,23.72-10.22,17.12-5.75,32.57-7.64,44.41-8.08-.67.77-1.69,2.07-2.57,3.86-1.21,2.43-1.16,3.72-2.33,4.75-1.65,1.44-3.57.52-5.13.92-7.3,1.85-8.61,33.41-14.11,42.74-.9,1.53-2,3.16-3.71,3.64-1.66.46-3.43-.34-4.73-1.47-5.47-4.77-4.17-13.93-8.58-19.69-.79-1.03-1.98-2-3.26-1.76-1.24.24-1.97,1.49-2.53,2.62-8.91,17.93-14.99,37.26-17.95,57.05-.38,2.52-.72,5.17-1.42,7.68Z"/>
        <path class="nf-island-4" d="m1266.66,230.93c.77,2.66,1.68,6.96,1.03,12.07-.44,3.44-1.16,3.97-9.65,20.73-2.5,4.94-5.35,9.69-8.13,14.48-.59,1.01-1.08,2.67-1.89,2.86-14.56,3.49-12.28,17.9-17.98,27.11-2.08,3.36-4.63,8.97-10.63,4.44.11-7.71.22-15.42.32-23.14,5.09-2.03,2.89-6.04,2.59-9.53.23-13.24.45-26.49.67-39.73-4.68-3.13-9.36-6.26-14.04-9.39,9.49-3.67,16.53-3.31,21.29-2.24,7.6,1.72,10.45,5.51,17.79,6.49,7.52,1.01,14.13-1.67,18.61-4.16Z"/>
        <path class="nf-island-4" d="m1161.93,340.42c.03-1.89.11-3.78.26-5.68.19-2.29.53-4.7,1.95-6.5s4.3-2.64,6.07-1.18c1.45,1.2,1.62,3.32,1.67,5.2.21,7.68.42,15.37.12,23.04-.28,7.01-.96,14.22,1.25,20.87,1.28,3.87,3.51,7.45,4.13,11.48,1.19,7.74-3.75,15.07-4.67,22.85-.1.83-.16,1.69-.54,2.44-.75,1.47-2.5,2.07-3.74,3.16-1.82,1.6-2.44,4.19-2.55,6.61-.11,2.43.18,4.88-.26,7.27-.26,1.38-3.67,7.94-5.71,5.59-.4-.45-.45-1.1-.48-1.71-1.02-19.33,4.24-38.49,4.27-57.85.02-11.88-1.94-23.75-1.76-35.6Z"/>
        <path class="nf-island-4" d="m98.47,403.09c-.04-2.71-.16-5.42-.38-8.13-.27-3.28-.75-6.74-2.8-9.32s-6.16-3.79-8.7-1.7c-2.08,1.71-2.32,4.76-2.39,7.45-.3,11.01-.6,22.02-.17,33.02.4,10.04,1.37,20.37-1.79,29.92-1.84,5.55-5.03,10.68-5.92,16.46-1.7,11.1,5.38,21.6,6.7,32.75.14,1.19.22,2.42.77,3.49,1.08,2.1,3.58,2.97,5.36,4.53,2.61,2.3,3.5,6,3.66,9.48s-.26,7,.38,10.42c.37,1.98,5.25,11.38,8.18,8.01.57-.65.65-1.58.69-2.44,1.47-27.7-6.07-55.17-6.12-82.91-.03-17.03,2.78-34.04,2.53-51.02Z"/>
        <path class="nf-island-4" d="m592.36,353.43c-1.13,3.77-2.26,7.53-3.4,11.29-.57,1.87-1.17,3.82-2.52,5.23-1.35,1.42-3.68,2.1-5.3,1.01-2.4-1.62-1.62-5.56-3.52-7.74-2.61-2.99-7.63-.41-9.86,2.87-3.96,5.85-4.69,13.23-5.3,20.27-.74,8.5-1.48,16.99-2.22,25.49-.73,8.43-5.03,9.95-13.14,10.18-1.29.04-2.68-.05-3.66-.88-1.09-.92-1.33-2.47-1.5-3.89-2.65-22.28-3.37-44.79-2.15-67.19.22-4.04.48-8.23-.98-12-1.46-3.77-5.18-7.01-9.2-6.48-3.08.4-5.56,2.91-6.8,5.76-1.24,2.85-1.48,6.02-1.69,9.12-.68,9.79-1.36,19.58-2.04,29.38-.11,1.53-.23,3.12-1.03,4.42-.8,1.3-2.5,2.19-3.9,1.56-1.42-.64-1.95-2.62-2.13-3.39-1.99-8.63,3.68-45.28-5.58-60.25-2.51-4.06-7.73-9.13-20.01-11.7,1.64-.7,4.1-1.66,7.17-2.47,9.15-2.41,16.58-1.65,18.67-1.5,10.88.8,23.08-3.92,37.5-9.5,29.68-11.49,48.1-30.54,50.9-27.55,1.77,1.89-5.72,9.39-2.73,16.38,1.45,3.39,4.74,5.21,7,6.17.54,8.88-.02,16.03-.62,20.88-2.46,19.71-7.96,31.17-11.96,44.55Zm-9.44-34.07c.01-2.38.02-4.75.04-7.13.01-2.17-.05-4.54-1.48-6.17-1.25-1.43-3.26-1.91-5.15-2.08-2.13-.19-4.51.02-6.02,1.53-1.62,1.62-1.73,4.17-1.74,6.46-.01,3.34-.02,6.68-.03,10.03-.01,3.29.11,6.94,2.38,9.33,3.93,4.14,10.01,1.29,11.42-3.58.56-1.92.57-3.95.58-5.94,0-.82,0-1.63.01-2.45Z"/>
      </g>
    </g>
  </g>
</svg>