<?xml version="1.0" encoding="UTF-8"?>
<svg id="Calque_2" data-name="Calque 2" xmlns="http://www.w3.org/2000/svg" viewBox="0 0 564.53 71.34">

  <g id="Calque_3" data-name="Calque 3">
    <g>
      <path class="nf-text-1" d="m24.17.63H5.13c-1.63,0-2.9.43-3.79,1.3-.9.87-1.34,2.15-1.34,3.83v45.98c0,1.63.43,2.91,1.3,3.83.87.92,2.12,1.38,3.75,1.38s2.95-.46,3.79-1.38c.84-.92,1.26-2.2,1.26-3.83v-16.27h14.06c6.11,0,10.82-1.54,14.14-4.62s4.98-7.36,4.98-12.84-1.66-9.74-4.98-12.8c-3.32-3.05-8.03-4.58-14.14-4.58Zm6.56,24.45c-1.84,1.61-4.56,2.41-8.14,2.41h-12.48V8.61h12.48c3.58,0,6.29.79,8.14,2.37,1.84,1.58,2.77,3.92,2.77,7.03s-.92,5.46-2.77,7.07Z"/>
      <path class="nf-text-1" d="m74.62,18.64c-2.45-1.16-5.57-1.74-9.36-1.74-1.84,0-3.88.21-6.12.63-2.24.42-4.57,1.13-6.99,2.13-1,.37-1.71.94-2.13,1.7-.42.76-.63,1.54-.63,2.33s.21,1.51.63,2.17c.42.66,1.01,1.09,1.78,1.3.76.21,1.65.08,2.65-.4,1.95-.9,3.8-1.53,5.57-1.9,1.76-.37,3.41-.55,4.94-.55,2.74,0,4.69.58,5.85,1.74,1.16,1.16,1.74,3.06,1.74,5.69v1.66h-2.77c-5.58,0-10.03.37-13.35,1.11-3.32.74-5.71,1.94-7.19,3.59-1.48,1.66-2.21,3.91-2.21,6.75,0,2.32.62,4.4,1.86,6.24,1.24,1.84,2.95,3.31,5.14,4.38,2.18,1.08,4.67,1.62,7.47,1.62,2.11,0,3.98-.37,5.61-1.11,1.63-.74,2.99-1.78,4.07-3.12.65-.8,1.15-1.71,1.54-2.69v1.7c0,1.63.41,2.88,1.22,3.75.82.87,1.96,1.3,3.44,1.3s2.61-.43,3.4-1.3,1.19-2.12,1.19-3.75v-18.96c0-3.69-.61-6.7-1.82-9.05-1.21-2.34-3.04-4.09-5.49-5.25Zm-3.28,27.1c-.79,1.42-1.86,2.54-3.2,3.36-1.34.82-2.88,1.22-4.62,1.22-2.16,0-3.85-.55-5.06-1.66-1.21-1.11-1.82-2.53-1.82-4.27,0-1.37.41-2.44,1.22-3.2.82-.76,2.2-1.3,4.15-1.62,1.95-.32,4.55-.47,7.82-.47h2.69v1.74c0,1.84-.4,3.48-1.19,4.9Z"/>
      <path class="nf-text-1" d="m124.5,17.06c-1.53,0-2.73.42-3.59,1.26-.87.84-1.3,2.08-1.3,3.71v1.62c-.88-1.72-2.2-3.17-3.99-4.34-2.45-1.61-5.31-2.41-8.57-2.41-2.58,0-4.94.46-7.07,1.38-2.13.92-3.95,2.23-5.45,3.91-1.5,1.69-2.66,3.7-3.48,6.04-.82,2.34-1.22,4.96-1.22,7.86,0,3.85.71,7.22,2.13,10.11,1.42,2.9,3.42,5.15,6,6.75,2.58,1.61,5.61,2.41,9.08,2.41,3.16,0,5.99-.8,8.49-2.41,1.91-1.22,3.31-2.77,4.23-4.62v5.29c0,3.37-.88,5.91-2.65,7.62-1.77,1.71-4.41,2.57-7.94,2.57-1.48,0-3.25-.17-5.33-.51-2.08-.34-4.28-1.09-6.6-2.25-.79-.42-1.55-.53-2.29-.32-.74.21-1.36.6-1.86,1.18-.5.58-.82,1.25-.95,2.01-.13.76-.03,1.51.32,2.25.34.74,1.01,1.37,2.01,1.9,2.16,1.11,4.57,1.92,7.23,2.45,2.66.53,5.41.79,8.26.79,6.32,0,11.14-1.58,14.46-4.74,3.32-3.16,4.98-7.87,4.98-14.14v-30.41c0-1.63-.42-2.87-1.26-3.71-.84-.84-2.05-1.26-3.63-1.26Zm-6.04,25.32c-.82,1.77-1.96,3.12-3.44,4.07-1.48.95-3.24,1.42-5.29,1.42-3.06,0-5.48-1.05-7.27-3.16-1.79-2.11-2.69-4.98-2.69-8.61,0-2.42.41-4.5,1.22-6.24.82-1.74,1.96-3.08,3.44-4.03,1.47-.95,3.24-1.42,5.29-1.42,3.05,0,5.48,1.04,7.27,3.12,1.79,2.08,2.69,4.94,2.69,8.57,0,2.42-.41,4.52-1.22,6.28Z"/>
      <path class="nf-text-1" d="m173.68,38.51c.66-.5.99-1.22.99-2.17,0-3-.41-5.7-1.22-8.1-.82-2.4-2-4.44-3.56-6.12-1.55-1.68-3.42-2.97-5.61-3.87-2.19-.89-4.65-1.34-7.39-1.34-3.74,0-7.07.86-9.99,2.57-2.92,1.71-5.21,4.07-6.87,7.07-1.66,3-2.49,6.5-2.49,10.51s.86,7.66,2.57,10.67c1.71,3,4.15,5.32,7.31,6.95,3.16,1.63,6.92,2.45,11.3,2.45,2.05,0,4.28-.28,6.68-.83,2.4-.55,4.52-1.41,6.36-2.57.95-.58,1.62-1.26,2.01-2.05.4-.79.54-1.57.43-2.33-.11-.76-.41-1.41-.91-1.94-.5-.53-1.17-.83-2.01-.91-.84-.08-1.82.2-2.92.83-1.53.84-3.15,1.44-4.86,1.78-1.71.34-3.25.51-4.62.51-3.95,0-6.94-1.07-8.97-3.2-1.61-1.69-2.57-4.08-2.9-7.15h23.87c1.21,0,2.15-.25,2.8-.75Zm-22.04-13.35c1.55-1.03,3.44-1.54,5.65-1.54,2,0,3.67.43,5.02,1.3,1.34.87,2.37,2.12,3.08,3.75.59,1.36.92,3,1.02,4.9h-19.37c.19-1.5.52-2.86,1.05-4.07.82-1.87,2-3.32,3.56-4.35Z"/>
      <path class="nf-text-1" d="m234.08,18.64c-2-1.16-4.56-1.74-7.66-1.74s-5.89.72-8.33,2.17c-1.91,1.13-3.42,2.67-4.54,4.61v-1.65c0-1.63-.42-2.87-1.26-3.71-.84-.84-2.03-1.26-3.55-1.26s-2.71.42-3.56,1.26c-.84.84-1.26,2.08-1.26,3.71v29.86c0,1.63.42,2.88,1.26,3.75.84.87,2.05,1.3,3.63,1.3,3.32,0,4.98-1.69,4.98-5.06v-17.3c0-3,.86-5.41,2.57-7.23,1.71-1.82,4.02-2.73,6.91-2.73,2.37,0,4.12.69,5.25,2.05,1.13,1.37,1.7,3.56,1.7,6.56v18.64c0,1.63.43,2.88,1.3,3.75.87.87,2.09,1.3,3.67,1.3s2.79-.43,3.63-1.3c.84-.87,1.26-2.12,1.26-3.75v-19.12c0-3.58-.5-6.54-1.5-8.89-1-2.34-2.5-4.09-4.5-5.25Z"/>
      <path class="nf-text-1" d="m278.16,19.35c-2.95-1.63-6.43-2.45-10.43-2.45-3,0-5.72.46-8.14,1.38-2.42.92-4.5,2.27-6.24,4.03-1.74,1.77-3.07,3.87-3.99,6.32-.92,2.45-1.38,5.23-1.38,8.33,0,4.11.82,7.68,2.45,10.7,1.63,3.03,3.92,5.36,6.87,6.99,2.95,1.63,6.42,2.45,10.43,2.45,3,0,5.71-.46,8.14-1.38,2.42-.92,4.5-2.26,6.24-4.03,1.74-1.76,3.07-3.88,3.99-6.36.92-2.47,1.38-5.27,1.38-8.37,0-4.11-.82-7.66-2.45-10.67-1.63-3-3.92-5.32-6.87-6.95Zm-1.86,24.61c-.82,1.87-1.96,3.28-3.44,4.23-1.48.95-3.19,1.42-5.14,1.42-2.95,0-5.32-1.07-7.11-3.2-1.79-2.13-2.69-5.28-2.69-9.44,0-2.79.41-5.12,1.22-6.99.82-1.87,1.96-3.27,3.44-4.19,1.47-.92,3.19-1.38,5.13-1.38,2.95,0,5.32,1.04,7.11,3.12,1.79,2.08,2.69,5.23,2.69,9.44,0,2.79-.41,5.12-1.22,6.99Z"/>
      <path class="nf-text-1" d="m318.68,48.43c-.53.05-1.13.16-1.82.32-.69.16-1.47.24-2.37.24-2.48,0-4.27-.63-5.37-1.9-1.11-1.26-1.66-3.16-1.66-5.69v-16.27h8.37c1.26,0,2.24-.33,2.92-.99.68-.66,1.03-1.57,1.03-2.73s-.34-2.13-1.03-2.77c-.69-.63-1.66-.95-2.92-.95h-8.37v-7.19c0-1.63-.42-2.87-1.26-3.71-.84-.84-2.05-1.26-3.63-1.26s-2.8.42-3.67,1.26c-.87.84-1.3,2.08-1.3,3.71v7.19h-4.11c-1.26,0-2.24.32-2.92.95-.68.63-1.03,1.55-1.03,2.77s.34,2.07,1.03,2.73c.68.66,1.66.99,2.92.99h4.11v16.83c0,3.32.55,6.1,1.66,8.33,1.11,2.24,2.8,3.94,5.1,5.1,2.29,1.16,5.15,1.74,8.57,1.74.84,0,1.82-.09,2.92-.28,1.11-.19,2-.38,2.69-.59.9-.32,1.51-.88,1.86-1.7.34-.82.51-1.75.51-2.8,0-1.37-.21-2.28-.63-2.73-.42-.45-.95-.64-1.58-.59Z"/>
      <path class="nf-text-1" d="m380.85.63h-27.57c-1.74,0-3.07.46-3.99,1.38-.92.92-1.38,2.25-1.38,3.99v45.58c0,1.74.46,3.07,1.38,3.99.92.92,2.2,1.38,3.83,1.38,3.27,0,4.9-1.79,4.9-5.37v-19.12h21.17c1.32,0,2.33-.36,3.04-1.07.71-.71,1.07-1.72,1.07-3.04s-.36-2.24-1.07-2.92c-.71-.68-1.73-1.03-3.04-1.03h-21.17v-15.72h22.83c1.37,0,2.4-.36,3.08-1.07.68-.71,1.03-1.72,1.03-3.04s-.34-2.24-1.03-2.92c-.69-.68-1.71-1.03-3.08-1.03Z"/>
      <path class="nf-text-1" d="m417.99,19.35c-2.95-1.63-6.43-2.45-10.43-2.45-3,0-5.72.46-8.14,1.38-2.42.92-4.5,2.27-6.24,4.03-1.74,1.77-3.07,3.87-3.99,6.32-.92,2.45-1.38,5.23-1.38,8.33,0,4.11.82,7.68,2.45,10.7,1.63,3.03,3.92,5.36,6.87,6.99,2.95,1.63,6.42,2.45,10.43,2.45,3,0,5.71-.46,8.14-1.38,2.42-.92,4.5-2.26,6.24-4.03,1.74-1.76,3.07-3.88,3.99-6.36.92-2.47,1.38-5.27,1.38-8.37,0-4.11-.82-7.66-2.45-10.67-1.63-3-3.92-5.32-6.87-6.95Zm-1.86,24.61c-.82,1.87-1.96,3.28-3.44,4.23-1.48.95-3.19,1.42-5.14,1.42-2.95,0-5.32-1.07-7.11-3.2-1.79-2.13-2.69-5.28-2.69-9.44,0-2.79.41-5.12,1.22-6.99.82-1.87,1.96-3.27,3.44-4.19,1.47-.92,3.19-1.38,5.13-1.38,2.95,0,5.32,1.04,7.11,3.12,1.79,2.08,2.69,5.23,2.69,9.44,0,2.79-.41,5.12-1.22,6.99Z"/>
      <path class="nf-text-1" d="m465.94,17.06c-1.58,0-2.79.41-3.63,1.22-.84.82-1.26,2.07-1.26,3.75v17.38c0,3-.84,5.41-2.53,7.23-1.69,1.82-3.85,2.73-6.48,2.73-2.42,0-4.19-.66-5.29-1.98-1.11-1.32-1.66-3.34-1.66-6.08v-19.28c0-1.69-.43-2.94-1.3-3.75-.87-.82-2.09-1.22-3.67-1.22s-2.79.41-3.63,1.22c-.84.82-1.26,2.07-1.26,3.75v19.12c0,3.53.51,6.48,1.54,8.85s2.59,4.15,4.7,5.33c2.11,1.19,4.77,1.78,7.98,1.78s5.7-.76,7.94-2.29c1.59-1.09,2.89-2.51,3.91-4.26v1.34c0,1.63.42,2.88,1.26,3.75.84.87,2.03,1.3,3.56,1.3,3.21,0,4.82-1.69,4.82-5.06v-29.86c0-1.69-.43-2.94-1.3-3.75-.87-.82-2.09-1.22-3.67-1.22Z"/>
      <path class="nf-text-1" d="m511.36,18.64c-2-1.16-4.56-1.74-7.66-1.74s-5.89.72-8.33,2.17c-1.91,1.13-3.42,2.67-4.54,4.61v-1.65c0-1.63-.42-2.87-1.26-3.71-.84-.84-2.03-1.26-3.55-1.26s-2.71.42-3.56,1.26c-.84.84-1.26,2.08-1.26,3.71v29.86c0,1.63.42,2.88,1.26,3.75.84.87,2.05,1.3,3.63,1.3,3.32,0,4.98-1.69,4.98-5.06v-17.3c0-3,.86-5.41,2.57-7.23,1.71-1.82,4.02-2.73,6.91-2.73,2.37,0,4.12.69,5.25,2.05,1.13,1.37,1.7,3.56,1.7,6.56v18.64c0,1.63.43,2.88,1.3,3.75.87.87,2.09,1.3,3.67,1.3s2.79-.43,3.63-1.3c.84-.87,1.26-2.12,1.26-3.75v-19.12c0-3.58-.5-6.54-1.5-8.89-1-2.34-2.5-4.09-4.5-5.25Z"/>
      <path class="nf-text-1" d="m563.23,1.26c-.87-.84-2.09-1.26-3.67-1.26s-2.79.42-3.63,1.26c-.84.84-1.26,2.08-1.26,3.71v18.54c-.92-1.68-2.25-3.1-3.99-4.24-2.4-1.58-5.2-2.37-8.41-2.37-3.37,0-6.33.82-8.89,2.45-2.56,1.63-4.54,3.94-5.96,6.91-1.42,2.98-2.13,6.54-2.13,10.7s.71,7.68,2.13,10.7c1.42,3.03,3.41,5.36,5.96,6.99,2.55,1.63,5.52,2.45,8.89,2.45s6.11-.82,8.53-2.45c1.74-1.17,3.05-2.64,3.95-4.38v1.62c0,1.63.42,2.88,1.26,3.75.84.87,2.05,1.3,3.63,1.3s2.79-.43,3.63-1.3c.84-.87,1.26-2.12,1.26-3.75V4.98c0-1.63-.43-2.87-1.3-3.71Zm-13.07,46.93c-1.48.95-3.19,1.42-5.14,1.42-2.95,0-5.32-1.07-7.11-3.2-1.79-2.13-2.69-5.28-2.69-9.44,0-2.79.41-5.12,1.22-6.99.82-1.87,1.96-3.27,3.44-4.19,1.47-.92,3.19-1.38,5.13-1.38,2.95,0,5.32,1.04,7.11,3.12,1.79,2.08,2.69,5.23,2.69,9.44,0,2.79-.41,5.12-1.22,6.99-.82,1.87-1.96,3.28-3.44,4.23Z"/>
    </g>
  </g>
</svg>