<svg id="Logo" xmlns="http://www.w3.org/2000/svg" viewBox="0 0 256.28 256.28">
  <defs>
    <style>
      .cls-1 {
        fill: #f4f4f4;
      }

      .cls-2 {
        fill: #b0babf;
      }

      .cls-3 {
        fill: #242c3f;
      }

      .cls-4 {
        fill: #cad6dd;
      }
    </style>
  </defs>
  <rect id="Background" class="cls-3" x="0" y="0" width="256.28" height="256.28" rx="128.14" ry="128.14"/>
  <g id="Logo-2" data-name="Logo">
    <g>
      <polygon class="cls-4" points="61.05 188.36 61.07 110.86 51.48 105.33 51.46 193.89 89.82 216.03 99.4 210.5 99.4 199.43 89.81 204.96 61.05 188.36"/>
      <path class="cls-1" d="m118.55,66.59l-19.17,11.07,9.59,5.53v22.15l-28.76,16.6c4.85,2.8,9.69,5.6,14.54,8.4,1.63-2.81,4.73-7.32,10.01-11.35,5.37-4.1,10.64-5.9,13.8-6.72v-45.67Z"/>
      <path class="cls-1" d="m174.3,87.71v-18.07c0-25.39-20.58-45.97-45.97-45.97s-45.97,20.58-45.97,45.97v17.84l-30.91,17.85,9.58,5.53,28.76-16.6,9.58,5.53v-11.07l-5.78-3.34v-13.88c0-19.18,15.55-34.73,34.73-34.73s34.73,15.55,34.73,34.73v13.66l-6.17,3.56v11.07l9.58-5.53,28.76,16.6,9.58-5.53-30.51-17.62Z"/>
      <path class="cls-1" d="m147.29,83.19l9.59-5.53-19.17-11.07v45.67c3.17.82,8.43,2.62,13.8,6.72,5.28,4.03,8.37,8.54,10.01,11.35,4.85-2.8,9.69-5.6,14.54-8.4l-28.76-16.6v-22.15Z"/>
      <polygon class="cls-2" points="204.81 105.33 195.23 110.86 195.24 188.36 166.49 204.96 156.9 199.43 156.9 210.5 166.48 216.03 204.83 193.89 204.81 105.33"/>
      <path class="cls-2" d="m176.07,144.08v-22.15c-4.86,2.8-9.7,5.6-14.55,8.4,1.27,2.29,7.91,14.8,3.35,30.16-4.91,16.57-18.98,23.4-21.15,24.41l-6,3.46.14,32.97-.09.05v11.23l19.13-11.04-9.58-5.53v-22.14l28.76-16.6v-22.15l9.59-5.53-9.59-5.53Z"/>
      <path class="cls-4" d="m99.4,221.57l19.11,11.03v-11.23l-.07-.04.07-17.98v-.37h0l.06-14.61-6-3.46c-2.17-1.01-16.24-7.84-21.15-24.41-4.55-15.36,2.08-27.87,3.35-30.16-4.85-2.8-9.69-5.6-14.54-8.4v22.15s-9.61,5.53-9.61,5.53l9.59,5.53v22.15l28.76,16.6v22.14l-9.58,5.53Z"/>
    </g>
    <g>
      <path class="cls-2" d="m148.53,137.87l-10.23,5.88c1,1.73,1.62,3.71,1.62,5.86,0,6.5-5.27,11.78-11.78,11.78,0,0,0,0-.01,0,0,3.92,0,7.84.01,11.75,2.08.02,6.89-.22,11.95-3.19,4.87-2.86,7.39-6.74,8.42-8.55,1.08-1.85,3.37-6.36,3.19-12.48-.16-5.3-2.09-9.21-3.16-11.05Z"/>
      <path class="cls-1" d="m128.13,137.83c4.36,0,8.13,2.4,10.16,5.92l10.23-5.88c-1.11-1.91-4.04-6.34-9.73-9.23-4.41-2.25-8.48-2.55-10.67-2.55h0s0,0-.01,0h-.01c-2.18,0-6.25.31-10.67,2.55-5.69,2.9-8.61,7.32-9.73,9.23l10.25,5.89c2.03-3.53,5.8-5.93,10.17-5.93Z"/>
      <path class="cls-4" d="m128.13,161.38c-6.5,0-11.78-5.27-11.78-11.78,0-2.15.62-4.13,1.62-5.86l-10.22-5.88c-1.07,1.85-3.01,5.75-3.16,11.05-.18,6.12,2.11,10.63,3.19,12.48,1.03,1.81,3.55,5.69,8.42,8.55,5.06,2.97,9.86,3.2,11.95,3.19,0-3.92,0-7.84.01-11.75,0,0-.02,0-.03,0Z"/>
    </g>
  </g>
</svg>