<?xml version="1.0" encoding="UTF-8"?>
<svg id="Calque_2" data-name="Calque 2" xmlns="http://www.w3.org/2000/svg" xmlns:xlink="http://www.w3.org/1999/xlink" viewBox="0 0 395.02 394.18">
  <defs>
    <style>
      .hexagraphic-project-1 {
        opacity: .04;
      }
      
      .hexagraphic-project-3 {
        fill: #242c3f;
      }

      .hexagraphic-project-4 {
        stroke: #000;
        stroke-miterlimit: 10;
        stroke-width: .63px;
      }

      .hexagraphic-project-4, .hexagraphic-project-5 {
        fill: none;
      }

      .hexagraphic-project-6 {
        clip-path: url(#clippath-hexagraphic-project);
      }
    </style>
    <clipPath id="clippath-hexagraphic-project">
      <rect class="hexagraphic-project-5" x="13.82" y="-1.85" width="367.38" height="397.88" rx="176.85" ry="176.85" transform="translate(192.39 476.07) rotate(-133.89)"/>
    </clipPath>
  </defs>
  <g id="Calque_2-2" data-name="Calque 2">
    <g>
      <g class="hexagraphic-project-1">
        <g class="hexagraphic-project-6">
          <g>
            <g>
              <g>
                <line class="hexagraphic-project-4" x1="700.51" y1="771.01" x2="-492.06" y2="378.34"/>
                <line class="hexagraphic-project-4" x1="704.72" y1="754.02" x2="-487.86" y2="361.35"/>
                <line class="hexagraphic-project-4" x1="708.93" y1="737.03" x2="-483.65" y2="344.36"/>
                <line class="hexagraphic-project-4" x1="713.13" y1="720.04" x2="-479.45" y2="327.37"/>
                <line class="hexagraphic-project-4" x1="717.34" y1="703.05" x2="-475.24" y2="310.38"/>
                <line class="hexagraphic-project-4" x1="721.54" y1="686.06" x2="-471.03" y2="293.39"/>
                <line class="hexagraphic-project-4" x1="725.75" y1="669.07" x2="-466.83" y2="276.4"/>
                <line class="hexagraphic-project-4" x1="729.96" y1="652.08" x2="-462.62" y2="259.41"/>
                <line class="hexagraphic-project-4" x1="734.16" y1="635.09" x2="-458.41" y2="242.42"/>
                <line class="hexagraphic-project-4" x1="738.37" y1="618.1" x2="-454.21" y2="225.43"/>
                <line class="hexagraphic-project-4" x1="742.58" y1="601.11" x2="-450" y2="208.44"/>
                <line class="hexagraphic-project-4" x1="746.78" y1="584.12" x2="-445.79" y2="191.45"/>
                <line class="hexagraphic-project-4" x1="750.99" y1="567.13" x2="-441.59" y2="174.46"/>
                <line class="hexagraphic-project-4" x1="755.2" y1="550.14" x2="-437.38" y2="157.47"/>
                <line class="hexagraphic-project-4" x1="759.4" y1="533.15" x2="-433.17" y2="140.48"/>
                <line class="hexagraphic-project-4" x1="763.61" y1="516.16" x2="-428.97" y2="123.49"/>
                <line class="hexagraphic-project-4" x1="767.82" y1="499.17" x2="-424.76" y2="106.5"/>
                <line class="hexagraphic-project-4" x1="772.02" y1="482.18" x2="-420.55" y2="89.51"/>
                <line class="hexagraphic-project-4" x1="776.23" y1="465.19" x2="-416.35" y2="72.52"/>
                <line class="hexagraphic-project-4" x1="780.44" y1="448.2" x2="-412.14" y2="55.53"/>
                <line class="hexagraphic-project-4" x1="784.64" y1="431.21" x2="-407.93" y2="38.54"/>
                <line class="hexagraphic-project-4" x1="788.85" y1="414.22" x2="-403.73" y2="21.55"/>
                <line class="hexagraphic-project-4" x1="793.06" y1="397.23" x2="-399.52" y2="4.56"/>
                <line class="hexagraphic-project-4" x1="797.26" y1="380.24" x2="-395.31" y2="-12.43"/>
                <line class="hexagraphic-project-4" x1="801.47" y1="363.25" x2="-391.11" y2="-29.42"/>
                <line class="hexagraphic-project-4" x1="805.68" y1="346.26" x2="-386.9" y2="-46.41"/>
                <line class="hexagraphic-project-4" x1="809.88" y1="329.27" x2="-382.69" y2="-63.4"/>
                <line class="hexagraphic-project-4" x1="814.09" y1="312.28" x2="-378.49" y2="-80.39"/>
                <line class="hexagraphic-project-4" x1="818.3" y1="295.29" x2="-374.28" y2="-97.38"/>
                <line class="hexagraphic-project-4" x1="822.5" y1="278.3" x2="-370.07" y2="-114.37"/>
                <line class="hexagraphic-project-4" x1="826.71" y1="261.31" x2="-365.87" y2="-131.36"/>
                <line class="hexagraphic-project-4" x1="830.92" y1="244.32" x2="-361.66" y2="-148.35"/>
                <line class="hexagraphic-project-4" x1="835.12" y1="227.33" x2="-357.46" y2="-165.34"/>
                <line class="hexagraphic-project-4" x1="839.33" y1="210.34" x2="-353.25" y2="-182.33"/>
                <line class="hexagraphic-project-4" x1="843.54" y1="193.35" x2="-349.04" y2="-199.32"/>
                <line class="hexagraphic-project-4" x1="847.74" y1="176.36" x2="-344.84" y2="-216.31"/>
                <line class="hexagraphic-project-4" x1="851.95" y1="159.37" x2="-340.63" y2="-233.3"/>
                <line class="hexagraphic-project-4" x1="856.15" y1="142.38" x2="-336.42" y2="-250.29"/>
                <line class="hexagraphic-project-4" x1="860.36" y1="125.39" x2="-332.22" y2="-267.28"/>
                <line class="hexagraphic-project-4" x1="864.57" y1="108.4" x2="-328.01" y2="-284.27"/>
                <line class="hexagraphic-project-4" x1="868.77" y1="91.41" x2="-323.8" y2="-301.26"/>
                <line class="hexagraphic-project-4" x1="872.98" y1="74.42" x2="-319.6" y2="-318.25"/>
                <line class="hexagraphic-project-4" x1="877.19" y1="57.43" x2="-315.39" y2="-335.24"/>
                <line class="hexagraphic-project-4" x1="881.39" y1="40.44" x2="-311.18" y2="-352.23"/>
                <line class="hexagraphic-project-4" x1="885.6" y1="23.45" x2="-306.98" y2="-369.22"/>
                <line class="hexagraphic-project-4" x1="889.81" y1="6.46" x2="-302.77" y2="-386.21"/>
              </g>
              <g>
                <line class="hexagraphic-project-4" x1="9.86" y1="878.78" x2="-336.22" y2="-328.14"/>
                <line class="hexagraphic-project-4" x1="27" y1="875.24" x2="-319.08" y2="-331.69"/>
                <line class="hexagraphic-project-4" x1="44.14" y1="871.69" x2="-301.94" y2="-335.23"/>
                <line class="hexagraphic-project-4" x1="61.28" y1="868.15" x2="-284.8" y2="-338.77"/>
                <line class="hexagraphic-project-4" x1="78.42" y1="864.6" x2="-267.66" y2="-342.32"/>
                <line class="hexagraphic-project-4" x1="95.56" y1="861.06" x2="-250.52" y2="-345.86"/>
                <line class="hexagraphic-project-4" x1="112.7" y1="857.52" x2="-233.38" y2="-349.41"/>
                <line class="hexagraphic-project-4" x1="129.84" y1="853.97" x2="-216.24" y2="-352.95"/>
                <line class="hexagraphic-project-4" x1="146.98" y1="850.43" x2="-199.1" y2="-356.49"/>
                <line class="hexagraphic-project-4" x1="164.12" y1="846.88" x2="-181.96" y2="-360.04"/>
                <line class="hexagraphic-project-4" x1="181.26" y1="843.34" x2="-164.82" y2="-363.58"/>
                <line class="hexagraphic-project-4" x1="198.4" y1="839.8" x2="-147.68" y2="-367.12"/>
                <line class="hexagraphic-project-4" x1="215.54" y1="836.25" x2="-130.53" y2="-370.67"/>
                <line class="hexagraphic-project-4" x1="232.68" y1="832.71" x2="-113.39" y2="-374.21"/>
                <line class="hexagraphic-project-4" x1="249.82" y1="829.17" x2="-96.25" y2="-377.76"/>
                <line class="hexagraphic-project-4" x1="266.96" y1="825.62" x2="-79.11" y2="-381.3"/>
                <line class="hexagraphic-project-4" x1="284.1" y1="822.08" x2="-61.97" y2="-384.84"/>
                <line class="hexagraphic-project-4" x1="301.24" y1="818.53" x2="-44.83" y2="-388.39"/>
                <line class="hexagraphic-project-4" x1="318.38" y1="814.99" x2="-27.69" y2="-391.93"/>
                <line class="hexagraphic-project-4" x1="335.53" y1="811.45" x2="-10.55" y2="-395.48"/>
                <line class="hexagraphic-project-4" x1="352.67" y1="807.9" x2="6.59" y2="-399.02"/>
                <line class="hexagraphic-project-4" x1="369.81" y1="804.36" x2="23.73" y2="-402.56"/>
                <line class="hexagraphic-project-4" x1="386.95" y1="800.81" x2="40.87" y2="-406.11"/>
                <line class="hexagraphic-project-4" x1="404.09" y1="797.27" x2="58.01" y2="-409.65"/>
                <line class="hexagraphic-project-4" x1="421.23" y1="793.73" x2="75.15" y2="-413.19"/>
                <line class="hexagraphic-project-4" x1="438.37" y1="790.18" x2="92.29" y2="-416.74"/>
                <line class="hexagraphic-project-4" x1="455.51" y1="786.64" x2="109.43" y2="-420.28"/>
                <line class="hexagraphic-project-4" x1="472.65" y1="783.1" x2="126.57" y2="-423.83"/>
                <line class="hexagraphic-project-4" x1="489.79" y1="779.55" x2="143.71" y2="-427.37"/>
                <line class="hexagraphic-project-4" x1="506.93" y1="776.01" x2="160.85" y2="-430.91"/>
                <line class="hexagraphic-project-4" x1="524.07" y1="772.46" x2="177.99" y2="-434.46"/>
                <line class="hexagraphic-project-4" x1="541.21" y1="768.92" x2="195.13" y2="-438"/>
                <line class="hexagraphic-project-4" x1="558.35" y1="765.38" x2="212.27" y2="-441.55"/>
                <line class="hexagraphic-project-4" x1="575.49" y1="761.83" x2="229.42" y2="-445.09"/>
                <line class="hexagraphic-project-4" x1="592.63" y1="758.29" x2="246.56" y2="-448.63"/>
                <line class="hexagraphic-project-4" x1="609.77" y1="754.74" x2="263.7" y2="-452.18"/>
                <line class="hexagraphic-project-4" x1="626.91" y1="751.2" x2="280.84" y2="-455.72"/>
                <line class="hexagraphic-project-4" x1="644.05" y1="747.66" x2="297.98" y2="-459.26"/>
                <line class="hexagraphic-project-4" x1="661.19" y1="744.11" x2="315.12" y2="-462.81"/>
                <line class="hexagraphic-project-4" x1="678.33" y1="740.57" x2="332.26" y2="-466.35"/>
                <line class="hexagraphic-project-4" x1="695.48" y1="737.03" x2="349.4" y2="-469.9"/>
                <line class="hexagraphic-project-4" x1="712.62" y1="733.48" x2="366.54" y2="-473.44"/>
                <line class="hexagraphic-project-4" x1="729.76" y1="729.94" x2="383.68" y2="-476.98"/>
              </g>
            </g>
            <g>
              <g>
                <line class="hexagraphic-project-4" x1="9.86" y1="878.78" x2="-336.22" y2="-328.14"/>
                <line class="hexagraphic-project-4" x1="27" y1="875.24" x2="-319.08" y2="-331.69"/>
                <line class="hexagraphic-project-4" x1="44.14" y1="871.69" x2="-301.94" y2="-335.23"/>
                <line class="hexagraphic-project-4" x1="61.28" y1="868.15" x2="-284.8" y2="-338.77"/>
                <line class="hexagraphic-project-4" x1="78.42" y1="864.6" x2="-267.66" y2="-342.32"/>
                <line class="hexagraphic-project-4" x1="95.56" y1="861.06" x2="-250.52" y2="-345.86"/>
                <line class="hexagraphic-project-4" x1="112.7" y1="857.52" x2="-233.38" y2="-349.41"/>
                <line class="hexagraphic-project-4" x1="129.84" y1="853.97" x2="-216.24" y2="-352.95"/>
                <line class="hexagraphic-project-4" x1="146.98" y1="850.43" x2="-199.1" y2="-356.49"/>
                <line class="hexagraphic-project-4" x1="164.12" y1="846.88" x2="-181.96" y2="-360.04"/>
                <line class="hexagraphic-project-4" x1="181.26" y1="843.34" x2="-164.82" y2="-363.58"/>
                <line class="hexagraphic-project-4" x1="198.4" y1="839.8" x2="-147.68" y2="-367.12"/>
                <line class="hexagraphic-project-4" x1="215.54" y1="836.25" x2="-130.53" y2="-370.67"/>
                <line class="hexagraphic-project-4" x1="232.68" y1="832.71" x2="-113.39" y2="-374.21"/>
                <line class="hexagraphic-project-4" x1="249.82" y1="829.17" x2="-96.25" y2="-377.76"/>
                <line class="hexagraphic-project-4" x1="266.96" y1="825.62" x2="-79.11" y2="-381.3"/>
                <line class="hexagraphic-project-4" x1="284.1" y1="822.08" x2="-61.97" y2="-384.84"/>
                <line class="hexagraphic-project-4" x1="301.24" y1="818.53" x2="-44.83" y2="-388.39"/>
                <line class="hexagraphic-project-4" x1="318.38" y1="814.99" x2="-27.69" y2="-391.93"/>
                <line class="hexagraphic-project-4" x1="335.53" y1="811.45" x2="-10.55" y2="-395.48"/>
                <line class="hexagraphic-project-4" x1="352.67" y1="807.9" x2="6.59" y2="-399.02"/>
                <line class="hexagraphic-project-4" x1="369.81" y1="804.36" x2="23.73" y2="-402.56"/>
                <line class="hexagraphic-project-4" x1="386.95" y1="800.81" x2="40.87" y2="-406.11"/>
                <line class="hexagraphic-project-4" x1="404.09" y1="797.27" x2="58.01" y2="-409.65"/>
                <line class="hexagraphic-project-4" x1="421.23" y1="793.73" x2="75.15" y2="-413.19"/>
                <line class="hexagraphic-project-4" x1="438.37" y1="790.18" x2="92.29" y2="-416.74"/>
                <line class="hexagraphic-project-4" x1="455.51" y1="786.64" x2="109.43" y2="-420.28"/>
                <line class="hexagraphic-project-4" x1="472.65" y1="783.1" x2="126.57" y2="-423.83"/>
                <line class="hexagraphic-project-4" x1="489.79" y1="779.55" x2="143.71" y2="-427.37"/>
                <line class="hexagraphic-project-4" x1="506.93" y1="776.01" x2="160.85" y2="-430.91"/>
                <line class="hexagraphic-project-4" x1="524.07" y1="772.46" x2="177.99" y2="-434.46"/>
                <line class="hexagraphic-project-4" x1="541.21" y1="768.92" x2="195.13" y2="-438"/>
                <line class="hexagraphic-project-4" x1="558.35" y1="765.38" x2="212.27" y2="-441.55"/>
                <line class="hexagraphic-project-4" x1="575.49" y1="761.83" x2="229.42" y2="-445.09"/>
                <line class="hexagraphic-project-4" x1="592.63" y1="758.29" x2="246.56" y2="-448.63"/>
                <line class="hexagraphic-project-4" x1="609.77" y1="754.74" x2="263.7" y2="-452.18"/>
                <line class="hexagraphic-project-4" x1="626.91" y1="751.2" x2="280.84" y2="-455.72"/>
                <line class="hexagraphic-project-4" x1="644.05" y1="747.66" x2="297.98" y2="-459.26"/>
                <line class="hexagraphic-project-4" x1="661.19" y1="744.11" x2="315.12" y2="-462.81"/>
                <line class="hexagraphic-project-4" x1="678.33" y1="740.57" x2="332.26" y2="-466.35"/>
                <line class="hexagraphic-project-4" x1="695.48" y1="737.03" x2="349.4" y2="-469.9"/>
                <line class="hexagraphic-project-4" x1="712.62" y1="733.48" x2="366.54" y2="-473.44"/>
                <line class="hexagraphic-project-4" x1="729.76" y1="729.94" x2="383.68" y2="-476.98"/>
              </g>
              <g>
                <line class="hexagraphic-project-4" x1="-743.84" y1="70.18" x2="102.66" y2="-744.07"/>
                <line class="hexagraphic-project-4" x1="-730.91" y1="83.62" x2="115.6" y2="-730.63"/>
                <line class="hexagraphic-project-4" x1="-717.97" y1="97.07" x2="128.53" y2="-717.18"/>
                <line class="hexagraphic-project-4" x1="-705.04" y1="110.52" x2="141.46" y2="-703.74"/>
                <line class="hexagraphic-project-4" x1="-692.1" y1="123.96" x2="154.4" y2="-690.29"/>
                <line class="hexagraphic-project-4" x1="-679.17" y1="137.41" x2="167.33" y2="-676.84"/>
                <line class="hexagraphic-project-4" x1="-666.24" y1="150.86" x2="180.26" y2="-663.4"/>
                <line class="hexagraphic-project-4" x1="-653.3" y1="164.3" x2="193.2" y2="-649.95"/>
                <line class="hexagraphic-project-4" x1="-640.37" y1="177.75" x2="206.13" y2="-636.51"/>
                <line class="hexagraphic-project-4" x1="-627.43" y1="191.19" x2="219.07" y2="-623.06"/>
                <line class="hexagraphic-project-4" x1="-614.5" y1="204.64" x2="232" y2="-609.61"/>
                <line class="hexagraphic-project-4" x1="-601.57" y1="218.09" x2="244.93" y2="-596.17"/>
                <line class="hexagraphic-project-4" x1="-588.63" y1="231.53" x2="257.87" y2="-582.72"/>
                <line class="hexagraphic-project-4" x1="-575.7" y1="244.98" x2="270.8" y2="-569.27"/>
                <line class="hexagraphic-project-4" x1="-562.76" y1="258.42" x2="283.74" y2="-555.83"/>
                <line class="hexagraphic-project-4" x1="-549.83" y1="271.87" x2="296.67" y2="-542.38"/>
                <line class="hexagraphic-project-4" x1="-536.9" y1="285.32" x2="309.6" y2="-528.94"/>
                <line class="hexagraphic-project-4" x1="-523.96" y1="298.76" x2="322.54" y2="-515.49"/>
                <line class="hexagraphic-project-4" x1="-511.03" y1="312.21" x2="335.47" y2="-502.04"/>
                <line class="hexagraphic-project-4" x1="-498.09" y1="325.66" x2="348.41" y2="-488.6"/>
                <line class="hexagraphic-project-4" x1="-485.16" y1="339.1" x2="361.34" y2="-475.15"/>
                <line class="hexagraphic-project-4" x1="-472.23" y1="352.55" x2="374.27" y2="-461.71"/>
                <line class="hexagraphic-project-4" x1="-459.29" y1="365.99" x2="387.21" y2="-448.26"/>
                <line class="hexagraphic-project-4" x1="-446.36" y1="379.44" x2="400.14" y2="-434.81"/>
                <line class="hexagraphic-project-4" x1="-433.42" y1="392.89" x2="413.08" y2="-421.37"/>
                <line class="hexagraphic-project-4" x1="-420.49" y1="406.33" x2="426.01" y2="-407.92"/>
                <line class="hexagraphic-project-4" x1="-407.56" y1="419.78" x2="438.94" y2="-394.47"/>
                <line class="hexagraphic-project-4" x1="-394.62" y1="433.22" x2="451.88" y2="-381.03"/>
                <line class="hexagraphic-project-4" x1="-381.69" y1="446.67" x2="464.81" y2="-367.58"/>
                <line class="hexagraphic-project-4" x1="-368.76" y1="460.12" x2="477.74" y2="-354.14"/>
                <line class="hexagraphic-project-4" x1="-355.82" y1="473.56" x2="490.68" y2="-340.69"/>
                <line class="hexagraphic-project-4" x1="-342.89" y1="487.01" x2="503.61" y2="-327.24"/>
                <line class="hexagraphic-project-4" x1="-329.95" y1="500.46" x2="516.55" y2="-313.8"/>
                <line class="hexagraphic-project-4" x1="-317.02" y1="513.9" x2="529.48" y2="-300.35"/>
                <line class="hexagraphic-project-4" x1="-304.09" y1="527.35" x2="542.41" y2="-286.91"/>
                <line class="hexagraphic-project-4" x1="-291.15" y1="540.79" x2="555.35" y2="-273.46"/>
                <line class="hexagraphic-project-4" x1="-278.22" y1="554.24" x2="568.28" y2="-260.01"/>
                <line class="hexagraphic-project-4" x1="-265.28" y1="567.69" x2="581.22" y2="-246.57"/>
                <line class="hexagraphic-project-4" x1="-252.35" y1="581.13" x2="594.15" y2="-233.12"/>
                <line class="hexagraphic-project-4" x1="-239.42" y1="594.58" x2="607.08" y2="-219.67"/>
                <line class="hexagraphic-project-4" x1="-226.48" y1="608.02" x2="620.02" y2="-206.23"/>
                <line class="hexagraphic-project-4" x1="-213.55" y1="621.47" x2="632.95" y2="-192.78"/>
                <line class="hexagraphic-project-4" x1="-200.61" y1="634.92" x2="645.89" y2="-179.34"/>
                <line class="hexagraphic-project-4" x1="-187.68" y1="648.36" x2="658.82" y2="-165.89"/>
                <line class="hexagraphic-project-4" x1="-174.75" y1="661.81" x2="671.75" y2="-152.44"/>
                <line class="hexagraphic-project-4" x1="-161.81" y1="675.25" x2="684.69" y2="-139"/>
                <line class="hexagraphic-project-4" x1="-148.88" y1="688.7" x2="697.62" y2="-125.55"/>
                <line class="hexagraphic-project-4" x1="-135.94" y1="702.15" x2="710.56" y2="-112.11"/>
                <line class="hexagraphic-project-4" x1="-123.01" y1="715.59" x2="723.49" y2="-98.66"/>
                <line class="hexagraphic-project-4" x1="-110.08" y1="729.04" x2="736.42" y2="-85.21"/>
                <line class="hexagraphic-project-4" x1="-97.14" y1="742.49" x2="749.36" y2="-71.77"/>
                <line class="hexagraphic-project-4" x1="-84.21" y1="755.93" x2="762.29" y2="-58.32"/>
                <line class="hexagraphic-project-4" x1="-71.28" y1="769.38" x2="775.23" y2="-44.87"/>
                <line class="hexagraphic-project-4" x1="-58.34" y1="782.82" x2="788.16" y2="-31.43"/>
                <line class="hexagraphic-project-4" x1="-45.41" y1="796.27" x2="801.09" y2="-17.98"/>
                <line class="hexagraphic-project-4" x1="-32.47" y1="809.72" x2="814.03" y2="-4.54"/>
                <line class="hexagraphic-project-4" x1="-19.54" y1="823.16" x2="826.96" y2="8.91"/>
                <line class="hexagraphic-project-4" x1="-6.61" y1="836.61" x2="839.89" y2="22.36"/>
                <line class="hexagraphic-project-4" x1="6.33" y1="850.05" x2="852.83" y2="35.8"/>
                <line class="hexagraphic-project-4" x1="19.26" y1="863.5" x2="865.76" y2="49.25"/>
                <line class="hexagraphic-project-4" x1="32.2" y1="876.95" x2="878.7" y2="62.69"/>
                <line class="hexagraphic-project-4" x1="45.13" y1="890.39" x2="891.63" y2="76.14"/>
                <line class="hexagraphic-project-4" x1="58.06" y1="903.84" x2="904.56" y2="89.59"/>
                <line class="hexagraphic-project-4" x1="71" y1="917.29" x2="917.5" y2="103.03"/>
                <line class="hexagraphic-project-4" x1="83.93" y1="930.73" x2="930.43" y2="116.48"/>
                <line class="hexagraphic-project-4" x1="96.87" y1="944.18" x2="943.37" y2="129.92"/>
                <line class="hexagraphic-project-4" x1="109.8" y1="957.62" x2="956.3" y2="143.37"/>
                <line class="hexagraphic-project-4" x1="122.73" y1="971.07" x2="969.23" y2="156.82"/>
                <line class="hexagraphic-project-4" x1="135.67" y1="984.52" x2="982.17" y2="170.26"/>
                <line class="hexagraphic-project-4" x1="148.6" y1="997.96" x2="995.1" y2="183.71"/>
                <line class="hexagraphic-project-4" x1="161.54" y1="1011.41" x2="1008.04" y2="197.16"/>
                <line class="hexagraphic-project-4" x1="174.47" y1="1024.85" x2="1020.97" y2="210.6"/>
                <line class="hexagraphic-project-4" x1="187.4" y1="1038.3" x2="1033.9" y2="224.05"/>
                <line class="hexagraphic-project-4" x1="200.34" y1="1051.75" x2="1046.84" y2="237.49"/>
                <line class="hexagraphic-project-4" x1="213.27" y1="1065.19" x2="1059.77" y2="250.94"/>
                <line class="hexagraphic-project-4" x1="226.2" y1="1078.64" x2="1072.71" y2="264.39"/>
                <line class="hexagraphic-project-4" x1="239.14" y1="1092.09" x2="1085.64" y2="277.83"/>
                <line class="hexagraphic-project-4" x1="252.07" y1="1105.53" x2="1098.57" y2="291.28"/>
                <line class="hexagraphic-project-4" x1="265.01" y1="1118.98" x2="1111.51" y2="304.72"/>
                <line class="hexagraphic-project-4" x1="277.94" y1="1132.42" x2="1124.44" y2="318.17"/>
                <line class="hexagraphic-project-4" x1="290.87" y1="1145.87" x2="1137.37" y2="331.62"/>
              </g>
            </g>
          </g>
        </g>
      </g>
      <g>
        <rect class="hexagraphic-project-2" x="73.1" y="72.68" width="248.82" height="248.82" rx="48.04" ry="48.04" transform="translate(197.22 -81.93) rotate(45)"/>
        <path class="hexagraphic-project-3" d="m67.74,151.93v90.33c0,18.41,9.82,35.43,25.77,44.64l78.23,45.17c15.95,9.21,35.59,9.21,51.54,0l78.23-45.17c15.95-9.21,25.77-26.22,25.77-44.64v-90.33c0-18.41-9.82-35.43-25.77-44.64l-78.23-45.17c-15.95-9.21-35.59-9.21-51.54,0l-78.23,45.17c-15.95,9.21-25.77,26.22-25.77,44.64Z"/>
      </g>
    </g>
  </g>
</svg>