<?xml version="1.0" encoding="UTF-8"?>
<svg id="Calque_2" data-name="Calque 2" xmlns="http://www.w3.org/2000/svg" viewBox="0 0 31 127.14">
  <defs>
    <style>
      .cls-1 {
        fill: #242c3f;
      }

      .cls-2 {
        fill: #bed62d;
      }
    </style>
  </defs>
  <g id="HOME">
    <g>
      <g>
        <path class="cls-1" d="m2.57,12.53v-7.3c0-.8.13-1.52.4-2.16.26-.64.64-1.19,1.12-1.64.48-.46,1.06-.81,1.74-1.06.68-.25,1.44-.37,2.29-.37s1.61.12,2.29.37c.68.25,1.26.6,1.74,1.06.48.46.85,1,1.12,1.64.26.64.4,1.36.4,2.16v7.3c0,.78-.13,1.5-.4,2.15-.26.65-.64,1.2-1.13,1.66-.49.46-1.07.81-1.75,1.06-.68.25-1.44.37-2.27.37s-1.61-.12-2.29-.37c-.68-.25-1.26-.6-1.74-1.06s-.85-1.01-1.12-1.66c-.26-.65-.4-1.36-.4-2.15Zm2.62,0c0,.88.26,1.58.79,2.11.53.53,1.24.79,2.14.79s1.61-.26,2.14-.79c.53-.53.79-1.23.79-2.11v-7.3c0-.9-.26-1.61-.79-2.14-.53-.53-1.24-.79-2.14-.79s-1.61.26-2.14.79c-.53.53-.79,1.24-.79,2.14v7.3Zm1.78-4.73c0-.38.1-.69.31-.92s.49-.35.84-.35.63.12.84.35c.21.23.31.54.31.92v2.4c0,.38-.1.69-.31.92-.21.23-.49.35-.84.35s-.63-.12-.84-.35-.31-.54-.31-.92v-2.4Z"/>
        <path class="cls-1" d="m17.31,15.19h4.63V4.1c0-.42.01-.79.04-1.12.02-.33.04-.5.04-.52h-.05c-.1.1-.2.19-.31.29-.1.08-.2.16-.31.25s-.23.17-.36.25l-3.38,2.26v-2.59L21.44.24h3.14v14.95h3.82v2.33h-11.09v-2.33Z"/>
      </g>
      <g>
        <path class="cls-1" d="m11.14,125.79c0,.44-.11.77-.34,1-.23.23-.56.34-.99.34H2.6c-.43,0-.76-.11-.99-.34-.23-.23-.34-.56-.34-1v-2.74c0-1.72.43-3.04,1.29-3.98.86-.94,2.07-1.41,3.64-1.41.78,0,1.48.12,2.09.36s1.13.59,1.55,1.05c.42.46.75,1.02.97,1.69.22.67.33,1.43.33,2.29v2.74Zm-2.09-1.23v-1.34c0-.49-.06-.92-.18-1.28-.12-.36-.3-.66-.53-.9-.23-.24-.53-.42-.88-.53s-.77-.18-1.26-.18c-.97,0-1.69.24-2.15.71s-.69,1.2-.69,2.17v1.34h5.7Z"/>
        <path class="cls-1" d="m3.24,112.07c.17.13.26.29.29.47.02.18,0,.35-.1.51-.09.16-.21.27-.38.34-.16.07-.35.06-.55-.04l-1.86-.92c-.22-.11-.37-.26-.43-.45-.07-.19-.07-.38-.01-.57.06-.19.15-.36.29-.5.14-.14.3-.23.49-.27.19-.03.38.03.57.17l1.69,1.25Zm8.05.48c0,.84-.15,1.57-.44,2.18-.29.61-.71,1.08-1.25,1.41-.54.33-1.18.49-1.92.49s-1.33-.16-1.87-.47c-.54-.31-.96-.74-1.26-1.29-.3-.55-.46-1.17-.46-1.87,0-.51.08-.98.25-1.4s.4-.78.71-1.08c.31-.3.69-.53,1.13-.68.44-.15.93-.23,1.47-.23.19,0,.32.05.41.15.09.1.13.27.13.49v4.28h-1.18v-3.11l.18.22c-.35,0-.62.05-.84.14s-.38.23-.49.41c-.11.18-.17.41-.17.68,0,.29.07.54.2.75.13.21.33.37.59.48.26.11.59.17.98.17h.13c.66,0,1.14-.15,1.42-.44.28-.29.43-.75.43-1.36,0-.21-.03-.44-.08-.71-.05-.27-.12-.52-.22-.76s-.11-.45-.05-.63.16-.31.31-.41.31-.15.49-.16c.18,0,.36.03.53.13.17.09.31.25.4.46.15.33.26.67.34,1.04.08.37.11.74.11,1.11Z"/>
        <path class="cls-1" d="m11.26,105.6c0,.33-.08.6-.25.83-.16.23-.41.42-.73.57l-4.58,2c-.28.11-.54.15-.78.11-.24-.04-.44-.16-.58-.36s-.22-.48-.22-.83c0-.3.07-.54.2-.72.13-.18.4-.35.79-.5l3.64-1.41v.48l-3.65-1.48c-.38-.15-.64-.32-.78-.5-.14-.19-.2-.44-.2-.77,0-.28.07-.51.22-.68s.34-.28.58-.31c.24-.04.5,0,.78.14l4.59,2.04c.33.14.57.32.73.55.16.23.24.51.24.85Z"/>
        <path class="cls-1" d="m11.29,97.5c0,.84-.15,1.57-.44,2.18-.29.61-.71,1.08-1.25,1.41-.54.33-1.18.49-1.92.49s-1.33-.16-1.87-.47c-.54-.31-.96-.74-1.26-1.29-.3-.55-.46-1.17-.46-1.87,0-.51.08-.98.25-1.4s.4-.78.71-1.08c.31-.3.69-.53,1.13-.68.44-.15.93-.23,1.47-.23.19,0,.32.05.41.15.09.1.13.27.13.49v4.28h-1.18v-3.11l.18.22c-.35,0-.62.05-.84.14s-.38.23-.49.41c-.11.18-.17.41-.17.68,0,.29.07.54.2.75.13.21.33.37.59.48.26.11.59.17.98.17h.13c.66,0,1.14-.15,1.42-.44.28-.29.43-.75.43-1.36,0-.21-.03-.44-.08-.71-.05-.27-.12-.52-.22-.76s-.11-.45-.05-.63.16-.31.31-.41.31-.15.49-.16c.18,0,.36.03.53.13.17.09.31.25.4.46.15.33.26.67.34,1.04.08.37.11.74.11,1.11Z"/>
        <path class="cls-1" d="m11.29,90.86c0,.9-.24,1.56-.72,1.98-.48.42-1.21.64-2.18.64H2.4c-.41,0-.72-.11-.94-.32s-.32-.52-.32-.91.11-.71.32-.93c.21-.22.53-.33.94-.33h5.91c.35,0,.6-.07.76-.2.16-.14.24-.31.24-.53,0-.06,0-.13-.02-.2-.01-.07-.03-.15-.04-.23,0-.16.06-.28.18-.36.12-.08.37-.12.74-.12.33,0,.57.07.74.2.16.13.27.33.31.6,0,.07.02.18.04.32.02.14.03.27.03.39Z"/>
        <path class="cls-1" d="m11.29,85.19c0,.77-.14,1.43-.43,2-.29.57-.71,1.01-1.25,1.33-.54.32-1.18.48-1.92.48-.56,0-1.06-.09-1.51-.27-.44-.18-.82-.43-1.13-.77-.31-.34-.55-.74-.71-1.2s-.25-.99-.25-1.57c0-.77.15-1.43.43-2s.7-1.01,1.24-1.32c.54-.31,1.18-.47,1.93-.47.55,0,1.05.09,1.5.27.45.18.83.43,1.14.76.31.33.55.73.71,1.2s.25.99.25,1.56Zm-1.83,0c0-.25-.06-.48-.19-.67-.13-.2-.32-.35-.57-.45s-.59-.16-1-.16c-.63,0-1.08.12-1.35.36-.28.24-.41.55-.41.92,0,.25.06.48.18.67s.31.35.57.46c.26.11.6.17,1.02.17.62,0,1.06-.12,1.34-.36s.42-.56.42-.94Z"/>
        <path class="cls-1" d="m13.78,79.02c0,.39-.11.7-.32.91s-.53.32-.94.32h-7.15c-.4,0-.71-.1-.92-.31s-.32-.51-.32-.9.11-.71.32-.92c.21-.21.52-.32.92-.32h.81l-.69.15c-.42-.13-.76-.4-1.02-.82-.26-.42-.38-.89-.38-1.42,0-.6.15-1.12.43-1.57s.7-.81,1.23-1.06,1.18-.38,1.93-.38,1.38.13,1.92.38c.54.25.96.6,1.25,1.06.29.45.43.98.43,1.57,0,.51-.12.98-.36,1.39-.24.41-.56.69-.95.83v-.17h2.55c.41,0,.72.11.94.33.21.22.32.53.32.93Zm-4.33-2.52c0-.25-.06-.47-.19-.67s-.32-.34-.57-.46c-.26-.11-.59-.17-1-.17-.63,0-1.08.12-1.35.36s-.41.55-.41.92c0,.25.06.48.18.67.12.2.31.35.57.46.26.11.6.17,1.02.17.62,0,1.06-.12,1.34-.36s.42-.56.42-.94Z"/>
        <path class="cls-1" d="m13.78,70.34c0,.39-.11.7-.32.91s-.53.32-.94.32h-7.15c-.4,0-.71-.1-.92-.31s-.32-.51-.32-.9.11-.71.32-.92c.21-.21.52-.32.92-.32h.81l-.69.15c-.42-.13-.76-.4-1.02-.82-.26-.42-.38-.89-.38-1.42,0-.6.15-1.12.43-1.57s.7-.81,1.23-1.06,1.18-.38,1.93-.38,1.38.13,1.92.38c.54.25.96.6,1.25,1.06.29.45.43.98.43,1.57,0,.51-.12.98-.36,1.39-.24.41-.56.69-.95.83v-.17h2.55c.41,0,.72.11.94.33.21.22.32.53.32.93Zm-4.33-2.52c0-.25-.06-.47-.19-.67s-.32-.34-.57-.46c-.26-.11-.59-.17-1-.17-.63,0-1.08.12-1.35.36s-.41.55-.41.92c0,.25.06.48.18.67.12.2.31.35.57.46.26.11.6.17,1.02.17.62,0,1.06-.12,1.34-.36s.42-.56.42-.94Z"/>
        <path class="cls-1" d="m11.29,59.14c0,.84-.15,1.57-.44,2.18-.29.61-.71,1.08-1.25,1.41-.54.33-1.18.49-1.92.49s-1.33-.16-1.87-.47c-.54-.31-.96-.74-1.26-1.29-.3-.55-.46-1.17-.46-1.87,0-.51.08-.98.25-1.4s.4-.78.71-1.08c.31-.3.69-.53,1.13-.68.44-.15.93-.23,1.47-.23.19,0,.32.05.41.15.09.1.13.27.13.49v4.28h-1.18v-3.11l.18.22c-.35,0-.62.05-.84.14s-.38.23-.49.41c-.11.18-.17.41-.17.68,0,.29.07.54.2.75.13.21.33.37.59.48.26.11.59.17.98.17h.13c.66,0,1.14-.15,1.42-.44.28-.29.43-.75.43-1.36,0-.21-.03-.44-.08-.71-.05-.27-.12-.52-.22-.76s-.11-.45-.05-.63.16-.31.31-.41.31-.15.49-.16c.18,0,.36.03.53.13.17.09.31.25.4.46.15.33.26.67.34,1.04.08.37.11.74.11,1.11Z"/>
        <path class="cls-1" d="m11.29,52.54c0,.6-.11,1.09-.33,1.47s-.55.67-.99.86c-.44.19-.99.29-1.67.29h-2.94c-.41,0-.72-.11-.93-.32-.21-.21-.31-.52-.31-.92s.1-.71.31-.92c.21-.21.52-.32.93-.32h3.01c.34,0,.59-.07.76-.21.17-.14.25-.36.25-.66,0-.34-.12-.61-.36-.83-.24-.21-.57-.32-.97-.32h-2.69c-.41,0-.72-.11-.93-.32-.21-.21-.31-.52-.31-.92s.1-.71.31-.92c.21-.21.52-.32.93-.32h4.63c.84,0,1.26.4,1.26,1.2,0,.39-.11.7-.32.91-.21.21-.53.32-.94.32h-.81l.69-.22c.46.21.81.49,1.05.86.24.37.36.8.36,1.31Z"/>
        <path class="cls-1" d="m11.26,45.43c0,.41-.11.73-.32.94-.21.22-.53.33-.94.33h-4.63c-.4,0-.71-.1-.92-.31s-.32-.51-.32-.9.11-.69.32-.9c.21-.21.52-.31.92-.31h.57v.14c-.56-.09-1-.33-1.33-.72-.33-.39-.5-.87-.52-1.45,0-.27.06-.47.2-.61s.41-.21.8-.22c.34,0,.6.07.8.21.2.14.31.41.35.8l.03.32c.05.49.18.85.41,1.08.23.22.57.34,1.01.34h2.3c.41,0,.72.11.94.32.21.21.32.53.32.94Z"/>
        <path class="cls-2" d="m28.06,125.83c0,.41-.11.73-.34.96-.23.23-.56.34-.99.34h-7.34c-.43,0-.76-.11-.99-.34-.23-.23-.34-.56-.34-1v-4.66c0-.34.08-.59.25-.76s.41-.25.73-.25.58.08.75.25.26.42.26.76v3.43h1.99v-3.12c0-.33.08-.58.25-.75.17-.17.41-.26.73-.26s.57.09.74.26c.17.17.25.42.25.75v3.12h2.72c.89,0,1.33.42,1.33,1.27Z"/>
        <path class="cls-2" d="m28.09,116.82c0,.6-.11,1.09-.33,1.47s-.55.67-.99.86c-.44.19-.99.29-1.67.29h-2.94c-.41,0-.72-.11-.93-.32-.21-.21-.31-.52-.31-.92s.1-.71.31-.92c.21-.21.52-.32.93-.32h3.01c.34,0,.59-.07.76-.21.17-.14.25-.36.25-.66,0-.34-.12-.61-.36-.83-.24-.21-.57-.32-.97-.32h-2.69c-.41,0-.72-.11-.93-.32-.21-.21-.31-.52-.31-.92s.1-.71.31-.92c.21-.21.52-.32.93-.32h4.63c.84,0,1.26.4,1.26,1.2,0,.39-.11.7-.32.91-.21.21-.53.32-.94.32h-.81l.69-.22c.46.21.81.49,1.05.86.24.37.36.8.36,1.31Z"/>
        <path class="cls-2" d="m28.09,108.36c0,.9-.24,1.56-.72,1.98-.48.42-1.21.64-2.18.64h-5.99c-.41,0-.72-.11-.94-.32s-.32-.52-.32-.91.11-.71.32-.93c.21-.22.53-.33.94-.33h5.91c.35,0,.6-.07.76-.2.16-.14.24-.31.24-.53,0-.06,0-.13-.02-.2-.01-.07-.03-.15-.04-.23,0-.16.06-.28.18-.36.12-.08.37-.12.74-.12.33,0,.57.07.74.2.16.13.27.33.31.6,0,.07.02.18.04.32.02.14.03.27.03.39Z"/>
        <path class="cls-2" d="m28.09,103.49c0,.9-.24,1.56-.72,1.98-.48.42-1.21.64-2.18.64h-5.99c-.41,0-.72-.11-.94-.32s-.32-.52-.32-.91.11-.71.32-.93c.21-.22.53-.33.94-.33h5.91c.35,0,.6-.07.76-.2.16-.14.24-.31.24-.53,0-.06,0-.13-.02-.2-.01-.07-.03-.15-.04-.23,0-.16.06-.28.18-.36.12-.08.37-.12.74-.12.33,0,.57.07.74.2.16.13.27.33.31.6,0,.07.02.18.04.32.02.14.03.27.03.39Z"/>
        <path class="cls-2" d="m28.09,94.49c0,.41-.03.83-.09,1.25-.06.43-.17.81-.33,1.16-.09.23-.22.4-.38.5-.16.1-.33.14-.5.14-.18,0-.34-.06-.48-.15s-.25-.23-.31-.39c-.06-.16-.05-.35.02-.55.14-.39.24-.74.3-1.06.06-.31.09-.61.09-.9,0-.35-.05-.59-.15-.74-.1-.15-.23-.22-.38-.22-.14,0-.25.05-.32.15-.07.1-.13.24-.15.41l-.25,1.55c-.1.58-.31,1.03-.64,1.34-.32.32-.74.48-1.27.48-.49,0-.9-.14-1.25-.41-.35-.27-.62-.65-.81-1.13-.19-.48-.29-1.03-.29-1.66,0-.42.03-.8.09-1.15.06-.35.17-.68.33-1.01.08-.21.21-.35.36-.43.16-.08.32-.12.5-.1.17.02.33.08.48.18.15.1.24.23.29.4.05.17.04.36-.03.59-.12.31-.21.58-.27.82-.06.24-.08.46-.08.67,0,.38.05.65.15.81s.23.24.39.24c.12,0,.22-.04.3-.13.08-.08.13-.21.16-.39l.27-1.55c.09-.6.3-1.06.61-1.38.31-.32.74-.48,1.27-.48.76,0,1.34.29,1.76.87.42.58.62,1.35.62,2.31Z"/>
        <path class="cls-2" d="m28.09,86.75c0,.7-.11,1.28-.32,1.73s-.54.79-.97,1.01c-.43.22-.98.34-1.63.34h-2.28v.48c0,.3-.08.53-.24.69-.16.16-.39.24-.69.24s-.53-.08-.68-.24c-.15-.16-.23-.39-.23-.69v-.48h-.87c-.41,0-.72-.11-.94-.32-.21-.21-.32-.52-.32-.92s.11-.71.32-.92c.21-.21.53-.32.94-.32h.87v-1.15c0-.31.08-.54.23-.71.15-.16.38-.25.68-.25s.53.08.69.25c.16.16.24.4.24.71v1.15h2.2c.34,0,.6-.08.76-.25.16-.16.25-.42.25-.78,0-.13-.01-.26-.04-.38s-.04-.23-.04-.34c0-.15.04-.27.13-.36s.32-.14.67-.14c.28,0,.52.04.71.13s.33.23.41.45c.05.13.09.31.12.53.03.22.05.41.05.55Z"/>
        <path class="cls-2" d="m28.09,82c0,.53-.1,1-.29,1.41-.2.41-.46.72-.8.95-.34.23-.73.34-1.17.34-.5,0-.9-.13-1.19-.39s-.5-.68-.62-1.26-.19-1.35-.19-2.31v-.77h1.18v.77c0,.36.03.67.08.9.05.24.13.41.24.52.11.11.25.17.41.17.21,0,.39-.08.53-.23.14-.15.21-.38.21-.67,0-.23-.05-.44-.15-.62-.1-.18-.25-.33-.43-.44-.18-.11-.39-.17-.64-.17h-1.62c-.34,0-.57.09-.71.26-.14.17-.21.47-.21.89,0,.22.03.48.08.76.05.28.14.59.27.94.09.25.11.47.04.64-.07.18-.18.32-.34.41-.16.1-.33.15-.52.14-.19,0-.36-.07-.53-.18s-.3-.3-.39-.54c-.17-.45-.28-.86-.34-1.24-.06-.38-.08-.73-.08-1.04,0-.77.11-1.4.33-1.9.22-.5.56-.87,1.01-1.12.45-.25,1.03-.37,1.74-.37h2.83c.41,0,.72.1.94.29.21.2.32.48.32.85s-.11.67-.32.88c-.21.2-.53.3-.94.3h-.36l.2-.08c.3.05.56.15.77.32.21.17.38.39.5.66.12.27.18.58.18.92Z"/>
        <path class="cls-2" d="m28.09,72.93c0,.77-.14,1.45-.43,2.02-.29.57-.71,1.02-1.25,1.34-.55.32-1.19.48-1.92.48-.56,0-1.06-.09-1.5-.27s-.82-.44-1.13-.78c-.31-.34-.54-.75-.71-1.22s-.25-1-.25-1.58c0-.27.03-.56.08-.85.05-.3.15-.61.29-.92.08-.22.21-.38.38-.47.17-.09.36-.13.55-.11.2.01.37.07.53.17.16.1.27.23.32.41s.03.37-.07.58c-.07.15-.13.31-.16.47-.03.16-.05.32-.05.47,0,.25.04.47.11.67.08.19.18.35.33.48s.32.23.54.3c.21.07.46.1.73.1.54,0,.97-.14,1.27-.41.31-.27.46-.65.46-1.15,0-.15-.02-.3-.05-.46-.03-.16-.09-.32-.16-.48-.1-.21-.12-.41-.06-.57.06-.17.17-.3.33-.41.16-.1.33-.16.53-.17.19,0,.37.03.55.13s.3.25.38.48c.14.31.24.61.29.9s.08.58.08.85Z"/>
        <path class="cls-2" d="m28.06,68.43c0,.39-.11.7-.32.91-.21.21-.53.32-.94.32h-7.6c-.41,0-.72-.11-.94-.32s-.32-.52-.32-.91.11-.71.32-.93c.21-.22.53-.33.94-.33h4.62v-.03l-2.07-1.71c-.28-.23-.49-.45-.62-.65-.14-.2-.2-.47-.2-.82s.08-.61.25-.8c.17-.19.38-.28.63-.29s.5.09.76.31l2.18,1.85h-.87l2.6-2.07c.26-.21.52-.29.76-.25.25.04.45.16.59.36s.22.46.22.76c0,.37-.07.67-.2.9-.13.22-.35.45-.64.67l-2.16,1.75v.03h1.74c.84,0,1.26.42,1.26,1.26Z"/>
      </g>
      <rect class="cls-2" x="14.08" y="10.92" width="2.83" height="31" rx="1.42" ry="1.42" transform="translate(41.92 10.92) rotate(90)"/>
    </g>
  </g>
</svg>