<svg id="logo-svg" data-name="Logo Svg" xmlns="http://www.w3.org/2000/svg" viewBox="0 0 49.37 53.98">
  <defs>
    <style>
      .cls-1 {
        fill: #f4f4f4;
      }

      .cls-2 {
        fill: #b0babf;
      }

      .cls-3 {
        fill: #242c3f;
      }

      .cls-4 {
        fill: #cad6dd;
      }

      .cls-5 {
        fill: #bed62d;
      }
    </style>
  </defs>
  <path class="cls-3" d="m0,18.4v17.18c0,3.5,1.87,6.74,4.9,8.49l14.88,8.59c3.03,1.75,6.77,1.75,9.8,0l14.88-8.59c3.03-1.75,4.9-4.99,4.9-8.49v-17.18c0-3.5-1.87-6.74-4.9-8.49L29.59,1.31c-3.03-1.75-6.77-1.75-9.8,0L4.9,9.91C1.87,11.66,0,14.89,0,18.4Z"/>
  <g>
    <polygon class="cls-4" id="cls-4-1" points="12.66 35.51 12.66 21.61 10.94 20.62 10.94 36.5 17.82 40.47 19.53 39.48 19.53 37.49 17.81 38.48 12.66 35.51"/>
    <path class="cls-1" id="cls-1-2" d="m22.97,13.68l-3.44,1.98,1.72.99v3.97l-5.16,2.98c.87.5,1.74,1,2.61,1.5.29-.5.85-1.31,1.79-2.04.96-.74,1.91-1.06,2.47-1.2v-8.19Z"/>
    <path class="cls-1" id="cls-1-1" d="m32.96,17.46v-3.24c0-4.55-3.69-8.24-8.24-8.24s-8.24,3.69-8.24,8.24v3.2l-5.54,3.2,1.72.99,5.16-2.98,1.72.99v-1.98l-1.04-.6v-2.49c0-3.44,2.79-6.23,6.23-6.23s6.23,2.79,6.23,6.23v2.45l-1.11.64v1.98l1.72-.99,5.16,2.98,1.72-.99-5.47-3.16Z"/>
    <path class="cls-1" id="cls-1-3" d="m28.12,16.65l1.72-.99-3.44-1.98v8.19c.57.15,1.51.47,2.47,1.2.95.72,1.5,1.53,1.79,2.04.87-.5,1.74-1,2.61-1.5l-5.16-2.98v-3.97Z"/>
    <polygon class="cls-2" id="cls-2-1" points="38.43 20.62 36.71 21.61 36.72 35.51 31.56 38.48 29.84 37.49 29.84 39.48 31.56 40.47 38.43 36.5 38.43 20.62"/>
    <path class="cls-2" id="cls-2-2" d="m33.28,27.57v-3.97c-.87.5-1.74,1-2.61,1.51.23.41,1.42,2.65.6,5.41-.88,2.97-3.4,4.19-3.79,4.38l-1.07.62.02,5.91h-.02v2.02l3.43-1.98-1.72-.99v-3.97l5.15-2.98v-3.97l1.72-.99-1.72-.99Z"/>
    <path class="cls-4" d="m19.53,41.46l3.43,1.98v-2.01h-.01s.01-3.23.01-3.23v-.07h0v-2.62s-1.06-.62-1.06-.62c-.39-.18-2.91-1.41-3.79-4.38-.82-2.75.37-5,.6-5.41-.87-.5-1.74-1-2.61-1.51v3.97s-1.72.99-1.72.99l1.72.99v3.97l5.15,2.98v3.97l-1.72.99Z"/>
  </g>
  <g>
    <path class="cls-5" id="cls-5-2" d="m28.34,26.46l-1.83,1.05c.18.31.29.67.29,1.05,0,1.17-.95,2.11-2.11,2.11,0,0,0,0,0,0,0,.7,0,1.4,0,2.11.37,0,1.24-.04,2.14-.57.87-.51,1.33-1.21,1.51-1.53.19-.33.6-1.14.57-2.24-.03-.95-.37-1.65-.57-1.98Z"/>
    <path class="cls-5" id="cls-5-1" d="m24.69,26.45c.78,0,1.46.43,1.82,1.06l1.83-1.05c-.2-.34-.72-1.14-1.74-1.66-.79-.4-1.52-.46-1.91-.46h0s0,0,0,0h0c-.39,0-1.12.06-1.91.46-1.02.52-1.54,1.31-1.74,1.66l1.84,1.06c.36-.63,1.04-1.06,1.82-1.06Z"/>
    <path class="cls-5" id="cls-5-3" d="m24.69,30.67c-1.17,0-2.11-.95-2.11-2.11,0-.38.11-.74.29-1.05l-1.83-1.05c-.19.33-.54,1.03-.57,1.98-.03,1.1.38,1.91.57,2.24.18.32.64,1.02,1.51,1.53.91.53,1.77.57,2.14.57,0-.7,0-1.4,0-2.11,0,0,0,0,0,0Z"/>
  </g>
</svg>