<svg id="logo" data-name="logo-visualkoding" viewBox="0 0 66.43 72.63" alt="Icone logo permettant la redirection vers l'accueil">
  <defs>
    <style>
      .logo__svg__linearGradient {
        fill: url(#linearGradient);
      }
    </style>
    <linearGradient id="linearGradient" x1="33.22" y1="93.78" x2="33.22" y2="-36.31" gradientUnits="userSpaceOnUse">
      <stop offset=".09" stop-color="#f8fbff"/>
      <stop offset=".25" stop-color="#f4f7fc"/>
      <stop offset=".37" stop-color="#eaedf2"/>
      <stop offset=".49" stop-color="#d9dce2"/>
      <stop offset=".6" stop-color="#c0c4cc"/>
      <stop offset=".71" stop-color="#a1a6b0"/>
      <stop offset=".82" stop-color="#7a808d"/>
      <stop offset=".92" stop-color="#4d5464"/>
      <stop offset="1" stop-color="#242c3f"/>
    </linearGradient>
  </defs>

  <g id="logo__svg">
    <path class="logo__svg__linearGradient" d="m0,24.75v23.12c0,4.71,2.51,9.07,6.6,11.43l20.02,11.56c4.08,2.36,9.11,2.36,13.19,0l20.02-11.56c4.08-2.36,6.6-6.71,6.6-11.43v-23.12c0-4.71-2.51-9.07-6.6-11.43L39.81,1.77c-4.08-2.36-9.11-2.36-13.19,0L6.6,13.33C2.51,15.69,0,20.04,0,24.75Z"/>
    <path class="logo__svg__background" d="m5.28,26.59v19.45c0,3.96,2.11,7.63,5.55,9.61l16.84,9.72c3.43,1.98,7.66,1.98,11.1,0l16.84-9.72c3.43-1.98,5.55-5.65,5.55-9.61v-19.45c0-3.96-2.11-7.63-5.55-9.61l-16.84-9.72c-3.43-1.98-7.66-1.98-11.1,0l-16.84,9.72c-3.43,1.98-5.55,5.65-5.55,9.61Z"/>
   
      <g class="logo__svg__zone">

        <g class="logo__svg__zone__top">

          <polygon class="logo__svg__zone__top--right" points="51.31 25.87 53.9 24.37 43.55 18.4 40.97 19.9 40.97 22.88 43.56 21.39 51.31 25.87"/>
          <path class="logo__svg__zone__top--right" d="m38.38,18.41l2.59-1.49-5.17-2.99v12.32c.85.22,2.27.71,3.72,1.81,1.42,1.09,2.26,2.3,2.7,3.06,1.31-.75,2.61-1.51,3.92-2.26l-7.76-4.48v-5.97Z"/>

          <polygon class="logo__svg__zone__top--left" points="15.12 25.87 22.88 21.39 25.46 22.88 25.46 19.9 22.88 18.41 12.54 24.38 15.12 25.87"/>
          <path class="logo__svg__zone__top--left" d="m30.63,13.93l-5.17,2.99,2.59,1.49v5.97l-7.76,4.48c1.31.75,2.61,1.51,3.92,2.26.44-.76,1.27-1.97,2.7-3.06,1.45-1.11,2.87-1.59,3.72-1.81v-12.32Z"/>

          <path class="logo__svg__zone__circle--top" d="m33.21,33.14c1.18,0,2.19.65,2.74,1.6l2.76-1.59c-.3-.52-1.09-1.71-2.62-2.49-1.19-.61-2.29-.69-2.88-.69h0s0,0,0,0h0c-.59,0-1.69.08-2.88.69-1.53.78-2.32,1.98-2.62,2.49l2.76,1.59c.55-.95,1.56-1.6,2.74-1.6Z"/>
        </g>

        <g class="logo__svg__zone__bottom">

          <polygon class="logo__svg__zone__bottom--right" points="53.89 24.38 51.31 25.87 51.31 46.77 43.56 51.25 40.97 49.75 40.97 52.74 43.55 54.23 53.9 48.26 53.89 24.38"/>
          <path class="logo__svg__zone__bottom--right" d="m46.14,34.83v-5.97c-1.31.75-2.62,1.51-3.92,2.26.34.62,2.13,3.99.9,8.13-1.32,4.47-5.12,6.31-5.7,6.58l-1.62.93.04,8.89h-.02v3.04l5.16-2.98-2.58-1.49v-5.97l7.75-4.48v-5.97l2.59-1.49-2.59-1.49Z"/>

          <path class="logo__svg__zone__circle--right" d="m38.71,33.15l-2.76,1.59c.27.47.44,1,.44,1.58,0,1.75-1.42,3.18-3.18,3.18,0,0,0,0,0,0,0,1.06,0,2.11,0,3.17.56,0,1.86-.06,3.22-.86,1.31-.77,1.99-1.82,2.27-2.31.29-.5.91-1.71.86-3.37-.04-1.43-.56-2.48-.85-2.98Z"/>

          <polygon class="logo__svg__zone__bottom--left" points="15.12 46.77 15.13 25.87 12.54 24.38 12.54 48.26 22.88 54.23 25.46 52.74 25.46 49.75 22.88 51.25 15.12 46.77"/>
          <path class="logo__svg__zone__bottom--left" d="m25.46,55.72l5.15,2.98v-3.03h-.02s.02-4.86.02-4.86v-.1h0l.02-3.94-1.62-.93c-.59-.27-4.38-2.11-5.7-6.58-1.23-4.14.56-7.52.9-8.13-1.31-.75-2.61-1.51-3.92-2.26v5.97s-2.59,1.49-2.59,1.49l2.59,1.49v5.97l7.75,4.48v5.97l-2.58,1.49Z"/>

          <path class="logo__svg__zone__circle--left" d="m33.21,39.49c-1.75,0-3.18-1.42-3.18-3.18,0-.58.17-1.11.44-1.58l-2.76-1.59c-.29.5-.81,1.55-.85,2.98-.05,1.65.57,2.87.86,3.37.28.49.96,1.54,2.27,2.31,1.36.8,2.66.86,3.22.86,0-1.06,0-2.11,0-3.17,0,0,0,0,0,0Z"/>
        </g>

      </g>
    </g>
</svg>