<?xml version="1.0" encoding="UTF-8"?>
<svg id="line-03" xmlns="http://www.w3.org/2000/svg" xmlns:xlink="http://www.w3.org/1999/xlink" viewBox="0 0 985.02 803.74">
  <defs>
    <style>
      .line-03 {
        fill: none;
        stroke: url(#linearGradient-line-03);
        stroke-dasharray: 15 15;
        stroke-linecap: round;
        stroke-miterlimit: 10;
        stroke-width: 3.5px;
      }
    </style>
    <linearGradient id="linearGradient-line-03" class="linearGradient-line-03" x1="0" y1="401.87" x2="985.02" y2="401.87" gradientUnits="userSpaceOnUse">
      <stop offset="0" />
      <stop offset=".3" />
      <stop offset=".5" />
    </linearGradient>
  </defs>
  <g>
    <path class="line-03" d="m30.22,574.42c-10.71,14.54-20.35,29.53-25.69,48.11-9.26,32.23,1.03,68.16,31.87,84.42,32.17,16.95,71.81,4.45,105.64.75,41.22-4.5,82.67-4.48,122.9,6.74,105.41,29.4,109.5,89.97,178.67,88,88.91-2.54,95.58-102.99,226.67-181.33,139.11-83.14,226.53-26.74,284-105.33,62.06-84.88,9.87-218.75-9.33-268-16.07-41.21-74.25-195.35-183.61-207.64-102.1-11.47-126.96,97.1-240.39,100.97-93.19,3.18-150.41-73.58-223.17-117.53C237.53-12.79,167.62-4.96,120.34,48.73c-25.52,28.98-41.06,69.41-35.58,108.11,6.06,42.84,30.91,80.42,37.24,123.21,8.77,59.29-1.44,120.33-22.85,175.93-11.73,30.45-26.97,59.59-45.35,86.56-7.62,11.18-15.88,21.41-23.59,31.88Z"/>
  </g>
</svg>