<?xml version="1.0" encoding="UTF-8"?>
<svg id="line-04" xmlns="http://www.w3.org/2000/svg" xmlns:xlink="http://www.w3.org/1999/xlink" viewBox="0 0 858.04 648.68">
  <defs>
    <style>
      .line-04 {
        fill: none;
        stroke: url(#linearGradient-line-04);
        stroke-dasharray: 15 14;
        stroke-linecap: round;
        stroke-miterlimit: 10;
        stroke-width: 3px;
      }
    </style>
    <linearGradient id="linearGradient-line-04" class="linearGradient-line-04" x1="-77.35" y1="344.59" x2="793.82" y2="344.59" gradientUnits="userSpaceOnUse">
      <stop offset=".55" />
      <stop offset=".7" />
      <stop offset=".8" />
    </linearGradient>
  </defs>
  <g>
    <path class="line-04" d="m851.13,185.59c7.18-30.7,8.43-61.85-.66-91.21-15.01-48.49-57.15-86.92-119.48-92.53-79.15-7.13-140.64,40.38-174.93,95.63-20.13,32.44-42.59,71.06-89.92,79.96-46.82,8.8-101.08-15.19-137.37-35.54-47.28-26.52-90.87-66.3-145.66-82.3-40.23-11.75-82.69-.9-112.46,25.28C29.29,121.26,7.95,177.22,2.5,225.25c-6.12,53.94,8.5,107.54,39.37,154.11,20.03,30.22,27.38,63.7,24.54,98.57-2.37,29.12-11.25,57.44-19.78,85.8-7.51,24.99-10.42,49.09,7.52,71.23,27.82,34.33,144.65-10.68,190.89-27.57,44.42-16.22,59.06-26.93,97.79-32.02,39.16-5.15,69.1-.1,102.97,5.6,21.24,3.58,41.9,9.1,62.54,14.37,50.62,12.92,103.17,36.23,158.49,28.32,41.53-5.94,79.75-32.47,82.62-68.69,2.69-34-20.39-64.33-22.91-97.71-5.36-70.86,58.56-123.92,90.9-185.55,14.13-26.92,26.7-56.32,33.67-86.14Z"/>
  </g>
</svg>