<svg id="visual-koding" data-name="visual-koding" xmlns="http://www.w3.org/2000/svg" viewBox="0 0 207.89 39.42">

  <g id="Calque_1-2" data-name="Calque 1">
    <g>
      <path class="cls-2" d="m.08,1.01C-.16.51.16,0,.74,0h5.19c.31,0,.59.23.66.43l6.44,14.25h.23L19.71.43c.08-.19.35-.43.66-.43h5.19c.59,0,.9.51.66,1.01l-12.25,26.27c-.12.23-.35.43-.66.43h-.39c-.31,0-.55-.2-.66-.43L.08,1.01Z"/>
      <path class="cls-2" d="m27.37,3.9c0-1.72,1.37-3.12,3.08-3.12s3.12,1.41,3.12,3.12-1.41,3.08-3.12,3.08-3.08-1.37-3.08-3.08Zm.23,8.55c0-.43.35-.74.74-.74h4.29c.39,0,.74.31.74.74v14.13c0,.39-.35.74-.74.74h-4.29c-.39,0-.74-.35-.74-.74v-14.13Z"/>
      <path class="cls-2" d="m36.78,25.6l1.37-2.69c.12-.23.51-.47.82-.31,0,0,1.83,1.01,3.51,1.01.39,0,.74-.23.74-.7,0-.39-.23-.94-2.23-1.64-3.04-1.05-4.37-2.81-4.37-5.23,0-2.62,1.87-4.72,6.09-4.72,2.46,0,4.33.66,5.19,1.21.35.23.63.59.39.98l-1.45,2.65c-.12.23-.51.35-.82.23,0,0-1.8-.9-3.32-.9-.51,0-.86.12-.86.55,0,.39.43.78,1.76,1.25,3.16,1.09,5.35,2.34,5.35,5.46,0,2.73-2.19,4.96-6.6,4.96-2.57,0-4.53-.66-5.31-1.29-.27-.23-.47-.47-.27-.82Z"/>
      <path class="cls-2" d="m51.74,12.45c0-.43.35-.74.74-.74h4.18c.39,0,.74.31.74.74v7.22c0,1.6.9,3.01,2.5,3.01s2.34-1.44,2.34-2.77v-7.46c0-.62.43-.74.82-.74h3.98c.39,0,.74.31.74.74v14.13c0,.39-.35.74-.74.74h-1.83c-.35,0-.63-.27-.74-.55l-.59-1.44c-1.01.98-2.26,2.38-5.27,2.38-4.64,0-6.87-3.75-6.87-8.2v-7.06Z"/>
      <path class="cls-2" d="m76.69,17.33c1.76,0,3.01.62,3.01.62,0-1.52-.23-2.3-2.11-2.3-1.05,0-2.89.27-3.9.59-.59.19-.86-.23-.94-.82l-.35-2.46c-.12-.66.23-.94.59-1.05.35-.12,3.08-.59,5.19-.59,4.84,0,6.6,2.03,6.6,6.63v8.63c0,.39-.35.74-.74.74h-1.72c-.23,0-.51-.08-.7-.51l-.55-1.05c-.9.82-2.26,1.95-4.72,1.95-3.08,0-5.38-2.07-5.38-5.15s2.19-5.23,5.74-5.23Zm1.01,6.56c.94,0,1.72-.78,1.72-1.72-.04-.9-.78-1.64-1.72-1.64s-1.68.74-1.68,1.64.74,1.72,1.68,1.72Z"/>
      <path class="cls-2" d="m88.76.74c0-.39.35-.74.74-.74h4.29c.39,0,.74.35.74.74v25.84c0,.39-.35.74-.74.74h-4.29c-.39,0-.74-.35-.74-.74V.74Z"/>
      <path class="cls-1" d="m99.5.94c0-.51.39-.94.94-.94h4.56c.51,0,.94.43.94.94v10.26L114.6.39c.16-.2.51-.39.74-.39h4.92c.74,0,1.13.86.7,1.44l-9.13,11.44,9.95,12.96c.43.59,0,1.45-.74,1.45h-5.39c-.27,0-.62-.16-.7-.27l-9.02-12.25v11.63c0,.51-.43.94-.94.94h-4.56c-.55,0-.94-.43-.94-.94V.94Z"/>
      <path class="cls-1" d="m130.34,11.32c4.45,0,8.12,3.75,8.12,8.16s-3.67,8.24-8.12,8.24-8.12-3.75-8.12-8.24,3.67-8.16,8.12-8.16Zm0,11.36c1.72,0,3.08-1.44,3.08-3.2s-1.37-3.12-3.08-3.12-3.08,1.41-3.08,3.12,1.37,3.2,3.08,3.2Z"/>
      <path class="cls-1" d="m148.11,11.32c1.33,0,2.77.47,3.24.74V.74c0-.39.35-.74.74-.74h4.33c.39,0,.74.35.74.74v25.84c0,.39-.35.74-.74.74h-1.83c-.39,0-.66-.35-.82-.78l-.47-1.29s-1.79,2.46-5.23,2.46c-4.41,0-7.73-3.71-7.73-8.2,0-5.5,3.59-8.2,7.77-8.2Zm.74,11.36c1.79,0,3.12-1.41,3.12-3.2s-1.33-3.12-3.12-3.12-3.16,1.37-3.16,3.12,1.37,3.2,3.16,3.2Z"/>
      <path class="cls-1" d="m161.16,3.9c0-1.72,1.37-3.12,3.09-3.12s3.12,1.41,3.12,3.12-1.41,3.08-3.12,3.08-3.09-1.37-3.09-3.08Zm.23,8.55c0-.43.35-.74.74-.74h4.29c.39,0,.74.31.74.74v14.13c0,.39-.35.74-.74.74h-4.29c-.39,0-.74-.35-.74-.74v-14.13Z"/>
      <path class="cls-1" d="m171.39,12.45c0-.43.35-.74.74-.74h1.83c.23,0,.59.19.7.47l.62,1.56c.86-.94,2.65-2.42,5.5-2.42,4.84,0,7.42,3.71,7.42,8.16v7.1c0,.39-.35.74-.74.74h-4.18c-.43,0-.74-.35-.74-.74v-7.3c0-1.56-.9-2.93-2.65-2.93-1.56,0-2.97,1.13-2.97,2.73v7.49c0,.35-.16.74-.7.74h-4.1c-.39,0-.74-.35-.74-.74v-14.13Z"/>
      <path class="cls-1" d="m193.45,21.62s-1.13-1.17-1.13-3.55c0-3.63,3.08-6.75,6.87-6.75h7.38c.43,0,.74.31.74.74v1.6c0,.27-.19.55-.43.66l-2.26.82s1.48,1.21,1.48,3.78c0,2.85-2.62,5.89-6.75,5.89h-2.81c-.82,0-1.29.43-1.29,1.05,0,.74.66,1.05,1.25,1.05h4.68c3.67,0,6.71,2.23,6.71,5.7,0,3.75-2.61,6.79-8.78,6.79s-8.16-2.85-8.16-5.31,1.95-3.51,2.38-3.75v-.12c-.51-.16-3.01-1.25-3.01-4.33s3.12-4.29,3.12-4.29Zm5.66,13.23c1.95,0,2.81-.78,2.81-1.83,0-.82-.7-1.64-2.81-1.64-1.41,0-2.81.51-2.81,1.64s.94,1.83,2.81,1.83Zm.23-14.4c1.21,0,2.07-.86,2.07-2.03s-.86-2.03-2.07-2.03-2.07.86-2.07,2.03.9,2.03,2.07,2.03Z"/>
    </g>
  </g>
</svg>