<?xml version="1.0" encoding="UTF-8"?>
<svg id="Calque_2" data-name="Calque 2" xmlns="http://www.w3.org/2000/svg" xmlns:xlink="http://www.w3.org/1999/xlink" viewBox="0 0 268 268">
  <defs>
    <style>
      .other-1 {
        fill: #ff8a33;
      }

      .other-2 {
        fill: url(#gradient-other_20);
      }

      .other-3 {
        filter: url(#other-shadow-2);
      }

      .other-3, .other-4, .other-5, .other-6 {
        fill: #2a2d49;
      }

      .other-7 {
        fill: url(#gradient-other_15);
        filter: url(#other-shadow-1);
      }

      .other-8 {
        fill: url(#gradient-other_15-2);
      }

      .other-4 {
        filter: url(#other-shadow-4);
      }

      .other-5 {
        filter: url(#other-shadow-3);
      }

      .other-9 {
        clip-path: url(#clippath-other);
      }

      .other-10 {
        fill: none;
      }

      .other-11 {
        fill: #4e5789;
      }

      .other-12 {
        fill: url(#gradient-other_15-3);
      }

      .other-13 {
        fill: #ffc197;
      }

      .other-14 {
        fill: #cc5e02;
      }

      .other-15 {
        fill: url(#gradient-other_23);
      }

      .other-16 {
        fill: #ffa669;
      }
    </style>
    <clipPath id="clippath-other">
      <rect class="other-10" width="268" height="268"/>
    </clipPath>
    <linearGradient id="gradient-other_15" data-name="Dégradé sans nom 15" x1="216.64" y1="170.86" x2="58.14" y2="170.86" gradientUnits="userSpaceOnUse">
      <stop offset=".28" stop-color="#393d5b"/>
      <stop offset=".56" stop-color="#ff8a33"/>
      <stop offset=".86" stop-color="#393d5b"/>
    </linearGradient>
    <filter id="other-shadow-1" filterUnits="userSpaceOnUse">
      <feOffset dx="0" dy="4.85"/>
      <feGaussianBlur result="blur" stdDeviation="3.88"/>
      <feFlood flood-color="#000" flood-opacity=".5"/>
      <feComposite in2="blur" operator="in"/>
      <feComposite in="SourceGraphic"/>
    </filter>
    <linearGradient id="gradient-other_20" data-name="Dégradé sans nom 20" x1="76.32" y1="66.36" x2="218.68" y2="334.22" gradientUnits="userSpaceOnUse">
      <stop offset=".2" stop-color="#393d5b"/>
      <stop offset=".48" stop-color="#ff8a33"/>
      <stop offset=".86" stop-color="#393d5b"/>
    </linearGradient>
    <linearGradient id="gradient-other_15-2" data-name="Dégradé sans nom 15" x1="158.05" y1="149.16" x2="101.2" y2="148.68" xlink:href="#gradient-other_15"/>
    <linearGradient id="gradient-other_15-3" data-name="Dégradé sans nom 15" x1="149.13" y1="169.21" x2="108.1" y2="168.88" xlink:href="#gradient-other_15"/>
    <filter id="other-shadow-2" filterUnits="userSpaceOnUse">
      <feOffset dx="0" dy="0"/>
      <feGaussianBlur result="blur-2" stdDeviation="1.1"/>
      <feFlood flood-color="#000" flood-opacity=".3"/>
      <feComposite in2="blur-2" operator="in"/>
      <feComposite in="SourceGraphic"/>
    </filter>
    <filter id="other-shadow-3" filterUnits="userSpaceOnUse">
      <feOffset dx="0" dy="0"/>
      <feGaussianBlur result="blur-3" stdDeviation=".56"/>
      <feFlood flood-color="#000" flood-opacity=".3"/>
      <feComposite in2="blur-3" operator="in"/>
      <feComposite in="SourceGraphic"/>
    </filter>
    <filter id="other-shadow-4" filterUnits="userSpaceOnUse">
      <feOffset dx="0" dy="0"/>
      <feGaussianBlur result="blur-4" stdDeviation="2.37"/>
      <feFlood flood-color="#000" flood-opacity=".3"/>
      <feComposite in2="blur-4" operator="in"/>
      <feComposite in="SourceGraphic"/>
    </filter>
    <linearGradient id="gradient-other_23" data-name="Dégradé sans nom 23" x1="31.54" y1="161.45" x2="278.34" y2="30.88" gradientUnits="userSpaceOnUse">
      <stop offset=".06" stop-color="#393d5b"/>
      <stop offset=".09" stop-color="#554855"/>
      <stop offset=".15" stop-color="#82594c"/>
      <stop offset=".21" stop-color="#a86844"/>
      <stop offset=".26" stop-color="#c7743e"/>
      <stop offset=".33" stop-color="#e07e39"/>
      <stop offset=".39" stop-color="#f18435"/>
      <stop offset=".46" stop-color="#fb8833"/>
      <stop offset=".54" stop-color="#ff8a33"/>
      <stop offset=".86" stop-color="#393d5b"/>
    </linearGradient>
  </defs>
  <g id="Calque_2-2" data-name="Calque 2">
    <g class="other-9">
      <g>
        <g>
          <g>
            <g>
              <path class="other-7" d="m201.9,159.8c-.34-1.83-1.79-2.99-2.52-3.48-6.68-3.8-13.55-7.71-20.23-11.51-12.22-6.96-32.96-18.82-44.45-25.39-5.13-2.94-11.42-2.93-16.55,0-11.49,6.57-32.22,18.43-44.44,25.39-6.68,3.8-13.55,7.72-20.23,11.51-.73.49-2.19,1.65-2.52,3.48-.04.22-.06.43-.07.64v20.95c0,1.46.79,2.81,2.06,3.52,22.32,12.63,44.64,25.25,66.96,37.88,4.05,2.29,9,2.29,13.04,0,22.32-12.63,44.64-25.25,66.96-37.88,1.27-.72,2.06-2.06,2.06-3.52v-20.95c0-.21-.03-.42-.07-.64Z"/>
              <g>
                <path class="other-13" d="m53.82,157.93c21.43-12.25,42.86-24.51,64.29-36.76,5.04-2.88,11.22-2.88,16.26,0,21.38,12.25,42.76,24.5,64.13,36.75,1.82,1.04,1.82,3.68-.01,4.71l-66.02,37.35c-3.92,2.22-8.71,2.22-12.63,0l-66.01-37.35c-1.83-1.04-1.84-3.67-.01-4.71Z"/>
                <path class="other-2" d="m55.31,158.4c21.02-11.88,42.05-23.76,63.07-35.64,4.88-2.76,10.85-2.75,15.72,0,20.97,11.88,41.94,23.76,62.92,35.64,1.36.77,1.35,2.73,0,3.49l-64.74,36.21c-3.8,2.12-8.42,2.12-12.22,0l-64.74-36.2c-1.36-.76-1.37-2.73,0-3.5Z"/>
                <g>
                  <path class="other-6" d="m92.82,151.97c9.54-5.46,19.08-10.91,28.62-16.37,2.95-1.69,6.57-1.68,9.52,0,9.52,5.45,19.03,10.9,28.55,16.36,6.44,3.69,6.42,13-.05,16.65l-28.59,16.18c-2.93,1.66-6.51,1.66-9.44,0l-28.58-16.17c-6.47-3.66-6.49-12.97-.04-16.66Z"/>
                  <path class="other-8" d="m92.82,157.63c9.54-5.46,19.08-10.91,28.62-16.37,2.95-1.69,6.57-1.68,9.52,0,9.52,5.45,19.03,10.9,28.55,16.36,2.26,1.3,3.71,3.29,4.38,5.49,1.23-4.03-.22-8.76-4.38-11.15-9.52-5.45-19.03-10.9-28.55-16.36-2.95-1.69-6.57-1.69-9.52,0-9.54,5.46-19.08,10.91-28.62,16.37-4.17,2.38-5.62,7.11-4.39,11.15.67-2.2,2.12-4.19,4.39-5.49Z"/>
                  <path class="other-1" d="m106.16,162.42l17.16,9.71c1.76.99,3.91.99,5.67,0l17.17-9.72c.91-.52,1.59-1.23,2.07-2.03-.46-1.05-1.24-1.99-2.37-2.64-5.62-3.22-11.25-6.44-16.87-9.67-1.74-1-3.88-1-5.63,0-5.64,3.22-11.28,6.45-16.92,9.67-1.13.65-1.91,1.58-2.37,2.64.48.8,1.16,1.51,2.07,2.03Z"/>
                  <path class="other-12" d="m145.94,162.49l-16.98,9.6c-1.74.98-3.86.98-5.6,0l-16.97-9.6c-.35-.2-.84-.52-1.32-1.02-.44-.47-.73-.93-.9-1.28-.13.34-1.27,3.37.44,5.79.56.79,1.25,1.27,1.78,1.57l16.97,9.6c1.74.98,3.87.98,5.6,0l16.98-9.6c.53-.29,1.22-.77,1.78-1.57,1.67-2.36.63-5.3.5-5.65-.24.34-.55.74-.96,1.14-.47.46-.93.79-1.32,1.02Z"/>
                </g>
              </g>
              <g>
                <path class="other-11" d="m196.81,172.39v6.34c0,.3-.16.57-.42.72l-5.55,3.16c-.55.31-1.24-.08-1.24-.72v-6.32c0-.3.16-.57.42-.72l5.55-3.18c.55-.32,1.24.08,1.24.72Z"/>
                <path class="other-1" d="m198.52,175.97v4.02c0,.19-.1.36-.27.46l-3.52,2c-.35.2-.79-.05-.79-.46v-4.01c0-.19.1-.36.26-.46l3.52-2.02c.35-.2.79.05.79.46Z"/>
              </g>
              <g>
                <path class="other-11" d="m185.51,178.61v6.34c0,.3-.16.57-.42.72l-5.55,3.16c-.55.31-1.24-.08-1.24-.72v-6.32c0-.3.16-.57.42-.72l5.55-3.18c.55-.32,1.24.08,1.24.72Z"/>
                <path class="other-14" d="m187.21,182.19v4.02c0,.19-.1.36-.27.46l-3.52,2c-.35.2-.79-.05-.79-.46v-4.01c0-.19.1-.36.26-.46l3.52-2.02c.35-.2.79.05.79.46Z"/>
              </g>
              <g>
                <path class="other-11" d="m174.28,184.79v6.34c0,.3-.16.57-.42.72l-5.55,3.16c-.55.31-1.24-.08-1.24-.72v-6.32c0-.3.16-.57.42-.72l5.55-3.18c.55-.32,1.24.08,1.24.72Z"/>
                <path class="other-13" d="m175.99,188.37v4.02c0,.19-.1.36-.27.46l-3.52,2c-.35.2-.79-.05-.79-.46v-4.01c0-.19.1-.36.26-.46l3.52-2.02c.35-.2.79.05.79.46Z"/>
              </g>
            </g>
            <path class="other-14" d="m59.51,171.72v4.34c0,.2.11.39.29.49l3.8,2.16c.38.22.85-.06.85-.49v-4.33c0-.2-.11-.39-.29-.49l-3.8-2.17c-.38-.22-.85.06-.85.49Z"/>
            <path class="other-1" d="m65.3,174.96v4.34c0,.2.11.39.29.49l3.8,2.16c.38.22.85-.06.85-.49v-4.33c0-.2-.11-.39-.29-.49l-3.8-2.17c-.38-.22-.85.06-.85.49Z"/>
            <path class="other-13" d="m59.51,178.43v4.34c0,.2.11.39.29.49l3.8,2.16c.38.22.85-.06.85-.49v-4.33c0-.2-.11-.39-.29-.49l-3.8-2.17c-.38-.22-.85.06-.85.49Z"/>
            <path class="other-11" d="m65.3,181.67v4.34c0,.2.11.39.29.49l3.8,2.16c.38.22.85-.06.85-.49v-4.33c0-.2-.11-.39-.29-.49l-3.8-2.17c-.38-.22-.85.06-.85.49Z"/>
          </g>
          <g>
            <ellipse class="other-6" cx="111.94" cy="159.76" rx="2.96" ry="1.97"/>
            <ellipse class="other-14" cx="111.94" cy="159.76" rx="1.75" ry="1.16"/>
            <ellipse class="other-1" cx="111.94" cy="159.11" rx="1.75" ry="1.16"/>
            <ellipse class="other-13" cx="111.94" cy="158.47" rx="1.75" ry="1.16"/>
          </g>
          <g>
            <ellipse class="other-6" cx="126.23" cy="160.25" rx="8.87" ry="5.89"/>
            <ellipse class="other-14" cx="126.23" cy="160.25" rx="5.24" ry="3.48"/>
            <ellipse class="other-1" cx="126.23" cy="158.31" rx="5.24" ry="3.48"/>
            <ellipse class="other-13" cx="126.23" cy="156.38" rx="5.24" ry="3.48"/>
          </g>
          <g>
            <ellipse class="other-6" cx="140.52" cy="159.76" rx="2.96" ry="1.97"/>
            <ellipse class="other-14" cx="140.52" cy="159.76" rx="1.75" ry="1.16"/>
            <ellipse class="other-1" cx="140.52" cy="159.11" rx="1.75" ry="1.16"/>
            <ellipse class="other-13" cx="140.52" cy="158.47" rx="1.75" ry="1.16"/>
          </g>
        </g>
        <g>
          <g>
            <path class="other-3" d="m188.94,90.2c12.35,5.31,26.66-.39,31.97-12.74,5.31-12.35-.39-26.66-12.74-31.97-12.35-5.31-26.66.39-31.97,12.74-5.31,12.35.39,26.66,12.74,31.97Z"/>
            <path class="other-13" d="m189.9,87.97c11.12,4.78,24-.35,28.79-11.47s-.35-24-11.47-28.79c-11.12-4.78-24,.35-28.79,11.47-4.78,11.12.35,24,11.47,28.79Z"/>
          </g>
          <path class="other-6" d="m220.76,76.99c-4.84,11.95-18.74,18.1-31.06,13.18-12.54-5.01-18.27-19.17-13.48-31.15,5-12.52,18.99-18.3,31.15-13.51,12.54,4.94,18.48,19.26,13.39,31.49Zm-8.95-16.25c-.28-.03-.47-.05-.67-.07-2.91-.16-5.77.22-8.59.94-3.49.89-6.72,2.33-9.75,4.27-.23.15-.44.25-.32.63,1.2,3.84,2.87,7.45,5.25,10.72,1.31,1.79,2.87,3.34,4.44,4.88.21.2.33.19.54.02,1.18-.93,2.45-1.29,3.89-.63.13.06.42,0,.49-.11,1.02-1.47,2.13-2.89,2.99-4.44,2.16-3.91,3.64-8.07,4.25-12.51.02-.17-.12-.46-.27-.53-1.19-.55-1.97-1.39-2.09-2.75-.01-.15-.13-.3-.18-.42Zm-20.84,6.44c-.14.06-.18.07-.21.09-3.03,2.28-5.59,4.98-7.34,8.36-1.03,1.98-1.67,4.08-1.71,6.34,0,.46.12.82.44,1.17,1.94,2.11,4.23,3.72,6.79,4.96,2.37,1.14,4.83,1.45,7.39.78,1.84-.48,3.53-1.28,5.14-2.29.42-.26.59-.58.42-1.09-.11-.35-.18-.75-.14-1.12.04-.4-.08-.63-.37-.88-2.21-1.89-4.13-4.04-5.74-6.47-1.74-2.64-3.17-5.44-4.13-8.47-.15-.47-.36-.92-.55-1.38Zm-10.81,13.44c.08-.31.12-.47.15-.62.61-3.54,2.23-6.59,4.49-9.32,1.52-1.83,3.29-3.4,5.19-4.82.48-.36.56-.75.46-1.31-.23-1.21-.39-2.42-.58-3.64-.33-2.19,0-4.36.16-6.54.01-.16-.02-.37-.11-.49-.39-.49-.83-.95-1.23-1.44-.2-.24-.39-.32-.7-.24-.75.19-1.53.31-2.27.54-2.1.64-4.06,1.55-5.63,3.14-1.49,1.5-2.36,3.33-2.98,5.34-.98,3.17-1.24,6.37-.82,9.64.43,3.31,1.64,6.32,3.36,9.15.11.18.26.33.49.6Zm31.44-21.52c-.24-.23-.41-.43-.61-.57-1.26-.84-2.5-1.72-3.81-2.49-3.63-2.12-7.59-3.27-11.72-3.9-.32-.05-.4.1-.51.33-.53,1.16-1.45,1.82-2.71,1.98-.19.03-.39.02-.57.03-.57,2.09-.38,7.59.35,9.96,5.97-3.66,12.39-5.66,19.59-5.35Zm4.59,4.76c-.06.04-.12.08-.17.11-.04.15-.09.31-.12.46-.31,1.56-.53,3.14-.94,4.67-.47,1.74-.97,3.51-1.71,5.14-1.36,2.98-2.98,5.83-5.04,8.4-.1.12-.14.38-.08.53.29.72.31,1.45.16,2.18-.06.31.04.44.3.51,2.52.69,2.16.97,4.29-.76.01-.01.02-.03.04-.04,2.1-1.69,3.69-3.79,5.08-6.09,1.66-2.73,2.37-5.6,1.61-8.77-.48-2.02-1.33-3.86-2.55-5.53-.23-.32-.57-.55-.86-.83Zm-22.18-15.5c.35.6.7,1.14.99,1.72.17.35.38.5.77.55,3.69.51,7.24,1.5,10.59,3.18,2.33,1.17,4.57,2.49,6.56,4.19.41.35.66-.09.96-.21.15-.06.33-.33.3-.46-.51-2.59-1.29-5.08-3.02-7.17-1.59-1.91-3.65-3.04-6-3.7-2.39-.67-4.82-1.16-7.32-1-.42.03-.89.1-1.24.31-1.09.67-1.9,1.64-2.59,2.59Zm-11.32,3.65s.03.09.05.14c.15-.05.3-.08.44-.14,1.5-.72,3.1-1.1,4.73-1.34.41-.06.61-.21.78-.59.65-1.49,1.8-2.25,3.43-2.27.14,0,.34-.04.41-.14.41-.54.78-1.11,1.25-1.78-4.33,1.06-8.03,3.01-11.1,6.12Zm26.13,35.65c-.79-.29-1.48-.95-2.28-.14-.03.04-.1.04-.15.06-.96.4-1.91.24-2.85-.08-.2-.06-.47-.08-.64.01-.66.36-1.28.81-1.95,1.16-.95.5-1.93.94-2.9,1.4,1.23.83,9.23-.94,10.77-2.42Zm5.69-35.54c-.05.02-.11.03-.16.05.06.25.12.5.19.74.35,1.18.76,2.34,1.04,3.53.16.68.36,1.12,1.09,1.39.93.34,1.67,1.03,1.84,2.11.12.8.55,1.26,1.48,1.34-1.13-3.51-2.91-6.57-5.48-9.16Zm6.31,16.41c.05-.02.11-.04.16-.05-.05-1.1-.08-2.19-.16-3.29-.06-.93-.44-1.7-1.32-2.15-.24-.12-.46-.31-.71-.39-.24-.08-.61-.18-.76-.06-.3.24-.14.57.08.86,1.05,1.42,1.9,2.94,2.47,4.62.06.16.15.31.23.47Z"/>
        </g>
        <g>
          <g>
            <path class="other-5" d="m69.55,103.78c-1.08-6.71-7.4-11.27-14.11-10.19-6.71,1.08-11.27,7.4-10.19,14.11s7.4,11.27,14.11,10.19c6.71-1.08,11.27-7.4,10.19-14.11Z"/>
            <path class="other-13" d="m68.34,103.98c-.97-6.04-6.66-10.15-12.7-9.17-6.04.97-10.15,6.66-9.17,12.7s6.66,10.15,12.7,9.17c6.04-.97,10.15-6.66,9.17-12.7Z"/>
          </g>
          <path class="other-6" d="m55.29,93.79c6.41-1.18,12.81,3.09,14.05,9.68,1.26,6.71-3.22,13-9.64,14.2-6.7,1.26-12.96-3.14-14.21-9.63-1.29-6.69,3.21-13.11,9.81-14.25Zm-4.5,8.23c.06.13.11.22.15.3.72,1.29,1.66,2.4,2.73,3.41,1.33,1.25,2.82,2.24,4.47,3,.12.06.23.12.36-.03,1.32-1.55,2.4-3.24,3.15-5.15.41-1.04.65-2.13.88-3.22.03-.14-.01-.19-.14-.24-.72-.25-1.21-.7-1.33-1.49-.01-.07-.12-.18-.18-.18-.9-.04-1.81-.13-2.71-.07-2.25.14-4.43.63-6.49,1.58-.08.04-.16.18-.15.26.09.66-.06,1.22-.61,1.63-.06.05-.09.14-.13.19Zm8.4,7.15c.07.05.08.06.1.06,1.79.67,3.64,1.03,5.56.87,1.12-.1,2.19-.39,3.17-.99.2-.12.32-.27.38-.51.37-1.4.44-2.81.27-4.24-.16-1.32-.69-2.45-1.67-3.36-.7-.65-1.51-1.16-2.37-1.57-.23-.11-.41-.09-.58.11-.12.14-.27.28-.44.36-.18.09-.25.21-.28.4-.21,1.46-.6,2.86-1.21,4.2-.65,1.46-1.46,2.83-2.49,4.06-.16.19-.29.41-.44.61Zm8.67.97c-.15.05-.23.07-.3.1-1.67.7-3.42.84-5.2.61-1.19-.15-2.34-.49-3.47-.91-.28-.11-.47-.04-.68.16-.45.42-.93.82-1.4,1.23-.84.73-1.86,1.19-2.83,1.7-.07.04-.15.11-.18.18-.1.3-.18.61-.28.91-.05.15-.03.25.09.36.29.27.55.57.85.82.84.72,1.76,1.31,2.87,1.55,1.04.23,2.06.1,3.09-.18,1.62-.44,3.05-1.2,4.34-2.27,1.3-1.08,2.25-2.42,2.99-3.92.05-.09.07-.2.12-.37Zm-17.71-7.58c-.03.17-.07.29-.08.42-.02.77-.06,1.54-.03,2.3.08,2.12.66,4.13,1.52,6.06.07.15.15.15.28.13.64-.09,1.17.12,1.58.62.06.07.11.16.17.23,1.05-.33,3.34-1.9,4.16-2.85-3.18-1.55-5.78-3.76-7.6-6.91Zm.78-3.25s.06.03.1.04c.08-.02.15-.04.23-.07.75-.29,1.48-.63,2.25-.86.87-.27,1.76-.54,2.66-.66,1.64-.23,3.29-.31,4.95-.13.08,0,.2-.04.25-.11.23-.32.53-.52.89-.66.15-.06.18-.14.14-.27-.39-1.26-.17-1.19-1.49-1.63,0,0-.02,0-.03,0-1.29-.44-2.62-.54-3.97-.52-1.61.03-3.03.51-4.18,1.69-.73.75-1.29,1.62-1.67,2.59-.07.18-.08.39-.12.59Zm-.6,13.67c.16-.31.3-.61.46-.89.1-.17.11-.3.02-.48-.78-1.71-1.32-3.5-1.51-5.38-.13-1.31-.18-2.63,0-3.94.04-.27-.22-.26-.35-.35-.07-.05-.23-.05-.28,0-.97.92-1.82,1.93-2.24,3.23-.39,1.2-.31,2.38.05,3.56.36,1.2.81,2.37,1.56,3.4.13.17.28.35.47.44.58.28,1.22.37,1.81.4Zm4.63,3.84s.03-.04.05-.06c-.06-.05-.11-.11-.18-.15-.72-.44-1.31-1.02-1.85-1.66-.14-.16-.26-.21-.46-.17-.81.13-1.45-.16-1.9-.85-.04-.06-.11-.13-.17-.14-.34-.03-.69-.03-1.1-.05,1.63,1.56,3.46,2.61,5.62,3.08Zm8.13-20.82c.09.41,0,.89.56,1.01.02,0,.04.03.07.05.43.3.62.75.74,1.24.03.1.09.22.18.27.33.19.69.33,1.02.52.47.27.92.57,1.38.86.02-.75-2.9-3.68-3.95-3.94Zm-16.71,7.21s.04.04.06.06c.09-.09.18-.19.26-.28.41-.47.79-.96,1.23-1.4.25-.25.38-.46.3-.84-.11-.49-.01-.99.4-1.36.31-.27.39-.58.17-1-1.19,1.43-2.01,3.03-2.42,4.83Zm5.29-7.14s-.05-.04-.07-.05c-.45.32-.91.63-1.36.96-.38.28-.61.65-.56,1.15.01.14,0,.28.03.41.03.13.09.31.18.34.19.06.28-.1.35-.27.32-.83.74-1.61,1.3-2.31.05-.07.09-.15.14-.23Z"/>
        </g>
        <g>
          <g>
            <ellipse class="other-6" cx="177.59" cy="159.2" rx="9.88" ry="6.56"/>
            <ellipse class="other-14" cx="177.59" cy="159.2" rx="5.84" ry="3.87"/>
            <ellipse class="other-1" cx="177.59" cy="157.05" rx="5.84" ry="3.87"/>
            <ellipse class="other-13" cx="177.59" cy="154.89" rx="5.84" ry="3.87"/>
          </g>
          <g>
            <g>
              <path class="other-6" d="m183.34,143.33l-.26-.29-3.93-4.4c-1.55-1.73-4.41-1.24-5.23.93-1.24,3.31-.66,7.19,1.84,9.99.09.1.17.19.26.28l7.31-6.52Z"/>
              <path class="other-6" d="m183.34,143.33l.25.29,3.93,4.4c1.55,1.73.73,4.53-1.52,5.09-3.43.85-7.22-.17-9.72-2.97-.09-.1-.17-.19-.25-.29l7.31-6.52Z"/>
            </g>
            <ellipse class="other-1" cx="180.59" cy="145.78" rx="2.35" ry="6.87" transform="translate(-51.21 157.21) rotate(-41.73)"/>
            <path class="other-13" d="m177.33,142.77h0c.07.16.25.24.41.17l4.66-1.91c.91-.37,1.65.8.92,1.46l-4.33,3.96c-.13.12-.14.32-.02.45h0c.12.13.32.14.45.02l4.42-4.05c.8-.73,2.02.17,1.56,1.14l-2.39,5.1c-.07.16,0,.35.15.42h0c.16.07.35,0,.42-.15l4.44-9.49c.38-.81-.44-1.67-1.27-1.33l-9.26,3.79c-.16.07-.24.25-.17.41Z"/>
          </g>
          <rect class="other-6" x="175.21" y="147.91" width="5.42" height="7.42" rx="2.71" ry="2.71"/>
        </g>
        <g>
          <g>
            <ellipse class="other-6" cx="75.16" cy="159.2" rx="9.88" ry="6.56"/>
            <ellipse class="other-14" cx="75.16" cy="159.2" rx="5.84" ry="3.87"/>
            <ellipse class="other-1" cx="75.16" cy="157.05" rx="5.84" ry="3.87"/>
            <ellipse class="other-13" cx="75.16" cy="154.89" rx="5.84" ry="3.87"/>
          </g>
          <g>
            <g>
              <path class="other-6" d="m69.42,143.33l.26-.29,3.93-4.4c1.55-1.73,4.41-1.24,5.23.93,1.24,3.31.66,7.19-1.84,9.99-.09.1-.17.19-.26.28l-7.31-6.52Z"/>
              <path class="other-6" d="m69.42,143.33l-.25.29-3.93,4.4c-1.55,1.73-.73,4.53,1.52,5.09,3.43.85,7.22-.17,9.72-2.97.09-.1.17-.19.25-.29l-7.31-6.52Z"/>
            </g>
            <ellipse class="other-1" cx="72.16" cy="145.78" rx="6.87" ry="2.35" transform="translate(-84.66 102.59) rotate(-48.27)"/>
            <path class="other-13" d="m75.42,142.77h0c-.07.16-.25.24-.41.17l-4.66-1.91c-.91-.37-1.65.8-.92,1.46l4.33,3.96c.13.12.14.32.02.45h0c-.12.13-.32.14-.45.02l-4.42-4.05c-.8-.73-2.02.17-1.56,1.14l2.39,5.1c.07.16,0,.35-.15.42h0c-.16.07-.35,0-.42-.15l-4.44-9.49c-.38-.81.44-1.67,1.27-1.33l9.26,3.79c.16.07.24.25.17.41Z"/>
          </g>
          <rect class="other-6" x="72.13" y="147.91" width="5.42" height="7.42" rx="2.71" ry="2.71" transform="translate(149.68 303.24) rotate(180)"/>
        </g>
        <g>
          <g>
            <path class="other-4" d="m126.43,58.77c-28.98,0-52.47,23.49-52.47,52.47s23.49,52.47,52.47,52.47,52.47-23.49,52.47-52.47-23.49-52.47-52.47-52.47Z"/>
            <path class="other-15" d="m126.43,64c-26.09,0-47.25,21.15-47.25,47.25s21.15,47.25,47.25,47.25,47.25-21.15,47.25-47.25-21.15-47.25-47.25-47.25Z"/>
            <ellipse class="other-16" cx="144.78" cy="77.28" rx="8.53" ry="20.93" transform="translate(8.67 168.98) rotate(-62.06)"/>
            <ellipse class="other-13" cx="148.13" cy="74.44" rx="4.49" ry="14.27" transform="translate(9.6 165.5) rotate(-60)"/>
            <path class="other-6" d="m117.74,158.92l7.03,3.98c.72.41,1.6.41,2.32,0l7.04-3.98c.37-.21.65-.5.85-.83-.19-.43-.51-.82-.97-1.08-2.3-1.32-4.61-2.64-6.91-3.96-.71-.41-1.59-.41-2.3,0-2.31,1.32-4.62,2.64-6.93,3.96-.46.26-.78.65-.97,1.08.2.33.48.62.85.83Z"/>
          </g>
          <path class="other-6" d="m74.66,112.04c-.6-27.79,21.7-51.81,50.29-52.56,29.11-.77,52.52,22.4,53.24,50.22.75,29.05-22.01,52.43-50.19,53.3-29.05.9-53.02-22.41-53.34-50.96Zm31.57,24.55c.57-.18.99-.3,1.39-.44,5.91-2.17,11.24-5.34,16.21-9.17,6.15-4.74,11.33-10.35,15.67-16.77.33-.49.66-.87.1-1.52-5.65-6.59-12.03-12.31-19.54-16.75-4.12-2.44-8.53-4.17-12.96-5.89-.58-.23-.82-.09-1.09.42-1.54,2.85-3.75,4.63-7.17,4.57-.3,0-.83.37-.88.64-.77,3.78-1.77,7.54-2.15,11.35-.94,9.58-.34,19.08,2.25,28.4.1.35.63.81.98.82,2.82.09,5.08,1.07,6.47,3.66.16.3.51.49.72.68Zm35.78-30.5c.23-.25.3-.29.34-.36,4.06-7.09,6.82-14.62,7.42-22.82.35-4.8-.17-9.5-2.01-14.01-.38-.92-.94-1.52-1.87-1.94-5.63-2.52-11.54-3.77-17.68-4.03-5.67-.24-10.79,1.24-15.3,4.76-3.23,2.52-5.9,5.55-8.23,8.91-.61.88-.67,1.65.09,2.52.52.61.99,1.34,1.23,2.09.26.82.71,1.19,1.48,1.43,5.99,1.86,11.63,4.49,16.87,7.93,5.7,3.75,10.91,8.08,15.39,13.25.7.81,1.51,1.52,2.26,2.27Zm9.95-35.84c.12.69.16,1.03.23,1.36,1.81,7.52,1.21,14.95-.96,22.28-1.45,4.91-3.63,9.53-6.17,13.97-.64,1.13-.48,1.96.21,2.98,1.48,2.19,2.84,4.46,4.24,6.71,2.52,4.05,3.73,8.63,5.25,13.09.11.33.35.72.64.88,1.2.64,2.45,1.18,3.66,1.81.59.31,1.05.3,1.59-.12,1.33-1.02,2.76-1.92,4.03-3.01,3.6-3.06,6.71-6.53,8.48-11.01,1.68-4.24,1.83-8.61,1.35-13.11-.76-7.1-2.98-13.67-6.6-19.8-3.66-6.18-8.64-11.12-14.46-15.26-.36-.26-.8-.42-1.48-.78Zm-43.95,69.41c.68.24,1.17.51,1.7.6,3.22.59,6.42,1.28,9.67,1.68,8.99,1.11,17.82,0,26.53-2.27.67-.17.72-.54.73-1.1.07-2.76,1.32-4.84,3.69-6.24.36-.21.75-.37,1.1-.54-.66-4.63-5.72-15.35-9.18-19.43-8.7,12.34-19.73,21.76-34.23,27.29Zm-13.16-5.51c.08-.12.17-.25.25-.37-.05-.34-.08-.68-.15-1.02-.72-3.35-1.63-6.67-2.11-10.05-.55-3.85-1.07-7.77-.99-11.64.15-7.06.93-14.08,2.83-20.93.09-.33-.05-.88-.29-1.12-1.19-1.17-1.85-2.6-2.18-4.19-.14-.67-.45-.84-1.04-.76-5.58.78-5.11-.09-7.85,5.16-.02.03-.03.07-.05.11-2.73,5.13-4.07,10.66-4.87,16.38-.95,6.82.07,13.11,4.27,18.74,2.68,3.58,5.93,6.51,9.77,8.78.73.43,1.6.61,2.4.91Zm57.15,11.81c-1.21-.89-2.37-1.66-3.42-2.55-.64-.54-1.18-.66-2-.43-7.75,2.14-15.63,3.2-23.69,2.72-5.62-.34-11.17-1.03-16.57-2.71-1.11-.34-1.23.74-1.71,1.24-.24.24-.37.92-.21,1.17,3.23,4.7,6.88,8.96,12.09,11.63,4.78,2.44,9.81,2.91,15.03,2.21,5.31-.71,10.53-1.81,15.35-4.26.81-.41,1.68-.95,2.19-1.67,1.59-2.25,2.37-4.87,2.93-7.34Zm19.31-16.88c-.07-.08-.15-.16-.22-.24-.25.22-.53.41-.75.65-2.35,2.71-5.19,4.82-8.23,6.68-.77.47-1.04.93-1.05,1.82-.01,3.5-1.64,5.99-4.87,7.43-.28.12-.64.37-.7.63-.34,1.42-.61,2.87-.96,4.6,7.68-5.79,13.35-12.8,16.77-21.57Zm-82.12-48.35c1.81-.1,3.75.63,4.63-1.67.04-.1.16-.17.24-.25,1.56-1.62,3.57-2.09,5.72-2.28.44-.04,1-.25,1.26-.57,1.01-1.28,1.85-2.69,2.88-3.96,1.46-1.79,3.03-3.5,4.55-5.24-3.14-.59-17.48,9.72-19.27,13.97Zm19.02,75.24c.09-.08.19-.16.28-.23-.34-.44-.66-.88-1.01-1.31-1.7-2.03-3.5-3.99-5.07-6.11-.89-1.21-1.66-1.91-3.35-1.82-2.14.11-4.2-.62-5.44-2.61-.93-1.49-2.17-2.02-4.08-1.4,5.23,5.99,11.37,10.53,18.67,13.48Zm-26.48-27.13c-.09.08-.18.16-.28.25,1.03,2.13,2.03,4.28,3.11,6.38.92,1.79,2.32,3,4.45,3.14.58.04,1.17.22,1.74.17.55-.05,1.36-.17,1.55-.53.39-.74-.22-1.24-.89-1.63-3.28-1.92-6.28-4.21-8.83-7.05-.25-.28-.57-.48-.86-.72Z"/>
        </g>
      </g>
    </g>
  </g>
</svg>