<?xml version="1.0" encoding="UTF-8"?>
<svg id="Calque_2" data-name="Calque 2" xmlns="http://www.w3.org/2000/svg" xmlns:xlink="http://www.w3.org/1999/xlink" viewBox="0 0 268 268">
  <defs>
    <style>
      .designer-1 {
        filter: url(#designer-shadow-2);
      }

      .designer-1, .designer-2 {
        fill: #2a2d49;
      }

      .designer-3 {
        fill: url(#designer_138);
      }

      .designer-4 {
        fill: url(#designer_148);
        filter: url(#designer-shadow-1);
      }

      .designer-5 {
        fill: url(#designer_154-3);
      }

      .designer-6, .designer-7, .designer-8 {
        fill: #ffb8ff;
      }

      .designer-9 {
        fill: #7b00d3;
      }

      .designer-10 {
        filter: url(#designer-shadow-3);
      }

      .designer-11 {
        fill: #a8296b;
      }

      .designer-12 {
        fill: url(#designer_148-3);
      }

      .designer-13 {
        fill: url(#designer_148-4);
      }

      .designer-14 {
        fill: url(#designer_154);
      }

      .designer-15 {
        fill: url(#designer_210);
        opacity: .72;
      }

      .designer-16 {
        clip-path: url(#clippath-designer);
      }

      .designer-17 {
        fill: none;
      }

      .designer-18 {
        fill: url(#designer_154-2);
      }

      .designer-19 {
        fill: #d34a8c;
      }

      .designer-20 {
        fill: #4e5789;
      }

      .designer-7 {
        opacity: .35;
      }

      .designer-21 {
        fill: url(#designer_148-2);
      }

      .designer-8 {
        opacity: .57;
      }
    </style>
    <clipPath id="clippath-designer">
      <rect class="designer-17" width="268" height="268"/>
    </clipPath>
    <linearGradient id="designer_148" data-name="Dégradé sans nom 148" x1="226.03" y1="179.81" x2="64.34" y2="179.81" gradientUnits="userSpaceOnUse">
      <stop offset=".28" stop-color="#393d5b"/>
      <stop offset=".56" stop-color="#ff3679"/>
      <stop offset=".86" stop-color="#393d5b"/>
    </linearGradient>
    <filter id="designer-shadow-1" filterUnits="userSpaceOnUse">
      <feOffset dx="0" dy="4.94"/>
      <feGaussianBlur result="blur" stdDeviation="3.95"/>
      <feFlood flood-color="#000" flood-opacity=".5"/>
      <feComposite in2="blur" operator="in"/>
      <feComposite in="SourceGraphic"/>
    </filter>
    <linearGradient id="designer_138" data-name="Dégradé sans nom 138" x1="82.89" y1="73.2" x2="228.12" y2="346.45" gradientUnits="userSpaceOnUse">
      <stop offset=".2" stop-color="#393d5b"/>
      <stop offset=".48" stop-color="#ff3679"/>
      <stop offset=".86" stop-color="#393d5b"/>
    </linearGradient>
    <linearGradient id="designer_148-2" data-name="Dégradé sans nom 148" x1="166.27" y1="157.67" x2="108.27" y2="157.18" xlink:href="#designer_148"/>
    <linearGradient id="designer_148-3" data-name="Dégradé sans nom 148" x1="157.16" y1="178.12" x2="115.31" y2="177.79" xlink:href="#designer_148"/>
    <filter id="designer-shadow-2" filterUnits="userSpaceOnUse">
      <feOffset dx="0" dy="0"/>
      <feGaussianBlur result="blur-2" stdDeviation="7"/>
      <feFlood flood-color="#000" flood-opacity=".35"/>
      <feComposite in2="blur-2" operator="in"/>
      <feComposite in="SourceGraphic"/>
    </filter>
    <linearGradient id="designer_148-4" data-name="Dégradé sans nom 148" x1="7.93" y1="170.56" x2="337.47" y2="-3.77" xlink:href="#designer_148"/>
    <filter id="designer-shadow-3" filterUnits="userSpaceOnUse">
      <feOffset dx="0" dy="5.85"/>
      <feGaussianBlur result="blur-3" stdDeviation="4.6"/>
      <feFlood flood-color="#000" flood-opacity=".53"/>
      <feComposite in2="blur-3" operator="in"/>
      <feComposite in="SourceGraphic"/>
    </filter>
    <linearGradient id="designer_154" data-name="Dégradé sans nom 154" x1="94.56" y1="18.05" x2="160.3" y2="144.81" gradientUnits="userSpaceOnUse">
      <stop offset=".56" stop-color="#ff3679"/>
      <stop offset=".86" stop-color="#393d5b"/>
    </linearGradient>
    <linearGradient id="designer_154-2" data-name="Dégradé sans nom 154" x1="89.74" y1="20.55" x2="155.47" y2="147.31" xlink:href="#designer_154"/>
    <linearGradient id="designer_154-3" data-name="Dégradé sans nom 154" x1="61.57" y1="35.16" x2="127.31" y2="161.91" xlink:href="#designer_154"/>
    <linearGradient id="designer_210" data-name="Dégradé sans nom 210" x1="110.38" y1="6.63" x2="160.97" y2="210.46" gradientUnits="userSpaceOnUse">
      <stop offset=".41" stop-color="#ff3679"/>
      <stop offset=".84" stop-color="#ffb8ff"/>
      <stop offset=".93" stop-color="#ea3776"/>
      <stop offset="1" stop-color="#393d5b"/>
    </linearGradient>
  </defs>
  <g id="HOME">
    <g class="designer-16">
      <g>
        <g>
          <g>
            <g>
              <path class="designer-4" d="m210.99,168.52c-.34-1.87-1.83-3.05-2.58-3.55-6.81-3.87-13.83-7.87-20.64-11.75-12.47-7.1-33.62-19.2-45.34-25.9-5.24-2.99-11.65-2.99-16.89,0-11.72,6.7-32.87,18.8-45.33,25.9-6.81,3.88-13.82,7.87-20.64,11.75-.74.5-2.23,1.68-2.58,3.55-.04.22-.06.44-.07.65v21.37c0,1.49.8,2.86,2.1,3.59,22.77,12.88,45.54,25.76,68.31,38.64,4.13,2.33,9.18,2.33,13.3,0,22.77-12.88,45.54-25.76,68.31-38.64,1.3-.73,2.1-2.11,2.1-3.59v-21.37c0-.21-.03-.43-.07-.65Z"/>
              <g>
                <path class="designer-6" d="m59.94,166.62c21.86-12.5,43.72-25,65.59-37.5,5.14-2.94,11.45-2.94,16.59,0,21.81,12.5,43.62,24.99,65.43,37.49,1.86,1.07,1.85,3.75-.01,4.81l-67.35,38.1c-4,2.26-8.89,2.26-12.89,0l-67.34-38.1c-1.87-1.06-1.87-3.74-.01-4.81Z"/>
                <path class="designer-3" d="m61.45,167.1c21.45-12.12,42.89-24.24,64.34-36.36,4.98-2.81,11.06-2.81,16.04,0,21.39,12.12,42.79,24.24,64.18,36.35,1.39.79,1.38,2.79,0,3.56l-66.04,36.94c-3.87,2.17-8.59,2.17-12.46,0l-66.04-36.93c-1.39-.78-1.4-2.78,0-3.57Z"/>
                <g>
                  <path class="designer-2" d="m99.72,160.54c9.73-5.57,19.47-11.13,29.2-16.7,3.01-1.72,6.7-1.72,9.71,0,9.71,5.56,19.41,11.12,29.12,16.69,6.57,3.77,6.55,13.26-.05,16.99l-29.17,16.5c-2.99,1.69-6.64,1.69-9.63,0l-29.15-16.49c-6.6-3.73-6.62-13.23-.04-16.99Z"/>
                  <path class="designer-21" d="m99.72,166.31c9.73-5.56,19.47-11.13,29.2-16.69,3.01-1.72,6.7-1.72,9.71,0,9.71,5.56,19.41,11.12,29.12,16.69,2.31,1.32,3.79,3.36,4.47,5.6,1.25-4.12-.22-8.94-4.47-11.37-9.71-5.56-19.41-11.12-29.12-16.69-3.01-1.72-6.7-1.73-9.71,0-9.73,5.57-19.47,11.13-29.2,16.69-4.25,2.43-5.73,7.26-4.48,11.37.68-2.24,2.16-4.28,4.48-5.6Z"/>
                  <path class="designer-11" d="m113.33,171.2l17.51,9.91c1.79,1.01,3.99,1.01,5.78,0l17.52-9.91c.93-.53,1.62-1.25,2.11-2.07-.47-1.07-1.27-2.03-2.41-2.69-5.74-3.29-11.47-6.57-17.21-9.86-1.78-1.02-3.96-1.02-5.74,0-5.75,3.29-11.5,6.58-17.26,9.87-1.15.66-1.95,1.62-2.42,2.69.49.82,1.18,1.54,2.11,2.07Z"/>
                  <path class="designer-12" d="m153.91,171.28l-17.32,9.8c-1.77,1-3.94,1-5.72,0l-17.31-9.79c-.36-.2-.86-.53-1.34-1.04-.45-.48-.74-.95-.92-1.31-.13.34-1.29,3.44.45,5.91.57.8,1.27,1.3,1.82,1.6l17.31,9.79c1.77,1,3.94,1,5.72,0l17.32-9.8c.54-.3,1.25-.79,1.82-1.6,1.7-2.41.64-5.4.51-5.76-.24.35-.56.75-.98,1.16-.48.46-.95.8-1.34,1.04Z"/>
                </g>
              </g>
              <g>
                <path class="designer-20" d="m205.81,181.38v6.47c0,.3-.16.59-.43.74l-5.66,3.22c-.56.32-1.26-.09-1.26-.74v-6.45c0-.3.16-.58.43-.73l5.66-3.24c.56-.32,1.27.08,1.27.73Z"/>
                <path class="designer-19" d="m207.55,185.02v4.11c0,.19-.1.37-.27.47l-3.59,2.05c-.36.2-.8-.05-.8-.47v-4.09c0-.19.1-.37.27-.47l3.59-2.06c.36-.2.8.05.8.47Z"/>
              </g>
              <g>
                <path class="designer-20" d="m194.28,187.72v6.47c0,.3-.16.59-.43.74l-5.66,3.22c-.56.32-1.26-.09-1.26-.74v-6.45c0-.3.16-.58.43-.73l5.66-3.24c.56-.32,1.27.08,1.27.73Z"/>
                <path class="designer-11" d="m196.02,191.37v4.11c0,.19-.1.37-.27.47l-3.59,2.05c-.36.2-.8-.05-.8-.47v-4.09c0-.19.1-.37.27-.47l3.59-2.06c.36-.2.8.05.8.47Z"/>
              </g>
              <g>
                <path class="designer-20" d="m182.82,194.02v6.47c0,.3-.16.59-.43.74l-5.66,3.22c-.56.32-1.26-.09-1.26-.74v-6.45c0-.3.16-.58.43-.73l5.66-3.24c.56-.32,1.27.08,1.27.73Z"/>
                <path class="designer-6" d="m184.56,197.67v4.11c0,.19-.1.37-.27.47l-3.59,2.05c-.36.2-.8-.05-.8-.47v-4.09c0-.19.1-.37.27-.47l3.59-2.06c.36-.2.8.05.8.47Z"/>
              </g>
            </g>
            <path class="designer-11" d="m65.74,180.68v4.43c0,.21.11.4.29.5l3.88,2.21c.39.22.87-.06.87-.5v-4.41c0-.21-.11-.4-.29-.5l-3.88-2.22c-.39-.22-.87.06-.87.5Z"/>
            <path class="designer-19" d="m71.64,183.99v4.43c0,.21.11.4.29.5l3.88,2.21c.39.22.87-.06.87-.5v-4.41c0-.21-.11-.4-.29-.5l-3.88-2.22c-.39-.22-.87.06-.87.5Z"/>
            <path class="designer-6" d="m65.74,187.53v4.43c0,.21.11.4.29.5l3.88,2.21c.39.22.87-.06.87-.5v-4.41c0-.21-.11-.4-.29-.5l-3.88-2.22c-.39-.22-.87.06-.87.5Z"/>
            <path class="designer-20" d="m71.64,190.83v4.43c0,.21.11.4.29.5l3.88,2.21c.39.22.87-.06.87-.5v-4.41c0-.21-.11-.4-.29-.5l-3.88-2.22c-.39-.22-.87.06-.87.5Z"/>
          </g>
          <g>
            <ellipse class="designer-2" cx="119.22" cy="168.49" rx="3.02" ry="2"/>
            <ellipse class="designer-9" cx="119.22" cy="168.49" rx="1.78" ry="1.18"/>
            <ellipse class="designer-19" cx="119.22" cy="167.83" rx="1.78" ry="1.18"/>
            <ellipse class="designer-6" cx="119.22" cy="167.17" rx="1.78" ry="1.18"/>
          </g>
          <g>
            <ellipse class="designer-2" cx="133.8" cy="168.98" rx="9.05" ry="6.01"/>
            <ellipse class="designer-9" cx="133.8" cy="168.98" rx="5.35" ry="3.55"/>
            <ellipse class="designer-19" cx="133.8" cy="167.01" rx="5.35" ry="3.55"/>
            <ellipse class="designer-6" cx="133.8" cy="165.03" rx="5.35" ry="3.55"/>
          </g>
          <g>
            <ellipse class="designer-2" cx="134" cy="200.15" rx="11.34" ry="7.52"/>
            <ellipse class="designer-11" cx="134" cy="200.15" rx="6.7" ry="4.45"/>
            <ellipse class="designer-19" cx="134" cy="197.67" rx="6.7" ry="4.45"/>
            <ellipse class="designer-6" cx="134" cy="195.2" rx="6.7" ry="4.45"/>
          </g>
          <g>
            <ellipse class="designer-2" cx="186.39" cy="169.05" rx="11.85" ry="7.86"/>
            <ellipse class="designer-11" cx="186.39" cy="169.05" rx="7" ry="4.65"/>
            <ellipse class="designer-19" cx="186.39" cy="166.47" rx="7" ry="4.65"/>
            <ellipse class="designer-6" cx="186.39" cy="163.88" rx="7" ry="4.65"/>
          </g>
          <g>
            <ellipse class="designer-2" cx="81.11" cy="169.05" rx="11.85" ry="7.86"/>
            <ellipse class="designer-11" cx="81.11" cy="169.05" rx="7" ry="4.65"/>
            <ellipse class="designer-19" cx="81.11" cy="166.47" rx="7" ry="4.65"/>
            <ellipse class="designer-6" cx="81.11" cy="163.88" rx="7" ry="4.65"/>
          </g>
          <g>
            <ellipse class="designer-2" cx="148.39" cy="168.49" rx="3.02" ry="2"/>
            <ellipse class="designer-9" cx="148.39" cy="168.49" rx="1.78" ry="1.18"/>
            <ellipse class="designer-19" cx="148.39" cy="167.83" rx="1.78" ry="1.18"/>
            <ellipse class="designer-6" cx="148.39" cy="167.17" rx="1.78" ry="1.18"/>
          </g>
        </g>
        <g>
          <path class="designer-1" d="m134.64,33.47c-38.7,0-70.06,31.37-70.06,70.06s31.37,70.06,70.06,70.06,70.06-31.37,70.06-70.06-31.37-70.06-70.06-70.06Z"/>
          <path class="designer-13" d="m134.64,40.45c-34.84,0-63.08,28.24-63.08,63.08s28.24,63.08,63.08,63.08,63.08-28.24,63.08-63.08-28.24-63.08-63.08-63.08Z"/>
          <path class="designer-6" d="m106.2,91.55c28.78,4.34,39.7,25.33,60.61,23.4,7.61-.7,18.32-4.6,30.37-19.88.24,1.81.5,4.4.54,7.52.12,9.12-1.71,16.06-2.51,18.77-.7,2.36-2.09,6.57-4.66,11.46-1.38,2.62-4.28,7.68-9.19,13.12-1.19,1.32-4.54,4.91-9.13,8.34-16.28,12.15-35.03,12.44-37.51,12.44-5.24.01-12.27-.64-20.04-3.25-16.48-5.54-25.99-16.43-29.05-20.23-1.98-2.45-13.11-16.66-13.98-37.45-.19-4.55.16-8.34.52-11,8.05-2.63,20.12-5.34,34.04-3.25Z"/>
          <g class="designer-10">
            <path class="designer-2" d="m123.07,136.5c-1.42.59-2.71,1.29-4.09,1.67-5.27,1.44-10.64-.46-13.14-5.19-.1-.18-.2-.36-.26-.55-.15-.47-.43-.56-.89-.42-4.81,1.41-10.74-2.08-11.85-7.78-.15-.75-.14-1.53-.15-2.3,0-.46-.12-.71-.59-.91-3.6-1.49-6.54-6.8-3.18-11.34.25-.33.43-.63.21-1.1-1.45-3.22-.23-7.3,2.75-9.25.4-.26.8-.57,1.25-.67.61-.14.66-.45.62-.97-.21-2.6.21-5.05,1.69-7.27,1.49-2.22,3.64-3.25,6.2-3.6.07,0,.13-.03.33-.06,0-.67-.02-1.36.02-2.05.2-3.92,3.54-7.47,7.45-7.93.16-.02.32-.09.47-.07,1.28.24,1.72-.54,2.2-1.56,1.31-2.74,3.49-4.46,6.51-5.04,1.21-.23,2.34.12,3.47.46.53.16.78.05,1.09-.42,1.47-2.23,3.65-3.34,6.23-3.7,2.22-.32,4.27.2,6.16,1.41.15.1.52.05.68-.07,4.01-3.16,10.17-3.07,14.02.29.67.58,1.25,1.33,1.7,2.1.35.6.72.69,1.32.58,1.66-.29,3.31-.45,5-.18,2.53.4,4.62,1.51,6.19,3.57.11.15.42.29.59.24,3.14-.86,7.16,1.24,8.74,4.16.74,1.36,1.12,2.77.9,4.31-.07.44.12.63.48.85,2.26,1.35,3.94,3.19,4.28,5.88.14,1.11-.16,2.28-.22,3.43-.01.25.03.62.2.75,3.34,2.73,3.14,9.78-.19,12.64-.65.55-.8,1.12-.89,1.88-.57,4.89-3,8.37-7.78,9.98-.52.17-.5.47-.5.87-.01,4.79-3.31,8.95-7.92,9.81-1.11.21-2.29.04-3.44-.03-.41-.02-.58.04-.65.44-.54,3.21-2.57,5.22-5.36,6.56-2.79,1.35-5.68,1.64-8.63.5-.61-.24-.98-.16-1.41.42-3,4.11-7.08,5.45-11.97,4.45-3.05-.62-5.62-2.11-7.54-4.62-.07-.09-.13-.18-.11-.15Zm7.71-26.28c.57.66,1.19,1.24,1.64,1.93.47.73.89,1.53,1.14,2.35.26.87-.26,1.59-1.09,1.83-.91.26-1.66-.05-1.99-.93-.48-1.29-1.36-2.23-2.38-3.08-.41-.34-.8-.45-1.36-.27-2.92.93-5.91,1.26-8.92.58-1.21-.27-2.37-.86-3.5-1.42-.62-.3-1.03-.29-1.35.31-.38.69-.79,1.38-1.07,2.11-.43,1.16-.66,2.38-.16,3.58.28.66.7,1.26,1.09,1.95-.38.24-.82.51-1.26.77-1.72,1.03-3.14,2.33-3.73,4.32-.87,2.93-.13,5.59,1.41,8.1.56.91,1.35,1.58,2.31,2.05,2.72,1.3,5.45,1.09,8.17-.01,1.36-.55,2.38-1.42,2.67-3,.15-.84,1.02-1.26,1.85-1.05.97.24,1.41.92,1.16,2.11-.23,1.12.06,2.05.87,2.77.86.76,1.74,1.56,2.76,2.05,2.79,1.35,5.66,1.54,8.48.01,1.81-.97,2.86-2.59,3.71-4.39.55-1.18,1.53-1.37,2.54-.56.41.32.82.66,1.28.88,2.63,1.26,7.02.18,8.82-2.13.9-1.16,1.25-2.44,1.01-3.89-.07-.4-.1-.81-.11-1.22-.02-.67.31-1.11.92-1.37.57-.24,1.09-.17,1.61.18,1.45.98,3.03,1.3,4.73.84,3.51-.96,5.44-4.45,4.58-8.26-.17-.74.12-1.34.83-1.63.35-.14.74-.23,1.11-.3,2.18-.41,3.95-1.5,5.12-3.39,1.98-3.2,2.13-6.56.45-9.91-1.1-2.21-3.03-3.39-5.5-3.57-1.75-.13-3.42.25-5.05.88-.67.26-1.02.67-1.27,1.36-.85,2.36-2.34,4.22-4.56,5.46-.49.28-.97.33-1.47,0-1.17-.79-1.14-2.09.05-2.87,2.13-1.39,3.21-3.38,3.29-5.92.02-.75,0-1.5,0-2.25,0-.77.49-1.45,1.13-1.59.92-.2,1.61.09,1.95.92.18.45.24.95.37,1.5.4-.1.82-.18,1.22-.3,2.2-.64,4.41-.83,6.64-.18,2.95.86,4.95,2.83,6.28,5.54.27.56.57,1.1.91,1.77.44-1.63.64-3.09.34-4.63-.23-1.16-.8-1.92-1.89-2.36-1.29-.52-1.51-1.17-1.01-2.46.29-.75.63-1.53.7-2.32.2-2.3-1.09-4.12-3.45-4.93-2-.69-3.88-.62-5.39,1.16-.42.49-1.14.52-1.83.2-.62-.3-.88-.84-.76-1.45.1-.51.34-1.05.68-1.43,1.39-1.56,3.24-2.08,5.26-2.15.76-.03.81-.08.7-.85-.28-1.91-1.84-3.59-3.74-4.07-.93-.23-1.78-.19-2.61.32-1.3.81-2.17.55-2.73-.89-.65-1.69-1.92-2.61-3.59-3.01-2.71-.65-5.32-.27-7.79.99-2.76,1.41-3.57,4.1-2.11,6.83.46.86.26,1.67-.53,2.18-.78.49-1.66.34-2.19-.45-.79-1.15-1.25-2.43-1.25-3.82,0-1.03.16-2.05.26-3.16-.15-.02-.37-.11-.57-.07-.99.19-2.06.24-2.94.66-2.31,1.12-4.07,2.79-4.51,5.49-.18,1.13-.64,1.54-1.76,1.53-1.27-.02-2.55-.14-3.8-.04-2.87.24-5.36,1.32-7.12,3.71-.4.54-.65,1.2-.97,1.81.05.05.1.1.15.15.21-.03.42-.07.64-.1.76-.12,1.52-.27,2.28-.35,1-.1,1.65.5,1.7,1.5.05.94-.27,1.33-1.37,1.63-1.27.34-2.57.56-3.8,1-3.73,1.34-6.67,3.66-8.29,7.37-.42.96-.66,2.04-.76,3.08-.26,2.77,1.32,4.84,4.17,5.4,3.59.7,7.03.15,10.28-1.56,1.82-.95,3.24-2.22,3.7-4.34.17-.76.75-1.11,1.57-1.11.7,0,1.37.45,1.45,1.18.07.63.03,1.33-.2,1.91-.8,2.08-2.31,3.59-4.25,4.79Zm-6.31-26.98c.61-.33,1.29-.73,2-1.07,2.21-1.07,4.56-1.46,7-1.41.29,0,.7-.14.84-.35.31-.49.53-1.05.7-1.61.05-.16-.13-.54-.28-.59-.49-.16-1.02-.32-1.52-.29-1.06.04-2.11.18-3.16.32-.69.09-1.26-.02-1.66-.64-.67-1.02-.3-1.99.95-2.46,2.54-.94,5.04-.83,7.41.49.65.36,1.02.22,1.54-.17,2.52-1.87,5.27-2.79,8.42-1.84.2.06.49.07.64-.04.68-.48,1.33-1,2.15-1.63-.7-.69-1.27-1.46-2.03-1.93-2.73-1.71-5.58-1.69-8.4-.24-.54.28-1.03.82-1.32,1.36-.36.67-.69,1.3-1.5,1.41-.84.12-1.37-.36-1.73-1.05-.38-.73-1-1.15-1.74-1.43-1.11-.42-2.27-.5-3.42-.3-2.16.38-3.58,1.66-4.23,3.76-.25.82-.7,1.44-1.59,1.39-.5-.03-1.04-.3-1.45-.61-1.16-.88-2.44-1.1-3.79-.72-1.79.51-2.88,1.83-3.57,3.48-.15.35-.07.9.11,1.26.45.91.48,1.5-.07,2.12-.47.53-1.22.59-2.07.21-.49-.22-.98-.49-1.5-.61-2.48-.53-5.1,1.26-5.8,3.9-.38,1.43-.16,2.83.19,4.23.33,1.31-.41,2.16-1.77,2.09-.72-.04-1.45-.05-2.18-.06-1.05-.01-1.94.4-2.69,1.11-1.91,1.78-2.22,4.07-1.82,6.45.32,1.96,1.39,3.63,2.74,5.08,1.06,1.14,2.39,1.87,3.93,2.15,2.35.43,4.55-.14,6.67-1.07.19-.08.34-.4.37-.63.38-2.95,1.61-5.5,3.56-7.72,1.42-1.62,3.11-2.9,4.97-3.98.29-.17.57-.52.67-.85.32-1.05.47-2.16.84-3.2.74-2.1.33-3.91-1.12-5.54-.35-.39-.74-.74-1.06-1.15-.48-.61-.42-1.33.1-1.92.53-.6,1.24-.78,1.89-.37.55.35,1.13.73,1.51,1.24.81,1.08,1.49,2.25,2.27,3.44Zm-33.16,28.55c-.2.46-.44.85-.53,1.27-.4,1.89.36,3.35,1.79,4.54.59.48,1.2.71,1.94.41.58-.23,1.07-.01,1.5.37.69.62.6,1.36.3,2.12-1.62,4.1,2.16,9.16,7.15,8.49.66-.09.86-.35.79-1.01-.17-1.5-.11-2.99.33-4.45.59-1.98,1.65-3.67,3.27-4.97.42-.33.6-.65.5-1.26-.15-.88-.17-1.81-.05-2.7.32-2.36,1.38-4.38,3.01-6.12.17-.19.29-.62.2-.81-.09-.18-.52-.28-.78-.25-.4.03-.79.19-1.18.32-2.95.99-5.86,1.05-8.73-.3-2.45-1.15-4.12-3.06-5.45-5.34-.33-.56-.7-.65-1.22-.36-.26.14-.51.3-.74.48-1.37,1.12-2,2.97-1.53,4.43.72,2.22,2.45,3.81,4.31,3.94.43.03.86,0,1.29.04,1.9.13,3.62.68,4.87,2.2,1.84,2.24,1.57,5.2.48,7.52-.4.84-1.2,1.06-2.08.7-.83-.33-1.1-.92-.86-1.87.15-.57.33-1.13.46-1.7.45-2-.57-3.36-2.6-3.5-.84-.06-1.68-.05-2.51-.19-1.46-.25-2.71-.98-3.93-1.99Z"/>
            <g>
              <path class="designer-14" d="m130.77,110.22c1.93-1.21,3.44-2.71,4.25-4.79.22-.58.27-1.29.2-1.91-.08-.72-.75-1.18-1.45-1.18-.82,0-1.4.36-1.57,1.11-.47,2.12-1.89,3.39-3.7,4.34-3.25,1.7-6.69,2.26-10.28,1.56-2.85-.56-4.43-2.63-4.17-5.4.1-1.04.34-2.12.76-3.08,1.63-3.71,4.56-6.03,8.29-7.37,1.23-.44,2.54-.66,3.8-1,1.1-.29,1.42-.69,1.37-1.63-.05-.99-.7-1.6-1.7-1.5-.76.08-1.52.23-2.28.35-.21.03-.42.07-.64.1-.05-.05-.1-.1-.15-.15.32-.61.57-1.27.97-1.81,1.76-2.39,4.25-3.47,7.12-3.71,1.26-.1,2.54.02,3.8.04,1.13.01,1.58-.4,1.76-1.53.44-2.7,2.2-4.38,4.51-5.49.88-.43,1.95-.47,2.94-.66.2-.04.43.05.57.07-.1,1.11-.26,2.13-.26,3.16,0,1.39.46,2.67,1.25,3.82.54.78,1.42.94,2.19.45.8-.51,1-1.32.53-2.18-1.46-2.72-.65-5.42,2.11-6.83,2.47-1.26,5.08-1.64,7.79-.99,1.67.4,2.94,1.32,3.59,3.01.55,1.44,1.43,1.7,2.73.89.83-.52,1.68-.56,2.61-.32,1.9.48,3.46,2.16,3.74,4.07.11.77.06.82-.7.85-2.02.07-3.87.59-5.26,2.15-.34.38-.58.93-.68,1.43-.12.61.13,1.16.76,1.45.68.32,1.41.29,1.83-.2,1.51-1.77,3.39-1.84,5.39-1.16,2.36.81,3.65,2.63,3.45,4.93-.07.79-.41,1.57-.7,2.32-.5,1.29-.28,1.94,1.01,2.46,1.09.44,1.66,1.19,1.89,2.36.3,1.54.11,3-.34,4.63-.35-.67-.64-1.22-.91-1.77-1.33-2.71-3.33-4.68-6.28-5.54-2.23-.65-4.44-.46-6.64.18-.4.12-.82.2-1.22.3-.13-.55-.18-1.05-.37-1.5-.34-.83-1.03-1.12-1.95-.92-.64.14-1.12.82-1.13,1.59,0,.75.01,1.5,0,2.25-.08,2.54-1.17,4.53-3.29,5.92-1.2.78-1.22,2.08-.05,2.87.5.34.97.28,1.47,0,2.22-1.24,3.7-3.11,4.56-5.46.25-.69.61-1.1,1.27-1.36,1.63-.63,3.3-1.01,5.05-.88,2.47.18,4.4,1.36,5.5,3.57,1.67,3.35,1.53,6.71-.45,9.91-1.17,1.89-2.93,2.98-5.12,3.39-.38.07-.76.15-1.11.3-.71.29-.99.89-.83,1.63.86,3.8-1.07,7.3-4.58,8.26-1.7.46-3.28.14-4.73-.84-.52-.35-1.04-.42-1.61-.18-.61.25-.94.7-.92,1.37.01.41.05.82.11,1.22.24,1.45-.12,2.74-1.01,3.89-1.8,2.31-6.18,3.39-8.82,2.13-.46-.22-.88-.56-1.28-.88-1.01-.8-1.99-.61-2.54.56-.85,1.8-1.9,3.41-3.71,4.39-2.83,1.52-5.69,1.33-8.48-.01-1.01-.49-1.9-1.29-2.76-2.05-.81-.71-1.1-1.64-.87-2.77.25-1.19-.19-1.86-1.16-2.11-.83-.21-1.7.21-1.85,1.05-.29,1.57-1.31,2.44-2.67,3-2.71,1.1-5.45,1.32-8.17.01-.96-.46-1.75-1.13-2.31-2.05-1.55-2.51-2.29-5.17-1.41-8.1.59-1.99,2.01-3.29,3.73-4.32.44-.27.88-.54,1.26-.77-.39-.69-.81-1.29-1.09-1.95-.5-1.2-.27-2.42.16-3.58.27-.74.69-1.42,1.07-2.11.32-.59.73-.61,1.35-.31,1.13.56,2.29,1.14,3.5,1.42,3.01.68,6,.35,8.92-.58.56-.18.95-.07,1.36.27,1.02.85,1.91,1.79,2.38,3.08.33.88,1.08,1.19,1.99.93.83-.24,1.35-.96,1.09-1.83-.25-.83-.67-1.63-1.14-2.35-.45-.69-1.07-1.27-1.64-1.93Zm13.74,9.71c0,.27-.02.55,0,.82.12,1.64.59,3.16,1.69,4.42.59.67,1.46.75,2.15.27.67-.47.78-1.31.43-2.12-.34-.78-.69-1.6-.82-2.43-.35-2.2.05-4.2,1.85-5.73,1.24-1.05,2.71-1.5,4.26-1.81.64-.13.87,0,.94.69.24,2.32,2.86,4.96,5.16,5.27.76.1,1.53-.34,1.75-1,.27-.81-.08-1.59-.85-1.98-.6-.31-1.25-.58-1.76-1.02-.42-.36-.78-.88-.96-1.41-.29-.82-.04-1.06.82-1.24,1.4-.28,2.8-.54,4.17-.94,2.91-.86,4.9-2.75,5.94-5.61.29-.79-.07-1.54-.84-1.91-.73-.35-1.51-.13-1.95.55-.19.3-.37.62-.53.95-.65,1.33-1.66,2.27-3.08,2.7-1.13.34-2.27.66-3.42.85-2.14.36-4.32.53-6.45.94-5.29,1-8.48,4.7-8.49,9.75Zm7.07-27.71c-.17-.29-.32-.52-.45-.75-2.25-4.08-7.29-5.64-11.3-4.99-1.13.18-1.69.84-1.59,1.69.11.98.78,1.5,1.91,1.5.93,0,1.87-.09,2.79.02,2.68.31,4.66,1.62,5.69,4.21.66,1.68.56,3.43.45,5.17-.06,1,.48,1.72,1.4,1.82.84.09,1.66-.52,1.78-1.41.13-.92.15-1.85.28-2.77.05-.36.18-.75.41-1.03,1.1-1.35,2.46-2.41,3.98-3.25.83-.46,1.07-1.08,1.05-2-.06-3.17.5-6.1,3.29-8.14.69-.5.74-1.29.28-2.08-.37-.63-.97-.86-1.76-.59-.42.15-.88.34-1.18.64-.71.72-1.43,1.46-1.99,2.3-1.35,2.04-1.78,4.38-1.97,6.78-.02.26-.04.63-.21.76-.92.73-1.88,1.4-2.86,2.11Zm-14.71,22.18c.37,3.02-1.98,5.26-4.5,5.34-1.48.04-2.81-.39-4.1-1.05-2.03-1.04-4.15-1.56-6.43-1.11-4.64.92-7.31,5.39-6.66,9.7.13.85.85,1.42,1.67,1.39.92-.04,1.43-.55,1.49-1.51.02-.38,0-.77,0-1.16-.04-3.37,2.76-5.79,6.07-5.15,1.05.2,2.07.63,3.06,1.06,1.81.8,3.63,1.33,5.65,1.08,4.57-.58,7.86-4.97,6.96-9.37-.2-1-.79-1.45-1.78-1.37-1.03.09-1.42.55-1.42,1.68,0,.23,0,.45,0,.48Zm-2.22-20.79c-.7.06-1.29.07-1.87.16-2.97.46-5.5,1.91-7.88,3.64-1.6,1.16-3.18,2.34-4.36,3.97-.6.84-.54,1.65.13,2.18.89.71,1.66.68,2.38-.18,1.69-2.02,3.79-3.5,6.03-4.81,2.39-1.39,4.93-2.02,7.69-1.31,3.44.88,5.16,3.69,4.33,7.12-.17.7-.38,1.4-.58,2.09-.25.88.08,1.57.91,1.93.82.35,1.63.11,2-.73,1.26-2.85,1.69-5.78.27-8.68-1.85-3.77-5.18-5.17-9.06-5.39Zm-3.43,37.16c.01.22.01.34.03.45.13,1.1.63,1.66,1.5,1.7.98.04,1.55-.46,1.74-1.59.28-1.66,1.27-2.73,2.86-3.1,1.24-.29,2.55-.33,3.83-.43,1.09-.09,1.65-.55,1.71-1.54.06-.97-.45-1.6-1.53-1.7-2.7-.24-5.26.2-7.49,1.84-1.51,1.1-2.47,2.57-2.65,4.37Z"/>
              <path class="designer-18" d="m124.47,83.24c-.78-1.2-1.46-2.36-2.27-3.44-.38-.51-.96-.89-1.51-1.24-.65-.41-1.36-.23-1.89.37-.52.6-.58,1.31-.1,1.92.32.41.71.76,1.06,1.15,1.45,1.63,1.86,3.44,1.12,5.54-.37,1.04-.52,2.14-.84,3.2-.1.32-.38.68-.67.85-1.86,1.08-3.55,2.36-4.97,3.98-1.95,2.23-3.18,4.77-3.56,7.72-.03.23-.19.55-.37.63-2.13.93-4.33,1.5-6.67,1.07-1.54-.28-2.87-1.01-3.93-2.15-1.35-1.45-2.42-3.12-2.74-5.08-.39-2.38-.09-4.67,1.82-6.45.76-.71,1.64-1.12,2.69-1.11.73.01,1.45.03,2.18.06,1.37.07,2.11-.78,1.77-2.09-.35-1.4-.57-2.79-.19-4.23.7-2.64,3.32-4.43,5.8-3.9.52.11,1.01.38,1.5.61.85.39,1.6.32,2.07-.21.55-.62.52-1.21.07-2.12-.18-.36-.25-.91-.11-1.26.68-1.65,1.78-2.98,3.57-3.48,1.35-.38,2.63-.16,3.79.72.41.31.95.59,1.45.61.89.05,1.34-.57,1.59-1.39.64-2.1,2.07-3.38,4.23-3.76,1.15-.2,2.3-.13,3.42.3.74.28,1.36.7,1.74,1.43.36.7.89,1.17,1.73,1.05.81-.12,1.14-.75,1.5-1.41.3-.54.78-1.09,1.32-1.36,2.82-1.45,5.68-1.47,8.4.24.76.47,1.32,1.25,2.03,1.93-.82.63-1.47,1.16-2.15,1.63-.15.11-.44.1-.64.04-3.15-.95-5.9-.03-8.42,1.84-.52.39-.89.53-1.54.17-2.37-1.33-4.87-1.43-7.41-.49-1.25.46-1.62,1.44-.95,2.46.4.62.98.73,1.66.64,1.05-.14,2.11-.28,3.16-.32.5-.02,1.03.13,1.52.29.15.05.33.43.28.59-.17.56-.39,1.12-.7,1.61-.14.21-.55.35-.84.35-2.44-.05-4.79.34-7,1.41-.71.34-1.39.74-2,1.07Zm-11.36,5.23c0-1.22-.38-2.84-1.19-4.34-.48-.89-1.15-1.17-1.95-.9-1.16.4-1.47,1.31-.88,2.58,1.45,3.13.75,6.47-1.9,8.65-.87.71-1.89,1.23-2.84,1.84-.86.54-1.12,1.2-.78,1.92.48,1,1.17,1.35,2.14.97,4.32-1.7,7.36-5.67,7.4-10.71Z"/>
              <path class="designer-5" d="m91.31,111.79c1.22,1.01,2.47,1.74,3.93,1.99.82.14,1.67.13,2.51.19,2.03.14,3.05,1.5,2.6,3.5-.13.57-.32,1.13-.46,1.7-.24.95.03,1.54.86,1.87.88.35,1.68.14,2.08-.7,1.09-2.31,1.36-5.28-.48-7.52-1.25-1.52-2.97-2.08-4.87-2.2-.43-.03-.86,0-1.29-.04-1.86-.13-3.59-1.72-4.31-3.94-.47-1.46.16-3.31,1.53-4.43.23-.19.48-.34.74-.48.52-.29.89-.2,1.22.36,1.33,2.27,3.01,4.19,5.45,5.34,2.88,1.35,5.78,1.29,8.73.3.39-.13.78-.28,1.18-.32.26-.02.69.08.78.25.1.2-.02.63-.2.81-1.63,1.74-2.69,3.77-3.01,6.12-.12.88-.1,1.82.05,2.7.1.61-.08.93-.5,1.26-1.63,1.3-2.68,2.99-3.27,4.97-.44,1.46-.49,2.95-.33,4.45.07.66-.13.92-.79,1.01-4.99.67-8.77-4.39-7.15-8.49.3-.76.39-1.51-.3-2.12-.43-.38-.91-.6-1.5-.37-.74.3-1.35.07-1.94-.41-1.44-1.19-2.19-2.64-1.79-4.54.09-.42.33-.82.53-1.27Z"/>
            </g>
            <path class="designer-2" d="m144.52,119.93c.01-5.04,3.2-8.75,8.49-9.75,2.13-.4,4.31-.58,6.45-.94,1.16-.19,2.3-.51,3.42-.85,1.42-.43,2.43-1.36,3.08-2.7.16-.32.33-.64.53-.95.44-.68,1.21-.89,1.95-.55.77.36,1.13,1.12.84,1.91-1.04,2.85-3.03,4.75-5.94,5.61-1.36.4-2.77.65-4.17.94-.86.18-1.11.41-.82,1.24.18.52.54,1.05.96,1.41.51.43,1.15.71,1.76,1.02.77.39,1.12,1.17.85,1.98-.22.66-.99,1.11-1.75,1-2.3-.32-4.92-2.95-5.16-5.27-.07-.69-.3-.81-.94-.69-1.55.31-3.03.76-4.26,1.81-1.81,1.53-2.2,3.53-1.85,5.73.13.83.48,1.65.82,2.43.36.82.24,1.65-.43,2.12-.68.48-1.56.4-2.15-.27-1.11-1.26-1.57-2.78-1.69-4.42-.02-.27,0-.54,0-.82Z"/>
            <path class="designer-2" d="m151.58,92.22c.98-.71,1.94-1.38,2.86-2.11.17-.13.19-.5.21-.76.18-2.4.62-4.74,1.97-6.78.56-.84,1.28-1.58,1.99-2.3.3-.31.76-.5,1.18-.64.79-.28,1.4-.05,1.76.59.46.79.41,1.58-.28,2.08-2.8,2.04-3.36,4.97-3.29,8.14.02.92-.22,1.54-1.05,2-1.52.84-2.88,1.9-3.98,3.25-.22.27-.36.67-.41,1.03-.13.92-.15,1.85-.28,2.77-.12.89-.94,1.5-1.78,1.41-.92-.1-1.47-.82-1.4-1.82.11-1.74.21-3.49-.45-5.17-1.02-2.59-3-3.9-5.69-4.21-.92-.11-1.86-.02-2.79-.02-1.14,0-1.8-.52-1.91-1.5-.1-.85.46-1.51,1.59-1.69,4-.65,9.05.91,11.3,4.99.13.24.28.46.45.75Z"/>
            <path class="designer-2" d="m136.88,114.4s0-.25,0-.48c0-1.13.38-1.59,1.42-1.68.98-.09,1.57.37,1.78,1.37.9,4.4-2.39,8.79-6.96,9.37-2.02.26-3.84-.28-5.65-1.08-.98-.44-2.01-.86-3.06-1.06-3.31-.64-6.11,1.78-6.07,5.15,0,.39.03.77,0,1.16-.06.96-.57,1.47-1.49,1.51-.82.04-1.54-.54-1.67-1.39-.65-4.31,2.02-8.78,6.66-9.7,2.29-.45,4.41.07,6.43,1.11,1.29.66,2.62,1.09,4.1,1.05,2.51-.07,4.87-2.32,4.5-5.34Z"/>
            <path class="designer-2" d="m134.65,93.61c3.88.21,7.21,1.61,9.06,5.39,1.42,2.89.98,5.83-.27,8.68-.37.84-1.18,1.08-2,.73-.83-.36-1.16-1.05-.91-1.93.2-.7.41-1.39.58-2.09.83-3.43-.89-6.24-4.33-7.12-2.77-.71-5.3-.07-7.69,1.31-2.24,1.3-4.35,2.79-6.03,4.81-.72.86-1.49.89-2.38.18-.67-.53-.73-1.34-.13-2.18,1.17-1.63,2.76-2.81,4.36-3.97,2.38-1.73,4.91-3.17,7.88-3.64.58-.09,1.17-.1,1.87-.16Z"/>
            <path class="designer-2" d="m131.22,130.78c.18-1.8,1.14-3.27,2.65-4.37,2.23-1.64,4.79-2.08,7.49-1.84,1.08.1,1.59.73,1.53,1.7-.06.99-.61,1.45-1.71,1.54-1.28.1-2.59.14-3.83.43-1.58.37-2.57,1.44-2.86,3.1-.19,1.13-.76,1.63-1.74,1.59-.88-.04-1.37-.6-1.5-1.7-.01-.11-.01-.23-.03-.45Z"/>
            <path class="designer-2" d="m113.11,88.47c-.04,5.03-3.08,9.01-7.4,10.71-.97.38-1.66.04-2.14-.97-.34-.72-.07-1.38.78-1.92.95-.6,1.98-1.12,2.84-1.84,2.65-2.18,3.35-5.52,1.9-8.65-.59-1.28-.28-2.18.88-2.58.8-.27,1.47.01,1.95.9.81,1.5,1.19,3.12,1.19,4.34Z"/>
          </g>
          <path class="designer-15" d="m164.11,90.89c-29.62,3.72-41.25,26.55-62.65,24.19-7.44-.82-17.84-4.88-29.33-20.28-.31,2.17-.6,5.04-.61,8.43-.04,7.48,1.27,13.6,2.41,17.59,2.9,10.19,7.69,17.23,10.07,20.41,1.9,2.54,6.32,8.04,13.42,13.19,3.92,2.84,17.48,12.38,37.33,12.37,15.08-.01,26.65-5.53,33.19-9.61,3.52-2.19,10.8-7.22,17.38-16.04,6.07-8.15,8.69-15.72,9.61-18.66.76-2.42,2.9-9.8,2.8-19.58-.03-3.2-.3-5.88-.55-7.82-7.78-2.85-19.47-5.88-33.06-4.18Z"/>
          <g>
            <circle class="designer-6" cx="166.8" cy="128.32" r="6.52"/>
            <circle class="designer-6" cx="171.98" cy="144.83" r="3.98"/>
            <circle class="designer-6" cx="159.04" cy="150.21" r="2.49"/>
          </g>
          <ellipse class="designer-7" cx="159.14" cy="58.18" rx="11.39" ry="27.95" transform="translate(33.18 171.51) rotate(-62.06)"/>
          <ellipse class="designer-8" cx="163.61" cy="54.38" rx="6" ry="19.05" transform="translate(34.71 168.88) rotate(-60)"/>
          <g>
            <circle class="designer-6" cx="98.78" cy="141.29" r="4.79"/>
            <circle class="designer-6" cx="94.36" cy="130.82" r="2.2"/>
          </g>
          <path class="designer-2" d="m123.03,167.2l9.39,5.31c.96.54,2.14.54,3.1,0l9.4-5.32c.5-.28.87-.67,1.13-1.11-.25-.58-.68-1.09-1.29-1.44-3.08-1.76-6.15-3.53-9.23-5.29-.95-.55-2.12-.55-3.08,0-3.08,1.76-6.17,3.53-9.25,5.29-.62.35-1.05.87-1.3,1.44.26.44.63.83,1.13,1.11Z"/>
          <path class="designer-2" d="m123.03,42.64l9.39,5.31c.96.54,2.14.54,3.1,0l9.4-5.32c.5-.28.87-.67,1.13-1.11-.25-.58-.68-1.09-1.29-1.44-3.08-1.76-6.15-3.53-9.23-5.29-.95-.55-2.12-.55-3.08,0-3.08,1.76-6.17,3.53-9.25,5.29-.62.35-1.05.87-1.3,1.44.26.44.63.83,1.13,1.11Z"/>
          <path class="designer-2" d="m71.37,92.71l-5.31,9.39c-.54.96-.54,2.14,0,3.1l5.32,9.4c.28.5.67.87,1.11,1.13.58-.25,1.09-.68,1.44-1.29,1.76-3.08,3.53-6.15,5.29-9.23.55-.95.55-2.12,0-3.08-1.76-3.08-3.53-6.17-5.29-9.25-.35-.62-.87-1.05-1.44-1.3-.44.26-.83.63-1.11,1.13Z"/>
          <path class="designer-2" d="m195.92,92.59l-5.31,9.39c-.54.96-.54,2.14,0,3.1l5.32,9.4c.28.5.67.87,1.11,1.13.58-.25,1.09-.68,1.44-1.29,1.76-3.08,3.53-6.15,5.29-9.23.55-.95.55-2.12,0-3.08-1.76-3.08-3.53-6.17-5.29-9.25-.35-.62-.87-1.05-1.44-1.3-.44.26-.83.63-1.11,1.13Z"/>
        </g>
      </g>
    </g>
  </g>
</svg>