<?xml version="1.0" encoding="UTF-8"?>
<svg id="Calque_2" data-name="Calque 2" xmlns="http://www.w3.org/2000/svg" xmlns:xlink="http://www.w3.org/1999/xlink" viewBox="0 0 268 268">
  <defs>
    <style>
      .search-1 {
        fill: url(#gradient-search_7-2);
        filter: url(#search-shadow-2);
      }

      .search-2 {
        fill: url(#gradient-search_16);
      }

      .search-3 {
        fill: url(#gradient-search_6-2);
      }

      .search-4 {
        fill: #34a379;
      }

      .search-5 {
        opacity: .51;
      }

      .search-5, .search-6 {
        fill: #d2ffec;
      }

      .search-7 {
        fill: #45eda5;
      }

      .search-8, .search-9, .search-10 {
        fill: #b6ffe1;
      }

      .search-11, .search-12 {
        fill: #f3fffa;
      }

      .search-13 {
        fill: url(#gradient-search_7);
        filter: url(#search-shadow-1);
      }

      .search-14 {
        clip-path: url(#clippath-search);
      }

      .search-15 {
        fill: none;
      }

      .search-9 {
        opacity: .13;
      }

      .search-16 {
        fill: url(#gradient-search_13);
      }

      .search-17 {
        fill: #2a2d49;
      }

      .search-18 {
        fill: #4e5789;
      }

      .search-19 {
        fill: url(#gradient-search_10-2);
      }

      .search-20 {
        fill: url(#gradient-search_6);
      }

      .search-10 {
        opacity: .29;
      }

      .search-21 {
        fill: url(#gradient-search_10);
      }

      .search-12 {
        opacity: .53;
      }
    </style>
    <clipPath id="clippath-search">
      <rect class="search-15" width="268" height="268"/>
    </clipPath>
    <linearGradient id="gradient-search_7" data-name="Dégradé sans nom 7" x1="-321.48" y1="-253.45" x2="-465.43" y2="-253.45" gradientTransform="translate(-269.41 -168.57) rotate(-180)" gradientUnits="userSpaceOnUse">
      <stop offset=".28" stop-color="#393d5b"/>
      <stop offset=".57" stop-color="#45eda5"/>
      <stop offset=".86" stop-color="#393d5b"/>
    </linearGradient>
    <filter id="search-shadow-1" filterUnits="userSpaceOnUse">
      <feOffset dx="0" dy="4.4"/>
      <feGaussianBlur result="blur" stdDeviation="3.52"/>
      <feFlood flood-color="#000" flood-opacity=".5"/>
      <feComposite in2="blur" operator="in"/>
      <feComposite in="SourceGraphic"/>
    </filter>
    <linearGradient id="gradient-search_6" data-name="Dégradé sans nom 6" x1="-436.82" y1="-318.21" x2="-334.73" y2="-148.85" gradientTransform="translate(-269.41 -168.57) rotate(-180)" gradientUnits="userSpaceOnUse">
      <stop offset=".2" stop-color="#393d5b"/>
      <stop offset=".48" stop-color="#45eda5"/>
      <stop offset=".86" stop-color="#393d5b"/>
    </linearGradient>
    <linearGradient id="gradient-search_10" data-name="Dégradé sans nom 10" x1="-374.69" y1="-273.16" x2="-426.32" y2="-273.6" gradientTransform="translate(-269.41 -168.57) rotate(-180)" gradientUnits="userSpaceOnUse">
      <stop offset=".28" stop-color="#393d5b"/>
      <stop offset=".56" stop-color="#34a379"/>
      <stop offset=".86" stop-color="#393d5b"/>
    </linearGradient>
    <linearGradient id="gradient-search_13" data-name="Dégradé sans nom 13" x1="-382.79" y1="-254.95" x2="-420.05" y2="-255.24" gradientTransform="translate(-269.41 -168.57) rotate(-180)" gradientUnits="userSpaceOnUse">
      <stop offset=".28" stop-color="#393d5b"/>
      <stop offset=".56" stop-color="#45eda5"/>
      <stop offset=".86" stop-color="#393d5b"/>
    </linearGradient>
    <linearGradient id="gradient-search_7-2" data-name="Dégradé sans nom 7" x1="215.94" y1="183.11" x2="71.98" y2="183.11" gradientTransform="matrix(1,0,0,1,0,0)" xlink:href="#gradient-search_7"/>
    <filter id="search-shadow-2" filterUnits="userSpaceOnUse">
      <feOffset dx="0" dy="4.4"/>
      <feGaussianBlur result="blur-2" stdDeviation="3.52"/>
      <feFlood flood-color="#000" flood-opacity=".5"/>
      <feComposite in2="blur-2" operator="in"/>
      <feComposite in="SourceGraphic"/>
    </filter>
    <linearGradient id="gradient-search_6-2" data-name="Dégradé sans nom 6" x1="100.59" y1="118.36" x2="202.69" y2="287.72" gradientTransform="matrix(1,0,0,1,0,0)" xlink:href="#gradient-search_6"/>
    <linearGradient id="gradient-search_10-2" data-name="Dégradé sans nom 10" x1="162.73" y1="163.41" x2="111.09" y2="162.97" gradientTransform="matrix(1,0,0,1,0,0)" xlink:href="#gradient-search_10"/>
    <linearGradient id="gradient-search_16" data-name="Dégradé sans nom 16" x1="154.62" y1="181.62" x2="117.36" y2="181.32" gradientUnits="userSpaceOnUse">
      <stop offset=".2" stop-color="#393d5b"/>
      <stop offset=".56" stop-color="#45eda5"/>
      <stop offset=".86" stop-color="#393d5b"/>
    </linearGradient>
  </defs>
  <g id="Calque_2-2" data-name="Calque 2">
    <g class="search-14">
      <g>
        <g>
          <path class="search-17" d="m189.71,133.49h0c.01-8.97,2.1-19.26,7.74-30.66,11.49-23.22-26.18-22.15-63.44-16.21-37.26-5.94-74.93-7.01-63.44,16.21,5.64,11.4,7.72,21.69,7.74,30.66h0c-.01,8.97-2.1,19.26-7.74,30.66-11.49,23.22,26.18,22.15,63.44,16.21,37.26,5.94,74.93,7.01,63.44-16.21-5.64-11.4-7.72-21.69-7.74-30.66Z"/>
          <g>
            <g>
              <g>
                <path class="search-13" d="m65.45,94.93c.31,1.67,1.63,2.71,2.29,3.16,6.07,3.45,12.31,7,18.37,10.46,11.1,6.32,29.93,17.09,40.37,23.06,4.66,2.67,10.37,2.67,15.03,0,10.43-5.97,29.26-16.74,40.36-23.06,6.06-3.45,12.31-7.01,18.37-10.46.66-.45,1.99-1.5,2.29-3.16.04-.2.06-.39.06-.58v-19.03c0-1.33-.72-2.55-1.87-3.2-20.27-11.47-40.55-22.94-60.82-34.4-3.67-2.08-8.17-2.08-11.84,0-20.27,11.47-40.55,22.94-60.82,34.4-1.15.65-1.87,1.88-1.87,3.2v19.03c0,.19.02.38.06.58Z"/>
                <g>
                  <path class="search-8" d="m199.94,96.63c-19.46,11.13-38.93,22.26-58.39,33.39-4.58,2.62-10.19,2.61-14.77,0-19.42-11.13-38.83-22.25-58.25-33.38-1.66-.95-1.65-3.34.01-4.28l59.96-33.92c3.56-2.01,7.91-2.01,11.47,0l59.95,33.92c1.66.94,1.67,3.33,0,4.28Z"/>
                  <path class="search-20" d="m198.59,96.2c-19.09,10.79-38.19,21.58-57.28,32.37-4.43,2.5-9.85,2.5-14.28,0-19.05-10.79-38.1-21.58-57.14-32.37-1.24-.7-1.23-2.48,0-3.17l58.8-32.88c3.45-1.93,7.65-1.93,11.1,0l58.8,32.88c1.24.69,1.24,2.48,0,3.17Z"/>
                  <g>
                    <path class="search-17" d="m164.52,102.04c-8.67,4.95-17.33,9.91-26,14.86-2.68,1.53-5.97,1.53-8.65,0-8.64-4.95-17.28-9.9-25.93-14.86-5.85-3.35-5.83-11.8.04-15.13l25.97-14.69c2.66-1.5,5.91-1.5,8.57,0l25.95,14.68c5.87,3.32,5.89,11.78.03,15.13Z"/>
                    <path class="search-21" d="m164.52,96.9c-8.67,4.95-17.33,9.91-26,14.86-2.68,1.53-5.97,1.53-8.65,0-8.64-4.95-17.28-9.9-25.93-14.86-2.06-1.18-3.37-2.99-3.98-4.98-1.12,3.66.2,7.96,3.98,10.12,8.64,4.95,17.28,9.9,25.93,14.86,2.68,1.53,5.97,1.54,8.65,0,8.67-4.95,17.33-9.91,26-14.86,3.79-2.17,5.1-6.46,3.99-10.13-.61,2-1.93,3.81-3.99,4.99Z"/>
                    <path class="search-4" d="m152.41,92.54l-15.59-8.82c-1.6-.9-3.55-.9-5.15,0l-15.6,8.83c-.83.47-1.44,1.11-1.88,1.84.42.96,1.13,1.81,2.15,2.39,5.11,2.93,10.21,5.85,15.32,8.78,1.58.91,3.53.91,5.11,0,5.12-2.93,10.24-5.86,15.36-8.78,1.02-.59,1.74-1.44,2.15-2.4-.44-.73-1.05-1.37-1.88-1.84Z"/>
                    <path class="search-16" d="m116.28,92.48l15.42-8.72c1.58-.89,3.51-.89,5.09,0l15.41,8.72c.32.18.76.47,1.2.93.4.42.66.85.82,1.16.12-.31,1.15-3.06-.4-5.26-.5-.72-1.13-1.16-1.62-1.42l-15.41-8.72c-1.58-.89-3.51-.89-5.09,0l-15.42,8.72c-.48.26-1.11.7-1.62,1.42-1.52,2.15-.57,4.81-.45,5.13.21-.31.5-.67.88-1.03.43-.41.85-.72,1.2-.93Z"/>
                  </g>
                </g>
              </g>
              <g>
                <ellipse class="search-17" cx="147.16" cy="94.96" rx="2.69" ry="1.78"/>
                <ellipse class="search-4" cx="147.16" cy="94.96" rx="1.59" ry="1.05"/>
                <ellipse class="search-7" cx="147.16" cy="95.55" rx="1.59" ry="1.05"/>
                <ellipse class="search-8" cx="147.16" cy="96.14" rx="1.59" ry="1.05"/>
              </g>
              <g>
                <ellipse class="search-17" cx="134.17" cy="94.52" rx="8.06" ry="5.35"/>
                <ellipse class="search-4" cx="134.17" cy="94.52" rx="4.76" ry="3.16"/>
                <ellipse class="search-7" cx="134.17" cy="96.28" rx="4.76" ry="3.16"/>
                <ellipse class="search-8" cx="134.17" cy="98.04" rx="4.76" ry="3.16"/>
              </g>
              <g>
                <ellipse class="search-17" cx="121.19" cy="94.96" rx="2.69" ry="1.78"/>
                <ellipse class="search-4" cx="121.19" cy="94.96" rx="1.59" ry="1.05"/>
                <ellipse class="search-7" cx="121.19" cy="95.55" rx="1.59" ry="1.05"/>
                <ellipse class="search-8" cx="121.19" cy="96.14" rx="1.59" ry="1.05"/>
              </g>
            </g>
            <g>
              <g>
                <g>
                  <path class="search-1" d="m202.55,173.07c-.31-1.67-1.63-2.71-2.29-3.16-6.07-3.45-12.31-7-18.37-10.46-11.1-6.32-29.93-17.09-40.37-23.06-4.66-2.67-10.37-2.67-15.03,0-10.43,5.97-29.26,16.74-40.36,23.06-6.06,3.45-12.31,7.01-18.37,10.46-.66.45-1.99,1.5-2.29,3.16-.04.2-.06.39-.06.58v19.03c0,1.33.72,2.55,1.87,3.2,20.27,11.47,40.55,22.94,60.82,34.4,3.67,2.08,8.17,2.08,11.84,0,20.27-11.47,40.55-22.94,60.82-34.4,1.15-.65,1.87-1.88,1.87-3.2v-19.03c0-.19-.02-.38-.06-.58Z"/>
                  <g>
                    <path class="search-8" d="m68.06,171.37c19.46-11.13,38.93-22.26,58.39-33.39,4.58-2.62,10.19-2.61,14.77,0,19.42,11.13,38.83,22.25,58.25,33.38,1.66.95,1.65,3.34-.01,4.28l-59.96,33.92c-3.56,2.01-7.91,2.01-11.47,0l-59.95-33.92c-1.66-.94-1.67-3.33,0-4.28Z"/>
                    <path class="search-3" d="m69.41,171.8c19.09-10.79,38.19-21.58,57.28-32.37,4.43-2.5,9.85-2.5,14.28,0,19.05,10.79,38.1,21.58,57.14,32.37,1.24.7,1.23,2.48,0,3.17l-58.8,32.88c-3.45,1.93-7.65,1.93-11.1,0l-58.8-32.88c-1.24-.69-1.24-2.48,0-3.17Z"/>
                    <g>
                      <path class="search-17" d="m103.48,165.96c8.67-4.95,17.33-9.91,26-14.86,2.68-1.53,5.97-1.53,8.65,0,8.64,4.95,17.28,9.9,25.93,14.86,5.85,3.35,5.83,11.8-.04,15.13l-25.97,14.69c-2.66,1.5-5.91,1.5-8.57,0l-25.95-14.68c-5.87-3.32-5.89-11.78-.03-15.13Z"/>
                      <path class="search-19" d="m103.48,171.1c8.67-4.95,17.33-9.91,26-14.86,2.68-1.53,5.97-1.53,8.65,0,8.64,4.95,17.28,9.9,25.93,14.86,2.06,1.18,3.37,2.99,3.98,4.98,1.12-3.66-.2-7.96-3.98-10.12-8.64-4.95-17.28-9.9-25.93-14.86-2.68-1.53-5.97-1.54-8.65,0-8.67,4.95-17.33,9.91-26,14.86-3.79,2.17-5.1,6.46-3.99,10.13.61-2,1.93-3.81,3.99-4.99Z"/>
                      <path class="search-4" d="m115.59,175.46l15.59,8.82c1.6.9,3.55.9,5.15,0l15.6-8.83c.83-.47,1.44-1.11,1.88-1.84-.42-.96-1.13-1.81-2.15-2.39-5.11-2.93-10.21-5.85-15.32-8.78-1.58-.91-3.53-.91-5.11,0-5.12,2.93-10.24,5.86-15.36,8.78-1.02.59-1.74,1.44-2.15,2.4.44.73,1.05,1.37,1.88,1.84Z"/>
                      <path class="search-2" d="m151.72,175.52l-15.42,8.72c-1.58.89-3.51.89-5.09,0l-15.41-8.72c-.32-.18-.76-.47-1.2-.93-.4-.42-.66-.85-.82-1.16-.12.31-1.15,3.06.4,5.26.5.72,1.13,1.16,1.62,1.42l15.41,8.72c1.58.89,3.51.89,5.09,0l15.42-8.72c.48-.26,1.11-.7,1.62-1.42,1.52-2.15.57-4.81.45-5.13-.21.31-.5.67-.88,1.03-.43.41-.85.72-1.2.93Z"/>
                    </g>
                  </g>
                  <g>
                    <path class="search-18" d="m197.93,184.51v5.76c0,.27-.15.52-.38.65l-5.04,2.87c-.5.29-1.13-.08-1.13-.65v-5.74c0-.27.14-.52.38-.65l5.04-2.89c.5-.29,1.13.08,1.13.65Z"/>
                    <path class="search-7" d="m199.48,187.76v3.66c0,.17-.09.33-.24.42l-3.2,1.82c-.32.18-.71-.05-.71-.42v-3.64c0-.17.09-.33.24-.42l3.2-1.83c.32-.18.72.05.72.42Z"/>
                  </g>
                  <g>
                    <path class="search-18" d="m187.66,190.16v5.76c0,.27-.15.52-.38.65l-5.04,2.87c-.5.29-1.13-.08-1.13-.65v-5.74c0-.27.14-.52.38-.65l5.04-2.89c.5-.29,1.13.08,1.13.65Z"/>
                    <path class="search-4" d="m189.21,193.41v3.66c0,.17-.09.33-.24.42l-3.2,1.82c-.32.18-.71-.05-.71-.42v-3.64c0-.17.09-.33.24-.42l3.2-1.83c.32-.18.72.05.72.42Z"/>
                  </g>
                  <g>
                    <path class="search-18" d="m177.47,195.77v5.76c0,.27-.15.52-.38.65l-5.04,2.87c-.5.29-1.13-.08-1.13-.65v-5.74c0-.27.14-.52.38-.65l5.04-2.89c.5-.29,1.13.08,1.13.65Z"/>
                    <path class="search-8" d="m179.02,199.02v3.66c0,.17-.09.33-.24.42l-3.2,1.82c-.32.18-.71-.05-.71-.42v-3.64c0-.17.09-.33.24-.42l3.2-1.83c.32-.18.72.05.72.42Z"/>
                  </g>
                </g>
                <path class="search-4" d="m73.23,183.9v3.94c0,.19.1.36.26.45l3.45,1.96c.34.2.77-.05.77-.45v-3.93c0-.18-.1-.36-.26-.45l-3.45-1.97c-.34-.2-.77.05-.77.45Z"/>
                <path class="search-7" d="m78.48,186.84v3.94c0,.19.1.36.26.45l3.45,1.96c.34.2.77-.05.77-.45v-3.93c0-.18-.1-.36-.26-.45l-3.45-1.97c-.34-.2-.77.05-.77.45Z"/>
                <path class="search-8" d="m73.23,189.99v3.94c0,.19.1.36.26.45l3.45,1.96c.34.2.77-.05.77-.45v-3.93c0-.18-.1-.36-.26-.45l-3.45-1.97c-.34-.2-.77.05-.77.45Z"/>
                <path class="search-18" d="m78.48,192.93v3.94c0,.19.1.36.26.45l3.45,1.96c.34.2.77-.05.77-.45v-3.93c0-.18-.1-.36-.26-.45l-3.45-1.97c-.34-.2-.77.05-.77.45Z"/>
              </g>
              <g>
                <ellipse class="search-17" cx="120.84" cy="173.04" rx="2.69" ry="1.78"/>
                <ellipse class="search-4" cx="120.84" cy="173.04" rx="1.59" ry="1.05"/>
                <ellipse class="search-7" cx="120.84" cy="172.45" rx="1.59" ry="1.05"/>
                <ellipse class="search-8" cx="120.84" cy="171.86" rx="1.59" ry="1.05"/>
              </g>
              <g>
                <ellipse class="search-17" cx="133.83" cy="173.48" rx="8.06" ry="5.35"/>
                <ellipse class="search-4" cx="133.83" cy="173.48" rx="4.76" ry="3.16"/>
                <ellipse class="search-7" cx="133.83" cy="171.72" rx="4.76" ry="3.16"/>
                <ellipse class="search-8" cx="133.83" cy="169.96" rx="4.76" ry="3.16"/>
              </g>
              <g>
                <ellipse class="search-17" cx="146.81" cy="173.04" rx="2.69" ry="1.78"/>
                <ellipse class="search-4" cx="146.81" cy="173.04" rx="1.59" ry="1.05"/>
                <ellipse class="search-7" cx="146.81" cy="172.45" rx="1.59" ry="1.05"/>
                <ellipse class="search-8" cx="146.81" cy="171.86" rx="1.59" ry="1.05"/>
              </g>
            </g>
            <g>
              <path class="search-9" d="m134,163.72h-48.18c-4.74,0-7.73-3.72-5.43-6.75l24.23-31.78,23.95-31.42c2.37-3.11,8.48-3.11,10.85,0l23.95,31.42,24.23,31.78c2.31,3.03-.69,6.75-5.43,6.75h-48.18Z"/>
              <path class="search-10" d="m134,161.97h-34.56c-4.86,0-8.22-3.18-6.5-6.15l18.75-32.39,15.81-27.3c2.27-3.91,10.74-3.91,13,0l15.81,27.3,18.75,32.39c1.72,2.97-1.64,6.15-6.5,6.15h-34.56Z"/>
              <path class="search-5" d="m134,160.28h-20.5c-4.08,0-7.05-2.83-6-5.71l12.21-33.54,8.29-22.77c1.64-4.5,10.37-4.5,12,0l8.29,22.77,12.21,33.54c1.05,2.88-1.92,5.71-6,5.71h-20.5Z"/>
            </g>
            <g>
              <path class="search-9" d="m134,104.36h48.18c4.74,0,7.73,3.72,5.43,6.75l-24.23,31.78-23.95,31.42c-2.37,3.11-8.48,3.11-10.85,0l-23.95-31.42-24.23-31.78c-2.31-3.03.69-6.75,5.43-6.75h48.18Z"/>
              <path class="search-10" d="m134,106.11h34.56c4.86,0,8.22,3.18,6.5,6.15l-18.75,32.39-15.81,27.3c-2.27,3.91-10.74,3.91-13,0l-15.81-27.3-18.75-32.39c-1.72-2.97,1.64-6.15,6.5-6.15h34.56Z"/>
              <path class="search-5" d="m134,107.8h20.5c4.08,0,7.05,2.83,6,5.71l-12.21,33.54-8.29,22.77c-1.64,4.5-10.37,4.5-12,0l-8.29-22.77-12.21-33.54c-1.05-2.88,1.92-5.71,6-5.71h20.5Z"/>
            </g>
            <path class="search-6" d="m142.73,114.18l-7.16-15.71c-.62-1.35-2.54-1.35-3.15,0l-7.16,15.71c-.1.23-.16.47-.16.72v38.27c0,.25.05.49.16.72l7.16,15.71c.62,1.35,2.54,1.35,3.15,0l7.16-15.71c.1-.23.16-.47.16-.72v-38.27c0-.25-.05-.49-.16-.72Z"/>
            <path class="search-12" d="m138.98,114.12l-1.81-6.96c-.85-3.26-5.48-3.26-6.33,0l-1.81,6.96c-.07.27-.11.55-.11.83v38.19c0,.28.04.56.11.83l1.81,6.96c.85,3.26,5.48,3.26,6.33,0l1.81-6.96c.07-.27.11-.55.11-.83v-38.19c0-.28-.04-.56-.11-.83Z"/>
            <g>
              <path class="search-11" d="m140.56,156.28c.19-.13.35-.32.41-.57.06-.23.02-.46-.08-.67l3.79-2.48c.13.16.3.29.52.35.53.13,1.07-.19,1.21-.72.13-.53-.19-1.07-.72-1.21-.53-.13-1.07.19-1.21.72-.06.25-.02.49.09.7l-3.78,2.48c-.13-.17-.31-.31-.53-.37-.53-.13-1.07.19-1.21.72-.13.53.19,1.07.72,1.21.22.05.43.02.62-.06l2.12,4.83c-.23.13-.41.34-.48.62-.13.53.19,1.07.72,1.21s1.07-.19,1.21-.72-.19-1.07-.72-1.21c-.19-.05-.37-.02-.54.03l-2.13-4.85Z"/>
              <path class="search-11" d="m144.87,113.2c-.19.04-.34.14-.47.27l-4.06-3.41c.11-.2.17-.44.11-.69-.05-.24-.19-.42-.37-.56l2.3-3.91c.19.09.4.13.62.08.54-.12.88-.64.76-1.18s-.64-.88-1.18-.76c-.54.12-.88.64-.76,1.18.05.25.2.45.39.58l-2.3,3.9c-.19-.1-.42-.14-.64-.09-.54.12-.88.64-.76,1.18.12.54.64.88,1.18.76.22-.05.39-.17.53-.33l4.04,3.39c-.15.22-.21.49-.15.77.12.54.64.88,1.18.76.54-.12.88-.64.76-1.18-.12-.54-.64-.88-1.18-.76Z"/>
              <path class="search-11" d="m139.31,128.64c.36.41.99.45,1.4.09.19-.17.29-.39.32-.62l4.52.1c.01.22.08.43.23.61.36.41.99.45,1.4.09.41-.36.45-.99.09-1.4-.15-.17-.34-.26-.55-.3l.99-5.18c.26.02.53-.05.74-.24.41-.36.45-.99.09-1.4-.36-.41-.99-.45-1.4-.09-.41.36-.45.99-.09,1.4.13.15.29.23.47.28l-.99,5.2c-.23,0-.47.07-.66.24-.18.16-.28.37-.31.59l-4.53-.1c-.02-.21-.08-.41-.23-.58-.36-.41-.99-.45-1.4-.09-.41.36-.45.99-.09,1.4Z"/>
              <path class="search-11" d="m150.7,139.32c-.18-.52-.75-.79-1.27-.61-.24.08-.42.25-.53.46l-4.15-1.79c.07-.21.09-.43.01-.65-.18-.52-.75-.79-1.27-.61s-.79.75-.61,1.27c.07.21.22.37.39.48l-2.86,4.43c-.23-.12-.51-.15-.78-.06-.52.18-.79.75-.61,1.27.18.52.75.79,1.27.61s.79-.75.61-1.27c-.06-.18-.19-.32-.33-.43l2.87-4.45c.22.09.46.11.7.03.23-.08.4-.24.51-.43l4.17,1.79c-.06.2-.08.41,0,.62.18.52.75.79,1.27.61.52-.18.79-.75.61-1.27Z"/>
            </g>
            <g>
              <path class="search-11" d="m127.44,108.76c-.19.13-.35.32-.41.57-.06.23-.02.46.08.67l-3.79,2.48c-.13-.16-.3-.29-.52-.35-.53-.13-1.07.19-1.21.72-.13.53.19,1.07.72,1.21.53.13,1.07-.19,1.21-.72.06-.25.02-.49-.09-.7l3.78-2.48c.13.17.31.31.53.37.53.13,1.07-.19,1.21-.72.13-.53-.19-1.07-.72-1.21-.22-.05-.43-.02-.62.06l-2.12-4.83c.23-.13.41-.34.48-.62.13-.53-.19-1.07-.72-1.21s-1.07.19-1.21.72.19,1.07.72,1.21c.19.05.37.02.54-.03l2.13,4.85Z"/>
              <path class="search-11" d="m123.13,151.84c.19-.04.34-.14.47-.27l4.06,3.41c-.11.2-.17.44-.11.69.05.24.19.42.37.56l-2.3,3.91c-.19-.09-.4-.13-.62-.08-.54.12-.88.64-.76,1.18s.64.88,1.18.76c.54-.12.88-.64.76-1.18-.05-.25-.2-.45-.39-.58l2.3-3.9c.19.1.42.14.64.09.54-.12.88-.64.76-1.18-.12-.54-.64-.88-1.18-.76-.22.05-.39.17-.53.33l-4.04-3.39c.15-.22.21-.49.15-.77-.12-.54-.64-.88-1.18-.76-.54.12-.88.64-.76,1.18.12.54.64.88,1.18.76Z"/>
              <path class="search-11" d="m128.68,136.4c-.36-.41-.99-.45-1.4-.09-.19.17-.29.39-.32.62l-4.52-.1c-.01-.22-.08-.43-.23-.61-.36-.41-.99-.45-1.4-.09-.41.36-.45.99-.09,1.4.15.17.34.26.55.3l-.99,5.18c-.26-.02-.53.05-.74.24-.41.36-.45.99-.09,1.4.36.41.99.45,1.4.09.41-.36.45-.99.09-1.4-.13-.15-.29-.23-.47-.28l.99-5.2c.23,0,.47-.07.66-.24.18-.16.28-.37.31-.59l4.53.1c.02.21.08.41.23.58.36.41.99.45,1.4.09.41-.36.45-.99.09-1.4Z"/>
              <path class="search-11" d="m117.3,125.72c.18.52.75.79,1.27.61.24-.08.42-.25.53-.46l4.15,1.79c-.07.21-.09.43-.01.65.18.52.75.79,1.27.61s.79-.75.61-1.27c-.07-.21-.22-.37-.39-.48l2.86-4.43c.23.12.51.15.78.06.52-.18.79-.75.61-1.27-.18-.52-.75-.79-1.27-.61s-.79.75-.61,1.27c.06.18.19.32.33.43l-2.87,4.45c-.22-.09-.46-.11-.7-.03-.23.08-.4.24-.51.43l-4.17-1.79c.06-.2.08-.41,0-.62-.18-.52-.75-.79-1.27-.61-.52.18-.79.75-.61,1.27Z"/>
            </g>
            <g>
              <path class="search-17" d="m141.43,120.79l-.57.57c-1.13-.66-2.33-1.15-3.57-1.46v-.75c0-.84-.68-1.53-1.53-1.53h-3.7c-.84,0-1.53.68-1.53,1.53v.77c-1.25.32-2.46.82-3.59,1.49l-.5-.5c-.6-.6-1.56-.6-2.16,0l-2.62,2.62c-.6.6-.6,1.56,0,2.16l.5.5c-.68,1.15-1.18,2.37-1.5,3.63h-.65c-.84,0-1.53.68-1.53,1.53v3.7c0,.84.68,1.53,1.53,1.53h.67c.33,1.27.84,2.5,1.53,3.65l-.44.44c-.6.6-.6,1.56,0,2.16l2.62,2.62c.6.6,1.56.6,2.16,0l.47-.47c1.16.68,2.4,1.18,3.67,1.48v.63c0,.84.68,1.53,1.53,1.53h3.7c.84,0,1.53-.68,1.53-1.53v-.7c1.26-.33,2.47-.85,3.61-1.54l.48.48c.6.6,1.56.6,2.16,0l2.62-2.62c.6-.6.6-1.56,0-2.16l-.53-.53c.66-1.14,1.15-2.36,1.45-3.61h.73c.84,0,1.53-.68,1.53-1.53v-3.7c0-.84-.68-1.53-1.53-1.53h-.8c-.33-1.23-.83-2.43-1.5-3.55l.54-.54c.6-.6.6-1.56,0-2.16l-2.62-2.62c-.6-.6-1.56-.6-2.16,0Zm-1.58,18.28c-3.26,3.26-8.55,3.26-11.81,0s-3.26-8.55,0-11.81,8.55-3.26,11.81,0c3.26,3.26,3.26,8.55,0,11.81Z"/>
              <path class="search-17" d="m150.14,116.98c-3.74.12-14.55.96-22.93,9.34s-9.23,19.19-9.34,22.93c3.74-.12,14.55-.96,22.93-9.34,8.38-8.38,9.23-19.19,9.34-22.93Z"/>
              <path class="search-11" d="m138.64,125.42l-.35.35c-.71-.41-1.46-.72-2.23-.91v-.47c0-.53-.43-.95-.95-.95h-2.31c-.53,0-.95.43-.95.95v.48c-.78.2-1.54.51-2.24.93l-.31-.31c-.37-.37-.98-.37-1.35,0l-1.64,1.64c-.37.37-.37.98,0,1.35l.32.32c-.43.72-.74,1.48-.93,2.27h-.41c-.53,0-.95.43-.95.95v2.31c0,.53.43.95.95.95h.42c.2.79.52,1.56.96,2.28l-.27.27c-.37.37-.37.98,0,1.35l1.64,1.64c.37.37.98.37,1.35,0l.29-.29c.72.42,1.5.73,2.29.93v.39c0,.53.43.95.95.95h2.31c.53,0,.95-.43.95-.95v-.44c.79-.21,1.55-.53,2.26-.96l.3.3c.37.37.98.37,1.35,0l1.64-1.64c.37-.37.37-.98,0-1.35l-.33-.33c.41-.71.72-1.47.91-2.25h.45c.53,0,.95-.43.95-.95v-2.31c0-.53-.43-.95-.95-.95h-.5c-.2-.77-.52-1.52-.94-2.22l.34-.34c.37-.37.37-.98,0-1.35l-1.64-1.64c-.37-.37-.98-.37-1.35,0Z"/>
              <path class="search-4" d="m134,133.12l-6.01,1.93c.31.96.84,1.82,1.55,2.53,2.45,2.45,6.48,2.45,8.92,0,2.45-2.45,2.45-6.48,0-8.92-2.45-2.45-6.48-2.45-8.92,0-.66.66-1.16,1.45-1.48,2.33l5.94,2.14Z"/>
            </g>
          </g>
        </g>
        <g>
          <g>
            <path class="search-18" d="m197.8,83.73v-5.76c0-.27-.15-.52-.38-.65l-5.04-2.87c-.5-.29-1.13.08-1.13.65v5.74c0,.27.14.52.38.65l5.04,2.89c.5.29,1.13-.08,1.13-.65Z"/>
            <path class="search-7" d="m199.35,80.48v-3.66c0-.17-.09-.33-.24-.42l-3.2-1.82c-.32-.18-.71.05-.71.42v3.64c0,.17.09.33.24.42l3.2,1.83c.32.18.72-.05.72-.42Z"/>
          </g>
          <g>
            <path class="search-18" d="m187.54,78.08v-5.76c0-.27-.15-.52-.38-.65l-5.04-2.87c-.5-.29-1.13.08-1.13.65v5.74c0,.27.14.52.38.65l5.04,2.89c.5.29,1.13-.08,1.13-.65Z"/>
            <path class="search-4" d="m189.09,74.83v-3.66c0-.17-.09-.33-.24-.42l-3.2-1.82c-.32-.18-.71.05-.71.42v3.64c0,.17.09.33.24.42l3.2,1.83c.32.18.72-.05.72-.42Z"/>
          </g>
          <g>
            <path class="search-18" d="m177.34,72.47v-5.76c0-.27-.15-.52-.38-.65l-5.04-2.87c-.5-.29-1.13.08-1.13.65v5.74c0,.27.14.52.38.65l5.04,2.89c.5.29,1.13-.08,1.13-.65Z"/>
            <path class="search-8" d="m178.89,69.22v-3.66c0-.17-.09-.33-.24-.42l-3.2-1.82c-.32-.18-.71.05-.71.42v3.64c0,.17.09.33.24.42l3.2,1.83c.32.18.72-.05.72-.42Z"/>
          </g>
        </g>
        <g>
          <path class="search-4" d="m72.15,84.58v-3.94c0-.19.1-.36.26-.45l3.45-1.96c.34-.2.77.05.77.45v3.93c0,.18-.1.36-.26.45l-3.45,1.97c-.34.2-.77-.05-.77-.45Z"/>
          <path class="search-7" d="m77.41,81.64v-3.94c0-.19.1-.36.26-.45l3.45-1.96c.34-.2.77.05.77.45v3.93c0,.18-.1.36-.26.45l-3.45,1.97c-.34.2-.77-.05-.77-.45Z"/>
          <path class="search-8" d="m72.15,78.48v-3.94c0-.19.1-.36.26-.45l3.45-1.96c.34-.2.77.05.77.45v3.93c0,.18-.1.36-.26.45l-3.45,1.97c-.34.2-.77-.05-.77-.45Z"/>
          <path class="search-18" d="m77.41,75.54v-3.94c0-.19.1-.36.26-.45l3.45-1.96c.34-.2.77.05.77.45v3.93c0,.18-.1.36-.26.45l-3.45,1.97c-.34.2-.77-.05-.77-.45Z"/>
        </g>
      </g>
    </g>
  </g>
</svg>